<svg xmlns="http://www.w3.org/2000/svg" width="77.205" height="77.205" viewBox="0 0 77.205 77.205"><defs><linearGradient x1="212.704" y1="152.704" x2="267.296" y2="207.296" gradientUnits="userSpaceOnUse" id="a"><stop offset="0" stop-color="#00994f"/><stop offset="1" stop-color="#007899"/></linearGradient><linearGradient x1="215.894" y1="155.894" x2="264.106" y2="204.106" gradientUnits="userSpaceOnUse" id="b"><stop offset="0" stop-color="#00ff84"/><stop offset="1" stop-color="#00c9ff"/></linearGradient></defs><g stroke-miterlimit="10"><path d="M212.704 207.296c-15.075-15.075-15.075-39.517 0-54.592s39.517-15.075 54.592 0 15.075 39.517 0 54.592-39.517 15.075-54.592 0" fill="url(#a)" transform="translate(-201.398 -141.398)"/><path d="M215.894 204.106c-13.313-13.314-13.313-34.898 0-48.212s34.898-13.313 48.212 0 13.313 34.898 0 48.212-34.898 13.313-48.212 0" fill="url(#b)" transform="translate(-201.398 -141.398)"/><path d="m47.634 37.324-7-5.694 14.527-12.765s1.35-1.424 2.316-1.01c1.561.668.865 2.288.865 2.288zM17.425 51.989c.485-.488 1.033-.906 1.55-1.36l4.917-4.313 4.896-4.295 7.979 12.713s-.031.092-.246.437c-.457.735-.747 1.503-1.412 2.104-1.459 1.315-3.52 1.91-5.413 2.229-2.482.42-5.088.401-7.56-.076-1.819-.352-3.81-.974-5.163-2.307-.482-.475-.87-1.063-1.001-1.736a2.64 2.64 0 0 1 .054-1.234c.133-.463.629-1.39 1.399-2.162m8.82-.14c-4.407 0-7.98 1.368-7.98 3.056s3.573 3.056 7.98 3.056 7.98-1.368 7.98-3.056-3.573-3.056-7.98-3.056m31.816-1.369 1.484 1.302c.54.473.969 1.051 1.33 1.67q.001.006.005.01c.25.429.4.914.4 1.412 0 3.273-4.876 4.502-7.336 4.732-3.706.347-8.136.264-11.21-1.835-1.008-.689-1.434-1.613-2.042-2.59l-1.637-2.63Q31.99 41.208 24.928 29.863l-6.534-10.495c-.623-.998 1.167-2.66 2.311-1.657l8.703 7.634 21.715 19.048zm-6.99 1.369c-4.407 0-7.98 1.368-7.98 3.056s3.573 3.056 7.98 3.056 7.98-1.368 7.98-3.056-3.573-3.056-7.98-3.056" fill="#fff"/></g></svg>
