<svg xmlns="http://www.w3.org/2000/svg" xmlns:xlink="http://www.w3.org/1999/xlink" width="300" height="250" viewBox="0,0,299.50917,249.15504" preserveAspectRatio="none"><g transform="translate(-235.24541,-55.42248)"><g stroke-miterlimit="10"><path d="M250.42812,303.51921c-8.40364,-0.03308 -15.20113,-7.89699 -15.18267,-17.56447l0.4066,-213.08756c0.01845,-9.66748 6.84586,-17.47768 15.24947,-17.4446l268.67036,1.0582c8.40364,0.03308 15.20112,7.89698 15.18267,17.56447l-0.40656,213.08756c-0.01846,9.66748 -6.84586,17.47769 -15.24947,17.4446z" fill="#fafafa" stroke="none" stroke-width="0" stroke-linecap="butt" stroke-linejoin="miter"></path><g stroke="none" stroke-linecap="butt" stroke-linejoin="miter"><path d="M478.87521,180.72132c-20.69206,1.20346 -38.48558,-15.94757 -39.7429,-38.30791c-1.25733,-22.36032 14.49763,-41.46256 35.18972,-42.666c20.69206,-1.20345 38.48557,15.94756 39.7429,38.3079c1.25733,22.36032 -14.49763,41.46256 -35.1897,42.666z" fill="#fff" stroke-width="0"></path><path d="M488.44956,141.26919c-0.00441,-0.03464 -0.00771,-0.07059 -0.00981,-0.10798c-0.05811,-1.03374 0.91501,-1.09032 0.91501,-1.09032c8.27502,-0.48127 12.51172,-4.79529 14.61971,-13.34683c0.21231,-0.52625 1.10356,-3.88012 1.53791,-4.07722c2.68914,-1.22039 5.0765,6.23832 6.48969,7.81505c3.2826,3.66245 6.90517,4.34439 11.28309,5.61462c0.66321,0.19414 3.91257,1.13746 4.00251,1.89565c0.29662,2.50014 -3.18491,3.03108 -4.53535,3.85366c-5.38366,3.27922 -7.94115,6.88288 -10.90408,12.25787c-0.4201,1.72701 -0.35149,5.81762 -2.97736,5.13932c-0.87327,-0.22558 -2.59462,-5.58398 -3.0849,-6.51524c-1.72182,-3.27045 -5.82037,-6.01003 -9.05505,-6.94859c-2.05849,-1.2868 -4.55574,-1.99024 -6.86369,-2.65989l-1.08195,-0.87902c0,0 -0.43283,-0.41013 -0.3357,-0.95096z" fill="#4285f0" stroke-width="0.5"></path><path d="M457.1044,191.6024c-12.18234,0.70853 -22.63496,-8.97624 -23.34658,-21.63154c-0.71161,-12.65532 8.58726,-23.48881 20.76959,-24.19734c12.18234,-0.70853 22.63495,8.97624 23.34657,21.63154c0.71161,12.65532 -8.58725,23.48882 -20.76958,24.19738z" fill="#f9bd15" stroke-width="0"></path><path d="M433.32134,133.92344c-0.00174,-0.01382 -0.00307,-0.02814 -0.00392,-0.04307c-0.02318,-0.4123 0.36496,-0.43487 0.36496,-0.43487c3.30047,-0.19195 4.99025,-1.91258 5.83101,-5.32335c0.08467,-0.2099 0.44015,-1.54759 0.61338,-1.62618c1.07253,-0.48674 2.02475,2.48815 2.58838,3.11701c1.30927,1.46076 2.75409,1.73274 4.50021,2.23936c0.26452,0.07743 1.5605,0.45367 1.59638,0.75608c0.11831,0.99717 -1.27028,1.20894 -1.80889,1.53699c-2.14725,1.30792 -3.16731,2.74523 -4.34905,4.88899c-0.16756,0.68882 -0.14018,2.32033 -1.18754,2.04979c-0.34829,-0.08995 -1.03483,-2.22714 -1.2304,-2.59856c-0.68676,-1.3044 -2.3214,-2.39706 -3.61158,-2.77141c-0.82101,-0.51323 -1.81705,-0.79381 -2.73756,-1.0609l-0.43154,-0.3506c0,0 -0.17265,-0.16358 -0.13389,-0.37928z" fill="#32d153" stroke-width="0.5"></path><path d="M455.31564,102.5679c-0.00174,-0.01383 -0.00308,-0.02814 -0.00393,-0.04308c-0.02318,-0.4123 0.36496,-0.43485 0.36496,-0.43485c3.30047,-0.19195 4.99024,-1.91258 5.83101,-5.32335c0.08467,-0.2099 0.44016,-1.54756 0.61338,-1.62618c1.07253,-0.48674 2.02474,2.48815 2.58838,3.11699c1.30927,1.46076 2.75409,1.73272 4.50021,2.23937c0.26452,0.07745 1.56051,0.45366 1.59639,0.75606c0.11831,0.99717 -1.27029,1.20895 -1.80889,1.537c-2.14725,1.30792 -3.16729,2.74523 -4.34905,4.88899c-0.16756,0.68882 -0.14018,2.32032 -1.18754,2.04978c-0.34829,-0.08995 -1.03483,-2.22716 -1.23041,-2.59858c-0.68676,-1.3044 -2.3214,-2.39706 -3.61158,-2.77141c-0.82101,-0.51325 -1.81705,-0.79381 -2.73756,-1.06089l-0.43153,-0.35062c0,0 -0.17267,-0.16358 -0.1339,-0.3793z" fill="#e84236" stroke-width="0.5"></path><g><path d="M466.23674,162.44755c0.49485,-0.02877 0.93291,0.29399 1.09802,0.76342l0.05761,0.15285c0.3888,-0.21975 0.75136,-0.39355 0.91189,-0.50106c3.26068,-2.18438 5.88487,-4.93364 9.3895,-6.60798l-0.01402,-0.00407c-5.53577,-1.60617 -10.09393,-5.64983 -15.55661,-7.43929c0.0125,0.20238 0.03508,0.39745 0.06869,0.58432c0.38032,2.11376 3.25358,9.16162 3.89536,13.07134c0.04869,-0.00996 0.09864,-0.01656 0.14959,-0.01953zM478.25078,153.99305l0.35471,0.10291c0.49582,-2.79247 1.81395,-5.51718 2.59036,-8.16622c1.45324,-4.9585 1.65694,-10.30083 3.58107,-15.1004c1.23691,-4.94052 3.50839,-9.41024 4.68897,-14.26344l0.36151,-0.54587c0.09677,-0.24236 0.27285,-0.41003 0.41547,-0.5135c0.01425,-0.01078 0.02921,-0.02175 0.04483,-0.03269c-1.01068,-0.235 -4.44918,-1.56814 -5.21155,-1.91828c-1.11057,-0.51002 -8.45675,-4.01945 -10.68894,-5.27234c0.60607,1.01335 0.40853,3.55738 0.45723,4.42345l0.04379,0.77905c0,0 0.03867,0.68788 -0.44016,1.037c-1.43111,7.27505 -7.4161,14.4534 -8.63382,21.73602c-0.77628,2.48491 -2.81787,6.74357 -3.48709,10.18041c5.6276,1.75299 10.27985,5.91639 15.92364,7.55389zM472.35259,106.03858c4.90321,0.25001 9.17199,3.34051 13.57214,5.36128c1.27001,0.58326 4.91718,1.52 5.84494,2.51711c0.60714,0.65254 1.36608,1.50673 1.24544,2.41214c-0.08431,0.6329 -0.89025,0.78137 -1.47878,1.0758c-1.2863,4.82513 -3.41953,9.27546 -4.67647,14.2006c-1.92808,4.74793 -2.13169,10.08681 -3.55494,15.01509c-0.87688,3.0364 -2.84508,6.49449 -2.69564,9.73162c0.08467,0.33128 0.00886,0.60283 -0.1099,0.80784c-0.09706,0.21972 -0.27111,0.43742 -0.58241,0.54192l-0.69864,0.41325c-4.89563,2.05918 -9.28184,8.78182 -14.6379,8.38404c-1.26547,-5.52894 -3.82324,-11.36916 -4.58884,-16.97554c-0.55249,-4.04571 2.5038,-10.09535 3.68879,-13.86228c1.36893,-7.4037 8.73705,-17.10363 8.86701,-24.06924c-0.17977,-1.88628 -0.45314,-3.63132 -0.19476,-5.55359z" fill="#1a1a1a" stroke-width="0.5"></path><path d="M466.21131,162.49157c-0.05096,0.00296 -0.10153,0.00914 -0.15023,0.01908c-0.64173,-3.90971 -3.52785,-11.03256 -3.90815,-13.14632c-0.03361,-0.18687 -0.05503,-0.38352 -0.06752,-0.58588c5.46268,1.78944 10.10725,5.86911 15.64302,7.47528l0.01402,0.00408c-3.50464,1.67434 -6.1901,4.47046 -9.45077,6.65488c-0.16049,0.10754 -0.52768,0.2797 -0.91646,0.49948l-0.05822,-0.1531c-0.1651,-0.46949 -0.61078,-0.79628 -1.10563,-0.76749z" fill="#fff" stroke-width="0.25"></path><path d="M478.25575,154.05137c-5.64379,-1.63753 -10.33933,-5.81743 -15.96694,-7.57043c0.66922,-3.43686 2.69911,-7.71315 3.4754,-10.19808c1.21773,-7.28262 7.24629,-14.54319 8.6774,-21.81827c0.47883,-0.34912 0.44197,-1.03719 0.44197,-1.03719l-0.04375,-0.77903c-0.04869,-0.86607 0.14858,-3.41006 -0.4575,-4.42344c2.23218,1.25291 9.60892,4.76897 10.7195,5.27898c0.7624,0.35011 4.21297,1.69248 5.22366,1.92748c-0.01565,0.01093 -0.10599,0.10686 -0.12027,0.11765c-0.1426,0.10347 -0.24326,0.18619 -0.34003,0.42859l-0.36131,0.54603c-1.18058,4.85321 -3.43492,9.36274 -4.67187,14.30325c-1.92415,4.79958 -2.16458,10.1996 -3.61782,15.1581c-0.77639,2.64905 -2.10705,5.37667 -2.60283,8.16916z" fill="#f9bd15" stroke-width="0.5"></path></g></g><path d="M311.84534,93.68386c0,0.17957 -0.02826,0.33041 -0.07574,0.4571c0.55066,1.01333 1.07783,2.04086 1.72909,3.03439l0.31092,-0.00717c0,0 0.98672,0.50175 0.49336,1.50526c-0.49336,1.0035 -1.48008,0.50175 -1.48008,0.50175l-1.16,-0.75514c-0.72224,-1.10178 -1.29404,-2.2522 -1.91293,-3.37547c-4.64228,1.31156 -9.47288,1.26212 -14.32531,1.25746c-1.20466,1.82432 -2.4174,3.64505 -3.62189,5.48389c0,0 -0.61193,0.93352 -1.52984,0.31117c-0.91791,-0.62235 -0.30598,-1.55588 -0.30598,-1.55588c3.09777,-4.72239 6.14551,-9.43571 9.18411,-14.19734c0.97237,-1.52377 2.47211,-4.72073 4.65871,-3.79415c2.99276,1.26818 5.06058,6.31633 6.3999,9.04836c0.234,0.31908 0.4512,0.6444 0.65715,0.97411c0.28866,0.03884 0.97854,0.22445 0.97854,1.11168zM308.33282,92.77777c-0.92431,-1.87574 -1.67029,-3.48134 -2.90968,-5.18387c-0.41618,-0.5717 -0.84944,-1.13098 -1.29971,-1.67531c-0.39457,-0.477 -1.09351,-2.03706 -1.19396,-1.42215c-0.23806,1.45715 -1.78138,2.83142 -2.60299,4.1699c-1.12029,1.82502 -2.26949,3.61826 -3.43263,5.39974c3.92075,0.02331 7.90985,0.03152 11.65678,-0.98609c-0.07105,-0.10142 -0.14359,-0.20218 -0.21781,-0.30223z" fill="#f9bd15" stroke="none" stroke-width="0.5" stroke-linecap="butt" stroke-linejoin="miter"></path><path d="M330.18713,84.66285c0.78007,-0.79334 1.56013,0 1.56013,0l1.00195,1.18652c0.6931,2.19211 0.69401,4.87233 0,7.06734c-0.41453,1.20636 -0.13038,2.47042 -0.84361,3.60092c-2.71672,4.30611 -10.43879,3.66069 -12.94291,-0.80842c-1.45069,-2.58906 0.57087,-7.71332 1.39698,-10.23383c0,0 0.34886,-1.06438 1.39544,-0.70958c1.04656,0.35479 0.69771,1.41918 0.69771,1.41918c-0.455,1.38823 -2.3229,7.31324 -1.54483,8.46544c1.93783,2.86963 7.06117,3.62567 9.12075,0.68752c0.48245,-0.68824 0.36717,-2.30805 0.62731,-3.13081c0.57627,-1.6771 0.57409,-3.97744 0,-5.64816l-0.46895,-0.30943c0,0 -0.78007,-0.79334 0,-1.58669z" fill="#f9bd15" stroke="none" stroke-width="0.5" stroke-linecap="butt" stroke-linejoin="miter"></path><path d="M346.04404,92.56191c0,1.12195 -1.10319,1.12195 -1.10319,1.12195c-1.25344,0 -2.61339,0 -3.96521,0c0.00513,1.62422 0.14543,3.18686 0.59905,4.50701l0.05661,1.10276c0,0 0,1.12196 -1.10319,1.12196c-1.10318,0 -1.10318,-1.12196 -1.10318,-1.12196l0.05661,-0.39318c-0.50089,-1.58422 -0.64838,-3.37855 -0.65425,-5.21661c-0.42218,0 -0.83711,0 -1.24101,0c0,0 -1.10319,0 -1.10319,-1.12195c0,-1.12195 1.10319,-1.12196 1.10319,-1.12196c0.42983,0 0.85966,0 1.2895,0c0.06752,-1.68221 0.18141,-3.34478 0.18141,-4.8618c0,0 0,-1.12196 1.10318,-1.12196c1.10318,0 1.10318,1.12196 1.10318,1.12196c0,1.46146 -0.143,3.15026 -0.2275,4.8618c1.17902,0 2.35803,0 3.53706,0h0.36773c0,0 1.10319,0.00001 1.10319,1.12196z" fill="#f9bd15" stroke="none" stroke-width="0.5" stroke-linecap="butt" stroke-linejoin="miter"></path><path d="M353.38012,89.49894c-0.70933,-0.05073 -1.45749,-0.0597 -1.97565,0.27752c-1.06863,0.69543 -2.19276,5.00142 -0.67994,5.98219c3.25288,2.1089 5.15464,-3.41324 3.59479,-5.56627c-0.1427,-0.21769 -0.28539,-0.43536 -0.42807,-0.65304c-0.04628,-0.00364 -0.09306,-0.00743 -0.14025,-0.01126l0.01533,0.04196c0,0 -0.17534,0 -0.3862,-0.07108zM355.53082,87.99528c0.2081,0.31746 0.41621,0.63493 0.62431,0.95239c2.52291,4.09946 -1.27524,12.39532 -6.70158,8.64517c-2.87382,-1.9861 -1.60695,-8.0687 0.79097,-9.72518c1.22666,-0.84739 2.87945,-0.54155 4.25726,-0.54155c0,0 0.78166,0 1.02905,0.66917z" fill="#f9bd15" stroke="none" stroke-width="0.5" stroke-linecap="butt" stroke-linejoin="miter"></path><path d="M361.11527,88.44647c-0.0525,2.14842 -0.44288,8.97197 0.14687,9.79216c1.06129,1.47599 4.60361,-0.81448 5.52019,-1.389c2.4337,-1.52548 1.98651,-4.19692 0.44284,-6.23245c-1.68784,-2.37978 -3.52556,-2.19189 -6.1099,-2.17071zM358.97066,87.72602c-0.03556,-0.11426 -0.05615,-0.24661 -0.05615,-0.3999c0,-1.12195 1.10319,-1.12196 1.10319,-1.12196h0.73545c3.54089,0 5.89615,-0.01615 8.2371,3.06668c1.79273,2.4855 2.6977,6.02502 0.26525,8.57223c-1.97542,2.06861 -7.45337,4.58735 -9.74679,1.75761c-1.23994,-1.5299 -0.59421,-9.2273 -0.59421,-11.52659c0,0 0,-0.15409 0.05615,-0.34807z" fill="#f9bd15" stroke="none" stroke-width="0.5" stroke-linecap="butt" stroke-linejoin="miter"></path><path d="M382.57471,91.69549c-0.98672,0.50175 -1.48008,-0.50175 -1.48008,-0.50175l-0.2989,-0.62738c-0.553,-1.23506 -3.88783,-1.12384 -4.87417,0.12017c-1.27315,1.60573 -0.74954,3.84612 -1.19476,5.61524v1.49594c0,0.61963 -0.49391,1.12196 -1.10319,1.12196c-0.60928,0 -1.10318,-0.50233 -1.10318,-1.12196c0,-0.12466 0,-1.37127 0,-1.49594c0,-0.24634 0,-0.49268 0,-0.73903c-0.1784,-0.56143 -0.14025,-1.25495 0,-1.9627c0,-1.09401 0,-2.18802 0,-3.28204c0,0 0,-1.12195 1.10318,-1.12195c0.28071,0 0.48998,0.07263 0.64602,0.18095c1.22626,-1.48621 2.99916,-1.73742 5.23762,-1.6769c0.66501,0.01798 1.39892,-0.17479 1.99146,0.13276c0.54958,0.28523 0.7552,0.99254 1.13281,1.48881l0.43655,0.86855c0,0 0.49336,1.0035 -0.49336,1.50526z" fill="#f9bd15" stroke="none" stroke-width="0.5" stroke-linecap="butt" stroke-linejoin="miter"></path><path d="M400.14464,94.38647c0.78007,0.79334 0,1.58669 0,1.58669l-0.22988,0.20299c-0.43178,0.52027 -0.66229,1.33945 -1.29534,1.56083c-1.6328,0.57102 -3.69626,-1.14591 -4.64821,-2.89012c-0.04997,0.21739 -0.10599,0.43312 -0.16655,0.64663c-0.43831,1.54537 -0.3691,2.52275 -1.91987,3.61288c-1.52921,1.07498 -4.49216,0.53757 -5.55698,-1.03634c-2.26136,-3.34252 -0.15264,-7.72163 3.2224,-8.84396c0.92172,-0.30651 2.57885,-0.03002 3.56301,-0.03002c0,0 1.10318,0.00001 1.10318,1.12196c0,0.35743 -0.11196,0.601 -0.26456,0.76697c0.01801,0.0214 0.03523,0.0435 0.05163,0.06624l1.09548,1.4855l-0.14772,0.11267c0.29702,0.31268 0.58262,0.63596 0.85377,0.97116c0.02727,0.03371 2.03556,1.94621 2.09839,1.89399c0.17918,-0.14894 0.11705,-0.45538 0.17558,-0.68308l0.50556,-0.54497c0,0 0.78008,-0.79334 1.56014,0zM390.05709,91.40993c-2.06425,0.65248 -3.17215,3.31376 -1.92579,5.36747c0.82954,1.3669 2.77611,0.51631 3.25032,-0.58385c0.17937,-0.41615 0.18328,-0.89015 0.30465,-1.32744c0.17434,-0.62816 0.3336,-1.2776 0.32374,-1.93023v-1.12196c0,-0.15608 0.03133,-0.30472 0.08797,-0.43977c-0.72255,-0.06359 -1.52136,-0.12843 -2.04088,0.03577z" fill="#f9bd15" stroke="none" stroke-width="0.5" stroke-linecap="butt" stroke-linejoin="miter"></path><path d="M418.87301,84.76579c1.04656,-0.35479 1.39544,0.70958 1.39544,0.70958l0.31217,0.98382c2.04041,3.28833 1.05595,9.21142 -3.5651,9.0946c-0.50906,-0.01287 -1.06585,0.13778 -1.52536,-0.08541c-0.61275,-0.29763 -1.15339,-0.7751 -1.6198,-1.33409c-0.93246,4.63191 -4.78224,8.63632 -9.32898,4.52479c-2.66694,-2.41166 -1.4995,-8.7008 -1.4995,-12.08094c0,0 0,-1.12196 1.10318,-1.12196c1.10318,0 1.10318,1.12196 1.10318,1.12196c0,2.63108 -0.76684,6.8524 -0.05661,9.36882c0.53472,1.89458 3.6181,2.1932 4.99256,1.27033c1.96956,-1.32246 2.06839,-4.38949 1.56081,-6.62677c-0.15041,-0.24201 -0.25601,-0.49039 -0.21588,-0.76272c0.00099,-0.00678 0.0022,-0.01338 0.00361,-0.01976c-0.00624,-0.01954 -0.01254,-0.03896 -0.01887,-0.05828l0.08074,-0.17971h-0.09499v-1.12195c0,-0.61963 0.49391,-1.12196 1.10319,-1.12196c0.60928,0 1.10318,0.50233 1.10318,1.12196v0.98618c0.07204,0.2248 0.13342,0.45526 0.18448,0.69019c0.63796,1.35781 1.40412,2.6924 2.44405,3.27084c0.20066,0.11162 0.45251,-0.07532 0.68101,-0.08541c0.2467,-0.01088 1.23186,0.11152 1.53674,-0.14365c1.32876,-1.11211 0.8518,-4.57516 0.04635,-5.72116l-0.4233,-1.2601c0,0 -0.34886,-1.06438 0.69771,-1.41918z" fill="#f9bd15" stroke="none" stroke-width="0.5" stroke-linecap="butt" stroke-linejoin="miter"></path><path d="M247.72698,125.33661c0,2.74256 0,5.48511 0,8.22767c0,0.74797 0,1.49595 0,2.24392c0,0.51395 -0.74349,1.36448 -0.26144,1.5187c1.12636,0.36034 2.36145,-0.02314 3.54221,-0.02283c3.68145,0.00097 7.56336,0.06714 6.34868,-4.84646c-0.68982,-1.38808 -1.23565,-3.72942 -2.31951,-4.83171c-1.27763,-1.29937 -5.19702,-2.31656 -6.94221,-2.28928zM246.032,123.61278c0.29877,-0.52009 0.95952,-0.52009 0.95952,-0.52009h1.10318c2.33559,0.02643 6.79467,1.20976 8.50235,2.94651c1.32192,1.34441 2.00816,3.95523 2.82868,5.63988c1.72925,7.06314 -2.92438,7.87986 -8.42048,7.8689c-1.3892,-0.00276 -4.07287,0.17092 -5.22322,-0.77067c-0.31383,-0.25687 -0.26143,-2.40373 -0.26143,-2.96911c0,-3.73986 0,-7.4797 0,-11.21956c0,0 0,-0.67201 0.51139,-0.97585z" fill="#f9bd15" stroke="none" stroke-width="0.5" stroke-linecap="butt" stroke-linejoin="miter"></path><path d="M273.14482,130.99175c-0.78007,0.79334 -1.56013,0 -1.56013,0l-0.63424,-0.81253c-0.0781,-0.26682 -0.29254,-1.33144 -0.67779,-1.50676c-0.53552,-0.2437 -2.91223,2.51919 -3.15039,3.10179c-0.13466,0.32941 -0.57659,2.71917 -0.64115,3.00087v2.15502c0,0.61963 -0.49391,1.12195 -1.10318,1.12195c-0.60928,0 -1.10319,-0.50231 -1.10319,-1.12195c0,-0.24933 0,-1.99458 0,-2.24392c0,-3.36587 0,-6.73173 0,-10.0976c0,0 0,-1.12195 1.10319,-1.12195c1.10318,0 1.10318,1.12195 1.10318,1.12195c0,1.45641 0,2.91281 0,4.36922c0.24015,-0.26213 0.49152,-0.50661 0.7481,-0.72898c0.65814,-0.57035 2.41998,-2.09638 3.55036,-1.7403c1.6398,0.51656 1.81549,1.70199 2.26403,2.98107l0.10123,-0.06456c0,0 0.78007,0.79334 0,1.58669z" fill="#f9bd15" stroke="none" stroke-width="0.5" stroke-linecap="butt" stroke-linejoin="miter"></path><path d="M287.19949,130.69085c0.98672,0.50176 0.49336,1.50526 0.49336,1.50526l-0.36773,0.74797c-0.38073,0.64953 -0.5331,1.51489 -1.14219,1.94859c-1.29566,0.92255 -2.75535,0.35665 -3.89371,-0.59187c-0.00613,0.73729 -0.01863,1.38445 -0.04316,1.45855c-0.84854,2.5629 -3.24325,2.35075 -5.01044,0.95903c-2.37002,-1.86646 -2.82119,-6.17687 -0.44549,-8.4895c0.77014,-0.7497 1.9013,-0.64489 2.84181,-0.64774c0.20202,-0.22988 0.4958,-0.37459 0.82282,-0.37459c0.49626,0 0.91598,0.33325 1.05461,0.79171l0.35968,1.09742c0.14465,0.45748 0.24715,0.92992 0.31515,1.40828c0.93314,1.5405 2.3671,3.97692 3.16748,1.43663l0.36773,-0.74797c0,0 0.49336,-1.00351 1.48008,-0.50176zM280.07232,131.44794c-0.32342,-0.4131 -0.65244,-0.82055 -0.68072,-1.32403c-0.00558,-0.09931 -0.00437,-0.19777 0.00263,-0.29551c-1.76039,0.077 -1.5704,1.09105 -1.83003,3.06575c-0.04416,0.33583 -0.27366,0.70364 -0.12755,1.00814c0.10578,0.22047 2.03378,1.97582 2.49756,1.66466c0.54956,-0.36871 0.16323,-1.3332 0.15282,-2.00267c-0.00776,-0.49858 -0.00252,-0.9973 0,-1.49594c0.00104,-0.20584 -0.00316,-0.4132 -0.0147,-0.62039z" fill="#f9bd15" stroke="none" stroke-width="0.5" stroke-linecap="butt" stroke-linejoin="miter"></path><path d="M306.19571,120.4748c1.10318,0 1.10318,1.12195 1.10318,1.12195l-0.05661,0.39319c1.0113,3.0855 1.43741,7.51369 -0.04432,10.54722c-0.65111,1.33304 -1.76042,3.36997 -3.47728,3.64048c-0.70901,0.11172 -1.32248,-0.56696 -1.99216,-0.82884c-1.17918,-0.46113 -3.00853,-1.49628 -3.9239,-2.78455c-0.29215,0.82366 -0.71146,1.5726 -1.38476,1.98922c-2.39041,1.47918 -5.88509,-1.04901 -6.71531,-3.25231c-0.52208,-1.38551 -0.05661,-4.09564 -0.05661,-5.59057c0,0 0,-1.12196 1.10318,-1.12196c1.10318,0 1.10319,1.12196 1.10319,1.12196c0,1.28724 -0.48108,3.68466 -0.05661,4.88099c0.38213,1.07703 2.43892,2.64771 3.58107,1.98349c0.46178,-0.26854 0.78321,-2.38862 0.88828,-2.8529v-1.0197c0,-0.61964 0.49391,-1.12196 1.10318,-1.12196c0.44039,0 0.82051,0.26243 0.99741,0.64194l0.72477,1.47421l-0.21152,0.10755c1.00274,1.35567 1.90629,2.56333 3.69198,3.47148c0.34409,0.175 0.56545,0.68718 0.94967,0.6671c0.94747,-0.0495 1.24339,-1.48192 1.67091,-2.34328c1.24995,-2.51843 0.79719,-6.33256 -0.04432,-8.9l-0.05661,-1.10277c0,0 0,-1.12195 1.10319,-1.12195z" fill="#f9bd15" stroke="none" stroke-width="0.5" stroke-linecap="butt" stroke-linejoin="miter"></path><path d="M294.06069,147.77571c0,1.12196 -1.10318,1.12196 -1.10318,1.12196c-0.68096,0 -1.44075,0 -2.20637,0c0,0.12465 0,0.24933 0,0.37398v1.12196c0,0 0,1.12196 -1.10319,1.12196c-1.10318,0 -1.10318,-1.12196 -1.10318,-1.12196c0,-0.46454 0,-0.96801 0,-1.49594c-0.12477,0 -0.24748,0 -0.36773,0c0,0 -1.10318,0 -1.10318,-1.12196c0,-1.12196 1.10318,-1.12196 1.10318,-1.12196c0.12256,0 0.24516,0 0.36773,0c0,-1.70953 0,-3.46239 0,-4.8618c0,0 0,-1.12196 1.10318,-1.12196c1.10318,0 1.10319,1.12196 1.10319,1.12196c0,1.62059 0,3.2412 0,4.8618c0.61289,0 1.22575,0 1.83864,0h0.36773c0,0 1.10318,0 1.10318,1.12196z" fill="#f9bd15" stroke="none" stroke-width="0.5" stroke-linecap="butt" stroke-linejoin="miter"></path><path d="M300.67979,151.88956c-1.10318,0 -1.10319,-1.12196 -1.10319,-1.12196l0.01425,-0.94223c-0.22605,-0.6897 -0.11775,-2.44172 -0.59423,-2.96517c-0.18938,-0.20806 -0.66923,-0.05853 -0.81696,0.1819c-0.19793,0.32214 0.02105,1.76026 -0.08224,1.99266c-0.01888,0.04248 -0.03834,0.08462 -0.05837,0.12646l0.03371,0.00857l-0.36214,1.47316c-0.11148,0.49962 -0.55085,0.87261 -1.07585,0.87261c-0.60928,0 -1.10318,-0.50233 -1.10318,-1.12196c0,-1.86993 0,-4.8618 0,-6.73173c0,0 0,-1.12195 1.10318,-1.12195c1.10318,0 1.10319,1.12195 1.10319,1.12195c0,0.37425 0,0.7485 0,1.12276c0.76357,-0.38256 1.64318,-0.42206 2.41861,0.16677c1.51042,1.14693 1.11142,2.98678 1.61214,4.51453l0.01425,1.30168c0,0 0,1.12196 -1.10318,1.12196z" fill="#f9bd15" stroke="none" stroke-width="0.5" stroke-linecap="butt" stroke-linejoin="miter"></path><path d="M305.46026,149.64564c-1.10318,0 -1.10319,-1.12195 -1.10319,-1.12195c0,-1.62059 0,-3.98918 0,-5.60979c0,0 0,-1.12195 1.10319,-1.12195c1.10318,0 1.10318,1.12195 1.10318,1.12195c0,1.62059 0,3.24121 0,4.8618v0.74798c0,0 0,1.12195 -1.10318,1.12195z" fill="#f9bd15" stroke="none" stroke-width="0.5" stroke-linecap="butt" stroke-linejoin="miter"></path><path d="M305.46026,138.80007c0,-0.61963 0.49391,-1.12196 1.10318,-1.12196c0.60928,0 1.10319,0.50233 1.10319,1.12196c0,0.61963 -0.49391,1.12196 -1.10319,1.12196c-0.60928,0 -1.10318,-0.50233 -1.10318,-1.12196z" fill="#f9bd15" stroke="none" stroke-width="0.5" stroke-linecap="butt" stroke-linejoin="miter"></path><path d="M315.38891,149.27166c-1.10318,0 -1.10319,-1.12195 -1.10319,-1.12195v-0.37399c0,-0.81275 0.1249,-1.63327 0.01425,-2.43818c-0.13002,-0.94578 -0.94327,-3.06173 -2.28644,-1.90599c-0.34456,0.29648 -0.70832,1.12587 -1.03735,2.07199c0,0.13408 0,0.26817 0,0.40225v2.24392c0,0.61963 -0.49391,1.12195 -1.10318,1.12195c-0.60928,0 -1.10319,-0.50231 -1.10319,-1.12195c0,-0.37398 0,-1.86993 0,-2.24392c0,-0.08338 0,-0.16676 0,-0.25015c-0.00951,-0.06569 -0.00867,-0.13114 0,-0.1964c0,-0.22514 0,-0.45028 0,-0.6754c0,0 0,-0.83335 0.70619,-1.06363c1.12863,-2.39395 3.80933,-4.13167 6.05416,-1.48731c1.17488,1.38398 0.96193,3.88973 0.96193,5.54282v0.37399c0,0 0,1.12195 -1.10318,1.12195z" fill="#f9bd15" stroke="none" stroke-width="0.5" stroke-linecap="butt" stroke-linejoin="miter"></path><path d="M324.21437,155.6294c0,-1.12195 1.10319,-1.12196 1.10319,-1.12196l0.58264,0.13276c1.26698,-2.8984 0.20437,-6.15386 -0.51607,-9.07323c-1.43339,1.82831 -4.74942,0.36701 -5.5323,-1.19658c-0.26888,-0.53704 0.2272,-1.1832 0.36155,-1.77016c0.50903,-2.22419 0.95767,-3.23748 3.26555,-3.42616c0,0 0.84267,0 1.05505,0.74903c0.01596,-0.00069 0.03201,-0.00106 0.04814,-0.00106c0.389,0 0.73097,0.20476 0.92739,0.51408l0.72597,1.10748l-0.00967,0.00657c0.01545,0.01739 0.03076,0.03493 0.04593,0.05265c1.05962,1.23859 1.15288,3.23267 1.57595,4.73728c1.01614,3.61387 1.30455,7.17113 -0.90636,10.27854l-1.62373,0.13275c0,0 -1.10319,0 -1.10319,-1.12196zM322.33173,143.2276c-0.07143,0.18903 -0.45733,0.28987 -0.37392,0.47373c0.08164,0.17991 1.69148,0.58982 1.72933,0.42648c0.14838,-0.64022 -0.20824,-1.30411 -0.20824,-1.96187v-0.74797c-1.14917,-0.26184 -0.79008,0.86461 -1.14718,1.80963z" fill="#f9bd15" stroke="none" stroke-width="0.5" stroke-linecap="butt" stroke-linejoin="miter"></path><path d="M261.61682,149.67631c0.14515,-0.13031 0.83883,-0.6795 1.53249,0.02597c0.78007,0.79334 0,1.58669 0,1.58669l-1.32842,0.68746c-2.87774,-0.49315 -5.45085,-1.57325 -6.543,-4.09663c-0.06962,0.64647 -0.16723,1.28587 -0.27147,2.00495c-0.15075,1.03981 -0.30601,2.27547 -1.10028,2.94794c-3.83796,3.24943 -7.81479,-2.16139 -4.98916,-5.56655c0.56349,-0.67905 1.13461,-1.392 1.87689,-1.86067c0.70062,-0.44236 1.55404,-0.51954 2.3822,-0.5263c0.00355,-0.61656 0.49609,-1.11528 1.10317,-1.11528c0.25236,0 0.48495,0.08619 0.67083,0.2312l1.462,1.11515l-0.03044,0.04128c0.09022,0.063 0.17818,0.12955 0.26348,0.20026c0.84258,0.69842 0.90895,2.72805 1.97291,3.49799c0.63818,0.46182 2.0369,0.68282 2.99882,0.82655zM253.17912,147.11297c-0.50477,0.01048 -1.02938,0.06449 -1.29819,0.24514c-1.00903,0.67814 -2.79511,3.07572 -1.10319,4.03111c2.12547,1.2002 2.38073,-2.25114 2.40138,-4.27625z" fill="#f9bd15" stroke="none" stroke-width="0.5" stroke-linecap="butt" stroke-linejoin="miter"></path><path d="M270.82698,150.49561c-1.10318,0 -1.10318,-1.12196 -1.10318,-1.12196l0.03293,-0.47584c-0.12459,-0.5073 -0.26324,-1.01125 -0.37378,-1.52192c-0.19226,-0.88817 0.20115,-2.26798 -0.60686,-2.65762c-0.46683,-0.22512 -2.27619,0.04881 -2.48632,0.70591c-0.29484,0.92204 -0.4477,1.65635 -0.61099,2.35981c0,0.28056 0,0.56113 0,0.84169v1.12196c0,0.61963 -0.49391,1.12195 -1.10319,1.12195c-0.60928,0 -1.10318,-0.50231 -1.10318,-1.12195c0,-0.0527 0,-1.22735 0,-1.28003c-0.06434,-0.17186 -0.05032,-0.34939 0,-0.52985c0,-1.51595 0,-3.03191 0,-4.54785c0,0 0,-1.12196 1.10318,-1.12196c0.7348,0 0.98019,0.49777 1.06212,0.83019c1.29917,-0.77317 3.12925,-1.01699 4.29833,-0.28865c0.67536,0.42074 0.90527,1.33817 1.19895,2.08623c0.43069,1.09701 0.48029,2.31196 0.76223,3.45787l0.03293,1.02008c0,0 0,1.12196 -1.10319,1.12196z" fill="#f9bd15" stroke="none" stroke-width="0.5" stroke-linecap="butt" stroke-linejoin="miter"></path><path d="M280.75563,152.73953c0,-1.12195 1.10319,-1.12195 1.10319,-1.12195l-0.22518,0.17582c0.83965,-0.53701 1.62065,-0.94814 2.20702,-1.85057c0.72909,-1.12209 0.4891,-2.43457 0.12106,-3.78135c-0.06559,0.09439 -0.13857,0.18322 -0.21965,0.26568c-1.45271,1.47743 -5.56326,1.04578 -6.80497,-0.48631c-0.94526,-1.1663 -0.59421,-3.05167 -0.59421,-4.42087c0,0 0,-1.12196 1.10318,-1.12196c1.10318,0 1.10318,1.12196 1.10318,1.12196c0,1.65931 -0.57759,3.39406 1.47092,3.36587c0.72068,-0.00992 1.65212,0.47293 2.16176,-0.04537c0.3634,-0.36958 0.04461,-2.88529 0.04461,-3.32049v-1.12196c0,-0.61963 0.49391,-1.12195 1.10319,-1.12195c0.49626,0 0.91598,0.33325 1.05461,0.79171l0.68967,2.10422l-0.2453,0.08316c1.3554,2.82072 2.39909,6.38983 0.93192,8.79327c-0.84383,1.38232 -1.74766,1.85518 -2.94118,2.63726l-0.96063,0.17581c0,0 -1.10319,0 -1.10319,-1.12196z" fill="#f9bd15" stroke="none" stroke-width="0.5" stroke-linecap="butt" stroke-linejoin="miter"></path><path d="M339.22491,127.68087c0.03506,-1.12139 1.13768,-1.08574 1.13768,-1.08574l0.75361,0.02437c1.86721,0.06137 3.75444,0.14126 5.59803,0.48211c0.96928,0.1792 2.12913,-0.01802 2.89307,0.61463c0.80256,0.66464 0.05435,2.92313 -0.11949,3.63826c-0.47777,1.96541 -0.89916,4.41225 -2.54652,5.8048c-1.2629,1.06754 -3.21205,1.40968 -4.74885,1.77648c-2.27017,-0.4361 -4.70788,-0.24078 -6.36919,-2.24904c-5.28032,-6.38308 0.87321,-21.96446 9.28477,-22.05967c0,0 1.10318,0 1.10318,1.12196c0,1.12196 -1.10318,1.12196 -1.10318,1.12196c-6.59076,-0.10306 -11.54411,13.48625 -7.63071,18.33072c1.13375,1.40351 3.10313,1.15317 4.66264,1.4908c2.68001,-0.74301 4.14636,-1.49615 4.83964,-4.38628c0.11979,-0.49934 0.24375,-0.99765 0.36773,-1.49594c0.11296,-0.45399 0.17495,-0.92492 0.34306,-1.36091c0.04364,-0.11319 0.39191,-0.22515 0.2729,-0.23661c-2.23379,-0.21533 -4.65494,-0.2786 -6.91716,-0.35047l-0.75361,-0.02437c0,0 -1.10264,-0.03565 -1.06758,-1.15704z" fill="#f9bd15" stroke="none" stroke-width="0.5" stroke-linecap="butt" stroke-linejoin="miter"></path><path d="M361.59915,128.48368c0.34886,1.06438 -0.69772,1.41918 -0.69772,1.41918l-1.27533,0.41707c-0.93508,-0.02363 -1.93465,0.27692 -2.80524,-0.07091c-2.66301,-1.06395 -1.78419,-4.84005 -1.78419,-7.02032c0,-0.62834 -0.08709,-3.74204 0.32311,-4.15921c0.53601,-0.54512 1.49602,-0.25947 2.25098,-0.32862c1.46968,-0.1346 4.57927,0.50202 5.58989,1.4816c0.59706,0.57872 1.00815,3.44803 0.33837,4.17354c-0.7503,0.81273 -4.94424,0.32862 -5.92825,0.32862c0,0 -0.20939,0.00001 -0.44574,-0.09278c-0.18882,2.04005 -0.48007,3.5873 2.10766,3.47314l0.93104,-0.33089c0,0 1.04658,-0.35479 1.39544,0.70958zM357.26295,122.53951c0.19334,-0.05878 0.3478,-0.05878 0.3478,-0.05878c0.61288,0 1.22577,0 1.83864,0c0.32524,0 2.18443,-0.30097 2.48812,0.19519c-0.05779,-0.28802 -0.17377,-0.79145 -0.35574,-0.92883c-0.955,-0.72097 -2.866,-0.54893 -3.97103,-0.76232c-0.24976,-0.04824 -0.51108,-0.51143 -0.69084,-0.3286c-0.17977,0.18281 0.29091,0.44613 0.32313,0.70259c0.04908,0.39083 0.03611,0.78568 0.01992,1.18074z" fill="#f9bd15" stroke="none" stroke-width="0.5" stroke-linecap="butt" stroke-linejoin="miter"></path><path d="M382.24851,123.97666c0,1.12195 -1.10319,1.12196 -1.10319,1.12196c-1.91364,0 -4.38283,0 -6.61909,0c0,1.86993 0,3.73984 0,5.60977v1.12196c0,0 0,1.12195 -1.10319,1.12195c-1.10318,0 -1.10318,-1.12195 -1.10318,-1.12195c0,-2.08389 0,-4.39676 0,-6.73173c-0.12465,0 -0.24728,0 -0.36773,0c0,0 -1.10319,0 -1.10319,-1.12196c0,-1.12196 1.10319,-1.12196 1.10319,-1.12196c0.12258,0 0.24514,0 0.36773,0c0,-2.07898 0,-4.1227 0,-5.98376c0,0 0,-1.12195 1.10318,-1.12195c1.10318,0 1.10319,1.12195 1.10319,1.12195c0,1.99459 0,3.98917 0,5.98376c1.83864,0 3.67729,0 5.51592,0h1.10318c0,0 1.10319,0 1.10319,1.12196z" fill="#f9bd15" stroke="none" stroke-width="0.5" stroke-linecap="butt" stroke-linejoin="miter"></path><path d="M334.44389,151.27758c-1.10318,0 -1.10319,-1.12196 -1.10319,-1.12196c0,-1.74526 0,-4.23849 0,-5.98376c0,0 0,-1.12196 1.10319,-1.12196c1.10318,0 1.10318,1.12196 1.10318,1.12196c0,1.74526 0,3.49053 0,5.23579v0.74797c0,0 0,1.12196 -1.10318,1.12196z" fill="#f9bd15" stroke="none" stroke-width="0.5" stroke-linecap="butt" stroke-linejoin="miter"></path><path d="M333.3407,140.05802c0,-0.61963 0.49393,-1.12196 1.10319,-1.12196c0.60927,0 1.10318,0.50233 1.10318,1.12196c0,0.61963 -0.49391,1.12196 -1.10318,1.12196c-0.60927,0 -1.10319,-0.50233 -1.10319,-1.12196z" fill="#f9bd15" stroke="none" stroke-width="0.5" stroke-linecap="butt" stroke-linejoin="miter"></path><path d="M346.56004,149.72407c-1.04656,0.35479 -1.39542,-0.70958 -1.39542,-0.70958l-0.4101,-1.29703c-0.00411,-0.39102 -0.10807,-1.0932 -0.17015,-1.78832c-0.04919,0.05902 -0.1046,0.1122 -0.1672,0.15803c-0.62994,0.46113 -1.48929,0.83726 -2.24128,0.64187c-0.80738,-0.20979 -1.97108,-2.10168 -2.06413,-3.28594c-0.08195,0.3499 -0.20091,0.75362 -0.31671,0.94464c-0.27808,0.45876 -0.79936,0.76004 -0.99504,1.26088c-0.27397,0.70128 0.05661,1.50849 0.05661,2.26311c0,0 0,1.12196 -1.10319,1.12196c-1.10318,0 -1.10318,-1.12196 -1.10318,-1.12196c0,-2.23449 0.0658,-2.76644 1.26795,-4.70368c0.67756,-1.09187 1.11837,-3.29981 3.30793,-2.26358c0.65394,0.30947 0.5187,1.37175 0.84574,2.02555c0.27298,0.54572 0.67518,1.0423 0.82006,1.63658c0.07382,0.3028 -0.06561,-0.68074 0.12188,-0.92765c0.50645,-0.66695 0.99701,-1.97564 1.79501,-1.7488c2.21294,0.62904 2.14619,3.73017 2.12357,5.42788l0.32537,0.94689c0,0 0.34886,1.06439 -0.69772,1.41918z" fill="#f9bd15" stroke="none" stroke-width="0.5" stroke-linecap="butt" stroke-linejoin="miter"></path><path d="M346.94663,144.54584c0,-1.12196 1.10319,-1.12196 1.10319,-1.12196c0,-1.49594 0,-2.99189 0,-4.48783c0,0 0,-0.26909 0.12958,-0.54372c-0.25657,-0.14881 -0.49732,-0.4281 -0.49732,-0.95223c0,-1.12196 1.10318,-1.12196 1.10318,-1.12196c1.84069,0 4.50008,-0.43562 6.12978,0.56372c1.79037,1.09788 2.19658,4.88587 0.9983,6.47505c-1.23802,1.6419 -3.67222,2.18039 -5.65717,2.28891c0,0.87994 0,1.75989 0,2.63985l0.25126,0.24621c0,0 0.49336,1.00351 -0.49336,1.50526c-0.98672,0.50176 -1.48008,-0.50175 -1.48008,-0.50175l-0.48418,-1.24972c0,-0.87263 0,-1.74528 0,-2.6179c0,0 -1.10319,0 -1.10319,-1.12195zM354.15994,141.9949c0.46505,-0.5364 0.22653,-2.88806 -0.4726,-3.24857c-0.76551,-0.39474 -1.9532,-0.36893 -3.06858,-0.2935c0.00341,0.03595 0.00517,0.0724 0.00517,0.10926c0,0.33229 -0.14204,0.63084 -0.36773,0.83626c0,1.33665 0,2.6733 0,4.00994c1.36694,-0.06849 3.01088,-0.38352 3.90375,-1.41339z" fill="#f9bd15" stroke="none" stroke-width="0.5" stroke-linecap="butt" stroke-linejoin="miter"></path><path d="M363.90673,140.01266c0.78007,0.79334 0,1.58667 0,1.58667l-0.59762,0.57698c-1.05699,1.60763 -1.92511,3.20791 -2.89637,4.78253l0.18431,0.08032l-0.85912,2.03871c-0.16304,0.41251 -0.56007,0.70376 -1.024,0.70376c-0.60927,0 -1.10318,-0.50233 -1.10318,-1.12196c0,-2.6179 0,-6.73173 0,-9.34963c0,0 0,-1.12196 1.10318,-1.12196c1.10318,0 1.10319,1.12196 1.10319,1.12196c0,1.39903 0,2.79807 0,4.1971c0.50319,-0.89514 1.12045,-1.75603 1.65619,-2.57554l0.8733,-0.91897c0,0 0.78007,-0.79334 1.56013,0z" fill="#f9bd15" stroke="none" stroke-width="0.5" stroke-linecap="butt" stroke-linejoin="miter"></path><path d="M366.55268,138.06033c0.49336,-1.00351 1.48008,-0.50176 1.48008,-0.50176l1.16,0.75515c0.88616,1.35281 2.0945,2.517 2.3774,4.18247c0.26086,1.53575 -0.20952,4.53766 -1.50183,5.54272c-1.88068,1.46263 -4.88029,0.03368 -5.75451,-1.94176c-0.73383,-1.6582 0.16171,-4.22296 0.73039,-5.70784c0,0 0.4097,-1.0417 1.43399,-0.62503c1.02428,0.41669 0.61457,1.45839 0.61457,1.45839c-0.38485,0.9475 -1.16436,2.89368 -0.74053,4.01576c0.18814,0.49806 1.78791,1.63777 2.3355,1.05013c0.64866,-0.69611 0.84398,-2.52286 0.70454,-3.43293c-0.18951,-1.23688 -1.37065,-2.28393 -2.03534,-3.29721l-0.3109,0.00717c0,0 -0.98672,-0.50175 -0.49336,-1.50526z" fill="#f9bd15" stroke="none" stroke-width="0.5" stroke-linecap="butt" stroke-linejoin="miter"></path><path d="M378.57123,138.93607c0,0.65156 -0.37206,0.92474 -0.68403,1.03927c-0.66176,1.60386 -1.6669,3.15996 -2.70162,4.64427l-0.31897,1.29755c-0.11148,0.49962 -0.55083,0.87261 -1.07584,0.87261c-0.60927,0 -1.10319,-0.50233 -1.10319,-1.12196c0,-1.37129 0,-3.86451 0,-5.23579c0,0 0,-1.12195 1.10319,-1.12195c1.10318,0 1.10318,1.12195 1.10318,1.12195c0,0.05725 0,0.11448 0,0.17173c0.4883,-0.68457 0.96185,-1.36815 1.1598,-2.02246l1.4143,-0.76717c0,0 1.10318,0 1.10318,1.12196z" fill="#f9bd15" stroke="none" stroke-width="0.5" stroke-linecap="butt" stroke-linejoin="miter"></path><path d="M386.29352,144.54584c0,1.12196 -1.10318,1.12195 -1.10318,1.12195l-1.22881,-0.11845c-1.67449,-0.86821 -3.14262,-2.08899 -3.9902,-3.64406c-0.33309,0.01672 -0.67826,0.02266 -1.03235,0.02266c0,0 -1.10319,0 -1.10319,-1.12196c0,-1.12196 1.10319,-1.12196 1.10319,-1.12196c0.08889,0 0.19528,0.00574 0.31396,0.01429c-0.08019,-0.63517 -0.06518,-1.30919 0.06203,-2.02128c0.13946,-0.78075 0.19921,-1.71754 0.78373,-2.24318c0.7666,-0.68939 3.23307,-0.09954 3.78023,0.60229c0.36461,0.46768 0.18157,1.18174 0.20824,1.77798c0.09253,2.06975 -0.60161,3.1115 -1.75209,3.62753c0.72517,0.91184 1.69935,1.64724 2.61318,2.10071l0.24209,-0.11846c0,0 1.10318,0 1.10318,1.12196zM381.3711,139.65162c0.07796,-0.03002 0.14792,-0.06672 0.20778,-0.11124c0.40902,-0.3042 0.63395,-1.92002 0.51013,-2.19222c-0.09077,-0.19953 -0.55473,-0.3508 -0.63251,-0.14567c-0.3218,0.84866 -0.31314,1.67771 -0.08542,2.44912z" fill="#f9bd15" stroke="none" stroke-width="0.5" stroke-linecap="butt" stroke-linejoin="miter"></path><path d="M396.34781,141.43552c-0.98672,0.50176 -1.48008,-0.50175 -1.48008,-0.50175l-0.4842,-1.24972c0.00085,-0.05644 -0.00052,-0.11271 -0.00382,-0.16881c-0.20254,0.71838 -0.46432,1.45237 -0.73164,2.14205v1.01863c0,0.61963 -0.49393,1.12196 -1.10319,1.12196c-0.45033,0 -0.83764,-0.27442 -1.00906,-0.66781l-0.59129,-1.28066l0.00599,-0.00286l-0.01384,-0.01453c-0.76298,-1.81038 -0.94384,-2.1926 -1.62243,-3.97521c-0.15133,-0.3975 -0.42693,-0.79081 -0.63128,-1.18807c-0.07255,0.23805 -0.15971,0.47393 -0.22708,0.71108c-0.46313,1.63011 -0.32373,3.20651 -0.32373,4.9221c0,0 0,1.12196 -1.10319,1.12196c-1.10318,0 -1.10318,-1.12196 -1.10318,-1.12196c0,-2.37138 -0.18938,-4.81446 0.77945,-7.04541c0.28946,-0.66653 0.38481,-1.80949 1.09798,-1.87919c2.18599,-0.21364 3.39294,2.48351 4.21791,4.85172c0.21212,-0.66811 0.42353,-1.27908 0.53203,-1.67397c0.1816,-0.6609 -0.07306,-1.7808 0.57437,-1.97407c0.86597,-0.25851 1.79932,0.47819 2.50043,1.05615c0.39414,0.32491 0.36953,0.96133 0.53759,1.44819c0.28602,0.82852 0.41473,1.72066 0.42434,2.5987l0.25126,0.24622c0,0 0.49336,1.0035 -0.49336,1.50526z" fill="#f9bd15" stroke="none" stroke-width="0.5" stroke-linecap="butt" stroke-linejoin="miter"></path><path d="M405.09225,143.09528c-0.78007,0.79334 -1.56014,0 -1.56014,0l-0.36773,-0.37398c-0.12803,-0.14174 -0.26937,-0.27432 -0.41258,-0.40562c-0.21784,-0.01265 -0.4374,-0.03079 -0.64598,-0.01375c0,0 -1.10319,0 -1.10319,-1.12196c0,-0.54897 0.2641,-0.82932 0.53387,-0.97251c-0.40144,-2.60087 0.56333,-7.39242 3.14341,-7.25516c2.14494,0.1141 2.3448,1.64906 2.19212,3.17159c-0.11435,1.14032 -1.1049,3.55972 -2.14492,5.01334l0.36513,0.37134c0,0 0.78007,0.79334 0,1.58669zM403.71251,138.37708c0.28414,-0.6562 0.51062,-1.3434 0.68365,-1.7403c0.19519,-0.44769 0.71181,-1.66488 0.28376,-1.44058c-0.54624,0.28623 -0.87775,1.83168 -0.9674,3.18087z" fill="#f9bd15" stroke="none" stroke-width="0.5" stroke-linecap="butt" stroke-linejoin="miter"></path><path d="M413.50538,143.42388c-1.10318,0 -1.10319,-1.12196 -1.10319,-1.12196v-0.37024c-0.00037,-0.4786 0.04047,-0.95907 -0.00109,-1.43581c-0.05552,-0.6368 -0.12668,-1.27768 -0.28933,-1.89521c-0.18326,-0.69575 -0.87705,-1.15366 -1.45026,-0.42545c-0.1114,0.14153 -0.27986,0.51844 -0.46567,0.99028c0,0.17284 0,0.34569 0,0.51853v1.49594c0,0.61963 -0.49391,1.12196 -1.10318,1.12196c-0.60927,0 -1.10319,-0.50233 -1.10319,-1.12196c0,-0.12465 0,-1.37129 0,-1.49594c0,-0.62332 0,-1.24661 0,-1.86993c0,0 0,-1.12195 1.10319,-1.12195c0.02238,0 0.04431,0.00047 0.06578,0.00136c1.00473,-0.97252 2.59882,-1.5029 3.9134,-0.51901c0.51432,0.38494 0.86697,0.99311 1.09172,1.601c0.51844,1.40229 0.43715,2.7195 0.44503,4.1487v0.37772c0,0 0,1.12196 -1.10318,1.12196z" fill="#f9bd15" stroke="none" stroke-width="0.5" stroke-linecap="butt" stroke-linejoin="miter"></path><path d="M423.40059,136.45416c0,1.12196 -1.10318,1.12196 -1.10318,1.12196c-0.75336,0 -1.8511,0 -2.9084,0c0,0.82731 0,1.6546 0,2.4819v0.74797c0,0 0,1.12196 -1.10318,1.12196c-1.10318,0 -1.10319,-1.12196 -1.10319,-1.12196c0,-1.02165 0,-2.11222 0,-3.22987c-0.01121,0 -0.02236,0 -0.03344,0c0,0 -1.10319,0 -1.10319,-1.12196c0,-0.15364 0.02069,-0.28623 0.05639,-0.40067c0.1582,-0.85728 1.08022,-0.85728 1.08022,-0.85728c0,-1.80739 0,-3.60897 0,-5.23579c0,0 0,-1.12195 1.10319,-1.12195c1.10318,0 1.10318,1.12195 1.10318,1.12195c0,1.79059 0,3.58119 0,5.3718c0.60174,0 1.20347,0 1.80521,0h1.10319c0,0 1.10318,0 1.10318,1.12195z" fill="#f9bd15" stroke="none" stroke-width="0.5" stroke-linecap="butt" stroke-linejoin="miter"></path><path d="M426.39904,140.21321c0.34886,-1.06438 1.39544,-0.70958 1.39544,-0.70958l0.75432,0.31641c1.32576,-0.18618 -0.49745,-3.3051 -0.65148,-3.68448c-0.28609,-0.70467 -1.12771,-1.06974 -1.42435,-1.76988c-0.38677,-0.91285 -0.19518,-3.33941 0.69533,-4.05748c0.31749,-0.25602 2.28666,-0.21179 2.85142,-0.21179c0,0 1.10318,0.00001 1.10318,1.12196c0,1.12196 -1.10318,1.12195 -1.10318,1.12195c-0.52505,0 -1.0848,-0.43598 -1.56132,-0.21179c-0.35073,0.165 -0.25188,0.84956 -0.04012,1.17832c0.21289,0.33051 0.76766,0.28533 1.00725,0.59636c0.29679,0.38529 0.31585,0.92587 0.51023,1.37362c0.71205,1.64028 2.26225,4.40251 0.49631,6.08451c-0.48804,0.46485 -1.2555,0.4684 -1.88326,0.70261l-1.45204,-0.43156c0,0 -1.04658,-0.35479 -0.69772,-1.41917z" fill="#f9bd15" stroke="none" stroke-width="0.5" stroke-linecap="butt" stroke-linejoin="miter"></path><path d="M259.73545,186.22464c-0.0279,-0.22974 -0.04606,-0.46647 -0.05405,-0.71042c0,0 0,-1.12196 1.10319,-1.12196c1.10318,0 1.10318,1.12196 1.10318,1.12196c-0.09144,1.53919 0.96273,1.84746 1.95632,3.02855c2.69381,3.20214 8.4459,2.95522 12.38507,2.95522c1.82971,0 3.5931,0.54403 4.81652,-0.86766c6.40956,-4.22275 4.78394,-7.05636 4.0232,-13.16406c-0.3197,-2.56677 0.19426,-5.50116 -1.00526,-7.91446c-0.6097,-1.22665 -1.42097,-2.09438 -1.86685,-3.42944c-1.99883,-4.07737 -7.47007,-10.0231 -12.63477,-8.33118c-2.95334,0.9675 -5.07906,6.36489 -6.68323,8.76875c-0.54797,1.6719 -1.5484,3.09625 -2.16271,4.75813c-1.06655,2.88524 -1.03466,5.91191 -1.03466,8.96037c0,1.49583 0.01033,2.99204 0,4.48783c-0.00334,0.48374 -0.32277,1.1433 0.04461,1.45058c0.00313,0.00263 0.00628,0.00523 0.00943,0.00781zM261.40094,189.89736c-0.27415,-0.15552 -0.43108,-0.39492 -0.43108,-0.39492l-0.48718,-0.85268c-0.62485,-0.1607 -1.96177,-0.46398 -2.31681,-0.84626c-1.20797,-1.30063 -0.69084,-4.43999 -0.69084,-6.02913c0,-3.80943 -0.15689,-7.62322 1.17171,-11.23484c0.6366,-1.73051 1.68068,-3.2284 2.25001,-4.96548c2.00722,-3.10649 4.28194,-8.63914 8.02588,-9.93051c6.2936,-2.17081 12.83446,4.59121 15.31255,9.62011c0.42094,1.31214 1.21545,2.08189 1.81044,3.30229c1.30702,2.6809 0.85865,5.70777 1.20111,8.54089c0.16683,1.38014 0.93657,2.75057 1.10916,4.15647c0.53869,4.38834 -2.48672,8.7236 -5.91143,11.10234c-1.92109,1.79644 -3.72707,1.37626 -6.21532,1.37626c-4.26435,0 -11.52716,-0.24225 -14.82819,-3.84454z" fill="#000" stroke="none" stroke-width="0.5" stroke-linecap="butt" stroke-linejoin="miter"></path><path d="M359.7382,171.62103c0,-11.5713 9.22344,-20.9517 20.60115,-20.9517c11.37771,0 20.60115,9.3804 20.60115,20.9517c0,11.5713 -9.22344,20.9517 -20.60115,20.9517c-11.37771,0 -20.60115,-9.38039 -20.60115,-20.9517z" fill="#fff" stroke="#231f20" stroke-width="7.5" stroke-linecap="round" stroke-linejoin="round"></path><path d="M305.64737,209.82325c0,1.12196 -1.10319,1.12196 -1.10319,1.12196c-1.02384,0 -2.28523,0 -3.56371,0c-0.16043,0.20599 -0.42213,0.37399 -0.84902,0.37399c-0.42688,0 -0.68859,-0.16801 -0.84902,-0.37399c-0.88731,0 -1.73377,0 -2.46052,0c0,0 -1.10318,0 -1.10318,-1.12196c0,-1.12196 1.10318,-1.12195 1.10318,-1.12195c0.73545,0 1.47092,0 2.20637,0c0,-4.73661 0,-9.96646 0,-14.58542c-0.62984,0 -1.24745,0 -1.83864,0c0,0 -1.10319,0 -1.10319,-1.12195c0,-1.12196 1.10319,-1.12196 1.10319,-1.12196c2.20637,0 4.41273,0 6.61909,0h0.36773c0,0 1.10318,0 1.10318,1.12196c0,1.12196 -1.10318,1.12195 -1.10318,1.12195c-1.61517,0 -3.42742,0 -5.14819,0c0,0 0,-1.12195 1.10319,-1.12195c1.10318,0 1.10318,1.12195 1.10318,1.12195c0,4.8618 0,9.72362 0,14.58542c0.73545,0 1.47092,0 2.20637,0h1.10318c0,0 1.10319,0 1.10319,1.12195z" fill="#f9bd15" stroke="none" stroke-width="0.5" stroke-linecap="butt" stroke-linejoin="miter"></path><path d="M317.78239,206.83136c-1.10318,0 -1.10319,-1.12196 -1.10319,-1.12196v-0.37398c0.01867,-2.22423 -0.7181,-5.45073 -3.15044,-6.00401c-0.48188,-0.10962 -1.05868,-0.37899 -1.47721,-0.11252c-0.66942,0.42621 -0.89541,2.02082 -0.88828,2.75066c0.01663,1.70219 -0.18119,3.28783 -0.5289,4.8618h0.16116v2.24392c0,0.61964 -0.49391,1.12196 -1.10318,1.12196c-0.60928,0 -1.10319,-0.50231 -1.10319,-1.12196v-0.98625c-0.61559,-1.92654 -0.20583,-3.877 -0.70251,-5.84736c0,0 -0.26757,-1.08845 0.80268,-1.36056c0.16605,-0.04222 0.31276,-0.05169 0.44216,-0.03755c0.13765,-1.41183 0.50561,-2.77652 1.87894,-3.60303c2.91565,-1.75471 6.25395,1.51451 7.08304,4.00026c0.46253,1.38674 0.78242,2.62625 0.79207,4.09465v0.37398c0,0 0,1.12196 -1.10319,1.12196z" fill="#f9bd15" stroke="none" stroke-width="0.5" stroke-linecap="butt" stroke-linejoin="miter"></path><path d="M322.82221,198.82414c0.50217,0.25536 0.62098,0.64066 0.61657,0.95752c0.43718,0.06118 0.8788,0.08035 1.3238,0.08149c0.41423,-1.97365 0.89869,-4.13027 2.3352,-5.34896c3.93859,-3.34134 10.89076,1.28724 7.971,5.84285c-1.24689,1.9455 -4.9567,1.60419 -7.54548,1.41629c-0.32566,0.29821 -0.78172,0.29823 -0.78172,0.29823c-0.07298,0 -0.14569,0.00021 -0.21819,0.00058c-0.05123,0.18996 -0.10537,0.3749 -0.16379,0.55313c-0.07677,1.91387 1.61493,3.81104 3.30493,4.36568l1.10318,0.37398c0,0 1.04656,0.3548 0.69771,1.41918c-0.34886,1.06438 -1.39542,0.7096 -1.39542,0.7096l-1.10319,-0.37399c-2.87914,-1.00035 -4.73513,-3.75143 -4.78508,-6.85388c0.0211,-0.06441 0.0417,-0.1299 0.06183,-0.19644c-0.87801,-0.03416 -1.74459,-0.13939 -2.6313,-0.42939l-0.27014,-2.31411c0,0 0.49336,-1.00351 1.48008,-0.50176zM327.12213,199.51592c2.83934,0.17986 9.24131,0.46445 5.45848,-3.38276c-0.60812,-0.61847 -1.0805,-0.42336 -1.79402,-0.41935c-2.37436,0.0133 -3.16029,1.80948 -3.66446,3.80212z" fill="#f9bd15" stroke="none" stroke-width="0.5" stroke-linecap="butt" stroke-linejoin="miter"></path><path d="M342.93278,212.41852c-0.78007,0.79334 -1.56013,0 -1.56013,0l-0.65791,-0.89522c-0.23742,-0.9659 -0.45276,-1.89249 -0.64152,-2.80265c-1.22241,1.40041 -2.61091,2.69518 -4.29539,3.83805c0,0 -0.91791,0.62235 -1.52985,-0.31117c-0.61193,-0.93352 0.30597,-1.55588 0.30597,-1.55588c2.05902,-1.39505 3.63923,-3.03956 5.01487,-4.8308c-0.22986,-1.6241 -0.35792,-3.27324 -0.35792,-5.08125c0,0 0,-1.12196 1.10318,-1.12196c1.10318,0 1.10319,1.12196 1.10319,1.12196c0,0.80808 0.02652,1.57841 0.07709,2.32605c1.01282,-1.56082 1.97972,-3.18556 3.05001,-4.81833l0.2989,-0.62737c0,0 0.49336,-1.00351 1.48008,-0.50175c0.98672,0.50176 0.49336,1.50526 0.49336,1.50526l-0.43654,0.86857c-1.55681,2.37496 -2.92287,4.72018 -4.4945,6.89441c0.24405,1.47178 0.57441,2.94517 0.96956,4.55263l0.07756,-0.14724c0,0 0.78007,0.79334 0,1.58669z" fill="#f9bd15" stroke="none" stroke-width="0.5" stroke-linecap="butt" stroke-linejoin="miter"></path><path d="M361.27457,207.51134c0,1.12196 -1.10319,1.12195 -1.10319,1.12195c-2.49186,0 -5.12327,0 -7.72228,0c0,1.37129 0,2.74256 0,4.11385v0.74797c0,0 0,1.12196 -1.10318,1.12196c-1.10318,0 -1.10319,-1.12196 -1.10319,-1.12196c0,-1.54866 0,-3.19158 0,-4.86182c-0.8696,0 -1.72985,0 -2.57409,0c0,0 -1.10318,0 -1.10318,-1.12195c0,-1.12196 1.10318,-1.12196 1.10318,-1.12196c0.85804,0 1.71606,0 2.57409,0c0,-2.30612 0,-4.60756 0,-6.73173c0,0 0,-1.12196 1.10319,-1.12196c1.10318,0 1.10318,1.12196 1.10318,1.12196c0,2.24392 0,4.48781 0,6.73173c2.45152,0 4.90304,0 7.35456,0h0.36773c0,0 1.10319,0 1.10319,1.12196z" fill="#f9bd15" stroke="none" stroke-width="0.5" stroke-linecap="butt" stroke-linejoin="miter"></path><path d="M372.3064,210.12924c0,1.12196 -1.10318,1.12196 -1.10318,1.12196l-0.7166,-0.05757c-0.35425,-0.12039 -0.7085,-0.24077 -1.06277,-0.36115c-2.11107,-0.71493 -3.03618,-3.04135 -3.07475,-5.53569c-0.34676,-0.01663 -0.69111,-0.02934 -1.02954,-0.02934c0,0 -1.10318,0 -1.10318,-1.12196c0,-1.12196 1.10318,-1.12196 1.10318,-1.12196c0.39726,0 0.80772,0.02962 1.21825,0.06384c0.52996,-2.85994 2.13193,-5.37485 4.34001,-5.29881c3.04177,0.10475 2.97099,3.95453 1.63155,5.8248c-1.00742,1.40664 -2.43189,1.72987 -3.95779,1.75809c-0.07186,1.66257 0.24798,3.19466 1.48916,3.3066c0.3812,0.12894 0.7624,0.25786 1.1436,0.3868l0.01887,-0.05757c0,0 1.10319,0 1.10319,1.12196zM368.84037,203.15528c0.9234,-0.10885 1.68037,-0.50574 2.05173,-1.60851c0.15069,-0.44751 0.53817,-0.98372 0.23714,-1.50079c-0.40552,-0.69653 -1.55753,0.7836 -1.84864,1.53698c-0.14752,0.38177 -0.30721,0.93739 -0.44023,1.57234z" fill="#f9bd15" stroke="none" stroke-width="0.5" stroke-linecap="butt" stroke-linejoin="miter"></path><path d="M386.17977,208.25931c-1.10318,0 -1.10318,-1.12196 -1.10318,-1.12196v-0.74797c0.00329,-1.06151 -0.00213,-2.14012 -0.23056,-3.17592c-0.15968,-0.72402 -0.30702,-1.45088 -0.47468,-2.17303c-0.24664,-1.06245 -0.20146,-2.25782 -0.77978,-3.17749c-0.25339,-0.40297 -1.624,0.28024 -1.64783,0.28427c-0.95002,0.16089 -1.85891,0.22657 -2.60954,1.0695c-0.31949,0.35877 -0.44554,0.78642 -0.46688,1.25152c0.69334,0.23613 0.69336,1.05935 0.69336,1.05935c0,1.37129 0,2.74255 0,4.11383v1.12196c0,0.61964 -0.49393,1.12196 -1.10319,1.12196c-0.525,0 -0.96435,-0.37298 -1.07585,-0.87262l-0.36214,-1.47318l0.02151,-0.00547c-0.01632,-0.04273 -0.03174,-0.08591 -0.04619,-0.12955c-0.24887,-0.75223 -0.00673,-1.58733 -0.00827,-2.38099c-0.00298,-1.5355 -0.40499,-3.82298 0.59421,-5.16884c1.20002,-1.61636 5.814,-3.35371 7.50991,-1.63813c0.65695,0.66457 0.71038,1.74233 1.00647,2.63528c0.81463,2.45674 1.17865,4.96916 1.1858,7.53757v0.74797c0,0 0,1.12196 -1.10319,1.12196z" fill="#f9bd15" stroke="none" stroke-width="0.5" stroke-linecap="butt" stroke-linejoin="miter"></path><path d="M390.18016,204.47409c0.78007,-0.79334 1.56014,0 1.56014,0l1.15651,1.18018c1.25322,1.7014 2.83283,3.8677 4.93597,4.50497c0.57995,0.17573 1.69069,0.14492 2.06937,-0.53177c0.11989,-0.21421 -0.13531,-0.48551 -0.11109,-0.73076c0.13466,-1.36414 0.93036,-3.45851 -0.10432,-4.76529c-0.28425,-0.359 -0.86669,-0.30013 -1.24741,-0.55019c-2.21175,-1.4528 -4.23791,-2.99375 -3.79357,-5.93059c0.45344,-2.99691 1.66064,-2.48082 4.03674,-2.48082c0,0 1.10318,0 1.10318,1.12196c0,1.12196 -1.10318,1.12196 -1.10318,1.12196c-0.63651,0 -1.36779,-0.60005 -1.8952,-0.23763c-0.20377,0.14002 0.05161,0.49862 0.04827,0.74869c-0.00582,0.43522 -0.26439,0.91282 -0.0757,1.30348c0.84567,1.75092 3.59022,2.06824 4.59566,3.43528c1.50608,2.04774 0.9441,4.23996 0.63113,6.45425c-0.07075,0.50064 0.17574,1.09997 -0.1111,1.51316c-3.35119,4.82742 -8.4423,-0.52226 -10.64558,-3.5065l-1.04986,-1.06372c0,0 -0.78007,-0.79334 0,-1.58669z" fill="#f9bd15" stroke="none" stroke-width="0.5" stroke-linecap="butt" stroke-linejoin="miter"></path><path d="M405.15024,214.22128c-1.08176,0.22003 -1.29811,-0.88013 -1.29811,-0.88013l-0.30275,-1.53952c-0.65966,-3.39541 -0.45413,-6.81995 -0.45413,-10.27405c0,0 0,-0.18366 0.07307,-0.40237c0.10753,-0.32185 0.37328,-0.71959 1.03012,-0.71959c0.65684,0 0.9226,0.39773 1.03012,0.71959c0.04719,0.12491 0.07306,0.26057 0.07306,0.40237c0,3.29575 -0.23343,6.59864 0.41128,9.83399l0.30275,1.53952c0,0 0.21635,1.10017 -0.86541,1.3202z" fill="#f9bd15" stroke="none" stroke-width="0.5" stroke-linecap="butt" stroke-linejoin="miter"></path><path d="M403.8307,194.42187c0,-0.61964 0.49393,-1.12196 1.10319,-1.12196c0.60927,0 1.10318,0.50231 1.10318,1.12196c0,0.61964 -0.49391,1.12195 -1.10318,1.12195c-0.60927,0 -1.10319,-0.50231 -1.10319,-1.12195z" fill="#f9bd15" stroke="none" stroke-width="0.5" stroke-linecap="butt" stroke-linejoin="miter"></path><path d="M415.81874,203.6266c-0.39307,0.2291 -0.85604,0.11139 -0.85604,0.11139c-2.80102,-0.73031 -3.41532,0.82865 -3.40972,3.77335c0.00133,0.69457 -0.71025,1.79006 -0.09041,2.08169c0.86148,0.40533 2.59778,-0.57577 3.32139,-0.86384c0.35559,-0.14157 0.84049,0.10327 1.13714,-0.14127c0.55991,-0.46155 0.04673,-1.46554 0.04461,-2.19853c-0.00327,-1.1275 0.17792,-1.91572 -0.14699,-2.76278zM414.49374,201.29348c0.03998,-0.17915 0.13732,-0.36919 0.32418,-0.55925c0.78007,-0.79334 1.56014,0 1.56014,0l0.8733,0.91897c1.06428,1.72932 1.84779,6.72682 0.22988,8.52141c-0.42817,0.47492 -1.22787,0.3401 -1.80468,0.60669c-1.16932,0.54042 -4.14955,1.72435 -5.50407,0.6321c-1.06469,-0.85854 -0.82752,-2.81169 -0.82587,-3.90206c0.00337,-2.2355 0.61455,-5.43821 2.98986,-6.30962c0.62429,-0.22902 1.43097,-0.09049 2.15725,0.09174z" fill="#f9bd15" stroke="none" stroke-width="0.5" stroke-linecap="butt" stroke-linejoin="miter"></path><path d="M433.59779,203.71391c-1.04656,0.35479 -1.39542,-0.7096 -1.39542,-0.7096l-0.38738,-1.18878c-0.06398,-0.34489 -0.15832,-1.9381 -0.70659,-2.38822c-0.78664,-0.64583 -3.53188,-0.02637 -4.17666,0.37398c-1.13821,0.70673 -1.1697,3.35873 -1.5676,4.3297c-0.00461,0.01124 -0.00924,0.02248 -0.01389,0.03369l0.00466,0.00135l-0.59944,2.13373c-0.12379,0.48194 -0.55478,0.83759 -1.06743,0.83759c-0.49626,0 -0.91598,-0.33325 -1.05462,-0.79171l-0.34112,-1.04078c-0.93039,-1.8973 -1.17836,-3.17987 -1.17836,-5.27323c0,0 0,-1.12196 1.10318,-1.12196c1.10318,0 1.10319,1.12196 1.10319,1.12196c0,0.74363 0.02627,1.32139 0.11055,1.85502c0.52681,-2.76847 3.11277,-4.80052 6.12372,-4.84676c0.9865,-0.01515 2.03825,-0.08899 2.89311,0.60418c1.23371,1.00039 1.20669,2.17414 1.49978,3.59553l0.34807,1.05513c0,0 0.34886,1.06439 -0.69772,1.41918z" fill="#f9bd15" stroke="none" stroke-width="0.5" stroke-linecap="butt" stroke-linejoin="miter"></path><g stroke="none" stroke-width="0.5" stroke-linecap="butt" stroke-linejoin="miter"><path d="M358.28544,235.40041c0.26858,-3.60559 3.95034,-3.15314 7.00948,-3.36727c0.76065,-0.05324 3.09751,-0.50868 3.77695,-0.1446c1.6108,0.86313 1.03184,3.59856 2.51525,4.16694c0.78213,0.29966 2.21316,-0.50644 2.94497,-0.75011c0.37571,-0.77574 0.80644,-2.32124 1.27314,-2.93537c1.13227,-1.48996 7.50681,-2.53405 9.05146,-1.0722c1.53629,1.45394 -0.12156,5.4632 -0.22233,7.3032c-0.06194,1.13107 0.49424,2.24925 -0.38841,3.2796c-0.90016,1.0508 -2.75868,0.82689 -3.9592,0.91091c-2.78549,0.19497 -6.21767,0.53128 -8.91937,-0.09388c-1.8406,-0.42589 -1.97474,-1.93036 -3.9806,-1.7152c-1.01509,0.10889 -0.17366,1.5696 -1.08323,2.25937c-0.51131,0.38775 -1.25472,0.23688 -1.88687,0.3231c-2.2598,0.3082 -4.57082,0.43277 -5.69927,-1.64259c-0.6688,-1.70383 -0.62021,-3.5085 -0.74336,-5.32844l-0.02271,-0.33578c0,0 -0.03664,-0.54142 0.33409,-0.8577zM359.98003,236.90593c0.06518,1.43111 0.02396,2.94368 0.57353,4.24778c0.00371,0.46485 3.66504,0.97069 4.48114,0.5348c0.29803,-0.15918 -0.47077,-2.03608 1.90021,-2.6725c2.60278,-0.69863 2.86333,1.33092 4.87603,1.71324c2.59328,0.49261 5.66372,0.23488 8.33949,0.04761c0.49058,-0.03433 2.27539,0.15427 2.59842,-0.2228c0.4012,-0.46833 0.01852,-3.73486 0.07946,-4.51244c0.02334,-0.29782 1.02522,-3.03637 0.72408,-3.22124c-0.68289,-0.41922 -5.75714,0.03353 -6.09014,0.66229c-0.56342,1.06381 -0.95455,2.24838 -1.6194,3.33958c-1.24139,0.57856 -3.4427,1.78386 -4.88782,1.14756c-2.15657,-0.94955 -1.83404,-3.84235 -2.69764,-4.2396c-0.22744,-0.10462 -6.86947,0.46285 -7.49431,0.60088c-0.19004,0.04198 -0.36504,0.18592 -0.46878,0.35319c-0.19576,0.31566 -0.05321,1.15451 -0.03186,1.41207c0,0 0.03313,0.48956 -0.28238,0.80958z" fill="#36a46d"></path><path d="M360.22952,236.09266c-0.02135,-0.25756 -0.16325,-1.10027 0.03251,-1.41592c0.10375,-0.16729 0.27904,-0.31248 0.46909,-0.35446c0.62484,-0.13803 7.2752,-0.72028 7.50265,-0.61567c0.8636,0.39726 0.59354,3.29719 2.75013,4.24674c1.44513,0.6363 3.58482,-0.54763 4.82621,-1.12618c0.66485,-1.09121 1.11583,-2.29997 1.67927,-3.36378c0.33301,-0.62876 5.41098,-1.07444 6.09386,-0.65522c0.30114,0.18488 -0.69875,2.93149 -0.72208,3.22931c-0.06094,0.77758 0.32071,4.05749 -0.08049,4.52582c-0.32303,0.37706 -2.10896,0.1918 -2.59955,0.22614c-2.67576,0.18728 -5.77816,0.46604 -8.37146,-0.02657c-2.0127,-0.38233 -2.30352,-2.43537 -4.90629,-1.73673c-2.37098,0.6364 -1.59888,2.5207 -1.89691,2.67987c-0.8161,0.43589 -4.48065,-0.07711 -4.48436,-0.54197c-0.54957,-1.30411 -0.50993,-2.82843 -0.57512,-4.25953c0.31551,-0.32002 0.28255,-0.81188 0.28255,-0.81188z" fill="#42c784"></path></g><g stroke="none" stroke-width="0.5" stroke-linecap="butt" stroke-linejoin="miter"><path d="M364.21271,258.18582c-3.07213,-1.27257 -5.20652,-4.66237 -3.17401,-8.2506c2.33526,-4.12272 9.47961,-4.30902 13.46274,-4.30902c1.1765,0 2.80478,-0.29681 3.93074,0.03002c3.44925,1.00121 7.0447,6.84457 4.31877,10.34962c-3.04117,3.9104 -9.0447,3.8318 -13.39769,3.8318c-1.43894,0 -2.5272,-0.0547 -3.94484,-0.40749l-0.88024,-0.6691c0,0 -0.23023,-0.23414 -0.31546,-0.57523zM367.88203,257.56282c0.45951,0.02814 0.93113,0.0309 1.47119,0.0309c3.75876,0 8.77993,0.22472 11.6078,-2.89992c0.45411,-0.50177 0.14535,-2.13646 0.15949,-2.70985c0.09561,-3.87562 -3.74502,-4.11385 -6.61911,-4.11385c-3.77942,0 -7.51365,0.19996 -10.75451,2.40612c-2.97674,2.02637 -0.45857,6.22583 3.03223,6.19554c0,0 1.08284,0 1.10291,1.09105z" fill="#36a46d"></path><path d="M366.74942,256.49381c-3.4908,0.0303 -6.0145,-4.20194 -3.03775,-6.2283c3.24086,-2.20616 7.02833,-2.42802 10.80773,-2.42802c2.87409,0 6.73338,0.26787 6.63778,4.1435c-0.01414,0.57339 0.29395,2.21874 -0.16016,2.72051c-2.82787,3.12466 -7.90188,2.92545 -11.66064,2.92545c-0.54009,0 -1.0183,-0.00721 -1.47781,-0.03534c-0.02007,-1.09105 -1.10914,-1.0978 -1.10914,-1.0978z" fill="#42c784"></path></g><g stroke="none" stroke-width="0.5" stroke-linecap="butt" stroke-linejoin="miter"><path d="M380.36298,269.18819c-0.63843,0 -0.63844,-0.6493 -0.63844,-0.6493v-0.6493c0,-1.98626 0.00989,-4.22224 -0.61103,-6.08837c-0.26472,-0.79558 -0.76498,-1.347 -1.06434,-2.02649c-1.14941,0.75923 -2.47516,1.55818 -3.40625,2.51388c-0.19932,0.20459 -0.25592,0.5434 -0.48954,0.70618c-1.03868,0.72368 -1.24408,-0.04497 -2.20056,0.12491c-0.93992,0.16693 -1.20904,0.98652 -2.33934,0.86459c-0.62634,-0.06757 -1.72018,-0.83869 -2.29964,-1.13866c-0.98789,-0.51139 -2.33027,-0.58179 -3.4002,-0.80286c-0.50929,0 -1.20762,-0.487 -1.52571,-0.08249c-0.1103,0.14026 0.25777,0.2667 0.30699,0.43919c0.11201,0.3926 0.09545,0.81427 0.19591,1.2101c0.46441,1.83015 1.37017,3.43234 1.90959,5.17402c0.34004,1.09791 -0.65291,3.2933 0.86772,3.68439c0,0 0.60567,0.20532 0.40378,0.8213c-0.20189,0.61598 -0.80757,0.41066 -0.80757,0.41066c-2.51321,-0.96498 -1.04147,-2.72932 -1.68601,-4.54003c-0.69904,-1.96382 -1.79252,-3.78591 -2.14726,-5.92781c-0.10725,-0.64759 -0.52551,-1.45345 -0.12211,-1.96624c0.50455,-0.64139 2.03656,-0.51536 2.7305,-0.51536c1.23048,0.24676 2.69338,0.3571 3.83537,0.92858c0.57027,0.28538 1.36716,0.89458 1.95657,1.02567c0.48495,0.10786 1.3973,-0.78107 1.91688,-0.86687c0.22999,-0.03798 1.46704,0.30465 1.63003,0.12492c1.22835,-1.35456 2.74731,-2.44146 4.28961,-3.48715l0.36644,-0.19049c0.08485,-0.07171 0.20168,-0.12441 0.36255,-0.13357c0.11685,-0.01452 0.26116,-0.00441 0.39377,0.08344c0.13655,0.08135 0.21,0.20809 0.24949,0.32088c0.06069,0.14292 0.06904,0.26726 0.0482,0.37301c0.04819,0.31115 0.3911,0.5612 0.55331,0.84923c0.29185,0.51822 0.5102,1.07955 0.69391,1.64678c0.64894,2.00373 0.66583,4.34531 0.66583,6.46468v0.6493c0,0 0,0.6493 -0.63844,0.6493z" fill="#36a46d"></path><path d="M380.25739,267.60048c-0.35414,-0.54025 0.17706,-0.90041 0.17706,-0.90041l0.71208,-0.47589c0.79783,-0.26775 1.36761,-0.28246 2.19579,-0.28246c0.96214,0.01088 2.41603,0.2822 3.06109,1.1209c0.88473,1.1503 0.50138,5.26439 -0.48154,6.26404c-1.21887,1.23961 -4.94486,0.41181 -6.54495,0.40175c-1.35421,0.34431 -2.66944,0.01053 -4.01914,0.21292c-3.5115,0.52656 -6.55032,0.63516 -9.88064,-0.4578c0,0 -0.60567,-0.20532 -0.40377,-0.8213c0.20189,-0.61598 0.80756,-0.41066 0.80756,-0.41066c3.09687,1.07601 5.98495,0.87218 9.27233,0.40793c1.37335,-0.19394 2.70182,0.12732 4.06766,-0.21995c0.82316,-0.00431 5.42199,0.35138 5.79808,-0.03111c0.49874,-0.50723 0.86332,-3.9642 0.3697,-4.55757c-0.3984,-0.4789 -1.48886,-0.61926 -2.04637,-0.61054c-0.59771,0 -1.06891,-0.04486 -1.6348,0.15041l-0.56479,0.38984c0,0 -0.5312,0.36016 -0.88535,-0.18009z" fill="#36a46d"></path><path d="M385.7026,267.86992c-0.00233,0.21328 -0.02589,0.42607 -0.06505,0.6368c0.15885,0.44386 0.25688,0.89989 0.16574,1.34882c0.18922,0.96923 0.35262,2.03395 -0.6507,2.69905c-0.76123,0.50464 -3.96997,-0.38463 -5.30644,0.06844c-1.12799,0.01277 -2.11999,0.0834 -3.23151,0.22166c-0.8873,0.11038 -1.84988,-0.16062 -2.72718,-0.00523c-1.67398,0.2965 -3.27524,0.65769 -4.99692,0.65769h-0.21281c0,0 -0.30835,0 -0.49647,-0.21794c-0.63448,-0.01897 -2.34048,-0.19732 -2.78414,-0.50819c-1.308,-0.9165 -0.54626,-2.45011 -0.75457,-3.71495c-0.22365,-1.35802 -1.07553,-1.92148 -1.64581,-3.06522c-0.41573,-0.83377 -0.62663,-1.88882 -0.90791,-2.77844l-0.00801,-0.73194c-0.00015,-0.00704 -0.00023,-0.01416 -0.00023,-0.02136c0,-0.2255 0.077,-0.37269 0.17753,-0.46876c0.09446,-0.10223 0.23918,-0.18054 0.46091,-0.18054v0c1.51537,0 2.92498,0.01145 4.3239,0.71532c0.72112,0.36283 1.56655,1.11883 2.3755,1.24095c1.80085,0.27185 2.3307,-1.22089 3.77886,-1.24021c0.88099,-1.20977 2.37735,-2.56765 3.74857,-3.0474c0.35091,-0.12277 0.74427,-0.36801 1.08995,-0.23072c0.8457,0.3359 0.7086,1.01954 1.00475,1.62747c0.52553,1.0788 0.87202,1.49519 0.91222,2.64859c0.07501,0.15976 0.14003,0.31935 0.18935,0.47857c0.43797,1.41412 -0.3548,3.10808 0.1773,4.51996c0.82893,-1.65616 2.35607,-2.17738 3.582,-1.69773c0.06617,-0.08867 0.16807,-0.16767 0.32243,-0.21999c0.60567,-0.20533 0.80756,0.41066 0.80756,0.41066c0.02147,0.06771 0.04573,0.13646 0.07205,0.20616c0.59914,0.02608 0.59914,0.64845 0.59914,0.64845z" fill="#42c784"></path></g><g stroke="none" stroke-width="0.5" stroke-linecap="butt" stroke-linejoin="miter"><path d="M335.15094,227.87576c-2.67429,0.19763 -3.88664,2.20871 -5.64037,4.28801c-3.63368,4.30826 -5.79489,12.97719 -2.45572,18.01638c0.79121,2.57348 3.18238,3.38873 5.33894,4.32869c5.96552,2.60016 16.17346,0.09097 17.94837,-7.3387c0,-3.21404 0.70877,-6.50437 0.37371,-9.7808c-0.51845,-5.06982 -9.21817,-9.22419 -13.62018,-9.15536h-1.10319c0,0 -0.51532,0 -0.84156,-0.35821zM336.48039,225.99006h0.61531c5.65821,0.06405 14.92153,4.67501 15.79805,11.03984c0.47632,3.45884 -0.36174,7.01301 -0.36174,10.4144c-2.2159,8.85227 -13.55346,12.37573 -21.03078,9.11663c-2.65143,-1.15566 -5.37202,-2.3316 -6.42836,-5.39491c-4.78923,-7.38099 0.98641,-25.50684 10.55192,-25.54994c0,0 0.53035,0 0.85561,0.37398z" fill="#36a46d"></path><path d="M335.14312,227.83923c0.32623,0.35821 0.84357,0.35781 0.84357,0.35781l1.10619,-0.00034c4.402,-0.06884 13.13937,4.11094 13.65782,9.18076c0.33506,3.27643 -0.37491,6.5937 -0.37491,9.80776c-1.7749,7.42968 -12.03166,9.95786 -17.99718,7.3577c-2.15656,-0.93997 -4.56189,-1.76674 -5.3531,-4.34022c-3.33919,-5.03919 -1.17348,-13.75824 2.46019,-18.06648c1.75373,-2.0793 2.98313,-4.09937 5.65742,-4.29698z" fill="#42c784"></path></g><path d="M359.50287,228.30103c0.34886,1.06438 -0.69772,1.41917 -0.69772,1.41917l-1.45204,0.43157c-0.66604,-0.27997 -1.56572,-0.25355 -1.99813,-0.83992c-0.42524,-0.57664 -0.16248,-1.43268 -0.20824,-2.15197c-0.10992,-1.72824 0,-3.50472 0,-5.23579c0,0 0,-1.12196 1.10318,-1.12196c1.10318,0 1.10319,1.12196 1.10319,1.12196c0,1.37129 0,2.74255 0,4.11383c0,0.34848 -0.30057,2.00265 0,1.86993l0.75432,-0.31641c0,0 1.04656,-0.35479 1.39542,0.70958z" fill="#b9b9b9" stroke="none" stroke-width="0.5" stroke-linecap="butt" stroke-linejoin="miter"></path><path d="M370.59132,226.78589c0,1.12196 -1.10318,1.12196 -1.10318,1.12196l-1.99146,-0.13276c-0.33032,-0.44326 -0.81291,-0.93954 -1.14869,-1.42328c-0.10279,0.09534 -0.21046,0.18493 -0.32489,0.26652c-3.57702,2.55066 -6.71056,-3.08253 -2.37057,-4.64611c0.98509,-0.3549 1.84827,0.03447 2.73654,0.33715c0.05136,-0.00746 0.10387,-0.01131 0.15725,-0.01131c0.49626,0 0.91598,0.33326 1.05462,0.79171l0.35968,1.09742l-0.1427,0.04837c0.23045,0.40915 0.42085,0.85513 0.71985,1.56114l0.95036,-0.13276c0,0 1.10319,0 1.10319,1.12196zM365.29069,224.30016c-0.68357,-0.20663 -1.71325,-0.39119 -1.69596,0.46689c0.01436,0.71202 1.17929,-0.07619 1.69596,-0.46689z" fill="#b9b9b9" stroke="none" stroke-width="0.5" stroke-linecap="butt" stroke-linejoin="miter"></path><path d="M374.28935,226.7854c0.19614,0.81599 0.56646,1.49701 1.22886,1.88034c0.24031,0.13907 0.37553,-1.63226 0.17668,-1.83448c-0.33148,-0.3371 -0.93296,-0.06105 -1.40554,-0.04587zM374.09387,224.54198h0.17473c0.9968,0.01129 2.16688,-0.13092 2.98643,0.70259c1.64626,1.67427 0.77139,5.92335 -2.02969,5.64522c-4.08173,-0.40529 -3.16312,-7.02575 -3.16312,-9.71368c0,0 0,-1.12196 1.10318,-1.12196c1.10318,0 1.10319,1.12196 1.10319,1.12196c0,0.847 -0.15682,2.10498 -0.17473,3.36587z" fill="#b9b9b9" stroke="none" stroke-width="0.5" stroke-linecap="butt" stroke-linejoin="miter"></path><path d="M388.18564,227.55306c0.34886,1.06438 -0.69772,1.41918 -0.69772,1.41918l-1.27532,0.41707c-3.05224,-0.06423 -5.03725,-1.94812 -5.29609,-4.90343c-0.32424,-0.09619 -0.76427,-0.35726 -0.76427,-1.06585c0,-0.77177 0.52202,-1.01265 0.84787,-1.08784c0.21851,-1.40432 0.8216,-2.96634 2.35298,-3.02054c3.59119,-0.12712 2.23171,4.10599 0.62925,5.09757c-0.0979,0.06058 -0.43478,0.09446 -0.84375,0.1131c0.12373,1.48518 0.85582,2.75546 2.72059,2.65203l0.93104,-0.33091c0,0 1.04658,-0.35479 1.39542,0.70958z" fill="#b9b9b9" stroke="none" stroke-width="0.5" stroke-linecap="butt" stroke-linejoin="miter"></path><path d="M389.93874,229.50042c-1.08553,-0.19995 -0.88893,-1.30394 -0.88893,-1.30394l0.1243,-0.6038c0.02103,-3.5255 0.41127,-6.58917 -0.2351,-10.06257c0,0 -0.20489,-1.10244 0.87912,-1.31082c1.08399,-0.20836 1.28887,0.89407 1.28887,0.89407c0.6718,3.61952 0.29433,6.83472 0.27345,10.49263l-0.15959,0.99036c0,0 -0.19659,1.104 -1.28212,0.90407z" fill="#b9b9b9" stroke="none" stroke-width="0.5" stroke-linecap="butt" stroke-linejoin="miter"></path><path d="M307.82149,111.69468c0,1.12195 -1.10319,1.12196 -1.10319,1.12196c-1.59348,0 -3.55471,0 -5.14819,0c0,0 -1.10319,0 -1.10319,-1.12196c0,-1.12196 1.10319,-1.12196 1.10319,-1.12196c0.4903,0 0.98062,0 1.47092,0c0,-1.46672 0,-3.42586 0,-4.48783c0,0 0,-0.36615 0.20567,-0.68012c0.06058,-1.26608 0.11775,-2.53711 0.14514,-3.80826c-0.72979,0.00122 -1.45959,0.00057 -2.18945,0.00057c0,0 -1.10318,0 -1.10318,-1.12196c0,-1.12195 1.10318,-1.12196 1.10318,-1.12196c0.70683,0 1.41366,-0.00189 2.12046,-0.00103c0.20197,-0.22892 0.49513,-0.37295 0.82137,-0.37295c0.05763,0 0.11422,0.0045 0.16947,0.01316c0.06177,-0.00859 0.12776,-0.01316 0.19825,-0.01316c0.43616,0 0.69987,0.17537 0.85932,0.38744c0.02238,0.00034 0.04477,0.00069 0.06715,0.00103l0.93104,-0.3309c0,0 1.04658,-0.35479 1.39544,0.7096c0.34886,1.06438 -0.69772,1.41917 -0.69772,1.41917l-1.27533,0.41708c-0.06599,0.00075 -0.13198,0.00146 -0.19797,0.00214c-0.0729,2.69747 -0.31034,5.43603 -0.34646,8.07666c0,0.17912 0,0.35824 0,0.53737v0.37398c0.36773,0 0.73545,0 1.10318,0h0.36773c0,0 1.10318,0 1.10318,1.12196z" fill="#f9bd15" stroke="none" stroke-width="0.5" stroke-linecap="butt" stroke-linejoin="miter"></path><path d="M318.85334,112.06865c-1.10318,0 -1.10318,-1.12195 -1.10318,-1.12195v-0.37399c0,-1.80172 -0.12726,-3.11656 -0.66694,-4.84654c-0.13162,-0.4219 -0.26259,-1.33306 -0.65755,-1.14716c-1.18309,0.55686 -2.06117,2.30913 -2.72052,4.01206c0,0.03724 0,0.07447 0,0.11172v1.86993c0,0.61964 -0.49391,1.12196 -1.10318,1.12196c-0.60928,0 -1.10318,-0.50231 -1.10318,-1.12196c0,-0.12466 0,-1.74526 0,-1.86993c0,-1.86993 0,-3.73986 0,-5.60979c0,0 0,-1.12196 1.10318,-1.12196c1.10318,0 1.10318,1.12196 1.10318,1.12196c0,0.3413 0,0.68261 0,1.02391c0.82476,-0.95648 1.73078,-1.68513 2.42767,-1.76196c3.66245,-0.40379 3.8237,5.8359 3.8237,8.21776v0.37398c0,0 0,1.12196 -1.10319,1.12196z" fill="#f9bd15" stroke="none" stroke-width="0.5" stroke-linecap="butt" stroke-linejoin="miter"></path><path d="M325.47243,108.32881c0,-0.67985 0.40507,-0.94776 0.7243,-1.05332c-0.02783,-1.6043 -0.0979,-3.20621 -0.26478,-4.80709c-0.05709,-0.13466 -0.09179,-0.29836 -0.09179,-0.49735c0,-0.07119 0.00445,-0.13788 0.01277,-0.20032c-0.00141,-0.0115 -0.00284,-0.02301 -0.00425,-0.0345c0,0 -0.13684,-1.11329 0.95784,-1.25245c0.49158,-0.0625 0.78999,0.12759 0.96961,0.356c0.80838,-0.01081 1.51745,0.02329 2.32129,0.55088c2.27363,1.49228 3.64427,5.40078 1.19283,7.4558c-0.76691,0.6429 -1.89467,0.64238 -2.87209,0.61758c0.00128,0.99135 -0.00391,1.98404 -0.00391,2.9786v0.37399c0,0 0,1.12195 -1.10318,1.12195c-1.10318,0 -1.10318,-1.12195 -1.10318,-1.12195v-0.37399c0,-1.0198 0.00651,-2.03804 0.00569,-3.05507c-0.32163,-0.10166 -0.74115,-0.36688 -0.74115,-1.05876zM329.951,107.0632c0.54004,-0.40164 0.3019,-0.79377 0.3019,-1.35228c0,-1.52683 -0.85981,-2.24623 -2.03796,-2.50285c0.10978,1.35195 0.16154,2.70415 0.18507,4.05808c0.55994,0.06276 1.12513,0.11378 1.55099,-0.20293z" fill="#f9bd15" stroke="none" stroke-width="0.5" stroke-linecap="butt" stroke-linejoin="miter"></path><path d="M341.28473,110.19874c0,1.12196 -1.10318,1.12196 -1.10318,1.12196h-0.36773c-1.56961,-0.02732 -2.32617,0.21382 -3.67192,-1.02883c-0.59333,-0.54787 -0.88664,-1.39603 -0.9519,-2.36168c-0.32026,-0.06335 -0.8921,-0.28954 -0.8921,-1.09732c0,-1.03171 0.93287,-1.1147 1.08292,-1.12137c0.40401,-1.84381 1.36064,-3.63999 2.46873,-4.36995c1.25574,-0.82723 4.70853,0.05079 5.47679,1.16163c0.89663,1.29644 -0.14078,2.52512 -0.75598,3.45611c-1.36043,2.05875 -3.24483,2.12139 -5.3388,2.04818c-0.00147,0.05892 -0.002,0.11646 -0.0016,0.17243c0.00738,1.01749 2.11917,0.90835 2.58386,0.89688h0.36773c0,0 1.10318,0 1.10318,1.12196zM337.58989,105.88551c1.09674,0.07917 2.22461,0.08046 2.65749,-0.31826c0.23959,-0.22066 0.30956,-0.57802 0.48717,-0.85267c0.22732,-0.35152 1.05924,-0.79848 0.71494,-1.03173c-2.03005,-1.37517 -3.28932,0.32809 -3.85961,2.20266z" fill="#f9bd15" stroke="none" stroke-width="0.5" stroke-linecap="butt" stroke-linejoin="miter"></path><path d="M351.94883,110.19874c-1.10318,0 -1.10318,-1.12196 -1.10318,-1.12196v-0.74797c0,-1.91283 0.2742,-4.09591 -0.91128,-5.7554c-0.22539,-0.31551 -0.67641,0.38068 -0.96342,0.6393c-0.335,0.30186 -0.65264,0.6249 -0.94945,0.9656c-0.04288,0.04923 -0.08198,0.09813 -0.11761,0.14671c-0.0005,1.02051 -0.00314,2.04099 -0.01431,3.06155l-0.11885,0.14914l0.07649,0.02593l-0.35968,1.09742c-0.13864,0.45846 -0.55835,0.79171 -1.05461,0.79171c-0.60927,0 -1.10319,-0.50233 -1.10319,-1.12196v-1.49594h0.17149c-0.19699,-1.06478 -0.18152,-2.04456 0.19537,-2.98454c0.00037,-0.37642 0.00087,-0.75286 0.00087,-1.12929c0,0 0,-1.12196 1.10318,-1.12196c0.20552,0 0.37276,0.03894 0.50884,0.10231c0.08434,-0.07402 0.17186,-0.14801 0.26267,-0.222c0.82088,-0.66885 2.26366,-1.70349 3.44931,-0.85664c2.37241,1.69449 2.03057,5.20801 2.03057,7.70805v0.74798c0,0 0,1.12195 -1.10319,1.12195z" fill="#f9bd15" stroke="none" stroke-width="0.5" stroke-linecap="butt" stroke-linejoin="miter"></path><path d="M363.71613,102.71903c0,0.03958 -0.00201,0.07869 -0.00595,0.11721l0.35943,0.45104c0.00102,0.37123 0.02735,0.74414 0.04031,1.11615c0.39296,0.95416 0.46199,2.3971 0.67644,3.27927c0.75815,3.11879 0.09845,4.72736 -3.46762,4.74546l-0.93104,0.33089c0,0 -1.04658,0.35479 -1.39542,-0.70958c-0.34886,-1.06438 0.69771,-1.41917 0.69771,-1.41917l1.27533,-0.41708c0.6042,0.00326 1.65488,0.09507 2.20503,-0.2695c0.46402,-0.3075 -0.27994,-1.04045 -0.49099,-1.6098c-3.06524,2.15638 -7.80343,-3.44671 -4.89148,-6.40821c0.81956,-0.83351 1.98963,-0.69132 2.98643,-0.70261c0,0 0.81802,0 1.04525,0.71639c0.12593,-0.13252 0.28365,-0.23359 0.46069,-0.29046c0.0483,-0.13085 0.10024,-0.26774 0.156,-0.41142l0.29124,0.36547c0.55545,0.05826 0.98865,0.53566 0.98865,1.11598zM360.77431,103.46701c-0.4756,-0.00744 -1.08995,-0.29669 -1.42629,0.04537c-1.2314,1.25237 2.30601,4.94734 2.53775,1.68746c0.00171,-0.02404 0.00327,-0.04808 0.00468,-0.07212c-0.13116,-0.62135 -0.18135,-1.10867 -0.1097,-1.67215c-0.08028,-0.09375 -0.1455,-0.20119 -0.19183,-0.31842c-0.32686,0.32984 -0.81462,0.32984 -0.81462,0.32984z" fill="#f9bd15" stroke="none" stroke-width="0.5" stroke-linecap="butt" stroke-linejoin="miter"></path><path d="M374.74797,101.22309c1.10318,0 1.10318,1.12196 1.10318,1.12196l-0.03293,0.64609c-0.44111,1.7905 -1.04956,4.28536 -2.60699,5.48131c-1.44055,1.10621 -3.9265,0.86358 -4.95182,-0.73621c-0.43842,-0.68405 -0.13053,-3.03538 -0.13053,-3.89527c0,0 0,-1.12196 1.10319,-1.12196c1.10318,0 1.10318,1.12196 1.10318,1.12196c0,0.58391 -0.32476,2.35279 -0.13053,2.83645c0.16198,0.40337 1.46137,0.20141 1.66728,0.01177c1.08899,-1.00304 1.47129,-2.87851 1.80575,-4.24229l-0.03293,-0.10187c0,0 0,-1.12196 1.10319,-1.12196z" fill="#f9bd15" stroke="none" stroke-width="0.5" stroke-linecap="butt" stroke-linejoin="miter"></path><path d="M379.89615,110.19874c-1.10318,0 -1.10318,-1.12196 -1.10318,-1.12196c0,-1.49594 0,-3.73986 0,-5.23579c0,0 0,-1.12196 1.10318,-1.12196c1.10318,0 1.10319,1.12196 1.10319,1.12196c0,1.49594 0,2.99188 0,4.48783v0.74797c0,0 0,1.12196 -1.10319,1.12196z" fill="#f9bd15" stroke="none" stroke-width="0.5" stroke-linecap="butt" stroke-linejoin="miter"></path><path d="M377.32206,98.23121c0,-0.61963 0.49391,-1.12196 1.10318,-1.12196c0.60927,0 1.10319,0.50233 1.10319,1.12196c0,0.61963 -0.49393,1.12195 -1.10319,1.12195c-0.60927,0 -1.10318,-0.50231 -1.10318,-1.12195z" fill="#f9bd15" stroke="none" stroke-width="0.5" stroke-linecap="butt" stroke-linejoin="miter"></path><path d="M389.8248,109.45077c-1.10318,0 -1.10318,-1.12196 -1.10318,-1.12196v-0.74797c0,-0.49864 -0.00253,-0.9973 0,-1.49594c0.01986,-3.91984 -1.45675,-1.16323 -2.57409,1.28723c0,0.06959 0,0.13915 0,0.20872v1.12196c0,0.61964 -0.49391,1.12196 -1.10318,1.12196c-0.60927,0 -1.10318,-0.50231 -1.10318,-1.12196c0,-1.49594 0,-4.11383 0,-5.60977c0,0 0,-1.12196 1.10318,-1.12196c0.75479,0 0.99316,0.52521 1.06843,0.85695c1.14088,-1.26407 2.64874,-1.86759 4.22101,-0.04202c0.37297,0.43306 0.47797,1.05698 0.57996,1.62325c0.01847,0.10261 0.01425,2.9665 0.01425,3.17161v0.74798c0,0 0,1.12195 -1.10319,1.12195z" fill="#f9bd15" stroke="none" stroke-width="0.5" stroke-linecap="butt" stroke-linejoin="miter"></path><path d="M401.5921,108.70279c-1.10318,0 -1.10318,-1.12196 -1.10318,-1.12196l0.05661,-0.01919c-0.2643,-0.83594 -0.42434,-1.7206 -0.42434,-2.5987c0,-0.01464 0.00009,-0.02993 0.00029,-0.04582c-0.05432,0.07231 -0.09542,0.12918 -0.11248,0.16477c-0.5721,1.1929 -0.41766,2.9992 -2.71538,2.84292c-0.70562,-0.04799 -1.84986,-3.24838 -2.19374,-4.81993c-0.15594,0.31939 -0.45922,0.56361 -0.62146,0.88444c-0.75031,1.48375 -0.68241,2.93306 -0.99776,4.55951c0,0 -0.21635,1.10018 -1.2981,0.88014c-1.08176,-0.22004 -0.8654,-1.32021 -0.8654,-1.32021c0.45318,-2.26857 0.40239,-4.5036 2.00249,-6.38608c0.49585,-0.58336 0.86976,-1.71158 1.62275,-1.62113c1.62251,0.19491 2.4611,2.91045 2.90513,4.10149c0.01663,0.04463 0.03374,0.09607 0.05073,0.15252c0.04542,-0.09424 0.08989,-0.1822 0.12875,-0.25955c0.46021,-0.91593 1.95274,-3.01898 3.0831,-2.84292c1.72639,0.26889 1.11305,4.38972 1.52856,5.59895l0.05663,0.72878c0,0 0,1.12196 -1.10319,1.12196z" fill="#f9bd15" stroke="none" stroke-width="0.5" stroke-linecap="butt" stroke-linejoin="miter"></path><path d="M407.97566,104.57484c-0.32402,0.3881 -0.86765,0.3881 -0.86765,0.3881c-0.5449,0 -1.20339,-0.51691 -1.6264,-0.16756c-1.80532,1.49094 1.7023,4.73126 2.7769,1.33838c0.13988,-0.44165 -0.01655,-0.93663 0.08321,-1.38939zM407.35874,102.75209c0.60973,-0.79808 1.46438,-0.21862 1.46438,-0.21862l1.46389,1.15209c0.03675,0.4648 0.2638,2.55689 0.08321,3.09843c-0.18786,0.56335 -0.55914,1.05506 -0.93816,1.50814c-0.45198,0.54028 -0.90077,1.15009 -1.53414,1.4472c-3.92542,1.84142 -6.73156,-4.29569 -3.57625,-6.85275c0.25172,-0.204 2.2919,-0.16756 2.78635,-0.16756c0,0 0.10524,-0.00001 0.25073,0.03307z" fill="#f9bd15" stroke="none" stroke-width="0.5" stroke-linecap="butt" stroke-linejoin="miter"></path><path d="M418.87531,98.23121c1.10318,0 1.10318,1.12195 1.10318,1.12195v0.37399c0,1.63851 0.63501,4.87642 -0.05661,6.33856c-1.24708,2.6364 -3.66902,3.27456 -5.31612,0.57199c-0.44044,-0.7227 -0.50586,-1.51463 -0.51223,-2.30815c-0.01857,-0.12418 -0.01679,-0.23681 -0.00004,-0.33869c0.0009,-0.17525 0.00248,-0.3501 0.00134,-0.52385c0,0 0,-1.12196 1.10318,-1.12196c0.44791,0 0.71394,0.18494 0.87198,0.40466c0.61606,-0.1858 1.21248,-0.32456 1.88706,-0.37943c-0.07323,-0.94735 -0.18496,-1.89225 -0.18496,-2.64311v-0.37398c0,0 0,-1.12196 1.10319,-1.12196zM417.82872,105.35612c0.06972,-0.22814 0.11699,-0.47943 0.14702,-0.74724c-0.50768,0.04673 -0.95781,0.16898 -1.42531,0.32348c0.28592,1.08139 0.77978,2.05506 1.2783,0.42376z" fill="#f9bd15" stroke="none" stroke-width="0.5" stroke-linecap="butt" stroke-linejoin="miter"></path><path d="M426.79817,98.4692c-1.10318,0 -1.10319,-1.12195 -1.10319,-1.12195c0,-1.24661 0,-2.86722 0,-4.11385c0,0 0,-1.12196 1.10319,-1.12196c1.10318,0 1.10318,1.12196 1.10318,1.12196c0,1.24662 0,2.49325 0,3.73986v0.37399c0,0 0,1.12195 -1.10318,1.12195z" fill="#f9bd15" stroke="none" stroke-width="0.5" stroke-linecap="butt" stroke-linejoin="miter"></path><path d="M426.79817,103.33101c-1.10318,0 -1.10319,-1.12196 -1.10319,-1.12196c0,-2.74256 0,-6.23309 0,-8.97565c0,0 0,-1.12196 1.10319,-1.12196c1.10318,0 1.10318,1.12196 1.10318,1.12196c0,2.74256 0,5.48512 0,8.22768v0.74797c0,0 0,1.12196 -1.10318,1.12196z" fill="#f9bd15" stroke="none" stroke-width="0.5" stroke-linecap="butt" stroke-linejoin="miter"></path><path d="M424.95953,110.06274c0,-0.61964 0.49391,-1.12196 1.10319,-1.12196c0.60928,0 1.10318,0.50231 1.10318,1.12196c0,0.61964 -0.49391,1.12196 -1.10318,1.12196c-0.60928,0 -1.10319,-0.50231 -1.10319,-1.12196z" fill="#f9bd15" stroke="none" stroke-width="0.5" stroke-linecap="butt" stroke-linejoin="miter"></path><path d="M433.78499,105.9489c0,-0.61963 0.49391,-1.12195 1.10318,-1.12195c0.60928,0 1.10319,0.50231 1.10319,1.12195c0,0.61964 -0.49391,1.12196 -1.10319,1.12196c-0.60928,0 -1.10318,-0.50233 -1.10318,-1.12196z" fill="#f9bd15" stroke="none" stroke-width="0.5" stroke-linecap="butt" stroke-linejoin="miter"></path><path d="M434.88818,92.85942c0,-0.61963 0.49391,-1.12195 1.10319,-1.12195c0.60928,0 1.10318,0.50231 1.10318,1.12195c0,0.61963 -0.49391,1.12196 -1.10318,1.12196c-0.60928,0 -1.10319,-0.50233 -1.10319,-1.12196z" fill="#f9bd15" stroke="none" stroke-width="0.5" stroke-linecap="butt" stroke-linejoin="miter"></path><path d="M439.66863,106.69687c0,-0.43415 0.1652,-0.70032 0.36773,-0.86348c0,-3.07804 0,-6.1561 0,-9.23413c0,-0.83035 -0.31842,-3.56875 0.13053,-4.26926c2.0846,-3.25256 10.40874,-1.28121 10.53357,3.52129c-0.03231,2.13664 0.80308,4.32431 0.35348,6.53747c-0.72076,3.54791 -6.41825,5.40882 -9.54668,5.43006h-0.73545c0,0 -1.10319,0 -1.10319,-1.12195zM442.22592,105.54433c2.20851,-0.19645 5.08881,-1.31563 6.49466,-2.89433c0.24295,-0.27284 0.14224,-1.36679 0.14125,-1.56289c-0.00932,-1.84131 -0.34811,-3.44351 -0.36773,-5.23579c0.08943,-2.21218 -2.07404,-2.63196 -4.045,-2.6179c-0.21244,0.00151 -2.16647,-0.26902 -2.3369,0.15542c-0.47883,1.19244 0.01408,9.15279 0.11372,12.1555z" fill="#f9bd15" stroke="none" stroke-width="0.5" stroke-linecap="butt" stroke-linejoin="miter"></path><path d="M464.76832,225.94787c0.15314,-0.15574 0.30627,-0.25033 0.4535,-0.30179c0.20013,-0.7748 1.06203,-0.7748 1.06203,-0.7748c4.82858,0 10.28804,0.84151 14.84195,-1.11902c5.19128,-2.23493 7.97928,-9.7727 9.8919,-14.67233l0.03289,-0.03744l-0.01252,-0.00636l0.72478,-1.4742c0.17689,-0.37949 0.557,-0.64195 0.99739,-0.64195c0.54227,0 0.99316,0.39792 1.08577,0.92231l0.4287,2.17995c0.15637,0.49181 0.26781,1.01916 0.3188,1.649c0.22508,2.77962 -0.64187,6.12771 -0.02415,8.82842c0.13803,0.60349 1.75639,3.16938 2.00936,3.58714c2.55449,4.21865 4.72842,6.86834 9.17763,9.13059l1.44953,0.7371c0.37314,0.1799 0.6312,0.56649 0.6312,1.01438c0,0.5047 -0.32768,0.93157 -0.77846,1.07256l-2.06902,0.7014l-0.02462,-0.07514c-5.43491,2.90991 -11.36658,5.41436 -15.87371,9.60138c-0.78402,0.72833 -3.38121,5.10112 -4.56552,4.7715c-0.77429,-0.2155 -2.39296,-3.76474 -2.81568,-4.62456c-1.58779,-3.22963 -2.57472,-6.27059 -4.99843,-8.97076c-0.29636,-0.55363 -0.45155,-1.21442 -0.88909,-1.66088c-0.39399,-0.40202 -1.09862,-0.36882 -1.49331,-0.77012c-0.38767,-0.39416 -0.34971,-1.09982 -0.73545,-1.49594c-0.34551,-0.3548 -0.94217,-0.33276 -1.33589,-0.63113c-1.97925,-1.49993 -3.63185,-2.57231 -5.88364,-3.73986l-1.60593,-1.61278c0,0 -0.78007,-0.79333 0,-1.58667zM467.47195,227.12837l0.19238,0.19862c2.25319,1.1181 3.92046,2.23358 5.88364,3.73986c0.48355,0.37101 1.17579,0.43108 1.60593,0.8648c0.3893,0.39251 0.34789,1.10168 0.73545,1.49595c0.38056,0.38715 1.07118,0.33543 1.44851,0.72582c0.52676,0.545 0.77039,1.31233 1.15558,1.96849c2.69174,2.98249 5.50803,8.2339 6.26047,12.33649c-0.01053,-0.13396 -0.0086,-0.26748 0.02537,-0.3403c0.31991,-0.6857 0.77121,-1.30588 1.24415,-1.89298c0.68187,-0.84647 2.25438,-2.26507 3.14076,-2.93421c3.3815,-2.55271 7.26932,-4.7146 11.03144,-6.6222c1.41895,-0.7195 2.5446,-1.56211 3.91324,-1.7913c-4.3827,-2.37821 -6.77144,-5.25831 -9.40888,-9.61394c-0.55457,-0.91586 -2.03803,-3.22592 -2.27801,-4.24824c-0.47392,-2.0189 -0.03207,-4.90386 -0.02952,-6.98951c0.00095,-0.7754 -0.07408,-1.46028 -0.11367,-2.11876c-2.12344,5.28123 -5.13684,11.61302 -10.2788,13.90554c-4.45316,1.98543 -9.71024,1.41484 -14.5281,1.31586z" fill="#a4a4a4" stroke="none" stroke-width="0.5" stroke-linecap="butt" stroke-linejoin="miter"></path><path d="M438.70426,267.13162c0,-0.16648 0.02428,-0.30825 0.06565,-0.42898c-0.1451,0.02691 -0.28991,0.04544 -0.43338,0.055c0,0 -1.10319,0 -1.10319,-1.12195c0,-1.12195 1.10319,-1.12195 1.10319,-1.12195c2.38386,0.33299 1.82458,-3.21816 1.83869,-4.87287c0.03248,-3.80696 0.55856,-7.59701 1.44954,-11.28624c0.1759,-0.72832 -0.21071,-1.73836 0.35378,-2.22094c1.63183,-1.39499 3.67048,0.30726 4.76633,1.17112c2.75319,2.17034 4.45589,4.5396 7.61621,6.15693c0.91543,0.69545 1.62015,1.78713 2.7107,2.13392c1.83217,0.58262 4.02069,0.67356 6.04194,0.6978c0.18752,-0.05335 0.37744,-0.09474 0.56826,-0.12285c0.02841,-0.00419 0.05685,-0.00808 0.0853,-0.01171l-0.00302,-0.01242l2.11824,-0.53138c0.09185,-0.02521 0.18844,-0.03866 0.28812,-0.03866c0.60928,0 1.10318,0.50231 1.10318,1.12196c0,0.5047 -0.32767,0.93157 -0.77846,1.07257l-2.06902,0.7014l-0.02125,-0.06486l-0.15089,0.10795c-0.10378,0.00063 -0.2057,0.00072 -0.30587,0.00028c-0.41519,0.12964 -0.89635,0.14251 -1.22106,0.42596c-0.43321,0.37814 -0.42133,1.11875 -0.83113,1.52299c-0.38726,0.38201 -1.06209,0.3486 -1.45131,0.72852c-0.81489,0.79544 -1.07176,2.03004 -1.46986,3.10505c-0.57255,1.54609 -0.76137,6.10682 -2.54525,6.85308c-0.93455,0.39095 -1.99075,-0.38395 -2.95267,-0.69885c-1.66616,-0.54544 -3.39277,-1.87352 -5.09245,-2.22773c-2.14688,-0.44742 -4.88445,0.02879 -7.10624,0.02879h-1.47092c0,0 -1.10319,-0.00001 -1.10319,-1.12196zM440.46157,266.00966h0.81679c2.39762,0 5.27669,-0.452 7.60287,0.02879c1.67962,0.34716 3.89523,1.516 5.43039,2.33687c0.41968,0.22442 0.7845,0.87497 1.23361,0.72033c0.38809,-0.13363 0.14254,-0.82119 0.23695,-1.22669c0.04664,-0.20033 1.10039,-4.28697 1.12802,-4.36157c0.0213,-0.0575 1.79018,-3.70729 1.97448,-3.90087c0.38739,-0.40686 1.09056,-0.37331 1.49051,-0.76741c0.15624,-0.15396 0.25434,-0.35579 0.33876,-0.5682c-0.8298,-0.12621 -1.67352,-0.29716 -2.69683,-0.50342c-0.53741,-0.10833 -1.12556,0.13985 -1.64306,-0.04309c-0.25855,-0.0914 -3.0954,-2.29449 -3.17294,-2.3539c-2.58834,-1.30679 -4.23915,-2.7871 -6.31468,-4.83622c-0.00294,-0.00289 -3.35062,-2.90824 -3.36646,-2.79515c-0.38288,2.73523 -0.45436,5.66689 -1.16796,8.43069c-0.6386,2.47329 0.71289,5.49559 -0.28134,7.97484c-0.29837,0.74404 -0.89355,1.39697 -1.60912,1.86499z" fill="#a4a4a4" stroke="none" stroke-width="0.5" stroke-linecap="butt" stroke-linejoin="miter"></path><path d="M256.37244,248.01144c-0.32645,-0.08827 -0.79665,-0.34255 -0.79665,-1.07502c0,-1.12196 1.10318,-1.12196 1.10318,-1.12196c1.41202,0 2.84224,0.24452 4.23603,0.01449c4.51819,-0.74567 8.56035,-4.19728 10.80028,-8.18817c1.38447,-2.46671 1.51089,-5.33071 3.12562,-7.71597l0.69798,-1.4197c0.17689,-0.37949 0.55701,-0.64195 0.99741,-0.64195c0.49626,0 0.91597,0.33325 1.05461,0.7917l0.68967,2.10422l-0.43418,0.14718c1.6297,5.99699 -0.68558,12.60609 0.51428,18.8423c0.2074,1.07794 1.08228,3.79423 1.8975,4.62217c0.74163,0.7532 3.40803,0.5749 3.26281,2.21956c-0.09922,1.12375 -1.51285,1.6786 -2.43123,2.31158c-2.1961,1.51359 -4.89404,2.02982 -7.09146,3.71315c-1.46604,1.32299 -3.34707,2.27945 -4.68539,3.71487c-0.55812,0.5986 -0.72893,2.02587 -1.53354,1.92149c-1.23049,-0.15962 -2.71997,-3.2754 -3.25501,-4.34464c-1.2534,-2.50488 -1.1092,-5.71428 -2.85974,-8.09102c-1.5257,-2.07144 -3.32672,-3.79028 -4.50142,-6.13366l-0.52881,-0.45637c0,0 -0.55331,-0.56274 -0.26192,-1.21427zM258.57477,248.05862l0.56184,0.61995c1.3591,2.83286 4.03495,4.72197 5.22043,7.67223c0.74437,1.8525 1.0565,3.45905 1.48563,5.28725c0.26279,1.11959 1.1931,1.97302 1.59102,3.05058c0.15443,0.41817 -0.01381,0.93799 0.20858,1.32318c0.17795,0.30823 -0.24935,-0.76759 -0.06262,-1.07038c0.36629,-0.59402 1.01684,-0.95057 1.5683,-1.37138c1.16042,-0.88551 2.37089,-1.71142 3.45433,-2.69264c1.96211,-1.49104 4.88938,-3.5864 7.56562,-4.05392c-0.54169,-0.18792 -1.07059,-0.45965 -1.46985,-0.86606c-1.11797,-1.13799 -2.22829,-4.35923 -2.51523,-5.84942c-0.57308,-2.97614 -0.58334,-13.11914 -0.04519,-18.02336c-1.07553,2.126 -1.32049,4.54909 -2.50531,6.66702c-2.56076,4.57747 -7.19841,8.4397 -12.36387,9.29222c-0.06506,0.01074 -1.4579,0.01395 -2.69365,0.01474z" fill="#a4a4a4" stroke="none" stroke-width="0.5" stroke-linecap="butt" stroke-linejoin="miter"></path><path d="M408.13824,222.956c0.78007,-0.79334 1.56013,0 1.56013,0l0.94211,1.03956c0.01372,0.02904 0.02775,0.05794 0.04206,0.08676c2.62046,-0.25996 4.56067,-1.73586 4.48714,-4.8208v-1.49594c0,-0.61964 0.49391,-1.12196 1.10318,-1.12196c0.49626,0 0.91598,0.33325 1.05461,0.7917l0.68967,2.10422l-0.00612,0.00208c0.00613,0.01247 0.01222,0.02496 0.01828,0.03748c1.41533,2.92545 0.57445,8.40088 3.88509,9.89847l1.44953,0.73711c0.37314,0.1799 0.6312,0.56648 0.6312,1.01437c0,0.61964 -0.49391,1.12196 -1.10318,1.12196h-1.16851c-0.26758,0.20597 -0.52856,0.51169 -0.87837,1.03001c-0.52263,0.77443 -1.5238,3.80895 -1.8693,3.989c-1.47755,0.76998 -3.70112,-1.66271 -4.33333,-2.49306c-0.75047,-0.98566 -1.4754,-1.99118 -2.20637,-2.99188c-0.61963,-0.84829 -0.61474,-2.11405 -1.35603,-2.85456c-0.44678,-0.44631 -1.28958,-0.41639 -1.62927,-0.95147c-0.35286,-0.55583 -0.38134,-1.25175 -0.47084,-1.92444c-0.22956,-0.15755 -0.42938,-0.43182 -0.42938,-0.90932c0,-0.11776 0.01215,-0.22315 0.0339,-0.31746l-0.44625,-0.38513c0,0 -0.78007,-0.79334 0,-1.58669zM416.38417,223.11376c-1.02944,1.72704 -2.79528,2.74825 -4.995,3.10744c-0.08747,0.24504 -0.19306,0.48728 -0.06151,0.67816c0.27119,0.39352 0.98127,0.20182 1.31255,0.54447c0.94781,0.98032 0.81656,2.09697 1.58579,3.1292c0.41882,0.56202 1.05487,0.93179 1.47092,1.49594c0.65801,0.89229 1.17372,1.9007 1.92362,2.71455c0.15784,0.17132 0.32041,0.74809 0.43764,0.54585c0.257,-0.4434 -0.01298,-1.04631 0.13732,-1.5378c0.27502,-0.89935 0.8232,-2.16911 1.55116,-2.84718c-0.21438,-0.11253 -0.41373,-0.24519 -0.5803,-0.42176c-0.50547,-0.53577 -0.72717,-1.29197 -1.01062,-1.97624c-0.59085,-1.4263 -1.37234,-3.46321 -1.77156,-5.43265z" fill="#a4a4a4" stroke="none" stroke-width="0.5" stroke-linecap="butt" stroke-linejoin="miter"></path><path d="M494.70443,88.13005c0.98672,-0.50175 1.48008,0.50175 1.48008,0.50175l0.73545,1.49594c0.27892,0.56734 0.58277,1.11585 0.9104,1.64476c3.99023,0.12351 10.94393,0.70499 13.79989,-0.59322c2.26672,-1.03035 4.19968,-4.32753 6.21705,-5.86211c0.84614,-0.64363 1.64915,-2.0527 2.66274,-1.74915c1.02067,0.30568 0.95865,1.93636 1.33807,2.94734c1.23234,3.28358 1.8918,6.6526 3.25431,9.9205c1.21731,1.63099 2.3537,3.64298 3.76001,5.10145c0.60225,0.62458 1.99357,0.78875 1.9958,1.66354c0.00279,1.09577 -1.13978,1.91486 -1.98497,2.59446c-0.60655,0.48772 -1.49697,0.42558 -2.19407,0.76585c-2.15954,1.05409 -4.65745,2.97519 -6.56634,4.42573c-0.76369,0.58033 -2.59397,3.05356 -3.41015,3.18917c-2.24249,0.37258 -2.57613,-1.50572 -3.33723,-2.78824c-2.49917,-4.2114 -5.88702,-7.39885 -9.25182,-10.87252c-3.00598,-1.52857 -5.55015,-3.77335 -7.47557,-6.52106c-0.17802,-0.01 -1.07259,-0.11053 -1.07259,-1.12084c0,-0.17521 0.0269,-0.32306 0.07231,-0.44783c-0.24407,-0.42201 -0.47465,-0.85368 -0.69129,-1.29433l-0.73545,-1.49595c0,0 -0.49336,-1.0035 0.49336,-1.50526zM499.50655,94.07088c1.62497,1.90551 3.61678,3.46446 5.8972,4.62408c2.46712,2.47762 5.28079,4.88642 7.35221,7.72454c1.18344,1.62147 2.02376,3.43992 3.0792,5.10778c0.12051,0.19045 0.31756,0.54027 0.51413,0.43385c1.08786,-0.58891 1.48875,-2.04101 2.47349,-2.79459c1.49788,-1.14626 3.33231,-2.21774 4.89975,-3.31499c1.21745,-0.85224 2.59595,-1.46803 3.99078,-1.96501c0.32514,-0.11584 1.10571,-0.08144 0.95685,-0.39743c-0.18748,-0.39797 -0.93425,0.00066 -1.27341,-0.27456c-1.57954,-1.28177 -2.99006,-4.00337 -4.20336,-5.65369c-1.17591,-2.7644 -2.11493,-5.38747 -2.89335,-8.29023c-0.19351,-0.72161 -0.49601,-1.42183 -0.58052,-2.16484c-0.05251,-0.4616 0.60938,-1.23214 0.17702,-1.38235c-0.42584,-0.14795 -0.27771,0.89283 -0.55989,1.24933c-0.46118,0.58264 -1.08526,1.00976 -1.62789,1.51466c-1.41634,1.31782 -3.44278,3.95163 -5.17816,4.74046c-2.86778,1.30358 -8.72753,1.01078 -13.02402,0.84301z" fill="#a4a4a4" stroke="none" stroke-width="0.5" stroke-linecap="butt" stroke-linejoin="miter"></path><path d="M246.33798,88.34022c0.78007,-0.79334 1.56014,0 1.56014,0l0.81622,0.83966c0.78584,1.00086 1.45672,2.0559 2.12096,3.12202c2.52566,-0.58835 6.08282,-2.38036 7.21663,-3.90345c1.3308,-1.78769 0.40762,-4.7817 3.77523,-4.87466c1.5125,-0.04175 2.93358,1.77632 3.81111,2.66327c3.58947,3.62796 5.46133,8.25058 8.99716,12.10594c1.50089,1.60262 3.39863,2.31535 5.33601,3.30053l1.44953,0.73711c0.37314,0.1799 0.6312,0.56649 0.6312,1.01437c0,0.5047 -0.32768,0.93157 -0.77846,1.07256l-2.06902,0.70142l-0.01506,-0.04593c-2.86697,1.61436 -5.54669,3.11179 -8.11566,5.53941c-0.82615,0.78069 -0.20496,2.56831 -1.11223,3.24949c-2.43791,1.8304 -4.99823,-1.70646 -6.23154,-3.26438c-4.18411,-5.28532 -9.47518,-9.24312 -13.35041,-14.87379c-0.21965,-0.33148 -0.43245,-0.66527 -0.64201,-0.99975c-0.14301,0.01119 -0.28102,0.01769 -0.41341,0.01931c0,0 -1.10318,0 -1.10318,-1.12195c0,-0.39868 0.13931,-0.6557 0.3189,-0.82137c-0.48205,-0.75845 -0.98343,-1.50396 -1.54745,-2.21682l-0.6547,-0.65629c0,0 -0.78007,-0.79334 0,-1.58669zM252.0742,94.26478c0.04138,0.06316 0.08299,0.12628 0.12482,0.18932c3.03775,4.43531 6.79172,7.36177 10.45272,11.15538c1.58214,1.63947 2.71915,3.42793 4.279,5.0791c0.49518,0.52418 1.47993,2.31353 1.47092,1.58669c-0.03987,-3.21216 5.95621,-8.29495 9.96959,-8.98317c-1.96058,-0.9775 -3.75445,-1.82447 -5.33422,-3.45234c-2.90839,-3.17673 -5.03308,-8.1107 -7.39874,-10.47934c-0.73959,-0.74051 -2.62976,-3.49853 -3.81111,-3.59271c-1.18389,-0.0944 -1.88894,3.81235 -2.10842,4.10096c-1.36582,1.79602 -4.77825,3.5709 -7.64454,4.39611z" fill="#a4a4a4" stroke="none" stroke-width="0.5" stroke-linecap="butt" stroke-linejoin="miter"></path><path d="M440.5429,208.43481c-1.10318,0 -1.10319,-1.12195 -1.10319,-1.12195c0,-4.2385 0,-9.97293 0,-14.21143c0,0 0,-1.12196 1.10319,-1.12196c1.10318,0 1.10318,1.12196 1.10318,1.12196c0,4.2385 0,8.477 0,12.7155v1.49595c0,0 0,1.12195 -1.10318,1.12195z" fill="#f9bd15" stroke="none" stroke-width="0.5" stroke-linecap="butt" stroke-linejoin="miter"></path><path d="M439.43971,214.79257c0,-0.61964 0.49391,-1.12195 1.10319,-1.12195c0.60928,0 1.10318,0.50231 1.10318,1.12195c0,0.61964 -0.49391,1.12196 -1.10318,1.12196c-0.60928,0 -1.10319,-0.50231 -1.10319,-1.12196z" fill="#f9bd15" stroke="none" stroke-width="0.5" stroke-linecap="butt" stroke-linejoin="miter"></path></g></g></svg>