<svg xmlns="http://www.w3.org/2000/svg" xmlns:xlink="http://www.w3.org/1999/xlink" width="360" height="120" viewBox="0,0,359.56923,120.02591" preserveAspectRatio="none"><g transform="translate(-285.0082,-52.07713)"><g stroke="none" stroke-miterlimit="10"><path d="M303.23548,171.59323c-10.08877,-0.01594 -18.24942,-3.80423 -18.22724,-8.46137l0.48813,-102.65106c0.02211,-4.65713 8.21867,-8.41955 18.30744,-8.40362l322.5464,0.50977c10.08877,0.01594 18.24935,3.80423 18.22717,8.46136l-0.48806,102.65106c-0.02218,4.65713 -8.21867,8.41955 -18.30744,8.40362z" fill="#fafafa" stroke-width="0"></path><path d="M593.13069,124.55664c0,-1.45125 1.15676,-2.62776 2.58386,-2.62776c1.42705,0 2.58386,1.17651 2.58386,2.62776c0,1.45125 -1.15681,2.62776 -2.58386,2.62776c-1.42705,0 -2.58386,-1.17651 -2.58386,-2.62776z" fill="#f9bd15" stroke-width="0.5"></path><path d="M595.71455,93.89914c0,-1.45125 1.15681,-2.62771 2.58386,-2.62771c1.42705,0 2.58386,1.17646 2.58386,2.62771c0,1.45125 -1.15676,2.62776 -2.58386,2.62776c-1.42705,0 -2.58386,-1.17656 -2.58386,-2.62776z" fill="#f9bd15" stroke-width="0.5"></path><path d="M606.91104,126.30846c0,-1.01683 0.38693,-1.64029 0.86125,-2.02241c0,-7.20922 0,-14.41854 0,-21.6277c0,-1.94475 -0.74578,-8.35846 0.30569,-9.99916c4.88244,-7.61795 24.37881,-3.00077 24.67114,8.24733c-0.07567,5.00436 1.88095,10.12818 0.82795,15.31171c-1.68807,8.30965 -15.03252,12.66825 -22.35972,12.71798h-1.72251c0,0 -2.58381,0 -2.58381,-2.62776zM612.90051,123.60908c5.17268,-0.4601 11.91873,-3.08135 15.21149,-6.779c0.56902,-0.63906 0.33311,-3.20128 0.33081,-3.66055c-0.02179,-4.31261 -0.81536,-8.06515 -0.86125,-12.26295c0.2094,-5.18123 -4.85768,-6.16445 -9.47403,-6.1315c-0.49749,0.00353 -5.0742,-0.63016 -5.47341,0.36401c-1.12146,2.79285 0.033,21.43718 0.2664,28.46999z" fill="#f9bd15" stroke-width="0.5"></path><g><path d="M500.51421,142.8238c-15.67145,0.91146 -29.14765,-12.07814 -30.0999,-29.0131c-0.95225,-16.93493 10.98001,-31.40231 26.65148,-32.31376c15.67146,-0.91146 29.14764,12.07815 30.09989,29.01308c0.95225,16.93493 -10.97999,31.40231 -26.65145,32.31375z" fill="#fff" stroke-width="0"></path><path d="M507.76551,112.94412c-0.00334,-0.02624 -0.00584,-0.05346 -0.00744,-0.08179c-0.04401,-0.78293 0.69301,-0.82577 0.69301,-0.82577c6.26722,-0.3645 9.47594,-3.63178 11.07245,-10.10843c0.1608,-0.39857 0.8358,-2.93866 1.16477,-3.08794c2.03666,-0.92428 3.84476,4.72467 4.91507,5.91884c2.48612,2.77382 5.22974,3.29028 8.54542,4.25232c0.50229,0.14704 2.96324,0.86147 3.03135,1.4357c0.22465,1.89352 -2.41214,2.29564 -3.43492,2.91862c-4.0774,2.48356 -6.01436,5.21285 -8.25838,9.28368c-0.31817,1.30798 -0.26621,4.40607 -2.25495,3.89235c-0.66138,-0.17084 -1.96508,-4.22912 -2.3364,-4.93442c-1.30405,-2.47692 -4.40814,-4.55178 -6.85798,-5.26263c-1.55903,-0.97459 -3.45036,-1.50734 -5.19831,-2.01452l-0.81943,-0.66573c0,0 -0.32781,-0.3106 -0.25425,-0.72022z" fill="#4285f0" stroke-width="0.5"></path><path d="M484.02577,151.06474c-9.22647,0.53661 -17.14293,-6.79829 -17.68189,-16.38297c-0.53895,-9.58469 6.50369,-17.78961 15.73016,-18.32622c9.22647,-0.53661 17.14293,6.7983 17.68187,16.38298c0.53895,9.5847 -6.50369,17.78963 -15.73016,18.32626z" fill="#f9bd15" stroke-width="0"></path><path d="M466.0133,107.38071c-0.00132,-0.01046 -0.00233,-0.02131 -0.00297,-0.03262c-0.01756,-0.31225 0.27642,-0.32935 0.27642,-0.32935c2.49966,-0.14538 3.77945,-1.44853 4.4162,-4.03171c0.06412,-0.15898 0.33335,-1.1721 0.46455,-1.23162c0.81229,-0.36863 1.53348,1.88443 1.96035,2.36072c0.9916,1.10632 2.08585,1.31231 3.4083,1.69601c0.20035,0.05864 1.18188,0.3436 1.20905,0.57263c0.08961,0.75522 -0.96206,0.91562 -1.36999,1.16406c-1.62625,0.99057 -2.39882,2.07914 -3.29383,3.70275c-0.12691,0.52168 -0.10617,1.75735 -0.89939,1.55244c-0.26378,-0.06813 -0.78374,-1.68677 -0.93187,-1.96807c-0.52013,-0.98792 -1.75814,-1.81545 -2.73528,-2.09897c-0.62181,-0.38871 -1.37618,-0.6012 -2.07334,-0.80349l-0.32683,-0.26553c0,0 -0.13077,-0.12389 -0.1014,-0.28725z" fill="#32d153" stroke-width="0.5"></path><path d="M482.67101,83.6331c-0.00132,-0.01048 -0.00233,-0.0213 -0.00298,-0.03263c-0.01756,-0.31225 0.27641,-0.32935 0.27641,-0.32935c2.49966,-0.14538 3.77944,-1.44853 4.41621,-4.03171c0.06412,-0.15898 0.33336,-1.17206 0.46455,-1.23162c0.81229,-0.36863 1.53346,1.88443 1.96035,2.36071c0.9916,1.10632 2.08585,1.3123 3.4083,1.69602c0.20035,0.05866 1.18188,0.34359 1.20905,0.57262c0.08961,0.75522 -0.96207,0.91562 -1.37,1.16408c-1.62625,0.99057 -2.3988,2.07913 -3.29383,3.70274c-0.12691,0.52168 -0.10617,1.75733 -0.8994,1.55244c-0.26378,-0.06813 -0.78374,-1.68677 -0.93186,-1.96807c-0.52013,-0.98792 -1.75815,-1.81545 -2.73529,-2.09897c-0.62181,-0.38872 -1.37617,-0.60121 -2.07333,-0.80348l-0.32683,-0.26555c0,0 -0.13077,-0.12389 -0.10142,-0.28727z" fill="#e84236" stroke-width="0.5"></path><g><path d="M490.94228,128.98387c0.37478,-0.02179 0.70655,0.22267 0.83161,0.57819l0.04363,0.11576c0.29446,-0.16643 0.56904,-0.29807 0.69063,-0.3795c2.46954,-1.65437 4.457,-3.73657 7.11129,-5.00465l-0.01061,-0.00308c-4.19259,-1.21646 -7.64479,-4.27898 -11.78203,-5.63426c0.00947,0.15327 0.02657,0.30101 0.05203,0.44255c0.28803,1.60089 2.46416,6.9387 2.95021,9.89979c0.03688,-0.00755 0.0747,-0.01255 0.11329,-0.0148zM500.0413,122.58072l0.26864,0.07794c0.37551,-2.11491 1.37383,-4.17851 1.96185,-6.18481c1.10064,-3.75539 1.25491,-7.80148 2.71218,-11.43653c0.93678,-3.74178 2.65713,-7.12699 3.55127,-10.80264l0.27379,-0.41343c0.07329,-0.18356 0.20664,-0.31054 0.31467,-0.38891c0.01079,-0.00817 0.02211,-0.01647 0.03395,-0.02475c-0.76545,-0.17799 -3.36965,-1.18766 -3.94706,-1.45285c-0.84111,-0.38627 -6.40485,-3.04419 -8.09544,-3.99309c0.45902,0.76747 0.30941,2.69425 0.34629,3.35017l0.03316,0.59003c0,0 0.0293,0.52099 -0.33336,0.78539c-1.08387,5.50987 -5.61669,10.9465 -6.53896,16.46209c-0.58792,1.88198 -2.13417,5.10736 -2.641,7.7103c4.26214,1.32765 7.78561,4.48086 12.06001,5.72106zM495.57422,86.26166c3.71353,0.18935 6.94656,2.52998 10.27907,4.06044c0.96185,0.44173 3.7241,1.15121 4.42675,1.90637c0.45983,0.4942 1.03462,1.14114 0.94326,1.82688c-0.06386,0.47934 -0.67424,0.59179 -1.11998,0.81477c-0.97419,3.65439 -2.58983,7.02491 -3.54179,10.75504c-1.46026,3.59592 -1.61446,7.6394 -2.69239,11.37192c-0.66413,2.29967 -2.15477,4.91871 -2.04158,7.37039c0.06412,0.25089 0.00671,0.45657 -0.08324,0.61183c-0.07351,0.16642 -0.20533,0.33128 -0.4411,0.41043l-0.52913,0.31297c-3.70778,1.55956 -7.02974,6.65104 -11.08625,6.34978c-0.95844,-4.18743 -2.89559,-8.61061 -3.47542,-12.85667c-0.41843,-3.06409 1.8963,-7.64588 2.79377,-10.49881c1.03679,-5.60731 6.61714,-12.95368 6.71557,-18.22921c-0.13614,-1.42861 -0.34319,-2.75023 -0.1475,-4.2061z" fill="#1a1a1a" stroke-width="0.5"></path><path d="M490.92302,129.01721c-0.03859,0.00224 -0.0769,0.00692 -0.11379,0.01446c-0.48602,-2.96107 -2.67186,-8.35568 -2.95988,-9.95657c-0.02546,-0.14153 -0.04168,-0.29046 -0.05114,-0.44373c4.13725,1.35526 7.6549,4.44505 11.8475,5.66151l0.0106,0.0031c-2.65429,1.26808 -4.68817,3.38577 -7.15768,5.04019c-0.12156,0.08145 -0.39965,0.21183 -0.6941,0.37828l-0.04409,-0.11595c-0.12505,-0.35558 -0.46259,-0.60307 -0.83737,-0.58127z" fill="#fff" stroke-width="0.25"></path><path d="M500.04506,122.62489c-4.2744,-1.24021 -7.83066,-4.40591 -12.0928,-5.73357c0.50685,-2.60295 2.04421,-5.84166 2.63215,-7.72367c0.92226,-5.5156 5.48809,-11.01452 6.57196,-16.5244c0.36266,-0.2644 0.33474,-0.78553 0.33474,-0.78553l-0.03314,-0.59001c-0.03688,-0.65593 0.11253,-2.58266 -0.3465,-3.35015c1.69057,0.94891 7.27747,3.61185 8.11858,3.99812c0.57741,0.26515 3.19076,1.28182 3.95621,1.45981c-0.01185,0.00828 -0.08027,0.08093 -0.09109,0.08911c-0.108,0.07837 -0.18424,0.14101 -0.25753,0.32459l-0.27364,0.41354c-0.89413,3.67566 -2.60148,7.091 -3.5383,10.83279c-1.45728,3.63505 -1.63938,7.72483 -2.74002,11.48022c-0.58803,2.0063 -1.59581,4.0721 -1.97129,6.18705z" fill="#f9bd15" stroke-width="0.5"></path></g></g><path d="M543.93218,92.03079c0.1224,-0.12448 0.24479,-0.20009 0.36247,-0.24121c0.15995,-0.61929 0.84885,-0.61929 0.84885,-0.61929c3.85937,0 8.22299,0.6726 11.86283,-0.8944c4.14928,-1.78632 6.37766,-7.8111 7.90637,-11.72725l0.02629,-0.02993l-0.01,-0.00508l0.5793,-1.17829c0.14138,-0.30333 0.44519,-0.5131 0.79719,-0.5131c0.43343,0 0.79381,0.31804 0.86782,0.73717l0.34266,1.74238c0.12498,0.39311 0.21406,0.81458 0.2548,1.318c0.1799,2.22169 -0.51303,4.89774 -0.0193,7.05636c0.11032,0.48235 1.40384,2.53321 1.60605,2.86711c2.04174,3.37186 3.77932,5.48971 7.33547,7.29788l1.15859,0.58915c0.29824,0.14379 0.5045,0.45278 0.5045,0.81078c0,0.4034 -0.26192,0.74459 -0.62221,0.85728l-1.65371,0.56063l-0.01968,-0.06006c-4.344,2.32582 -9.08505,4.32756 -12.6875,7.67415c-0.62665,0.58213 -2.70253,4.0772 -3.64911,3.81374c-0.61888,-0.17225 -1.91264,-3.00906 -2.2505,-3.69631c-1.26909,-2.58136 -2.05792,-5.01193 -3.99512,-7.17012c-0.23687,-0.4425 -0.36091,-0.97066 -0.71062,-1.32751c-0.31492,-0.32132 -0.87811,-0.29478 -1.19358,-0.61553c-0.30986,-0.31504 -0.27952,-0.87906 -0.58783,-1.19567c-0.27616,-0.28359 -0.75306,-0.26596 -1.06775,-0.50445c-1.58196,-1.19886 -2.90285,-2.05599 -4.70266,-2.98917l-1.28359,-1.28906c0,0 -0.62348,-0.6341 0,-1.2682zM546.09312,92.97434l0.15377,0.15875c1.80093,0.89368 3.13353,1.78525 4.70266,2.98918c0.3865,0.29654 0.93979,0.34454 1.28358,0.69121c0.31116,0.31373 0.27807,0.88055 0.58783,1.19568c0.30417,0.30944 0.85616,0.26811 1.15775,0.58013c0.42102,0.4356 0.61577,1.04891 0.92363,1.57336c2.15146,2.38383 4.40245,6.58117 5.00385,9.86027c-0.00842,-0.10707 -0.00688,-0.2138 0.02027,-0.272c0.2557,-0.54806 0.61641,-1.04376 0.99442,-1.51302c0.545,-0.67655 1.80188,-1.81042 2.51035,-2.34525c2.70275,-2.04033 5.81019,-3.76827 8.81717,-5.29297c1.13413,-0.57507 2.03384,-1.24855 3.12777,-1.43174c-3.50298,-1.90086 -5.41225,-4.20285 -7.52031,-7.68419c-0.44326,-0.73202 -1.62895,-2.57841 -1.82076,-3.39553c-0.37879,-1.61367 -0.02563,-3.91954 -0.0236,-5.58656c0.00077,-0.61975 -0.05921,-1.16718 -0.09085,-1.69348c-1.69722,4.22115 -4.10577,9.28202 -8.21562,11.11437c-3.55932,1.58691 -7.76118,1.13086 -11.61199,1.05173z" fill="#a4a4a4" stroke-width="0.5"></path><path d="M426.35921,144.84818c0,-0.20529 0.02994,-0.38009 0.08096,-0.52895c-0.17892,0.03318 -0.35747,0.05603 -0.53438,0.06781c0,0 -1.36029,0 -1.36029,-1.38343c0,-1.38343 1.36029,-1.38343 1.36029,-1.38343c2.93941,0.41059 2.2498,-3.96816 2.26719,-6.00851c0.04005,-4.69418 0.68874,-9.36751 1.78735,-13.91652c0.21689,-0.89806 -0.25982,-2.14348 0.43623,-2.73852c2.01214,-1.72011 4.52588,0.37887 5.87713,1.44404c3.39483,2.67614 5.49434,5.59756 9.39118,7.59181c1.12877,0.85752 1.99773,2.20363 3.34245,2.63124c2.25916,0.7184 4.95772,0.83053 7.45002,0.86042c0.23122,-0.06578 0.4654,-0.11681 0.70069,-0.15148c0.03503,-0.00517 0.0701,-0.00997 0.10518,-0.01444l-0.00371,-0.01531l2.6119,-0.65521c0.11325,-0.03108 0.23236,-0.04766 0.35527,-0.04766c0.75128,0 1.36028,0.61938 1.36028,1.38343c0,0.62233 -0.40404,1.14867 -0.95988,1.32254l-2.5512,0.86486l-0.02621,-0.07998l-0.18605,0.13312c-0.12797,0.00077 -0.25364,0.00088 -0.37716,0.00034c-0.51196,0.15986 -1.10523,0.17572 -1.50564,0.52524c-0.53417,0.46627 -0.51953,1.37949 -1.02482,1.87793c-0.47751,0.47104 -1.30961,0.42984 -1.78954,0.8983c-1.0048,0.98083 -1.32155,2.50314 -1.81241,3.82869c-0.70598,1.9064 -0.93881,7.53002 -3.13843,8.4502c-1.15234,0.48206 -2.4547,-0.47342 -3.6408,-0.86171c-2.05446,-0.67255 -4.18346,-2.31015 -6.27925,-2.74692c-2.6472,-0.55169 -6.02276,0.03551 -8.76235,0.03551h-1.81373c0,0 -1.36028,-0.00001 -1.36028,-1.38343zM428.52608,143.46473h1.00715c2.9564,0 6.50642,-0.55732 9.37473,0.03551c2.07107,0.42806 4.80301,1.8693 6.69595,2.88149c0.51747,0.27672 0.96733,1.07888 1.5211,0.8882c0.47854,-0.16478 0.17577,-1.01258 0.29218,-1.51257c0.05752,-0.24702 1.35685,-5.28606 1.39092,-5.37805c0.02627,-0.0709 2.20737,-4.57127 2.43463,-4.80997c0.47767,-0.50169 1.34472,-0.46031 1.83788,-0.94627c0.19266,-0.18983 0.31361,-0.4387 0.41771,-0.70061c-1.02319,-0.15562 -2.06354,-0.36641 -3.32533,-0.62072c-0.66265,-0.13357 -1.38788,0.17244 -2.02598,-0.05314c-0.3188,-0.11271 -3.81678,-2.82922 -3.91241,-2.90248c-3.19156,-1.61133 -5.22708,-3.43664 -7.78632,-5.96331c-0.00363,-0.00357 -4.13148,-3.58602 -4.15102,-3.44656c-0.47212,3.37268 -0.56025,6.98758 -1.44017,10.39548c-0.78742,3.04969 0.87902,6.77635 -0.34691,9.83338c-0.3679,0.91744 -1.10179,1.72252 -1.98413,2.29962z" fill="#a4a4a4" stroke-width="0.5"></path><path d="M529.64489,129.84945c-0.37726,-0.10201 -0.92064,-0.39588 -0.92064,-1.24233c0,-1.29657 1.27488,-1.29657 1.27488,-1.29657c1.6318,0 3.2846,0.28257 4.89531,0.01674c5.2214,-0.86173 9.89267,-4.85054 12.48123,-9.46256c1.59995,-2.85062 1.74603,-6.16039 3.61209,-8.91688l0.80661,-1.64066c0.20442,-0.43855 0.64369,-0.74187 1.15265,-0.74187c0.5735,0 1.05853,0.38512 1.21875,0.91492l0.79701,2.43171l-0.50175,0.17009c1.88334,6.93035 -0.79228,14.56808 0.59433,21.77488c0.23968,1.2457 1.25072,4.38475 2.19282,5.34157c0.85705,0.87043 3.93844,0.66438 3.77063,2.56501c-0.11466,1.29864 -1.74831,1.93986 -2.80962,2.67135c-2.53791,1.74917 -5.65574,2.34574 -8.19517,4.29107c-1.69421,1.5289 -3.86801,2.63421 -5.41462,4.29305c-0.64499,0.69176 -0.84238,2.34118 -1.77223,2.22055c-1.42201,-0.18446 -3.1433,-3.78518 -3.76162,-5.02084c-1.44848,-2.89473 -1.28184,-6.60364 -3.30483,-9.35029c-1.76316,-2.39384 -3.84448,-4.3802 -5.20201,-7.0883l-0.61112,-0.52739c0,0 -0.63943,-0.65034 -0.30269,-1.40327zM532.18998,129.90396l0.64928,0.71644c1.57062,3.27377 4.66295,5.4569 6.03293,8.86631c0.86022,2.14083 1.22092,3.99741 1.71686,6.11016c0.30368,1.29384 1.37878,2.28008 1.83864,3.52536c0.17845,0.48325 -0.01596,1.08398 0.24105,1.52911c0.20565,0.3562 -0.28817,-0.88706 -0.07237,-1.23696c0.42331,-0.68649 1.1751,-1.09851 1.81239,-1.58482c1.34101,-1.02334 2.73989,-1.9778 3.99195,-3.11174c2.26749,-1.7231 5.65035,-4.14458 8.74312,-4.68486c-0.62599,-0.21716 -1.23721,-0.53119 -1.69862,-1.00086c-1.29197,-1.3151 -2.5751,-5.03769 -2.9067,-6.75981c-0.66228,-3.43934 -0.67413,-15.16098 -0.05223,-20.82848c-1.24292,2.45688 -1.52601,5.25711 -2.89523,7.70467c-2.95932,5.2899 -8.31877,9.75324 -14.28817,10.73845c-0.07519,0.0124 -1.68481,0.01612 -3.11289,0.01703z" fill="#a4a4a4" stroke-width="0.5"></path><path d="M430.28927,89.01652c1.68138,-1.70999 3.36273,0 3.36273,0l2.03065,2.24069c0.02956,0.06258 0.05981,0.12489 0.09065,0.187c5.64819,-0.56033 9.83016,-3.74151 9.67167,-10.39085v-3.22437c0,-1.33559 1.06458,-2.41829 2.37782,-2.41829c1.06966,0 1.97431,0.7183 2.27312,1.70645l1.48652,4.53548l-0.01318,0.00449c0.01322,0.02688 0.02634,0.0538 0.0394,0.08078c3.05063,6.30558 1.23819,18.10743 8.374,21.33535l3.12435,1.58879c0.80428,0.38775 1.3605,1.22101 1.3605,2.1864c0,1.33559 -1.06458,2.41829 -2.37781,2.41829h-2.51863c-0.57674,0.44396 -1.13927,1.1029 -1.89326,2.2201c-1.12649,1.66921 -3.28444,8.20989 -4.02912,8.59797c-3.18473,1.65963 -7.97746,-3.58383 -9.34014,-5.37359c-1.61758,-2.12451 -3.18011,-4.29183 -4.75565,-6.44876c-1.33555,-1.82842 -1.32502,-4.55666 -2.9228,-6.15276c-0.96299,-0.96198 -2.77959,-0.89749 -3.51176,-2.05081c-0.76056,-1.19804 -0.82194,-2.69804 -1.01486,-4.14797c-0.4948,-0.33958 -0.92549,-0.93075 -0.92549,-1.95996c0,-0.25383 0.0262,-0.48098 0.07307,-0.68426l-0.96186,-0.83011c0,0 -1.68138,-1.70998 0,-3.41998zM448.06272,89.35659c-2.21886,3.7225 -6.025,5.92364 -10.76632,6.69784c-0.18853,0.52817 -0.41612,1.05029 -0.13257,1.46171c0.58453,0.8482 2.11504,0.43501 2.82909,1.17357c2.04292,2.11301 1.76003,4.51984 3.41804,6.74473c0.90274,1.21139 2.27368,2.0084 3.17045,3.22437c1.41829,1.92325 2.52986,4.09681 4.14622,5.851c0.34021,0.36928 0.69063,1.61244 0.94329,1.17653c0.55394,-0.95571 -0.02798,-2.25523 0.29598,-3.3146c0.59278,-1.93847 1.77434,-4.67534 3.34339,-6.13686c-0.46208,-0.24255 -0.89177,-0.52848 -1.25078,-0.90906c-1.08949,-1.1548 -1.56737,-2.78473 -2.17832,-4.25962c-1.27353,-3.07427 -2.95796,-7.46466 -3.81845,-11.70965z" fill="#a4a4a4" stroke-width="0.5"></path><path d="M329.42295,88.64965c1.53416,-1.56025 3.06832,0 3.06832,0l1.60526,1.65135c1.5455,1.96838 2.86493,4.04335 4.17128,6.14007c4.96722,-1.15712 11.96306,-4.68146 14.19293,-7.67691c2.61728,-3.51585 0.80167,-9.40417 7.42475,-9.58699c2.97463,-0.08212 5.76946,3.49348 7.49532,5.23785c7.05941,7.13509 10.74079,16.22643 17.6947,23.80875c2.9518,3.15188 6.68408,4.55358 10.49433,6.49113l2.85078,1.44967c0.73386,0.3538 1.24138,1.11412 1.24138,1.99497c0,0.9926 -0.64445,1.83213 -1.531,2.10941l-4.06915,1.37948l-0.02963,-0.09033c-5.63846,3.17495 -10.90866,6.11996 -15.96107,10.89435c-1.62478,1.53538 -0.4031,5.05111 -2.18743,6.39078c-4.79464,3.59985 -9.83,-3.35611 -12.25554,-6.42006c-8.22889,-10.39463 -18.63483,-18.17844 -26.25624,-29.25226c-0.43199,-0.65193 -0.8505,-1.30839 -1.26264,-1.96619c-0.28125,0.022 -0.55268,0.03477 -0.81304,0.03797c0,0 -2.16962,0.00001 -2.16962,-2.20652c0,-0.78408 0.27398,-1.28956 0.62718,-1.6154c-0.94805,-1.49164 -1.93411,-2.95783 -3.04337,-4.35981l-1.28759,-1.29073c0,0 -1.53416,-1.56026 0,-3.12053zM340.70437,100.30147c0.08139,0.12422 0.16322,0.24836 0.24548,0.37233c5.97434,8.72292 13.35726,14.4784 20.55736,21.93929c3.1116,3.22434 5.34775,6.74169 8.4155,9.98905c0.97387,1.03091 2.91057,4.55003 2.89287,3.12054c-0.0784,-6.31736 11.71407,-16.31366 19.60718,-17.66719c-3.85586,-1.92246 -7.38389,-3.58818 -10.49081,-6.78972c-5.71993,-6.24768 -9.89855,-15.9513 -14.55111,-20.60972c-1.45456,-1.45637 -5.17194,-6.88056 -7.49532,-7.06578c-2.32835,-0.18566 -3.71499,7.49774 -4.14662,8.06537c-2.68617,3.53225 -9.39738,7.0229 -15.03451,8.64582z" fill="#a4a4a4" stroke-width="0.5"></path></g></g></svg>