<svg xmlns="http://www.w3.org/2000/svg" xmlns:xlink="http://www.w3.org/1999/xlink" width="480" height="270" viewBox="0,0,479.68936,268.67456" preserveAspectRatio="none"><g transform="translate(-145.15532,-46.41347)"><g stroke-miterlimit="10"><path d="M169.47172,313.94681c-13.45914,-0.03567 -24.3459,-8.51566 -24.31633,-18.94052l0.6512,-229.78145c0.02955,-10.42486 10.96423,-18.84693 24.42332,-18.81126l430.29838,1.1411c13.45914,0.03567 24.34588,8.51565 24.31633,18.94052l-0.65114,229.78145c-0.02957,10.42486 -10.96423,18.84694 -24.42332,18.81126z" fill="#fafafa" stroke="none" stroke-width="0" stroke-linecap="butt" stroke-linejoin="miter"></path><g stroke="none" stroke-linecap="butt" stroke-linejoin="miter"><path d="M513.66129,190.1566c-27.36363,1.59148 -50.89417,-21.08941 -52.55688,-50.65922c-1.66272,-29.56978 19.17198,-54.831 46.53565,-56.42245c27.36363,-1.59147 50.89416,21.0894 52.55688,50.6592c1.66272,29.56978 -19.17198,54.831 -46.53563,56.42245z" fill="#fff" stroke-width="0"></path><path d="M526.32262,137.98424c-0.00583,-0.04581 -0.0102,-0.09335 -0.01297,-0.1428c-0.07685,-1.36704 1.21003,-1.44186 1.21003,-1.44186c10.94307,-0.63644 16.54577,-6.3414 19.33342,-17.65014c0.28076,-0.69592 1.45937,-5.13116 2.03377,-5.3918c3.55618,-1.61387 6.71327,8.24969 8.58211,10.33479c4.34098,4.8433 9.13155,5.74512 14.921,7.4249c0.87704,0.25673 5.17407,1.5042 5.29301,2.50685c0.39226,3.30624 -4.21179,4.00837 -5.99765,5.09616c-7.11947,4.33651 -10.50155,9.10207 -14.41979,16.21008c-0.55555,2.28384 -0.46482,7.69335 -3.93733,6.79635c-1.15483,-0.29831 -3.43118,-7.38438 -4.07954,-8.6159c-2.27697,-4.32491 -7.69698,-7.94779 -11.9746,-9.18897c-2.72219,-1.70169 -6.02461,-2.63194 -9.07669,-3.5175l-1.43079,-1.16244c0,0 -0.57238,-0.54236 -0.44394,-1.25757z" fill="#4285f0" stroke-width="0.5"></path><path d="M484.8711,204.54598c-16.11019,0.93698 -29.93297,-11.87038 -30.87403,-28.60602c-0.94105,-16.73567 11.35598,-31.06212 27.46616,-31.99909c16.11019,-0.93698 29.93295,11.87038 30.87401,28.60602c0.94105,16.73567 -11.35597,31.06213 -27.46615,31.99914z" fill="#f9bd15" stroke-width="0"></path><path d="M453.41986,128.27006c-0.0023,-0.01828 -0.00406,-0.03721 -0.00518,-0.05696c-0.03065,-0.54523 0.48263,-0.57508 0.48263,-0.57508c4.36461,-0.25384 6.59922,-2.52924 7.71105,-7.03971c0.11197,-0.27758 0.58206,-2.04657 0.81115,-2.1505c1.41834,-0.64368 2.67757,3.29038 3.42293,4.122c1.73141,1.93174 3.64207,2.29141 5.95118,2.96138c0.34981,0.1024 2.06364,0.59994 2.11109,0.99986c0.15646,1.31868 -1.67985,1.59873 -2.39212,2.03255c-2.83957,1.72962 -4.18852,3.63035 -5.75128,6.46531c-0.22159,0.91091 -0.18538,3.06846 -1.57043,2.71069c-0.46059,-0.11895 -1.36848,-2.94522 -1.62711,-3.43639c-0.90819,-1.72497 -3.06987,-3.16992 -4.77603,-3.66497c-1.08572,-0.67871 -2.40291,-1.04975 -3.62021,-1.40296l-0.57068,-0.46364c0,0 -0.22832,-0.21632 -0.17706,-0.50157z" fill="#32d153" stroke-width="0.5"></path><path d="M482.5056,86.80481c-0.0023,-0.01829 -0.00407,-0.03721 -0.0052,-0.05697c-0.03065,-0.54523 0.48263,-0.57506 0.48263,-0.57506c4.36461,-0.25384 6.5992,-2.52924 7.71105,-7.03971c0.11197,-0.27758 0.58208,-2.04653 0.81115,-2.1505c1.41834,-0.64368 2.67756,3.29038 3.42293,4.12198c1.73141,1.93174 3.64207,2.29139 5.95118,2.96139c0.34981,0.10242 2.06365,0.59993 2.1111,0.99983c0.15646,1.31868 -1.67986,1.59874 -2.39212,2.03256c-2.83957,1.72962 -4.18849,3.63035 -5.75128,6.46531c-0.22159,0.91091 -0.18538,3.06844 -1.57043,2.71067c-0.46059,-0.11895 -1.36848,-2.94525 -1.62712,-3.43642c-0.90819,-1.72497 -3.06987,-3.16992 -4.77603,-3.66497c-1.08572,-0.67873 -2.40291,-1.04975 -3.62021,-1.40294l-0.57066,-0.46367c0,0 -0.22834,-0.21632 -0.17707,-0.50159z" fill="#e84236" stroke-width="0.5"></path><g><path d="M496.94791,165.99096c0.6544,-0.03805 1.2337,0.38878 1.45205,1.00956l0.07618,0.20213c0.51416,-0.2906 0.99361,-0.52044 1.2059,-0.66261c4.31199,-2.88867 7.78228,-6.52435 12.41688,-8.73854l-0.01854,-0.00538c-7.32062,-2.12403 -13.34843,-7.47146 -20.5724,-9.83788c0.01653,0.26763 0.04639,0.5256 0.09084,0.77272c0.50294,2.79528 4.30261,12.11553 5.15131,17.28583c0.06439,-0.01317 0.13044,-0.0219 0.19782,-0.02583zM512.83553,154.81055l0.46908,0.13609c0.65568,-3.69282 2.39881,-7.29604 3.42555,-10.79919c1.9218,-6.55723 2.19117,-13.62204 4.73569,-19.9691c1.63572,-6.53345 4.63957,-12.44431 6.2008,-18.86228l0.47807,-0.72187c0.12797,-0.3205 0.36082,-0.54223 0.54943,-0.67906c0.01884,-0.01426 0.03863,-0.02876 0.05928,-0.04323c-1.33655,-0.31077 -5.88369,-2.07374 -6.89187,-2.53678c-1.46864,-0.67446 -11.18339,-5.31541 -14.13529,-6.97226c0.80148,1.34008 0.54025,4.70436 0.60465,5.84967l0.05791,1.03023c0,0 0.05114,0.90967 -0.58208,1.37135c-1.89253,9.62069 -9.80721,19.11349 -11.41755,28.74419c-1.02657,3.2861 -3.72641,8.91784 -4.6114,13.4628c7.44206,2.31819 13.5943,7.82396 21.05777,9.98943zM505.03564,91.39451c6.48411,0.33062 12.12924,4.41756 17.94809,7.08987c1.67949,0.77132 6.50259,2.01008 7.72948,3.32868c0.8029,0.86293 1.80653,1.99253 1.647,3.18987c-0.11149,0.83696 -1.17729,1.0333 -1.95557,1.42266c-1.70103,6.38086 -4.52206,12.26607 -6.18427,18.77918c-2.54974,6.27877 -2.81899,13.33902 -4.70113,19.85628c-1.15961,4.0154 -3.7624,8.58846 -3.56477,12.86931c0.11197,0.43809 0.01172,0.7972 -0.14533,1.06831c-0.12835,0.29056 -0.35852,0.57845 -0.77019,0.71665l-0.9239,0.54649c-6.47409,2.7231 -12.27451,11.61327 -19.35748,11.08724c-1.67349,-7.31159 -5.05594,-15.03483 -6.06838,-22.44882c-0.73062,-5.35014 3.31108,-13.35031 4.87814,-18.33178c1.8103,-9.79081 11.55407,-22.61821 11.72593,-31.82969c-0.23773,-2.49446 -0.59924,-4.80214 -0.25755,-7.34419z" fill="#1a1a1a" stroke-width="0.5"></path><path d="M496.91428,166.04918c-0.06739,0.00391 -0.13427,0.01209 -0.19867,0.02523c-0.84864,-5.17029 -4.66531,-14.5897 -5.16822,-17.38498c-0.04445,-0.24712 -0.07277,-0.50718 -0.08929,-0.77478c7.22397,2.36639 13.36605,7.76144 20.68667,9.88547l0.01854,0.0054c-4.63461,2.21418 -8.18592,5.91183 -12.4979,8.80056c-0.21224,0.14221 -0.69782,0.36988 -1.21195,0.66052l-0.07699,-0.20246c-0.21833,-0.62086 -0.80771,-1.05302 -1.46211,-1.01495z" fill="#fff" stroke-width="0.25"></path><path d="M512.84211,154.88767c-7.46347,-2.16551 -13.67296,-7.6931 -21.11503,-10.0113c0.88499,-4.54498 3.56936,-10.20004 4.59594,-13.48616c1.61035,-9.6307 9.58265,-19.23223 11.47518,-28.85296c0.63322,-0.46168 0.58447,-1.3716 0.58447,-1.3716l-0.05786,-1.03021c-0.06439,-1.14531 0.19649,-4.50954 -0.60501,-5.84965c2.95188,1.65688 12.70705,6.30659 14.1757,6.98104c1.00821,0.46299 5.57132,2.23817 6.90788,2.54894c-0.0207,0.01445 -0.14016,0.14131 -0.15905,0.15558c-0.18858,0.13683 -0.32169,0.24622 -0.44966,0.56678l-0.4778,0.72208c-1.56122,6.41799 -4.54241,12.38149 -6.17818,18.91493c-2.54454,6.34707 -2.86249,13.48817 -4.78428,20.0454c-1.02672,3.50316 -2.78641,7.11023 -3.44204,10.80308z" fill="#f9bd15" stroke-width="0.5"></path></g></g><path d="M292.77735,75.05636c0,0.23747 -0.03737,0.43694 -0.10016,0.60448c0.7282,1.34005 1.42535,2.69888 2.28659,4.01274l0.41117,-0.00948c0,0 1.30486,0.66353 0.65243,1.99059c-0.65243,1.32705 -1.95729,0.66353 -1.95729,0.66353l-1.53401,-0.99861c-0.95511,-1.45702 -1.71127,-2.97836 -2.5297,-4.4638c-6.13905,1.73444 -12.52714,1.66906 -18.9441,1.66289c-1.59307,2.41252 -3.19682,4.82029 -4.78967,7.25202c0,0 -0.80923,1.23451 -2.02309,0.4115c-1.21386,-0.82301 -0.40463,-2.05753 -0.40463,-2.05753c4.09656,-6.24499 8.12696,-12.47799 12.14527,-18.77487c1.28588,-2.01507 3.26917,-6.2428 6.16078,-5.01747c3.95769,1.67707 6.69222,8.35285 8.46337,11.96575c0.30945,0.42196 0.59668,0.85217 0.86903,1.28818c0.38173,0.05136 1.29404,0.29682 1.29404,1.47011zM288.13231,73.85813c-1.22233,-2.48052 -2.20883,-4.6038 -3.84782,-6.85526c-0.55037,-0.75603 -1.12332,-1.49563 -1.71876,-2.21547c-0.52179,-0.6308 -1.44608,-2.69385 -1.57892,-1.88068c-0.31482,1.92697 -2.35574,3.74433 -3.44225,5.51437c-1.4815,2.41345 -3.00122,4.78487 -4.53938,7.14073c5.18489,0.03083 10.46016,0.04168 15.41518,-1.30403c-0.09396,-0.13412 -0.18989,-0.26737 -0.28804,-0.39968z" fill="#f9bd15" stroke="none" stroke-width="0.5" stroke-linecap="butt" stroke-linejoin="miter"></path><path d="M317.03293,63.12678c1.03158,-1.04913 2.06315,0 2.06315,0l1.325,1.56908c0.91657,2.89889 0.91777,6.44328 0,9.346c-0.54818,1.59532 -0.17242,3.26694 -1.11561,4.76194c-3.59265,5.69449 -13.80448,4.84098 -17.11599,-1.06907c-1.91842,-3.42383 0.75493,-10.20026 1.8474,-13.53344c0,0 0.46134,-1.40756 1.84536,-0.93836c1.38399,0.46918 0.92267,1.87675 0.92267,1.87675c-0.6017,1.83583 -3.07185,9.67119 -2.04292,11.19488c2.56263,3.79486 9.33785,4.79467 12.06148,0.90919c0.638,-0.91014 0.48555,-3.05222 0.82957,-4.14025c0.76207,-2.21783 0.75919,-5.25985 0,-7.46925l-0.62015,-0.4092c0,0 -1.03158,-1.04913 0,-2.09827z" fill="#f9bd15" stroke="none" stroke-width="0.5" stroke-linecap="butt" stroke-linejoin="miter"></path><path d="M338.00245,73.57267c0,1.48369 -1.45888,1.48369 -1.45888,1.48369c-1.65758,0 -3.456,0 -5.24368,0c0.00678,2.1479 0.19232,4.21437 0.7922,5.96017l0.07486,1.45831c0,0 0,1.4837 -1.45888,1.4837c-1.45887,0 -1.45887,-1.4837 -1.45887,-1.4837l0.07486,-0.51995c-0.66239,-2.09501 -0.85743,-4.46787 -0.86519,-6.89856c-0.5583,0 -1.10701,0 -1.64114,0c0,0 -1.45888,0 -1.45888,-1.48369c0,-1.48369 1.45888,-1.4837 1.45888,-1.4837c0.56842,0 1.13683,0 1.70526,0c0.08929,-2.22459 0.2399,-4.42321 0.2399,-6.42935c0,0 0,-1.4837 1.45887,-1.4837c1.45887,0 1.45887,1.4837 1.45887,1.4837c0,1.93267 -0.18911,4.16597 -0.30085,6.42935c1.55916,0 3.11831,0 4.67749,0h0.48629c0,0 1.45888,0.00001 1.45888,1.4837z" fill="#f9bd15" stroke="none" stroke-width="0.5" stroke-linecap="butt" stroke-linejoin="miter"></path><path d="M347.70385,69.52213c-0.93803,-0.06709 -1.92742,-0.07895 -2.61264,0.367c-1.41318,0.91965 -2.89975,6.61399 -0.89917,7.91098c4.30168,2.78886 6.81661,-4.51374 4.75383,-7.36096c-0.18871,-0.28788 -0.37741,-0.57573 -0.56609,-0.86359c-0.0612,-0.00481 -0.12306,-0.00983 -0.18547,-0.01489l0.02027,0.05549c0,0 -0.23187,0 -0.51072,-0.094zM350.54798,67.53366c0.2752,0.41982 0.55041,0.83965 0.8256,1.25946c3.33635,5.42122 -1.68641,16.39184 -8.86232,11.43256c-3.8004,-2.62646 -2.12507,-10.67023 1.046,-12.86079c1.62216,-1.12061 3.80785,-0.71616 5.62989,-0.71616c0,0 1.03368,0 1.36084,0.88493z" fill="#f9bd15" stroke="none" stroke-width="0.5" stroke-linecap="butt" stroke-linejoin="miter"></path><path d="M357.93298,68.13032c-0.06943,2.84112 -0.58567,11.86473 0.19422,12.94937c1.40347,1.95188 6.08791,-1.07709 7.30002,-1.83684c3.21838,-2.01733 2.627,-5.5501 0.58562,-8.24193c-2.23204,-3.14707 -4.66228,-2.8986 -8.07987,-2.87059zM355.0969,67.17758c-0.04703,-0.1511 -0.07425,-0.32612 -0.07425,-0.52884c0,-1.48369 1.45888,-1.4837 1.45888,-1.4837h0.97258c4.68255,0 7.7972,-0.02136 10.89292,4.05544c2.37075,3.28688 3.5675,7.96762 0.35077,11.3361c-2.61234,2.73558 -9.8565,6.06641 -12.88937,2.3243c-1.63972,-2.02317 -0.7858,-12.20238 -0.7858,-15.24301c0,0 0,-0.20377 0.07425,-0.4603z" fill="#f9bd15" stroke="none" stroke-width="0.5" stroke-linecap="butt" stroke-linejoin="miter"></path><path d="M386.31141,72.4269c-1.30486,0.66353 -1.95729,-0.66353 -1.95729,-0.66353l-0.39527,-0.82966c-0.7313,-1.63327 -5.14135,-1.48619 -6.44571,0.15892c-1.68364,2.12345 -0.99121,5.08619 -1.57998,7.42572v1.97826c0,0.81941 -0.65316,1.4837 -1.45888,1.4837c-0.80573,0 -1.45887,-0.66429 -1.45887,-1.4837c0,-0.16485 0,-1.8134 0,-1.97826c0,-0.32577 0,-0.65153 0,-0.97731c-0.23592,-0.74245 -0.18547,-1.65957 0,-2.59552c0,-1.44674 0,-2.89349 0,-4.34024c0,0 0,-1.48369 1.45887,-1.48369c0.37122,0 0.64796,0.09605 0.85431,0.23929c1.62163,-1.9654 3.96615,-2.2976 6.92634,-2.21757c0.87942,0.02378 1.84996,-0.23115 2.63355,0.17556c0.72678,0.37719 0.99869,1.31256 1.49805,1.96883l0.5773,1.14859c0,0 0.65243,1.32705 -0.65243,1.99059z" fill="#f9bd15" stroke="none" stroke-width="0.5" stroke-linecap="butt" stroke-linejoin="miter"></path><path d="M409.54627,75.98551c1.03158,1.04913 0,2.09827 0,2.09827l-0.304,0.26844c-0.571,0.68802 -0.87583,1.77132 -1.71299,2.06408c-2.15925,0.75513 -4.88801,-1.51538 -6.14689,-3.82196c-0.06608,0.28748 -0.14016,0.57277 -0.22025,0.85512c-0.57963,2.04363 -0.48811,3.33614 -2.53888,4.77775c-2.02226,1.42158 -5.94053,0.71089 -7.34867,-1.37048c-2.99047,-4.42022 -0.20185,-10.21125 4.26137,-11.69545c1.2189,-0.40534 3.41033,-0.0397 4.7118,-0.0397c0,0 1.45887,0.00001 1.45887,1.4837c0,0.47267 -0.14806,0.79478 -0.34986,1.01426c0.02382,0.0283 0.04659,0.05753 0.06828,0.0876l1.44869,1.96446l-0.19535,0.149c0.39279,0.41349 0.77047,0.84101 1.12904,1.28428c0.03606,0.04458 2.69187,2.57371 2.77496,2.50465c0.23695,-0.19696 0.15479,-0.6022 0.23219,-0.90332l0.66856,-0.72068c0,0 1.03159,-1.04913 2.06316,0zM396.20627,72.04926c-2.72981,0.86285 -4.19492,4.38219 -2.54671,7.09806c1.097,1.80762 3.67119,0.68278 4.29829,-0.7721c0.2372,-0.55033 0.24237,-1.17715 0.40288,-1.75544c0.23055,-0.83069 0.44116,-1.68953 0.42812,-2.55258v-1.4837c0,-0.2064 0.04143,-0.40297 0.11633,-0.58156c-0.95552,-0.08409 -2.01188,-0.16984 -2.6989,0.0473z" fill="#f9bd15" stroke="none" stroke-width="0.5" stroke-linecap="butt" stroke-linejoin="miter"></path><path d="M434.31307,63.26291c1.38399,-0.46918 1.84536,0.93836 1.84536,0.93836l0.41282,1.30103c2.69828,4.34856 1.39641,12.18138 -4.71457,12.0269c-0.67319,-0.01702 -1.4095,0.1822 -2.01717,-0.11295c-0.81031,-0.39359 -1.52527,-1.02501 -2.14206,-1.76423c-1.23311,6.12534 -6.32414,11.42086 -12.33685,5.98368c-3.52682,-3.18923 -1.98297,-11.50613 -1.98297,-15.9761c0,0 0,-1.4837 1.45887,-1.4837c1.45887,0 1.45887,1.4837 1.45887,1.4837c0,3.4794 -1.01409,9.06176 -0.07486,12.38953c0.70713,2.50543 4.78465,2.90034 6.60227,1.67991c2.60459,-1.74885 2.73528,-5.80476 2.06405,-8.76339c-0.19891,-0.32004 -0.33855,-0.6485 -0.28548,-1.00864c0.00131,-0.00897 0.00291,-0.01769 0.00477,-0.02613c-0.00825,-0.02584 -0.01658,-0.05152 -0.02495,-0.07707l0.10677,-0.23765h-0.12562v-1.48369c0,-0.81941 0.65316,-1.4837 1.45888,-1.4837c0.80573,0 1.45887,0.66429 1.45887,1.4837v1.30415c0.09527,0.29728 0.17644,0.60205 0.24396,0.91272c0.84365,1.7956 1.85684,3.56049 3.23207,4.32543c0.26536,0.14761 0.59841,-0.0996 0.90058,-0.11295c0.32624,-0.01439 1.62904,0.14748 2.03222,-0.18997c1.75718,-1.47068 1.12644,-6.05029 0.06129,-7.56579l-0.55978,-1.66638c0,0 -0.46134,-1.40756 0.92267,-1.87675z" fill="#f9bd15" stroke="none" stroke-width="0.5" stroke-linecap="butt" stroke-linejoin="miter"></path><path d="M207.98583,116.91465c0,3.62682 0,7.25363 0,10.88045c0,0.98913 0,1.97828 0,2.96741c0,0.67966 -0.98321,1.80442 -0.34573,2.00836c1.48952,0.47652 3.12283,-0.0306 4.6843,-0.03019c4.86843,0.00128 10.00195,0.08879 8.39563,-6.40906c-0.91223,-1.83563 -1.63405,-4.93187 -3.06737,-6.38956c-1.68957,-1.71832 -6.87265,-3.06347 -9.18053,-3.02739zM205.74435,114.63502c0.3951,-0.68778 1.26889,-0.68778 1.26889,-0.68778h1.45887c3.08864,0.03495 8.98542,1.59981 11.24369,3.89653c1.74814,1.77788 2.65563,5.23048 3.74071,7.4583c2.2868,9.34045 -3.86726,10.4205 -11.13543,10.40601c-1.83711,-0.00365 -5.38605,0.22603 -6.9073,-1.01915c-0.41502,-0.33969 -0.34572,-3.17875 -0.34572,-3.92642c0,-4.94567 0,-9.89132 0,-14.83699c0,0 0,-0.88868 0.67627,-1.29049z" fill="#f9bd15" stroke="none" stroke-width="0.5" stroke-linecap="butt" stroke-linejoin="miter"></path><path d="M241.59893,124.39313c-1.03158,1.04913 -2.06315,0 -2.06315,0l-0.83873,-1.07451c-0.10328,-0.35285 -0.38686,-1.76073 -0.89632,-1.99257c-0.70818,-0.32227 -3.8512,3.33143 -4.16614,4.10187c-0.17808,0.43562 -0.7625,3.59589 -0.84787,3.96842v2.84985c0,0.81941 -0.65316,1.48369 -1.45887,1.48369c-0.80573,0 -1.45888,-0.66427 -1.45888,-1.48369c0,-0.32972 0,-2.63768 0,-2.96741c0,-4.4511 0,-8.90219 0,-13.35329c0,0 0,-1.48369 1.45888,-1.48369c1.45887,0 1.45887,1.48369 1.45887,1.48369c0,1.92599 0,3.85196 0,5.77795c0.31758,-0.34665 0.65,-0.66995 0.9893,-0.96402c0.87034,-0.75424 3.20023,-2.7723 4.69507,-2.30141c2.16851,0.68311 2.40084,2.25075 2.994,3.94223l0.13387,-0.08538c0,0 1.03158,1.04913 0,2.09827z" fill="#f9bd15" stroke="none" stroke-width="0.5" stroke-linecap="butt" stroke-linejoin="miter"></path><path d="M260.18513,123.99521c1.30486,0.66354 0.65243,1.99059 0.65243,1.99059l-0.48629,0.98913c-0.50349,0.85895 -0.70498,2.00332 -1.51046,2.57686c-1.71341,1.22 -3.64374,0.47164 -5.14913,-0.7827c-0.00811,0.97501 -0.02464,1.83083 -0.05708,1.92882c-1.12213,3.38923 -4.28894,3.10868 -6.62592,1.26824c-3.13417,-2.46825 -3.7308,-8.16843 -0.58913,-11.2267c1.01845,-0.99142 2.51432,-0.85282 3.75807,-0.85659c0.26716,-0.304 0.65566,-0.49537 1.08812,-0.49537c0.65627,0 1.21131,0.4407 1.39464,1.04697l0.47565,1.45125c0.19129,0.60498 0.32684,1.22975 0.41676,1.86234c1.234,2.03719 3.1303,5.25917 4.18874,1.89983l0.48629,-0.98913c0,0 0.65243,-1.32706 1.95729,-0.66354zM250.76001,124.9964c-0.4277,-0.54629 -0.8628,-1.08511 -0.9002,-1.75093c-0.00738,-0.13133 -0.00578,-0.26154 0.00348,-0.39079c-2.32798,0.10183 -2.07673,1.44283 -2.42007,4.05421c-0.0584,0.44411 -0.36189,0.93051 -0.16867,1.33319c0.13989,0.29155 2.68952,2.61287 3.30283,2.20138c0.72675,-0.48759 0.21586,-1.76305 0.20209,-2.64837c-0.01026,-0.65933 -0.00333,-1.31885 0,-1.97826c0.00138,-0.27221 -0.00418,-0.54642 -0.01944,-0.82042z" fill="#f9bd15" stroke="none" stroke-width="0.5" stroke-linecap="butt" stroke-linejoin="miter"></path><path d="M285.30615,110.48528c1.45887,0 1.45887,1.48369 1.45887,1.48369l-0.07486,0.51996c1.33737,4.08033 1.90086,9.93627 -0.05861,13.94787c-0.86104,1.76284 -2.32802,4.45652 -4.59843,4.81425c-0.93761,0.14774 -1.74888,-0.74976 -2.63448,-1.09608c-1.55937,-0.60981 -3.97855,-1.97871 -5.18905,-3.68235c-0.38635,1.08923 -0.94085,2.07964 -1.83124,2.63059c-3.16113,1.9561 -7.78257,-1.38723 -8.88047,-4.30093c-0.69041,-1.83223 -0.07486,-5.41616 -0.07486,-7.39309c0,0 0,-1.4837 1.45887,-1.4837c1.45887,0 1.45888,1.4837 1.45888,1.4837c0,1.70227 -0.63619,4.87267 -0.07486,6.45473c0.50534,1.42429 3.22528,3.50139 4.73569,2.62301c0.61067,-0.35512 1.03573,-3.15876 1.17468,-3.77274v-1.34847c0,-0.81943 0.65316,-1.4837 1.45887,-1.4837c0.58238,0 1.08506,0.34704 1.319,0.84892l0.95845,1.94953l-0.27972,0.14223c1.32605,1.79277 2.52092,3.3898 4.88235,4.59076c0.45503,0.23142 0.74776,0.90874 1.25586,0.88219c1.25296,-0.06546 1.64429,-1.95972 2.20965,-3.0988c1.65296,-3.33043 1.05422,-8.37432 -0.05861,-11.76955l-0.07486,-1.45833c0,0 0,-1.48369 1.45888,-1.48369z" fill="#f9bd15" stroke="none" stroke-width="0.5" stroke-linecap="butt" stroke-linejoin="miter"></path><path d="M269.25854,146.5886c0,1.4837 -1.45887,1.4837 -1.45887,1.4837c-0.90052,0 -1.90528,0 -2.91775,0c0,0.16484 0,0.32972 0,0.49456v1.4837c0,0 0,1.4837 -1.45888,1.4837c-1.45887,0 -1.45887,-1.4837 -1.45887,-1.4837c0,-0.61432 0,-1.28012 0,-1.97826c-0.165,0 -0.32727,0 -0.48629,0c0,0 -1.45887,0 -1.45887,-1.4837c0,-1.4837 1.45887,-1.4837 1.45887,-1.4837c0.16208,0 0.3242,0 0.48629,0c0,-2.26072 0,-4.57874 0,-6.42935c0,0 0,-1.4837 1.45887,-1.4837c1.45887,0 1.45888,1.4837 1.45888,1.4837c0,2.1431 0,4.28623 0,6.42935c0.8105,0 1.62096,0 2.43146,0h0.48629c0,0 1.45887,0 1.45887,1.4837z" fill="#f9bd15" stroke="none" stroke-width="0.5" stroke-linecap="butt" stroke-linejoin="miter"></path><path d="M278.01178,152.02885c-1.45887,0 -1.45888,-1.4837 -1.45888,-1.4837l0.01884,-1.24603c-0.29893,-0.91207 -0.15572,-3.22898 -0.78582,-3.92121c-0.25044,-0.27514 -0.885,-0.0774 -1.08037,0.24055c-0.26175,0.426 0.02784,2.32781 -0.10876,2.63514c-0.02497,0.05618 -0.0507,0.1119 -0.07719,0.16723l0.04458,0.01133l-0.4789,1.94814c-0.14742,0.66071 -0.72846,1.15396 -1.42273,1.15396c-0.80573,0 -1.45887,-0.66429 -1.45887,-1.4837c0,-2.47284 0,-6.42935 0,-8.90219c0,0 0,-1.48369 1.45887,-1.48369c1.45887,0 1.45888,1.48369 1.45888,1.48369c0,0.49492 0,0.98983 0,1.48476c1.00976,-0.50591 2.17298,-0.55814 3.19842,0.22054c1.99741,1.51673 1.46977,3.94978 2.13193,5.97011l0.01884,1.72137c0,0 0,1.4837 -1.45887,1.4837z" fill="#f9bd15" stroke="none" stroke-width="0.5" stroke-linecap="butt" stroke-linejoin="miter"></path><path d="M284.33358,149.06144c-1.45887,0 -1.45888,-1.48369 -1.45888,-1.48369c0,-2.1431 0,-5.27538 0,-7.41851c0,0 0,-1.48369 1.45888,-1.48369c1.45887,0 1.45887,1.48369 1.45887,1.48369c0,2.1431 0,4.28625 0,6.42935v0.98915c0,0 0,1.48369 -1.45887,1.48369z" fill="#f9bd15" stroke="none" stroke-width="0.5" stroke-linecap="butt" stroke-linejoin="miter"></path><path d="M284.33358,134.71902c0,-0.81941 0.65316,-1.4837 1.45887,-1.4837c0.80573,0 1.45888,0.66429 1.45888,1.4837c0,0.81941 -0.65316,1.4837 -1.45888,1.4837c-0.80573,0 -1.45887,-0.66429 -1.45887,-1.4837z" fill="#f9bd15" stroke="none" stroke-width="0.5" stroke-linecap="butt" stroke-linejoin="miter"></path><path d="M297.46344,148.56688c-1.45887,0 -1.45888,-1.48369 -1.45888,-1.48369v-0.49457c0,-1.0748 0.16517,-2.15987 0.01884,-3.2243c-0.17194,-1.25072 -1.2474,-4.0489 -3.02364,-2.52052c-0.45565,0.39207 -0.9367,1.48888 -1.37181,2.74004c0,0.17731 0,0.35463 0,0.53194v2.96741c0,0.81941 -0.65316,1.48369 -1.45887,1.48369c-0.80573,0 -1.45888,-0.66427 -1.45888,-1.48369c0,-0.49456 0,-2.47284 0,-2.96741c0,-0.11026 0,-0.22053 0,-0.3308c-0.01258,-0.08687 -0.01147,-0.17342 0,-0.25972c0,-0.29773 0,-0.59546 0,-0.89316c0,0 0,-1.10204 0.93388,-1.40657c1.49252,-3.16581 5.03754,-5.46381 8.00615,-1.96685c1.55369,1.83021 1.27208,5.14386 1.27208,7.32995v0.49457c0,0 0,1.48369 -1.45887,1.48369z" fill="#f9bd15" stroke="none" stroke-width="0.5" stroke-linecap="butt" stroke-linejoin="miter"></path><path d="M309.13442,156.97449c0,-1.48369 1.45888,-1.4837 1.45888,-1.4837l0.7705,0.17556c1.67548,-3.83291 0.27026,-8.138 -0.68246,-11.99864c-1.89555,2.4178 -6.28074,0.48534 -7.31603,-1.58238c-0.35557,-0.71019 0.30045,-1.56469 0.47812,-2.3409c0.67315,-2.94132 1.26644,-4.28131 4.31843,-4.53083c0,0 1.11437,0 1.39522,0.99053c0.02111,-0.00091 0.04233,-0.0014 0.06366,-0.0014c0.51442,0 0.96665,0.27078 1.2264,0.67983l0.96004,1.46456l-0.01279,0.00869c0.02043,0.023 0.04068,0.04619 0.06074,0.06963c1.40126,1.63794 1.52459,4.27495 2.08407,6.26468c1.34377,4.77906 1.72517,9.48326 -1.19859,13.59257l-2.14726,0.17555c0,0 -1.45888,0 -1.45888,-1.4837zM306.64478,140.57408c-0.09446,0.24998 -0.60478,0.38333 -0.49448,0.62647c0.10796,0.23792 2.23685,0.77999 2.2869,0.56399c0.19622,-0.84664 -0.27538,-1.72458 -0.27538,-2.59442v-0.98913c-1.51969,-0.34626 -1.04482,1.14338 -1.51706,2.39309z" fill="#f9bd15" stroke="none" stroke-width="0.5" stroke-linecap="butt" stroke-linejoin="miter"></path><path d="M226.35405,149.102c0.19195,-0.17232 1.10929,-0.89859 2.0266,0.03434c1.03158,1.04913 0,2.09827 0,2.09827l-1.75673,0.90911c-3.80559,-0.65215 -7.20832,-2.0805 -8.65261,-5.41747c-0.09207,0.85491 -0.22115,1.70046 -0.359,2.65139c-0.19936,1.37507 -0.40467,3.00913 -1.45503,3.89842c-5.0754,4.29712 -10.33445,-2.85827 -6.59777,-7.36133c0.74517,-0.89799 1.50043,-1.84081 2.48204,-2.46059c0.92652,-0.58499 2.0551,-0.68705 3.15027,-0.69599c0.00469,-0.81535 0.65604,-1.47487 1.45886,-1.47487c0.33373,0 0.64131,0.11398 0.88712,0.30574l1.93338,1.4747l-0.04025,0.05459c0.11931,0.08331 0.23563,0.17132 0.34843,0.26483c1.11425,0.92361 1.20202,3.60763 2.60902,4.62582c0.84394,0.61072 2.69364,0.90298 3.96571,1.09305zM215.19585,145.71218c-0.66752,0.01386 -1.36127,0.08528 -1.71675,0.32418c-1.33436,0.89679 -3.69631,4.0674 -1.45888,5.33083c2.81077,1.58717 3.14833,-2.97696 3.17564,-5.65501z" fill="#f9bd15" stroke="none" stroke-width="0.5" stroke-linecap="butt" stroke-linejoin="miter"></path><path d="M238.53377,150.18546c-1.45887,0 -1.45887,-1.4837 -1.45887,-1.4837l0.04355,-0.62926c-0.16476,-0.67086 -0.34811,-1.3373 -0.49429,-2.01262c-0.25425,-1.17454 0.26601,-2.99923 -0.80252,-3.51449c-0.61735,-0.2977 -3.01008,0.06455 -3.28796,0.93351c-0.3899,1.21933 -0.59205,2.19039 -0.80799,3.12066c0,0.37102 0,0.74205 0,1.11307v1.4837c0,0.81941 -0.65316,1.48369 -1.45888,1.48369c-0.80573,0 -1.45887,-0.66427 -1.45887,-1.48369c0,-0.06969 0,-1.62307 0,-1.69274c-0.08508,-0.22727 -0.06654,-0.46204 0,-0.70069c0,-2.00473 0,-4.00946 0,-6.01418c0,0 0,-1.4837 1.45887,-1.4837c0.97172,0 1.29622,0.65826 1.40457,1.09786c1.71805,-1.02246 4.13819,-1.34489 5.68421,-0.38172c0.89311,0.5564 1.19715,1.76963 1.58552,2.75888c0.56955,1.45071 0.63515,3.05739 1.00799,4.57276l0.04355,1.34898c0,0 0,1.4837 -1.45888,1.4837z" fill="#f9bd15" stroke="none" stroke-width="0.5" stroke-linecap="butt" stroke-linejoin="miter"></path><path d="M251.66363,153.15287c0,-1.48369 1.45888,-1.48369 1.45888,-1.48369l-0.29778,0.23251c1.11037,-0.71015 2.14318,-1.25384 2.91861,-2.44723c0.96416,-1.48388 0.6468,-3.21953 0.16009,-5.00054c-0.08674,0.12482 -0.18325,0.24229 -0.29047,0.35134c-1.9211,1.95379 -7.35698,1.38296 -8.99904,-0.64311c-1.25003,-1.54234 -0.7858,-4.0356 -0.7858,-5.84626c0,0 0,-1.4837 1.45887,-1.4837c1.45887,0 1.45887,1.4837 1.45887,1.4837c0,2.19431 -0.76382,4.48838 1.94518,4.4511c0.95304,-0.01312 2.1848,0.62541 2.85876,-0.06c0.48057,-0.48874 0.05899,-3.81557 0.05899,-4.39109v-1.4837c0,-0.81941 0.65316,-1.48369 1.45888,-1.48369c0.65627,0 1.21131,0.4407 1.39464,1.04697l0.91203,2.78267l-0.32439,0.10997c1.79241,3.73018 3.17261,8.45005 1.23239,11.62841c-1.1159,1.82801 -2.31114,2.45333 -3.88948,3.48757l-1.27036,0.23249c0,0 -1.45888,0 -1.45888,-1.4837z" fill="#f9bd15" stroke="none" stroke-width="0.5" stroke-linecap="butt" stroke-linejoin="miter"></path><path d="M328.98469,120.01475c0.04636,-1.48295 1.50449,-1.43581 1.50449,-1.43581l0.99659,0.03223c2.46924,0.08116 4.96495,0.18681 7.40296,0.63755c1.2818,0.23698 2.81561,-0.02383 3.82586,0.8128c1.06132,0.87893 0.07187,3.86561 -0.15802,4.81131c-0.63181,2.5991 -1.18907,5.83486 -3.36757,7.67639c-1.67009,1.41174 -4.24769,1.86419 -6.27998,2.34926c-3.00212,-0.57671 -6.2258,-0.31841 -8.42276,-2.97418c-6.98281,-8.44112 1.15475,-29.04628 12.27838,-29.17219c0,0 1.45887,0 1.45887,1.4837c0,1.4837 -1.45887,1.4837 -1.45887,1.4837c-8.71576,-0.13629 -15.26618,17.83451 -10.09102,24.24094c1.4993,1.85603 4.10365,1.52498 6.16598,1.97147c3.5441,-0.98257 5.48324,-1.97854 6.40005,-5.80051c0.15841,-0.66034 0.32234,-1.31931 0.48629,-1.97826c0.14938,-0.60037 0.23136,-1.22313 0.45367,-1.7997c0.05771,-0.14968 0.51827,-0.29774 0.36089,-0.3129c-2.95401,-0.28476 -6.15579,-0.36843 -9.1474,-0.46347l-0.99659,-0.03223c0,0 -1.45816,-0.04714 -1.41179,-1.53009z" fill="#f9bd15" stroke="none" stroke-width="0.5" stroke-linecap="butt" stroke-linejoin="miter"></path><path d="M358.57287,121.0764c0.46134,1.40756 -0.92268,1.87675 -0.92268,1.87675l-1.68652,0.55154c-1.23657,-0.03125 -2.55842,0.36621 -3.70971,-0.09377c-3.52162,-1.40699 -2.35945,-6.40059 -2.35945,-9.28382c0,-0.83093 -0.11517,-4.94856 0.42729,-5.50023c0.70883,-0.72088 1.97837,-0.34313 2.97675,-0.43457c1.94354,-0.178 6.05573,0.66388 7.39219,1.9593c0.78957,0.76531 1.3332,4.55975 0.44747,5.51918c-0.99221,1.07477 -6.53837,0.43457 -7.83965,0.43457c0,0 -0.2769,0.00001 -0.58946,-0.12269c-0.2497,2.69781 -0.63486,4.74392 2.78722,4.59296l1.23123,-0.43758c0,0 1.38402,-0.46918 1.84536,0.93836zM352.83858,113.2157c0.25568,-0.07773 0.45994,-0.07773 0.45994,-0.07773c0.81049,0 1.62099,0 2.43146,0c0.4301,0 2.88874,-0.39801 3.29034,0.25812c-0.07642,-0.38088 -0.2298,-1.04663 -0.47044,-1.22831c-1.26291,-0.95343 -3.79006,-0.72592 -5.25138,-1.00811c-0.33029,-0.06379 -0.67586,-0.67633 -0.91358,-0.43455c-0.23773,0.24175 0.38471,0.58997 0.42731,0.92912c0.0649,0.51684 0.04775,1.039 0.02634,1.56144z" fill="#f9bd15" stroke="none" stroke-width="0.5" stroke-linecap="butt" stroke-linejoin="miter"></path><path d="M385.88004,115.11622c0,1.48369 -1.45888,1.4837 -1.45888,1.4837c-2.53064,0 -5.79595,0 -8.75323,0c0,2.47284 0,4.94565 0,7.41848v1.4837c0,0 0,1.48369 -1.45888,1.48369c-1.45887,0 -1.45887,-1.48369 -1.45887,-1.48369c0,-2.75578 0,-5.81437 0,-8.90219c-0.16484,0 -0.32701,0 -0.48629,0c0,0 -1.45888,0 -1.45888,-1.4837c0,-1.4837 1.45888,-1.4837 1.45888,-1.4837c0.1621,0 0.32418,0 0.48629,0c0,-2.74929 0,-5.45195 0,-7.91305c0,0 0,-1.48369 1.45887,-1.48369c1.45887,0 1.45888,1.48369 1.45888,1.48369c0,2.63769 0,5.27537 0,7.91305c2.43146,0 4.86293,0 7.29437,0h1.45887c0,0 1.45888,0 1.45888,1.4837z" fill="#f9bd15" stroke="none" stroke-width="0.5" stroke-linecap="butt" stroke-linejoin="miter"></path><path d="M322.66216,151.21955c-1.45887,0 -1.45888,-1.4837 -1.45888,-1.4837c0,-2.30797 0,-5.60507 0,-7.91305c0,0 0,-1.4837 1.45888,-1.4837c1.45887,0 1.45887,1.4837 1.45887,1.4837c0,2.30797 0,4.61595 0,6.92392v0.98913c0,0 0,1.4837 -1.45887,1.4837z" fill="#f9bd15" stroke="none" stroke-width="0.5" stroke-linecap="butt" stroke-linejoin="miter"></path><path d="M321.20328,136.38256c0,-0.81941 0.65318,-1.4837 1.45888,-1.4837c0.80571,0 1.45887,0.66429 1.45887,1.4837c0,0.81941 -0.65316,1.4837 -1.45887,1.4837c-0.80571,0 -1.45888,-0.66429 -1.45888,-1.4837z" fill="#f9bd15" stroke="none" stroke-width="0.5" stroke-linecap="butt" stroke-linejoin="miter"></path><path d="M338.68482,149.16516c-1.38399,0.46918 -1.84533,-0.93836 -1.84533,-0.93836l-0.54233,-1.71522c-0.00544,-0.51709 -0.14291,-1.44567 -0.22501,-2.36491c-0.06505,0.07805 -0.13833,0.14838 -0.22111,0.20898c-0.83305,0.60981 -1.96947,1.10721 -2.96392,0.84882c-1.0677,-0.27743 -2.6066,-2.77931 -2.72965,-4.3454c-0.10837,0.46272 -0.26569,0.9966 -0.41882,1.24921c-0.36774,0.60667 -1.05709,1.00509 -1.31586,1.66742c-0.3623,0.92739 0.07486,1.99486 0.07486,2.99279c0,0 0,1.4837 -1.45888,1.4837c-1.45887,0 -1.45887,-1.4837 -1.45887,-1.4837c0,-2.95494 0.08702,-3.6584 1.67676,-6.22025c0.89602,-1.44391 1.47896,-4.36374 4.37448,-2.99341c0.86478,0.40925 0.68594,1.81403 1.11843,2.67863c0.36099,0.72167 0.89287,1.37836 1.08447,2.16425c0.09762,0.40043 -0.08676,-0.90023 0.16118,-1.22674c0.66974,-0.88199 1.31847,-2.61263 2.37376,-2.31265c2.92644,0.83186 2.83817,4.93286 2.80826,7.17795l0.43028,1.25219c0,0 0.46134,1.40757 -0.92268,1.87675z" fill="#f9bd15" stroke="none" stroke-width="0.5" stroke-linecap="butt" stroke-linejoin="miter"></path><path d="M339.19606,142.31735c0,-1.4837 1.45888,-1.4837 1.45888,-1.4837c0,-1.97826 0,-3.95654 0,-5.9348c0,0 0,-0.35585 0.17136,-0.71903c-0.33929,-0.19679 -0.65767,-0.56613 -0.65767,-1.25925c0,-1.4837 1.45887,-1.4837 1.45887,-1.4837c2.43417,0 5.951,-0.57607 8.10615,0.74548c2.36762,1.45186 2.90481,6.46118 1.32017,8.56275c-1.63718,2.17128 -4.85622,2.8834 -7.48117,3.0269c0,1.16365 0,2.32732 0,3.491l0.33227,0.32559c0,0 0.65243,1.32706 -0.65243,1.99059c-1.30486,0.66354 -1.95729,-0.66353 -1.95729,-0.66353l-0.64029,-1.65266c0,-1.15398 0,-2.308 0,-3.46197c0,0 -1.45888,0 -1.45888,-1.48369zM348.7351,138.94393c0.61499,-0.70935 0.29957,-3.81923 -0.62498,-4.29598c-1.01233,-0.52201 -2.58295,-0.48788 -4.05796,-0.38813c0.00451,0.04754 0.00684,0.09574 0.00684,0.14449c0,0.43943 -0.18784,0.83424 -0.48629,1.10589c0,1.76762 0,3.53523 0,5.30283c1.80767,-0.09057 3.98165,-0.50718 5.1624,-1.8691z" fill="#f9bd15" stroke="none" stroke-width="0.5" stroke-linecap="butt" stroke-linejoin="miter"></path><path d="M361.62446,136.32258c1.03158,1.04913 0,2.09825 0,2.09825l-0.79031,0.76301c-1.39779,2.12597 -2.54581,4.24221 -3.83022,6.32452l0.24374,0.10622l-1.13612,2.69603c-0.21561,0.54551 -0.74065,0.93067 -1.35416,0.93067c-0.80571,0 -1.45887,-0.66429 -1.45887,-1.4837c0,-3.46197 0,-8.90219 0,-12.36415c0,0 0,-1.4837 1.45887,-1.4837c1.45887,0 1.45888,1.4837 1.45888,1.4837c0,1.85011 0,3.70023 0,5.55034c0.66543,-1.18375 1.48171,-2.32221 2.19018,-3.40595l1.15487,-1.21527c0,0 1.03158,-1.04913 2.06315,0z" fill="#f9bd15" stroke="none" stroke-width="0.5" stroke-linecap="butt" stroke-linejoin="miter"></path><path d="M365.12353,133.74077c0.65243,-1.32706 1.95729,-0.66354 1.95729,-0.66354l1.53401,0.99863c1.17188,1.78899 2.76981,3.32854 3.14393,5.53099c0.34497,2.03091 -0.27707,6.0007 -1.98605,7.32981c-2.48705,1.93421 -6.4538,0.04454 -7.60989,-2.56783c-0.97043,-2.19284 0.21385,-5.58453 0.96588,-7.54817c0,0 0.5418,-1.37757 1.89634,-0.82655c1.35453,0.55104 0.81272,1.92861 0.81272,1.92861c-0.50893,1.25299 -1.53978,3.82667 -0.97929,5.31053c0.2488,0.65865 2.36437,2.16582 3.08852,1.38871c0.8578,-0.92055 1.1161,-3.33629 0.9317,-4.53978c-0.25061,-1.63568 -1.81258,-3.02032 -2.69158,-4.3603l-0.41114,0.00948c0,0 -1.30486,-0.66353 -0.65243,-1.99059z" fill="#f9bd15" stroke="none" stroke-width="0.5" stroke-linecap="butt" stroke-linejoin="miter"></path><path d="M381.01712,134.89887c0,0.86164 -0.49202,1.2229 -0.90458,1.37435c-0.87513,2.12098 -2.20434,4.1788 -3.57268,6.14168l-0.42181,1.71591c-0.14742,0.66071 -0.72843,1.15396 -1.42271,1.15396c-0.80571,0 -1.45888,-0.66429 -1.45888,-1.4837c0,-1.81342 0,-5.11051 0,-6.92392c0,0 0,-1.48369 1.45888,-1.48369c1.45887,0 1.45887,1.48369 1.45887,1.48369c0,0.07571 0,0.15139 0,0.2271c0.64574,-0.90529 1.27197,-1.80927 1.53374,-2.67455l1.8703,-1.01452c0,0 1.45887,0 1.45887,1.4837z" fill="#f9bd15" stroke="none" stroke-width="0.5" stroke-linecap="butt" stroke-linejoin="miter"></path><path d="M391.22924,142.31735c0,1.4837 -1.45887,1.48369 -1.45887,1.48369l-1.62501,-0.15664c-2.21438,-1.14814 -4.15587,-2.76253 -5.27673,-4.81898c-0.44049,0.02211 -0.89695,0.02997 -1.3652,0.02997c0,0 -1.45888,0 -1.45888,-1.4837c0,-1.4837 1.45888,-1.4837 1.45888,-1.4837c0.11755,0 0.25824,0.00759 0.41519,0.0189c-0.10605,-0.83996 -0.0862,-1.7313 0.08203,-2.67298c0.18442,-1.03248 0.26344,-2.27131 1.03642,-2.96643c1.01377,-0.91166 4.27548,-0.13163 4.99906,0.79648c0.48217,0.61847 0.24011,1.56276 0.27538,2.35124c0.12236,2.73708 -0.79558,4.11472 -2.317,4.79712c0.95898,1.20584 2.24726,2.17835 3.45573,2.77802l0.32015,-0.15665c0,0 1.45887,0 1.45887,1.4837zM384.71973,135.84513c0.1031,-0.0397 0.19561,-0.08823 0.27477,-0.14711c0.5409,-0.40228 0.83835,-2.53908 0.67461,-2.89904c-0.12004,-0.26386 -0.73359,-0.46391 -0.83645,-0.19264c-0.42556,1.12229 -0.4141,2.21864 -0.11296,3.23877z" fill="#f9bd15" stroke="none" stroke-width="0.5" stroke-linecap="butt" stroke-linejoin="miter"></path><path d="M404.52526,138.2042c-1.30486,0.66354 -1.95729,-0.66353 -1.95729,-0.66353l-0.64032,-1.65266c0.00112,-0.07464 -0.00069,-0.14905 -0.00505,-0.22324c-0.26784,0.95 -0.61403,1.92065 -0.96754,2.83269v1.34706c0,0.81941 -0.65318,1.4837 -1.45888,1.4837c-0.59553,0 -1.10771,-0.3629 -1.3344,-0.88313l-0.78193,-1.69357l0.00792,-0.00378l-0.0183,-0.01921c-1.00898,-2.39409 -1.24815,-2.89954 -2.14554,-5.2569c-0.20012,-0.52566 -0.56458,-1.04578 -0.83482,-1.57113c-0.09594,0.3148 -0.2112,0.62674 -0.3003,0.94035c-0.61245,2.15569 -0.42811,4.24036 -0.42811,6.50909c0,0 0,1.4837 -1.45888,1.4837c-1.45887,0 -1.45887,-1.4837 -1.45887,-1.4837c0,-3.13596 -0.25044,-6.36675 1.03076,-9.317c0.38279,-0.88143 0.50888,-2.39291 1.45199,-2.48508c2.8908,-0.28252 4.4869,3.28425 5.57786,6.41602c0.28051,-0.88352 0.56009,-1.69148 0.70357,-2.21369c0.24015,-0.87399 -0.09662,-2.35497 0.75956,-2.61055c1.14518,-0.34186 2.37946,0.63237 3.30662,1.39668c0.52122,0.42967 0.48867,1.27128 0.71092,1.91512c0.37824,1.09565 0.54845,2.27544 0.56116,3.43658l0.33227,0.32561c0,0 0.65243,1.32705 -0.65243,1.99059z" fill="#f9bd15" stroke="none" stroke-width="0.5" stroke-linecap="butt" stroke-linejoin="miter"></path><path d="M416.0891,140.3991c-1.03158,1.04913 -2.06316,0 -2.06316,0l-0.48629,-0.49456c-0.16931,-0.18744 -0.35622,-0.36277 -0.5456,-0.5364c-0.28808,-0.01673 -0.57843,-0.04072 -0.85426,-0.01818c0,0 -1.45888,0 -1.45888,-1.4837c0,-0.72597 0.34925,-1.09671 0.706,-1.28607c-0.53087,-3.43945 0.74496,-9.7759 4.15691,-9.59438c2.83652,0.15089 3.10081,2.18075 2.89891,4.19418c-0.15122,1.50798 -1.46114,4.70745 -2.83649,6.62975l0.48286,0.49107c0,0 1.03158,1.04913 0,2.09827zM414.2645,134.15965c0.37575,-0.86777 0.67526,-1.77654 0.90407,-2.30141c0.25812,-0.59204 0.94131,-2.20167 0.37525,-1.90505c-0.72236,0.37852 -1.16076,2.42225 -1.27931,4.20645z" fill="#f9bd15" stroke="none" stroke-width="0.5" stroke-linecap="butt" stroke-linejoin="miter"></path><path d="M427.2148,140.83365c-1.45887,0 -1.45888,-1.4837 -1.45888,-1.4837v-0.48961c-0.00049,-0.63291 0.05352,-1.2683 -0.00144,-1.89875c-0.07342,-0.84212 -0.16752,-1.68963 -0.38262,-2.50627c-0.24235,-0.92007 -1.15983,-1.52563 -1.91786,-0.56262c-0.14732,0.18716 -0.37009,0.6856 -0.61581,1.30957c0,0.22857 0,0.45715 0,0.68572v1.97826c0,0.81941 -0.65316,1.4837 -1.45887,1.4837c-0.80571,0 -1.45888,-0.66429 -1.45888,-1.4837c0,-0.16484 0,-1.81342 0,-1.97826c0,-0.82429 0,-1.64854 0,-2.47284c0,0 0,-1.48369 1.45888,-1.48369c0.0296,0 0.0586,0.00062 0.08699,0.0018c1.32868,-1.28608 3.43674,-1.98747 5.17517,-0.68635c0.68015,0.50905 1.1465,1.31331 1.44371,2.1172c0.6856,1.85442 0.5781,3.59633 0.58852,5.48633v0.49951c0,0 0,1.4837 -1.45887,1.4837z" fill="#f9bd15" stroke="none" stroke-width="0.5" stroke-linecap="butt" stroke-linejoin="miter"></path><path d="M440.30044,131.61674c0,1.4837 -1.45887,1.4837 -1.45887,1.4837c-0.99626,0 -2.44794,0 -3.84613,0c0,1.09405 0,2.18808 0,3.28212v0.98913c0,0 0,1.4837 -1.45887,1.4837c-1.45887,0 -1.45888,-1.4837 -1.45888,-1.4837c0,-1.35105 0,-2.79325 0,-4.27125c-0.01482,0 -0.02957,0 -0.04422,0c0,0 -1.45888,0 -1.45888,-1.4837c0,-0.20318 0.02736,-0.37852 0.07457,-0.52985c0.20921,-1.13369 1.42851,-1.13369 1.42851,-1.13369c0,-2.39013 0,-4.77258 0,-6.92392c0,0 0,-1.48369 1.45888,-1.48369c1.45887,0 1.45887,1.48369 1.45887,1.48369c0,2.36792 0,4.73584 0,7.10379c0.79575,0 1.5915,0 2.38725,0h1.45888c0,0 1.45887,0 1.45887,1.48369z" fill="#f9bd15" stroke="none" stroke-width="0.5" stroke-linecap="butt" stroke-linejoin="miter"></path><path d="M444.26566,136.58779c0.46134,-1.40756 1.84536,-0.93836 1.84536,-0.93836l0.99753,0.41843c1.75321,-0.24621 -0.65784,-4.37074 -0.86153,-4.87244c-0.37833,-0.93187 -1.49131,-1.41465 -1.88359,-2.34053c-0.51147,-1.20717 -0.25811,-4.41611 0.91952,-5.3657c0.41986,-0.33857 3.02393,-0.28008 3.77078,-0.28008c0,0 1.45887,0.00001 1.45887,1.4837c0,1.4837 -1.45887,1.48369 -1.45887,1.48369c-0.69434,0 -1.43456,-0.57655 -2.06472,-0.28008c-0.46381,0.2182 -0.33309,1.12348 -0.05306,1.55824c0.28153,0.43707 1.01517,0.37733 1.33201,0.78864c0.39248,0.50952 0.41769,1.22439 0.67474,1.81651c0.94163,2.16914 2.99165,5.82198 0.65633,8.04629c-0.64539,0.61473 -1.6603,0.61942 -2.49046,0.92915l-1.92021,-0.5707c0,0 -1.38402,-0.46918 -0.92268,-1.87674z" fill="#f9bd15" stroke="none" stroke-width="0.5" stroke-linecap="butt" stroke-linejoin="miter"></path><path d="M223.86609,197.43431c-0.0369,-0.30381 -0.06091,-0.61687 -0.07148,-0.93947c0,0 0,-1.4837 1.45888,-1.4837c1.45887,0 1.45887,1.4837 1.45887,1.4837c-0.12092,2.03546 1.27314,2.44312 2.58708,4.00502c3.56235,4.23458 11.16904,3.90805 16.37829,3.90805c2.41965,0 4.75159,0.71944 6.36947,-1.14741c8.47614,-5.58426 6.32639,-9.33148 5.32037,-17.40844c-0.42278,-3.39435 0.25689,-7.27485 -1.32938,-10.46625c-0.80628,-1.62215 -1.87912,-2.76965 -2.46876,-4.53517c-2.6433,-5.392 -9.87858,-13.25477 -16.7085,-11.01733c-3.90556,1.27944 -6.71666,8.41707 -8.83805,11.59599c-0.72465,2.21096 -2.04764,4.09455 -2.86001,6.29226c-1.41043,3.8155 -1.36826,7.81804 -1.36826,11.84939c0,1.97812 0.01366,3.95674 0,5.9348c-0.00442,0.63971 -0.42684,1.51192 0.05899,1.91828c0.00414,0.00348 0.0083,0.00692 0.01247,0.01033zM226.06857,202.29119c-0.36254,-0.20566 -0.57007,-0.52225 -0.57007,-0.52225l-0.64426,-1.1276c-0.82632,-0.21251 -2.59429,-0.61358 -3.0638,-1.11911c-1.59745,-1.71998 -0.91358,-5.87154 -0.91358,-7.97305c0,-5.03767 -0.20747,-10.08111 1.54949,-14.8572c0.84185,-2.28846 2.22257,-4.26931 2.97546,-6.56646c2.65439,-4.10809 5.66253,-11.42459 10.6136,-13.13232c8.32279,-2.87073 16.97257,6.07152 20.24965,12.72184c0.55666,1.7352 1.60734,2.75314 2.39417,4.36702c1.72843,3.54528 1.1355,7.54808 1.58837,11.29466c0.22062,1.82513 1.23854,3.63741 1.46678,5.49661c0.71238,5.80324 -3.28849,11.53628 -7.8174,14.68198c-2.54049,2.37565 -4.92876,1.82 -8.21927,1.82c-5.63927,0 -15.24377,-0.32036 -19.60912,-5.0841z" fill="#000" stroke="none" stroke-width="0.5" stroke-linecap="butt" stroke-linejoin="miter"></path><path d="M356.11191,178.12217c0,-15.30214 12.19728,-27.70699 27.24341,-27.70699c15.04613,0 27.24341,12.40485 27.24341,27.70699c0,15.30214 -12.19728,27.70699 -27.24341,27.70699c-15.04613,0 -27.24341,-12.40483 -27.24341,-27.70699z" fill="#fff" stroke="#231f20" stroke-width="7.5" stroke-linecap="round" stroke-linejoin="round"></path><path d="M284.58101,228.64163c0,1.4837 -1.45888,1.4837 -1.45888,1.4837c-1.35395,0 -3.02204,0 -4.71273,0c-0.21216,0.27241 -0.55823,0.49457 -1.12276,0.49457c-0.56452,0 -0.91061,-0.22218 -1.12276,-0.49457c-1.1734,0 -2.29278,0 -3.25385,0c0,0 -1.45887,0 -1.45887,-1.4837c0,-1.4837 1.45887,-1.48369 1.45887,-1.48369c0.97258,0 1.94518,0 2.91775,0c0,-6.2638 0,-13.17986 0,-19.28808c-0.83291,0 -1.64966,0 -2.43146,0c0,0 -1.45888,0 -1.45888,-1.48369c0,-1.4837 1.45888,-1.4837 1.45888,-1.4837c2.91775,0 5.83549,0 8.75323,0h0.48629c0,0 1.45887,0 1.45887,1.4837c0,1.4837 -1.45887,1.48369 -1.45887,1.48369c-2.13594,0 -4.5325,0 -6.80808,0c0,0 0,-1.48369 1.45888,-1.48369c1.45887,0 1.45887,1.48369 1.45887,1.48369c0,6.42935 0,12.85873 0,19.28808c0.97258,0 1.94518,0 2.91775,0h1.45887c0,0 1.45888,0 1.45888,1.48369z" fill="#f9bd15" stroke="none" stroke-width="0.5" stroke-linecap="butt" stroke-linejoin="miter"></path><path d="M300.62863,224.68508c-1.45887,0 -1.45888,-1.4837 -1.45888,-1.4837v-0.49456c0.02469,-2.94137 -0.94963,-7.20816 -4.16621,-7.93983c-0.63725,-0.14496 -1.40002,-0.50118 -1.95349,-0.1488c-0.88526,0.56363 -1.18411,2.67238 -1.17468,3.63753c0.02199,2.25101 -0.23961,4.3479 -0.69943,6.42935h0.21312v2.96741c0,0.81943 -0.65316,1.4837 -1.45887,1.4837c-0.80573,0 -1.45888,-0.66427 -1.45888,-1.4837v-1.30424c-0.81407,-2.5477 -0.27219,-5.12703 -0.92901,-7.73268c0,0 -0.35384,-1.43939 1.06148,-1.79923c0.21959,-0.05583 0.4136,-0.06836 0.58472,-0.04966c0.18203,-1.86703 0.66863,-3.67173 2.48475,-4.76473c3.85572,-2.32047 8.27036,2.00282 9.36677,5.29003c0.61166,1.83386 1.03469,3.47301 1.04745,5.41485v0.49456c0,0 0,1.4837 -1.45888,1.4837z" fill="#f9bd15" stroke="none" stroke-width="0.5" stroke-linecap="butt" stroke-linejoin="miter"></path><path d="M307.2934,214.09616c0.66408,0.33769 0.8212,0.84722 0.81537,1.26625c0.57814,0.08091 1.16214,0.10626 1.75062,0.10776c0.54779,-2.61 1.18845,-5.46196 3.08812,-7.07358c5.20848,-4.41866 14.40218,1.70227 10.54102,7.72671c-1.64891,2.57277 -6.55485,2.12142 -9.97831,1.87293c-0.43066,0.39436 -1.03376,0.39439 -1.03376,0.39439c-0.09651,0 -0.19266,0.00028 -0.28854,0.00077c-0.06775,0.25121 -0.13934,0.49578 -0.2166,0.73147c-0.10152,2.53094 2.13562,5.0398 4.37051,5.77327l1.45887,0.49456c0,0 1.38399,0.4692 0.92267,1.87675c-0.46134,1.40756 -1.84533,0.93839 -1.84533,0.93839l-1.45888,-0.49457c-3.80744,-1.32288 -6.26184,-4.96097 -6.32789,-9.06372c0.0279,-0.08518 0.05514,-0.17178 0.08177,-0.25978c-1.1611,-0.04517 -2.30708,-0.18433 -3.47969,-0.56783l-0.35724,-3.06023c0,0 0.65243,-1.32706 1.95729,-0.66354zM312.97971,215.01099c3.75481,0.23785 12.22091,0.6142 7.21841,-4.47344c-0.80419,-0.81788 -1.42888,-0.55986 -2.37245,-0.55456c-3.13991,0.01759 -4.17924,2.3929 -4.84596,5.02801z" fill="#f9bd15" stroke="none" stroke-width="0.5" stroke-linecap="butt" stroke-linejoin="miter"></path><path d="M333.88805,232.07367c-1.03158,1.04913 -2.06315,0 -2.06315,0l-0.87003,-1.18386c-0.31397,-1.27733 -0.59874,-2.50267 -0.84836,-3.70629c-1.61654,1.85193 -3.45272,3.56416 -5.68032,5.07552c0,0 -1.21386,0.82301 -2.02311,-0.4115c-0.80923,-1.23451 0.40462,-2.05753 0.40462,-2.05753c2.72289,-1.84484 4.8126,-4.01958 6.63177,-6.38836c-0.30397,-2.14775 -0.47332,-4.3286 -0.47332,-6.71956c0,0 0,-1.4837 1.45887,-1.4837c1.45887,0 1.45888,1.4837 1.45888,1.4837c0,1.06862 0.03507,2.08732 0.10195,3.07602c1.33938,-2.06406 2.61802,-4.21265 4.0334,-6.37186l0.39527,-0.82965c0,0 0.65243,-1.32706 1.95729,-0.66353c1.30486,0.66354 0.65243,1.99059 0.65243,1.99059l-0.57729,1.14862c-2.05876,3.1407 -3.86527,6.24207 -5.94362,9.11732c0.32274,1.94631 0.75961,3.89476 1.28217,6.0205l0.10257,-0.19471c0,0 1.03158,1.04913 0,2.09827z" fill="#f9bd15" stroke="none" stroke-width="0.5" stroke-linecap="butt" stroke-linejoin="miter"></path><path d="M358.14364,225.5843c0,1.4837 -1.45888,1.48369 -1.45888,1.48369c-3.29529,0 -6.77512,0 -10.21211,0c0,1.81342 0,3.62682 0,5.44025v0.98913c0,0 0,1.4837 -1.45887,1.4837c-1.45887,0 -1.45888,-1.4837 -1.45888,-1.4837c0,-2.04798 0,-4.22062 0,-6.42938c-1.14998,0 -2.28759,0 -3.40403,0c0,0 -1.45887,0 -1.45887,-1.48369c0,-1.4837 1.45887,-1.4837 1.45887,-1.4837c1.13469,0 2.26936,0 3.40403,0c0,-3.04966 0,-6.09314 0,-8.90219c0,0 0,-1.4837 1.45888,-1.4837c1.45887,0 1.45887,1.4837 1.45887,1.4837c0,2.96741 0,5.93478 0,8.90219c3.24194,0 6.48389,0 9.72583,0h0.48629c0,0 1.45888,0 1.45888,1.4837z" fill="#f9bd15" stroke="none" stroke-width="0.5" stroke-linecap="butt" stroke-linejoin="miter"></path><path d="M372.73237,229.04627c0,1.4837 -1.45887,1.4837 -1.45887,1.4837l-0.94765,-0.07613c-0.46847,-0.15921 -0.93694,-0.3184 -1.40543,-0.47759c-2.79173,-0.94544 -4.01511,-4.02195 -4.06612,-7.32052c-0.45856,-0.02199 -0.91394,-0.0388 -1.36149,-0.0388c0,0 -1.45887,0 -1.45887,-1.4837c0,-1.4837 1.45887,-1.4837 1.45887,-1.4837c0.52535,0 1.06815,0.03917 1.61104,0.08442c0.70083,-3.78205 2.81931,-7.10782 5.73932,-7.00726c4.0225,0.13852 3.9289,5.22956 2.1576,7.70284c-1.33223,1.86017 -3.21598,2.28762 -5.23387,2.32494c-0.09503,2.19862 0.32793,4.22469 1.9693,4.37272c0.50411,0.17051 1.00821,0.341 1.51232,0.51151l0.02495,-0.07613c0,0 1.45888,0 1.45888,1.4837zM368.14882,219.82376c1.22112,-0.14395 2.22216,-0.6688 2.71325,-2.12713c0.19928,-0.5918 0.71169,-1.30089 0.3136,-1.98468c-0.53627,-0.92111 -2.05971,1.03625 -2.44468,2.03254c-0.19508,0.50486 -0.40626,1.23963 -0.58217,2.0793z" fill="#f9bd15" stroke="none" stroke-width="0.5" stroke-linecap="butt" stroke-linejoin="miter"></path><path d="M391.07882,226.57344c-1.45887,0 -1.45887,-1.4837 -1.45887,-1.4837v-0.98913c0.00435,-1.40376 -0.00282,-2.83014 -0.3049,-4.19991c-0.21116,-0.95746 -0.40601,-1.91868 -0.62773,-2.87366c-0.32616,-1.40501 -0.26642,-2.98579 -1.0312,-4.20198c-0.33509,-0.5329 -2.14761,0.3706 -2.17913,0.37592c-1.25633,0.21276 -2.45826,0.29962 -3.45091,1.41433c-0.4225,0.47445 -0.58919,1.03998 -0.61741,1.65504c0.91689,0.31226 0.91691,1.40091 0.91691,1.40091c0,1.81342 0,3.62681 0,5.44022v1.4837c0,0.81943 -0.65318,1.4837 -1.45888,1.4837c-0.69427,0 -1.27528,-0.49324 -1.42273,-1.15397l-0.4789,-1.94817l0.02845,-0.00723c-0.02158,-0.05651 -0.04197,-0.11361 -0.06108,-0.17132c-0.32911,-0.99477 -0.0089,-2.09912 -0.01094,-3.14867c-0.00394,-2.03058 -0.53557,-5.05559 0.7858,-6.83539c1.58693,-2.13751 7.68856,-4.43502 9.93127,-2.1663c0.86877,0.87884 0.93942,2.3041 1.33098,3.48495c1.07728,3.24885 1.55867,6.57133 1.56813,9.96785v0.98913c0,0 0,1.4837 -1.45888,1.4837z" fill="#f9bd15" stroke="none" stroke-width="0.5" stroke-linecap="butt" stroke-linejoin="miter"></path><path d="M396.36902,221.56778c1.03158,-1.04913 2.06316,0 2.06316,0l1.52939,1.5607c1.65729,2.24997 3.7462,5.11473 6.52743,5.95747c0.76694,0.23239 2.23581,0.19165 2.73658,-0.70322c0.15855,-0.28328 -0.17894,-0.64205 -0.14691,-0.96637c0.17808,-1.80397 1.23033,-4.57361 -0.13796,-6.30172c-0.3759,-0.47475 -1.14613,-0.3969 -1.6496,-0.72758c-2.92487,-1.92121 -5.6043,-3.959 -5.0167,-7.84274c0.59964,-3.96318 2.19607,-3.28069 5.33827,-3.28069c0,0 1.45887,0 1.45887,1.4837c0,1.4837 -1.45887,1.4837 -1.45887,1.4837c-0.84173,0 -1.8088,-0.79352 -2.50625,-0.31425c-0.26947,0.18517 0.06825,0.65939 0.06383,0.99008c-0.0077,0.57554 -0.34964,1.20713 -0.10011,1.72375c1.11833,2.31545 4.74779,2.73509 6.0774,4.54289c1.99167,2.70798 1.2485,5.60702 0.83462,8.53524c-0.09356,0.66206 0.2324,1.45462 -0.14692,2.00104c-4.43169,6.38389 -11.16428,-0.69065 -14.07795,-4.63707l-1.38836,-1.40669c0,0 -1.03158,-1.04913 0,-2.09827z" fill="#f9bd15" stroke="none" stroke-width="0.5" stroke-linecap="butt" stroke-linejoin="miter"></path><path d="M416.16578,234.45768c-1.43054,0.29097 -1.71665,-1.1639 -1.71665,-1.1639l-0.40036,-2.03589c-0.87235,-4.49016 -0.60055,-9.01885 -0.60055,-13.58663c0,0 0,-0.24288 0.09663,-0.5321c0.1422,-0.42562 0.49363,-0.9516 1.36225,-0.9516c0.86862,0 1.22007,0.52597 1.36225,0.9516c0.06241,0.16518 0.09662,0.34458 0.09662,0.5321c0,4.35837 -0.30869,8.72619 0.54389,13.00468l0.40036,2.03589c0,0 0.28611,1.45489 -1.14444,1.74586z" fill="#f9bd15" stroke="none" stroke-width="0.5" stroke-linecap="butt" stroke-linejoin="miter"></path><path d="M414.42079,208.2745c0,-0.81943 0.65318,-1.4837 1.45888,-1.4837c0.80571,0 1.45887,0.66427 1.45887,1.4837c0,0.81943 -0.65316,1.48369 -1.45887,1.48369c-0.80571,0 -1.45888,-0.66427 -1.45888,-1.48369z" fill="#f9bd15" stroke="none" stroke-width="0.5" stroke-linecap="butt" stroke-linejoin="miter"></path><path d="M430.27404,220.44704c-0.5198,0.30297 -1.13205,0.1473 -1.13205,0.1473c-3.70413,-0.96578 -4.51649,1.09582 -4.50909,4.98996c0.00176,0.91851 -0.93925,2.36721 -0.11956,2.75287c1.13924,0.53602 3.43536,-0.76141 4.39228,-1.14236c0.47024,-0.18722 1.11148,0.13657 1.50378,-0.18682c0.74044,-0.61036 0.0618,-1.93806 0.05899,-2.90738c-0.00432,-1.49103 0.23529,-2.53339 -0.19438,-3.65356zM428.52183,217.36167c0.05287,-0.23691 0.18159,-0.48822 0.4287,-0.73956c1.03158,-1.04913 2.06316,0 2.06316,0l1.15487,1.21527c1.40743,2.28689 2.44356,8.89569 0.304,11.2689c-0.56622,0.62804 -1.62376,0.44976 -2.38655,0.8023c-1.54633,0.71466 -5.48746,2.28032 -7.2787,0.8359c-1.40797,-1.13535 -1.09433,-3.71824 -1.09215,-5.16017c0.00446,-2.95627 0.81269,-7.19161 3.95386,-8.34398c0.82557,-0.30286 1.89235,-0.11967 2.85279,0.12132z" fill="#f9bd15" stroke="none" stroke-width="0.5" stroke-linecap="butt" stroke-linejoin="miter"></path><path d="M453.78544,220.5625c-1.38399,0.46918 -1.84533,-0.93839 -1.84533,-0.93839l-0.51228,-1.57207c-0.08461,-0.45609 -0.20937,-2.56299 -0.93441,-3.15823c-1.04027,-0.85406 -4.67064,-0.03487 -5.52331,0.49456c-1.50519,0.9346 -1.54684,4.44166 -2.07303,5.72569c-0.0061,0.01486 -0.01222,0.02973 -0.01837,0.04455l0.00616,0.00179l-0.79271,2.82169c-0.1637,0.63733 -0.73365,1.10765 -1.41159,1.10765c-0.65627,0 -1.21131,-0.4407 -1.39465,-1.04697l-0.4511,-1.37635c-1.23037,-2.50903 -1.55829,-4.20513 -1.55829,-6.97343c0,0 0,-1.4837 1.45887,-1.4837c1.45887,0 1.45888,1.4837 1.45888,1.4837c0,0.98339 0.03474,1.74743 0.14619,2.45312c0.69667,-3.66109 4.1164,-6.34831 8.09814,-6.40946c1.30457,-0.02003 2.69543,-0.11768 3.82591,0.79898c1.63149,1.32294 1.59575,2.87513 1.98334,4.75481l0.4603,1.39533c0,0 0.46134,1.40757 -0.92268,1.87675z" fill="#f9bd15" stroke="none" stroke-width="0.5" stroke-linecap="butt" stroke-linejoin="miter"></path><g stroke="none" stroke-width="0.5" stroke-linecap="butt" stroke-linejoin="miter"><path d="M354.19075,262.46542c0.35518,-4.76811 5.22402,-4.16978 9.26949,-4.45295c1.0059,-0.07041 4.09621,-0.67269 4.99472,-0.19122c2.13016,1.14142 1.36453,4.75881 3.32622,5.51045c1.03431,0.39628 2.92673,-0.66973 3.89449,-0.99196c0.49685,-1.02586 1.06645,-3.06966 1.68363,-3.8818c1.49734,-1.97036 9.92717,-3.35108 11.96985,-1.4179c2.03162,1.92272 -0.16075,7.22466 -0.29401,9.65791c-0.08191,1.49575 0.65359,2.97446 -0.51364,4.33701c-1.19039,1.3896 -3.64814,1.0935 -5.23573,1.20461c-3.68359,0.25783 -8.22238,0.70258 -11.79517,-0.12415c-2.43405,-0.56321 -2.61144,-2.55275 -5.26403,-2.26822c-1.34238,0.144 -0.22965,2.07567 -1.43249,2.98784c-0.67617,0.51277 -1.65927,0.31326 -2.49524,0.42727c-2.98841,0.40757 -6.04455,0.5723 -7.53684,-2.1722c-0.88444,-2.25318 -0.82018,-4.63972 -0.98304,-7.04645l-0.03003,-0.44404c0,0 -0.04845,-0.71599 0.44181,-1.13424zM356.43171,264.45635c0.0862,1.89253 0.03169,3.89279 0.75845,5.61736c0.00491,0.61473 4.84673,1.28366 5.92596,0.70723c0.39412,-0.2105 -0.62256,-2.69256 2.51288,-3.53417c3.44197,-0.92388 3.78653,1.76004 6.44817,2.26563c3.42941,0.65144 7.48983,0.31061 11.02832,0.06296c0.64875,-0.0454 3.00903,0.20401 3.43621,-0.29464c0.53056,-0.61933 0.02449,-4.93906 0.10508,-5.96735c0.03087,-0.39384 1.35577,-4.01536 0.95754,-4.25984c-0.90307,-0.55439 -7.61337,0.04434 -8.05373,0.87583c-0.74508,1.40681 -1.26232,2.97331 -2.14153,4.41633c-1.64164,0.7651 -4.5527,2.35902 -6.46376,1.51756c-2.8519,-1.25571 -2.42537,-5.08121 -3.56742,-5.60654c-0.30077,-0.13835 -9.08434,0.61208 -9.91064,0.79462c-0.25131,0.05552 -0.48274,0.24586 -0.61992,0.46707c-0.25888,0.41744 -0.07037,1.52675 -0.04213,1.86735c0,0 0.04381,0.6474 -0.37343,1.07061z" fill="#36a46d"></path><path d="M356.76164,263.38087c-0.02823,-0.3406 -0.21589,-1.45502 0.04299,-1.87244c0.1372,-0.22123 0.36901,-0.41323 0.62033,-0.46875c0.8263,-0.18253 9.62088,-0.95251 9.92167,-0.81418c1.14204,0.52535 0.78491,4.36028 3.63683,5.61598c1.91107,0.84146 4.74064,-0.7242 6.38229,-1.48929c0.87921,-1.44304 1.4756,-3.04153 2.2207,-4.44834c0.44038,-0.83149 7.1556,-1.42086 8.05865,-0.86648c0.39823,0.24449 -0.92404,3.87667 -0.95489,4.27051c-0.08059,1.02829 0.42411,5.36571 -0.10644,5.98504c-0.42718,0.49863 -2.78893,0.25364 -3.4377,0.29905c-3.53848,0.24766 -7.64116,0.6163 -11.0706,-0.03514c-2.66164,-0.5056 -3.04623,-3.22059 -6.48819,-2.29669c-3.13544,0.84159 -2.11439,3.33343 -2.50852,3.54392c-1.07923,0.57643 -5.92531,-0.10197 -5.93022,-0.71671c-0.72676,-1.72458 -0.67434,-3.74038 -0.76055,-5.6329c0.41724,-0.4232 0.37365,-1.07365 0.37365,-1.07365z" fill="#42c784"></path></g><g stroke="none" stroke-width="0.5" stroke-linecap="butt" stroke-linejoin="miter"><path d="M362.0291,292.59734c-4.06265,-1.68287 -6.88522,-6.16562 -4.19738,-10.91077c3.0882,-5.45197 12.53604,-5.69834 17.80342,-5.69834c1.55583,0 3.7091,-0.39251 5.1981,0.0397c4.56136,1.32402 9.31607,9.05141 5.71124,13.68656c-4.02171,5.1712 -11.96091,5.06726 -17.7174,5.06726c-1.90289,0 -3.34202,-0.07234 -5.21674,-0.53887l-1.16405,-0.88483c0,0 -0.30446,-0.30963 -0.41717,-0.7607zM366.88149,291.77348c0.60767,0.03721 1.23135,0.04086 1.94553,0.04086c4.97067,0 11.61077,0.29717 15.35041,-3.83492c0.60052,-0.66355 0.19221,-2.8253 0.21091,-3.58356c0.12644,-5.1252 -4.9525,-5.44025 -8.75326,-5.44025c-4.99799,0 -9.93621,0.26443 -14.222,3.18191c-3.93651,2.67972 -0.60642,8.23317 4.00989,8.19312c0,0 1.43197,0 1.45851,1.44283z" fill="#36a46d"></path><path d="M365.3837,290.35979c-4.61631,0.04007 -7.95371,-5.55674 -4.01719,-8.23644c4.28578,-2.91747 9.29442,-3.21087 14.29238,-3.21087c3.80076,0 8.90437,0.35424 8.77795,5.47945c-0.0187,0.75826 0.38873,2.93411 -0.2118,3.59766c-3.73964,4.13212 -10.44962,3.86868 -15.42029,3.86868c-0.71423,0 -1.34662,-0.00953 -1.95429,-0.04673c-0.02654,-1.44283 -1.46675,-1.45175 -1.46675,-1.45175z" fill="#42c784"></path></g><g stroke="none" stroke-width="0.5" stroke-linecap="butt" stroke-linejoin="miter"><path d="M383.38657,307.14712c-0.84427,0 -0.84429,-0.85865 -0.84429,-0.85865v-0.85865c0,-2.62667 0.01308,-5.58358 -0.80804,-8.05139c-0.35007,-1.05209 -1.01163,-1.7813 -1.40751,-2.67987c-1.52,1.00402 -3.27321,2.06057 -4.5045,3.32441c-0.26359,0.27055 -0.33843,0.7186 -0.64738,0.93387c-1.37357,0.95701 -1.6452,-0.05947 -2.91007,0.16518c-1.24297,0.22075 -1.59886,1.3046 -3.09359,1.14335c-0.82829,-0.08936 -2.2748,-1.1091 -3.04109,-1.50579c-1.30641,-0.67627 -3.0816,-0.76937 -4.4965,-1.06172c-0.6735,0 -1.59698,-0.64402 -2.01763,-0.10909c-0.14586,0.18548 0.34088,0.35269 0.40597,0.58079c0.14812,0.51918 0.12623,1.07681 0.25908,1.60026c0.61415,2.42023 1.81194,4.539 2.52528,6.84224c0.44968,1.4519 -0.86342,4.35513 1.14749,4.87232c0,0 0.80095,0.27152 0.53397,1.08611c-0.26698,0.81459 -1.06795,0.54307 -1.06795,0.54307c-3.32352,-1.27611 -1.37726,-3.60931 -2.22962,-6.00383c-0.92443,-2.597 -2.37047,-5.00657 -2.83958,-7.83907c-0.14183,-0.85639 -0.69495,-1.92207 -0.16148,-2.6002c0.66723,-0.84819 2.69319,-0.68152 3.61087,-0.68152c1.62721,0.32632 3.56178,0.47224 5.07198,1.22797c0.75414,0.37739 1.80796,1.18301 2.58741,1.35637c0.64131,0.14264 1.84782,-1.0329 2.53492,-1.14637c0.30414,-0.05023 1.94005,0.40288 2.15559,0.1652c1.6244,-1.7913 3.6331,-3.22864 5.67267,-4.61148l0.48459,-0.25191c0.11221,-0.09483 0.26671,-0.16452 0.47944,-0.17664c0.15452,-0.0192 0.34536,-0.00583 0.52073,0.11034c0.18058,0.10758 0.27771,0.27518 0.32993,0.42434c0.08026,0.189 0.0913,0.35343 0.06374,0.49328c0.06373,0.41147 0.5172,0.74214 0.73171,1.12304c0.38595,0.68531 0.6747,1.42762 0.91764,2.17774c0.85817,2.64978 0.88051,5.74633 0.88051,8.54903v0.85865c0,0 0,0.85865 -0.84429,0.85865z" fill="#36a46d"></path><path d="M383.24693,305.0475c-0.46832,-0.71444 0.23415,-1.19072 0.23415,-1.19072l0.94167,-0.62933c1.05507,-0.35408 1.80856,-0.37353 2.90376,-0.37353c1.27235,0.01439 3.19501,0.37319 4.04805,1.4823c1.16999,1.52118 0.66304,6.96174 -0.6368,8.2837c-1.61186,1.63929 -6.53919,0.54459 -8.65518,0.53128c-1.79084,0.45532 -3.53013,0.01393 -5.315,0.28157c-4.64368,0.69633 -8.66229,0.83995 -13.06637,-0.6054c0,0 -0.80095,-0.27152 -0.53395,-1.08611c0.26698,-0.81459 1.06793,-0.54307 1.06793,-0.54307c4.09537,1.42294 7.91463,1.15339 12.26193,0.53946c1.81615,-0.25647 3.57295,0.16837 5.37916,-0.29087c1.08856,-0.0057 7.17016,0.46467 7.66751,-0.04114c0.65954,-0.67077 1.14167,-5.24234 0.4889,-6.02703c-0.52685,-0.63331 -1.9689,-0.81892 -2.70616,-0.80739c-0.79042,0 -1.41355,-0.05932 -2.1619,0.19891l-0.74689,0.51553c0,0 -0.70247,0.47628 -1.17081,-0.23815z" fill="#36a46d"></path><path d="M390.4478,305.40381c-0.00308,0.28205 -0.03424,0.56344 -0.08602,0.84212c0.21007,0.58697 0.3397,1.19003 0.21918,1.78371c0.25023,1.28173 0.46631,2.68974 -0.8605,3.56928c-1.00667,0.66735 -5.24998,-0.50864 -7.01735,0.09051c-1.49168,0.01689 -2.80352,0.11029 -4.27342,0.29313c-1.17338,0.14597 -2.44632,-0.21241 -3.60648,-0.00692c-2.21371,0.3921 -4.33125,0.86974 -6.60804,0.86974h-0.28142c0,0 -0.40777,0 -0.65654,-0.28821c-0.83905,-0.02509 -3.0951,-0.26094 -3.68181,-0.67204c-1.72973,-1.212 -0.72239,-3.24008 -0.99786,-4.91273c-0.29576,-1.79588 -1.4223,-2.54101 -2.17646,-4.05351c-0.54977,-1.1026 -0.82867,-2.49782 -1.20064,-3.67427l-0.01059,-0.96793c-0.0002,-0.00931 -0.0003,-0.01873 -0.0003,-0.02825c0,-0.29821 0.10183,-0.49285 0.23477,-0.6199c0.12492,-0.13519 0.3163,-0.23875 0.60952,-0.23875v0c2.00396,0 3.86806,0.01514 5.71802,0.94595c0.95362,0.47981 2.07164,1.47957 3.14141,1.64106c2.38148,0.3595 3.08217,-1.61453 4.99725,-1.64008c1.16504,-1.59983 3.14386,-3.39552 4.95719,-4.02995c0.46405,-0.16235 0.98424,-0.48666 1.44137,-0.30511c1.11837,0.4442 0.93707,1.34826 1.3287,2.1522c0.69497,1.42663 1.15318,1.97727 1.20634,3.50255c0.09919,0.21127 0.18518,0.42232 0.2504,0.63287c0.57918,1.87006 -0.4692,4.11019 0.23447,5.97729c1.0962,-2.19014 3.11572,-2.87941 4.73692,-2.24512c0.0875,-0.11726 0.22226,-0.22173 0.42639,-0.29092c0.80095,-0.27153 1.06793,0.54307 1.06793,0.54307c0.02839,0.08954 0.06047,0.18046 0.09528,0.27263c0.79232,0.03449 0.79232,0.85752 0.79232,0.85752z" fill="#42c784"></path></g><g stroke="none" stroke-width="0.5" stroke-linecap="butt" stroke-linejoin="miter"><path d="M323.59718,252.51466c-3.53654,0.26135 -5.13978,2.92085 -7.45895,5.67056c-4.80526,5.69734 -7.66329,17.16132 -3.2475,23.82525c1.04631,3.40323 4.20845,4.48133 7.06033,5.72435c7.88893,3.43851 21.38814,0.1203 23.73532,-9.70486c0,-4.25032 0.93729,-8.60152 0.4942,-12.93434c-0.68561,-6.70444 -12.19031,-12.19827 -18.01162,-12.10725h-1.45888c0,0 -0.68147,0 -1.1129,-0.4737zM325.35527,250.02097h0.8137c7.48254,0.0847 19.73256,6.18234 20.89169,14.59933c0.6299,4.57405 -0.47837,9.27416 -0.47837,13.77223c-2.93035,11.70644 -17.92339,16.36594 -27.81156,12.05603c-3.50631,-1.52827 -7.10408,-3.08336 -8.501,-7.13435c-6.33338,-9.76078 1.30445,-33.7308 13.95409,-33.7878c0,0 0.70135,0 1.13148,0.49456z" fill="#36a46d"></path><path d="M323.58684,252.46635c0.43141,0.4737 1.11556,0.47318 1.11556,0.47318l1.46285,-0.00045c5.8213,-0.09104 17.37579,5.4364 18.0614,12.14084c0.44309,4.33282 -0.49579,8.71965 -0.49579,12.97c-2.34717,9.82517 -15.91093,13.16849 -23.79986,9.72998c-2.85188,-1.24304 -6.03274,-2.33638 -7.07906,-5.7396c-4.41582,-6.66393 -1.55184,-18.1942 3.25341,-23.89151c2.31917,-2.74971 3.94496,-5.4211 7.4815,-5.68242z" fill="#42c784"></path></g><path d="M355.8007,253.07705c0.46134,1.40756 -0.92268,1.87674 -0.92268,1.87674l-1.92021,0.57072c-0.88079,-0.37024 -2.07054,-0.3353 -2.64237,-1.11073c-0.56235,-0.76256 -0.21487,-1.89461 -0.27538,-2.84581c-0.14536,-2.28546 0,-4.63472 0,-6.92392c0,0 0,-1.4837 1.45887,-1.4837c1.45887,0 1.45888,1.4837 1.45888,1.4837c0,1.81342 0,3.62681 0,5.44022c0,0.46084 -0.39748,2.64835 0,2.47284l0.99753,-0.41843c0,0 1.38399,-0.46918 1.84533,0.93836z" fill="#b9b9b9" stroke="none" stroke-width="0.5" stroke-linecap="butt" stroke-linejoin="miter"></path><path d="M370.46431,251.07339c0,1.4837 -1.45887,1.4837 -1.45887,1.4837l-2.63355,-0.17556c-0.43682,-0.58618 -1.07501,-1.24247 -1.51905,-1.88218c-0.13593,0.12608 -0.27832,0.24456 -0.42964,0.35245c-4.73033,3.37305 -8.87419,-4.07641 -3.13489,-6.14412c1.3027,-0.46933 2.44419,0.04558 3.61886,0.44585c0.06792,-0.00987 0.13736,-0.01496 0.20795,-0.01496c0.65627,0 1.21131,0.44071 1.39465,1.04697l0.47565,1.45125l-0.18871,0.06397c0.30475,0.54107 0.55654,1.13084 0.95195,2.06449l1.25678,-0.17556c0,0 1.45888,0 1.45888,1.4837zM363.45464,247.78621c-0.90397,-0.27325 -2.26564,-0.51732 -2.24277,0.61743c0.01899,0.94159 1.55952,-0.10076 2.24277,-0.61743z" fill="#b9b9b9" stroke="none" stroke-width="0.5" stroke-linecap="butt" stroke-linejoin="miter"></path><path d="M375.35467,251.07274c0.25938,1.07908 0.7491,1.97968 1.62507,2.4866c0.31779,0.18391 0.49661,-2.15854 0.23365,-2.42596c-0.43836,-0.44579 -1.23377,-0.08073 -1.85872,-0.06066zM375.09616,248.106h0.23107c1.31819,0.01493 2.86553,-0.17313 3.94932,0.92912c2.17705,2.21409 1.0201,7.83317 -2.68411,7.46536c-5.39777,-0.53596 -4.18298,-9.29101 -4.18298,-12.84558c0,0 0,-1.4837 1.45887,-1.4837c1.45887,0 1.45888,1.4837 1.45888,1.4837c0,1.12009 -0.20738,2.78367 -0.23107,4.4511z" fill="#b9b9b9" stroke="none" stroke-width="0.5" stroke-linecap="butt" stroke-linejoin="miter"></path><path d="M393.73143,252.08791c0.46134,1.40756 -0.92268,1.87675 -0.92268,1.87675l-1.68651,0.55154c-4.03635,-0.08494 -6.66137,-2.57624 -7.00367,-6.4844c-0.42878,-0.1272 -1.01069,-0.47245 -1.01069,-1.4095c0,-1.02061 0.69033,-1.33915 1.12124,-1.43858c0.28896,-1.8571 1.0865,-3.92275 3.11163,-3.99443c4.74907,-0.16811 2.95126,5.42985 0.83213,6.74114c-0.12947,0.08011 -0.57496,0.12492 -1.11579,0.14957c0.16362,1.96403 1.13176,3.64388 3.59777,3.5071l1.23123,-0.4376c0,0 1.38402,-0.46918 1.84533,0.93836z" fill="#b9b9b9" stroke="none" stroke-width="0.5" stroke-linecap="butt" stroke-linejoin="miter"></path><path d="M396.04976,254.66314c-1.43553,-0.26442 -1.17554,-1.72436 -1.17554,-1.72436l0.16438,-0.79848c0.02781,-4.6622 0.54387,-8.71366 -0.3109,-13.30696c0,0 -0.27095,-1.45789 1.16257,-1.73346c1.43349,-0.27554 1.70443,1.18234 1.70443,1.18234c0.8884,4.78653 0.38923,9.03838 0.36162,13.87568l-0.21105,1.30967c0,0 -0.25997,1.45995 -1.6955,1.19556z" fill="#b9b9b9" stroke="none" stroke-width="0.5" stroke-linecap="butt" stroke-linejoin="miter"></path><path d="M287.45612,98.87426c0,1.48369 -1.45888,1.4837 -1.45888,1.4837c-2.10725,0 -4.70083,0 -6.80808,0c0,0 -1.45888,0 -1.45888,-1.4837c0,-1.4837 1.45888,-1.4837 1.45888,-1.4837c0.64838,0 1.29679,0 1.94518,0c0,-1.93962 0,-4.53043 0,-5.9348c0,0 0,-0.4842 0.27198,-0.89941c0.08011,-1.67429 0.15572,-3.35513 0.19194,-5.03613c-0.96509,0.00161 -1.93019,0.00075 -2.89538,0.00075c0,0 -1.45887,0 -1.45887,-1.4837c0,-1.48369 1.45887,-1.4837 1.45887,-1.4837c0.93473,0 1.86945,-0.0025 2.80414,-0.00136c0.26709,-0.30273 0.65477,-0.4932 1.0862,-0.4932c0.07621,0 0.15105,0.00595 0.22411,0.0174c0.08169,-0.01136 0.16895,-0.0174 0.26217,-0.0174c0.57679,0 0.92552,0.23191 1.13638,0.51236c0.0296,0.00045 0.0592,0.00091 0.0888,0.00136l1.23123,-0.43759c0,0 1.38402,-0.46918 1.84536,0.93839c0.46134,1.40756 -0.92268,1.87674 -0.92268,1.87674l-1.68652,0.55156c-0.08727,0.00099 -0.17453,0.00193 -0.2618,0.00283c-0.0964,3.56719 -0.4104,7.18872 -0.45817,10.68075c0,0.23687 0,0.47374 0,0.71063v0.49456c0.48629,0 0.97258,0 1.45887,0h0.48629c0,0 1.45887,0 1.45887,1.4837z" fill="#f9bd15" stroke="none" stroke-width="0.5" stroke-linecap="butt" stroke-linejoin="miter"></path><path d="M302.04488,99.36881c-1.45887,0 -1.45887,-1.48369 -1.45887,-1.48369v-0.49457c0,-2.38263 -0.16829,-4.12141 -0.88198,-6.40917c-0.17406,-0.55793 -0.34725,-1.76287 -0.86956,-1.51703c-1.56454,0.7364 -2.72574,3.05364 -3.59768,5.30564c0,0.04925 0,0.09848 0,0.14774v2.47284c0,0.81943 -0.65316,1.4837 -1.45887,1.4837c-0.80573,0 -1.45887,-0.66427 -1.45887,-1.4837c0,-0.16485 0,-2.30797 0,-2.47284c0,-2.47284 0,-4.94567 0,-7.41851c0,0 0,-1.4837 1.45887,-1.4837c1.45887,0 1.45887,1.4837 1.45887,1.4837c0,0.45134 0,0.9027 0,1.35404c1.09068,-1.26487 2.28882,-2.22845 3.2104,-2.33005c4.8433,-0.53398 5.05654,7.71752 5.05654,10.86735v0.49456c0,0 0,1.4837 -1.45888,1.4837z" fill="#f9bd15" stroke="none" stroke-width="0.5" stroke-linecap="butt" stroke-linejoin="miter"></path><path d="M310.79811,94.42316c0,-0.89905 0.53567,-1.25334 0.95783,-1.39293c-0.0368,-2.12156 -0.12947,-4.23996 -0.35015,-6.357c-0.0755,-0.17808 -0.12139,-0.39456 -0.12139,-0.65771c0,-0.09414 0.00588,-0.18234 0.01689,-0.26491c-0.00186,-0.01521 -0.00376,-0.03043 -0.00562,-0.04562c0,0 -0.18096,-1.47224 1.26667,-1.65627c0.65008,-0.08265 1.0447,0.16873 1.28223,0.47078c1.06902,-0.0143 2.00671,0.0308 3.06972,0.7285c3.0067,1.97342 4.81926,7.14211 1.57742,9.85971c-1.01418,0.85019 -2.50555,0.8495 -3.79811,0.8167c0.00169,1.31098 -0.00517,2.62374 -0.00517,3.93897v0.49457c0,0 0,1.48369 -1.45887,1.48369c-1.45887,0 -1.45887,-1.48369 -1.45887,-1.48369v-0.49457c0,-1.34861 0.00861,-2.69515 0.00752,-4.04009c-0.42533,-0.13444 -0.98011,-0.48517 -0.98011,-1.40013zM316.72067,92.74949c0.71416,-0.53114 0.39924,-1.0497 0.39924,-1.78828c0,-2.01911 -1.13703,-2.97046 -2.69504,-3.30982c0.14518,1.78785 0.21362,3.57603 0.24474,5.36649c0.74048,0.083 1.4879,0.15047 2.05106,-0.26836z" fill="#f9bd15" stroke="none" stroke-width="0.5" stroke-linecap="butt" stroke-linejoin="miter"></path><path d="M331.70864,96.896c0,1.4837 -1.45887,1.4837 -1.45887,1.4837h-0.48629c-2.07569,-0.03613 -3.07618,0.28276 -4.85583,-1.36055c-0.78463,-0.72452 -1.17251,-1.84614 -1.25881,-3.12314c-0.42352,-0.08378 -1.17973,-0.38289 -1.17973,-1.45112c0,-1.36436 1.23365,-1.4741 1.43208,-1.48292c0.53427,-2.43829 1.79934,-4.8136 3.2647,-5.77892c1.66062,-1.09395 6.22666,0.06717 7.24263,1.53616c1.18572,1.71444 -0.18617,3.33927 -0.99972,4.57044c-1.79906,2.72254 -4.29103,2.80537 -7.06015,2.70856c-0.00194,0.07792 -0.00264,0.15401 -0.00212,0.22803c0.00976,1.34555 2.80244,1.20122 3.41695,1.18605h0.48629c0,0 1.45887,0 1.45887,1.4837zM326.8225,91.19209c1.45035,0.1047 2.94187,0.1064 3.51432,-0.42087c0.31684,-0.29181 0.40937,-0.76439 0.64424,-1.12759c0.30061,-0.46486 1.40076,-1.05593 0.94545,-1.36438c-2.68458,-1.81855 -4.34987,0.43387 -5.10403,2.91285z" fill="#f9bd15" stroke="none" stroke-width="0.5" stroke-linecap="butt" stroke-linejoin="miter"></path><path d="M345.81108,96.896c-1.45887,0 -1.45887,-1.4837 -1.45887,-1.4837v-0.98913c0,-2.52957 0.36261,-5.41652 -1.2051,-7.61107c-0.29806,-0.41724 -0.8945,0.50342 -1.27405,0.84542c-0.44301,0.39919 -0.86307,0.82638 -1.25557,1.27693c-0.05671,0.0651 -0.10841,0.12977 -0.15553,0.19401c-0.00066,1.34954 -0.00415,2.69905 -0.01892,4.04866l-0.15717,0.19723l0.10115,0.03429l-0.47565,1.45125c-0.18334,0.60628 -0.73837,1.04697 -1.39464,1.04697c-0.80571,0 -1.45888,-0.66429 -1.45888,-1.4837v-1.97826h0.22678c-0.2605,-1.40809 -0.24005,-2.70377 0.25836,-3.94682c0.00049,-0.49779 0.00115,-0.9956 0.00115,-1.4934c0,0 0,-1.4837 1.45887,-1.4837c0.27178,0 0.49295,0.0515 0.6729,0.1353c0.11153,-0.09789 0.22727,-0.19573 0.34736,-0.29358c1.08555,-0.8845 2.99351,-2.25273 4.56144,-1.13284c3.13733,2.24083 2.68527,6.88719 2.68527,10.19329v0.98915c0,0 0,1.48369 -1.45888,1.48369z" fill="#f9bd15" stroke="none" stroke-width="0.5" stroke-linecap="butt" stroke-linejoin="miter"></path><path d="M361.37241,87.00467c0,0.05234 -0.00266,0.10406 -0.00787,0.155l0.47532,0.59647c0.00135,0.49092 0.03617,0.98407 0.05331,1.47602c0.51966,1.2618 0.61095,3.16998 0.89454,4.33658c1.00259,4.12436 0.13019,6.25156 -4.58566,6.2755l-1.23123,0.43758c0,0 -1.38402,0.46918 -1.84533,-0.93836c-0.46134,-1.40756 0.92267,-1.87674 0.92267,-1.87674l1.68652,-0.55156c0.79901,0.00431 2.18845,0.12572 2.91598,-0.35639c0.61363,-0.40664 -0.3702,-1.37591 -0.6493,-2.12883c-4.05354,2.85164 -10.31943,-4.558 -6.4686,-8.47436c1.0838,-1.10225 2.63113,-0.91422 3.94932,-0.92915c0,0 1.08177,0 1.38226,0.94737c0.16653,-0.17525 0.3751,-0.3089 0.60923,-0.38411c0.06387,-0.17304 0.13256,-0.35407 0.2063,-0.54407l0.38514,0.48331c0.73454,0.07704 1.30741,0.70837 1.30741,1.4758zM357.48208,87.99381c-0.62894,-0.00984 -1.44137,-0.39235 -1.88616,0.06c-1.62843,1.65616 3.04952,6.54247 3.35598,2.23153c0.00226,-0.03179 0.00432,-0.06358 0.00619,-0.09537c-0.17345,-0.82169 -0.23982,-1.46613 -0.14507,-2.21129c-0.10616,-0.12398 -0.19241,-0.26606 -0.25368,-0.42109c-0.43225,0.43619 -1.07727,0.43619 -1.07727,0.43619z" fill="#f9bd15" stroke="none" stroke-width="0.5" stroke-linecap="butt" stroke-linejoin="miter"></path><path d="M375.96116,85.0264c1.45887,0 1.45887,1.4837 1.45887,1.4837l-0.04355,0.8544c-0.58333,2.3678 -1.38796,5.66705 -3.44754,7.2486c-1.90501,1.46288 -5.19249,1.14202 -6.54839,-0.97358c-0.57978,-0.9046 -0.17262,-4.01405 -0.17262,-5.15119c0,0 0,-1.4837 1.45888,-1.4837c1.45887,0 1.45887,1.4837 1.45887,1.4837c0,0.77218 -0.42947,3.11138 -0.17262,3.75098c0.21421,0.53343 1.93255,0.26635 2.20485,0.01556c1.4401,-1.32644 1.94567,-3.8066 2.38796,-5.6101l-0.04355,-0.13472c0,0 0,-1.4837 1.45888,-1.4837z" fill="#f9bd15" stroke="none" stroke-width="0.5" stroke-linecap="butt" stroke-linejoin="miter"></path><path d="M382.76922,96.896c-1.45887,0 -1.45887,-1.4837 -1.45887,-1.4837c0,-1.97826 0,-4.94567 0,-6.92392c0,0 0,-1.4837 1.45887,-1.4837c1.45887,0 1.45888,1.4837 1.45888,1.4837c0,1.97826 0,3.95653 0,5.9348v0.98913c0,0 0,1.4837 -1.45888,1.4837z" fill="#f9bd15" stroke="none" stroke-width="0.5" stroke-linecap="butt" stroke-linejoin="miter"></path><path d="M379.36519,81.06987c0,-0.81941 0.65316,-1.4837 1.45887,-1.4837c0.80571,0 1.45888,0.66429 1.45888,1.4837c0,0.81941 -0.65318,1.48369 -1.45888,1.48369c-0.80571,0 -1.45887,-0.66427 -1.45887,-1.48369z" fill="#f9bd15" stroke="none" stroke-width="0.5" stroke-linecap="butt" stroke-linejoin="miter"></path><path d="M395.89909,95.90687c-1.45887,0 -1.45887,-1.4837 -1.45887,-1.4837v-0.98913c0,-0.65941 -0.00335,-1.31885 0,-1.97826c0.02626,-5.18368 -1.92644,-1.53828 -3.40403,1.70226c0,0.09203 0,0.18401 0,0.27602v1.4837c0,0.81943 -0.65316,1.4837 -1.45887,1.4837c-0.80571,0 -1.45887,-0.66427 -1.45887,-1.4837c0,-1.97826 0,-5.44022 0,-7.41848c0,0 0,-1.4837 1.45887,-1.4837c0.99815,0 1.31338,0.69455 1.41292,1.13325c1.50872,-1.67163 3.50275,-2.46974 5.58196,-0.05557c0.49322,0.57269 0.63208,1.39777 0.76695,2.14662c0.02443,0.13569 0.01884,3.92296 0.01884,4.19421v0.98915c0,0 0,1.48369 -1.45888,1.48369z" fill="#f9bd15" stroke="none" stroke-width="0.5" stroke-linecap="butt" stroke-linejoin="miter"></path><path d="M411.46042,94.91772c-1.45887,0 -1.45887,-1.4837 -1.45887,-1.4837l0.07486,-0.02538c-0.34952,-1.10547 -0.56116,-2.27536 -0.56116,-3.43658c0,-0.01936 0.00012,-0.03958 0.00038,-0.06059c-0.07183,0.09562 -0.12619,0.17083 -0.14875,0.2179c-0.75656,1.57752 -0.55232,3.96621 -3.59088,3.75954c-0.93313,-0.06346 -2.4463,-4.29573 -2.90105,-6.37398c-0.20622,0.42237 -0.60728,0.74533 -0.82183,1.1696c-0.99223,1.96214 -0.90243,3.87874 -1.31946,6.0296c0,0 -0.28611,1.4549 -1.71664,1.16392c-1.43054,-0.29099 -1.14442,-1.74587 -1.14442,-1.74587c0.5993,-3.00001 0.53213,-5.95566 2.64814,-8.44509c0.65572,-0.77145 1.15019,-2.26343 2.14596,-2.14382c2.14564,0.25775 3.25461,3.84884 3.84181,5.4239c0.02199,0.05902 0.04462,0.12705 0.06709,0.2017c0.06006,-0.12463 0.11887,-0.24095 0.17026,-0.34323c0.60859,-1.21125 2.58235,-3.99237 4.07716,-3.75954c2.28302,0.35559 1.47192,5.80506 2.0214,7.40417l0.07489,0.96375c0,0 0,1.4837 -1.45888,1.4837z" fill="#f9bd15" stroke="none" stroke-width="0.5" stroke-linecap="butt" stroke-linejoin="miter"></path><path d="M419.90218,89.45883c-0.42849,0.51323 -1.1474,0.51323 -1.1474,0.51323c-0.72059,0 -1.59139,-0.68357 -2.15079,-0.22159c-2.38739,1.97165 2.25116,6.25672 3.67223,1.7699c0.18498,-0.58405 -0.02189,-1.23862 0.11004,-1.83736zM419.08635,87.04838c0.80632,-1.0554 1.93653,-0.28911 1.93653,-0.28911l1.93588,1.52355c0.0486,0.61466 0.34885,3.38129 0.11004,4.09743c-0.24843,0.74499 -0.73942,1.39523 -1.24064,1.9944c-0.59771,0.71448 -1.1912,1.5209 -2.02878,1.91381c-5.19106,2.43513 -8.90196,-5.68071 -4.72931,-9.06223c0.33288,-0.26977 3.03086,-0.22159 3.68473,-0.22159c0,0 0.13917,-0.00001 0.33157,0.04373z" fill="#f9bd15" stroke="none" stroke-width="0.5" stroke-linecap="butt" stroke-linejoin="miter"></path><path d="M434.31612,81.06987c1.45887,0 1.45887,1.48369 1.45887,1.48369v0.49457c0,2.1668 0.83975,6.44868 -0.07486,8.38225c-1.64917,3.48643 -4.85199,4.33035 -7.03015,0.75641c-0.58245,-0.95571 -0.66896,-2.00298 -0.67738,-3.05235c-0.02456,-0.16422 -0.0222,-0.31316 -0.00005,-0.44789c0.00119,-0.23175 0.00328,-0.46298 0.00177,-0.69275c0,0 0,-1.4837 1.45887,-1.4837c0.59233,0 0.94413,0.24457 1.15313,0.53513c0.81469,-0.24571 1.60341,-0.42921 2.49549,-0.50177c-0.09684,-1.2528 -0.2446,-2.50235 -0.2446,-3.49531v-0.49456c0,0 0,-1.4837 1.45888,-1.4837zM432.93208,90.49201c0.0922,-0.3017 0.15471,-0.63401 0.19442,-0.98817c-0.67137,0.0618 -1.26663,0.22346 -1.88486,0.42778c0.37811,1.43005 1.0312,2.71766 1.69045,0.56039z" fill="#f9bd15" stroke="none" stroke-width="0.5" stroke-linecap="butt" stroke-linejoin="miter"></path><path d="M444.79348,81.3846c-1.45887,0 -1.45888,-1.48369 -1.45888,-1.48369c0,-1.64854 0,-3.79167 0,-5.44025c0,0 0,-1.4837 1.45888,-1.4837c1.45887,0 1.45887,1.4837 1.45887,1.4837c0,1.64856 0,3.29713 0,4.94567v0.49457c0,0 0,1.48369 -1.45887,1.48369z" fill="#f9bd15" stroke="none" stroke-width="0.5" stroke-linecap="butt" stroke-linejoin="miter"></path><path d="M444.79348,87.81396c-1.45887,0 -1.45888,-1.4837 -1.45888,-1.4837c0,-3.62682 0,-8.24277 0,-11.8696c0,0 0,-1.4837 1.45888,-1.4837c1.45887,0 1.45887,1.4837 1.45887,1.4837c0,3.62682 0,7.25364 0,10.88046v0.98913c0,0 0,1.4837 -1.45887,1.4837z" fill="#f9bd15" stroke="none" stroke-width="0.5" stroke-linecap="butt" stroke-linejoin="miter"></path><path d="M442.36202,96.71615c0,-0.81943 0.65316,-1.4837 1.45888,-1.4837c0.80573,0 1.45887,0.66427 1.45887,1.4837c0,0.81943 -0.65316,1.4837 -1.45887,1.4837c-0.80573,0 -1.45888,-0.66427 -1.45888,-1.4837z" fill="#f9bd15" stroke="none" stroke-width="0.5" stroke-linecap="butt" stroke-linejoin="miter"></path><path d="M454.033,91.27592c0,-0.81941 0.65316,-1.48369 1.45887,-1.48369c0.80573,0 1.45888,0.66427 1.45888,1.48369c0,0.81943 -0.65316,1.4837 -1.45888,1.4837c-0.80573,0 -1.45887,-0.66429 -1.45887,-1.4837z" fill="#f9bd15" stroke="none" stroke-width="0.5" stroke-linecap="butt" stroke-linejoin="miter"></path><path d="M455.49188,73.9661c0,-0.81941 0.65316,-1.48369 1.45888,-1.48369c0.80573,0 1.45887,0.66427 1.45887,1.48369c0,0.81941 -0.65316,1.4837 -1.45887,1.4837c-0.80573,0 -1.45888,-0.66429 -1.45888,-1.4837z" fill="#f9bd15" stroke="none" stroke-width="0.5" stroke-linecap="butt" stroke-linejoin="miter"></path><path d="M461.81366,92.26505c0,-0.57413 0.21846,-0.92612 0.48629,-1.14188c0,-4.07047 0,-8.14096 0,-12.21142c0,-1.09807 -0.42109,-4.71939 0.17262,-5.64576c2.75672,-4.30126 13.76475,-1.6943 13.92982,4.65663c-0.04273,2.82554 1.06201,5.71856 0.46745,8.64529c-0.95315,4.69183 -8.48763,7.15274 -12.62474,7.18083h-0.97258c0,0 -1.45888,0 -1.45888,-1.48369zM465.19547,90.7409c2.92058,-0.25979 6.72955,-1.73982 8.58868,-3.82753c0.32128,-0.36081 0.1881,-1.80747 0.18679,-2.0668c-0.01232,-2.43499 -0.46035,-4.55377 -0.48629,-6.92392c0.11826,-2.92544 -2.74276,-3.48056 -5.3492,-3.46197c-0.28094,0.002 -2.86499,-0.35576 -3.09037,0.20553c-0.63322,1.57691 0.01862,12.10385 0.15039,16.0747z" fill="#f9bd15" stroke="none" stroke-width="0.5" stroke-linecap="butt" stroke-linejoin="miter"></path><path d="M495.00603,249.96517c0.20252,-0.20595 0.40502,-0.33104 0.59972,-0.39909c0.26466,-1.02461 1.40445,-1.02461 1.40445,-1.02461c6.38542,0 13.60513,1.11283 19.62732,-1.47982c6.86506,-2.95552 10.55197,-12.92363 13.08126,-19.40301l0.04349,-0.04951l-0.01656,-0.00841l0.95846,-1.94951c0.23392,-0.50185 0.73659,-0.84893 1.31897,-0.84893c0.71711,0 1.31338,0.52622 1.43585,1.21968l0.56692,2.88281c0.20679,0.65038 0.35416,1.34776 0.42159,2.18067c0.29765,3.67583 -0.84882,8.10342 -0.03194,11.6749c0.18253,0.79807 2.32269,4.19126 2.65722,4.74371c3.37811,5.57883 6.25297,9.08284 12.1367,12.07449l1.91689,0.97476c0.49345,0.2379 0.83471,0.74914 0.83471,1.34144c0,0.66743 -0.43333,1.23193 -1.02945,1.41838l-2.73612,0.92755l-0.03256,-0.09937c-7.18724,3.84813 -15.03141,7.16007 -20.99174,12.69707c-1.03681,0.96316 -4.47139,6.74583 -6.03754,6.30994c-1.02394,-0.28498 -3.1645,-4.97857 -3.72352,-6.11562c-2.09973,-4.27093 -3.40487,-8.29237 -6.61003,-11.86313c-0.39191,-0.73213 -0.59714,-1.60598 -1.17575,-2.19638c-0.52102,-0.53164 -1.45284,-0.48774 -1.97479,-1.01842c-0.51266,-0.52125 -0.46246,-1.45443 -0.97258,-1.97826c-0.45691,-0.4692 -1.24595,-0.44005 -1.76661,-0.83462c-2.6174,-1.98354 -4.80284,-3.40168 -7.78065,-4.94567l-2.12372,-2.13278c0,0 -1.03158,-1.04912 0,-2.09825zM498.58137,251.52629l0.25441,0.26266c2.97967,1.4786 5.1845,2.95373 7.78065,4.94567c0.63946,0.49063 1.55489,0.57007 2.12372,1.14363c0.51482,0.51906 0.46006,1.45689 0.97258,1.97828c0.50326,0.51198 1.41655,0.44358 1.91554,0.95984c0.6966,0.72072 1.01878,1.73545 1.52816,2.60317c3.55962,3.94411 7.28394,10.88869 8.27898,16.31404c-0.01393,-0.17715 -0.01137,-0.35372 0.03355,-0.45002c0.42306,-0.90678 1.01986,-1.72692 1.64529,-2.50332c0.90172,-1.11939 2.98124,-2.99538 4.15341,-3.88026c4.47177,-3.37576 9.61311,-6.23469 14.58822,-8.75734c1.87645,-0.95148 3.36503,-2.06577 5.17495,-2.36885c-5.79578,-3.145 -8.9547,-6.9537 -12.44251,-12.71368c-0.73338,-1.21115 -2.69514,-4.26603 -3.01249,-5.61797c-0.62672,-2.66984 -0.04241,-6.48497 -0.03904,-9.24308c0.00126,-1.02541 -0.09797,-1.93111 -0.15032,-2.80189c-2.80808,6.98401 -6.79307,15.35731 -13.59291,18.38899c-5.88896,2.62558 -12.84103,1.87102 -19.21228,1.74012z" fill="#a4a4a4" stroke="none" stroke-width="0.5" stroke-linecap="butt" stroke-linejoin="miter"></path><path d="M460.53835,304.42747c0,-0.22016 0.03211,-0.40764 0.08682,-0.56729c-0.19188,0.03559 -0.38338,0.06009 -0.57311,0.07273c0,0 -1.45888,0 -1.45888,-1.48369c0,-1.48369 1.45888,-1.48369 1.45888,-1.48369c3.15247,0.44035 2.41286,-4.25577 2.43152,-6.44399c0.04295,-5.03441 0.73865,-10.04645 1.9169,-14.92517c0.23261,-0.96315 -0.27865,-2.29885 0.46785,-2.93702c2.15797,-1.84477 4.85392,0.40633 6.3031,1.54871c3.64088,2.87011 5.89257,6.00327 10.07184,8.14206c1.21058,0.91968 2.14252,2.36334 3.58469,2.82194c2.4229,0.77047 5.31705,0.89073 7.98999,0.92279c0.24798,-0.07055 0.49913,-0.12529 0.75148,-0.16246c0.03757,-0.00554 0.07518,-0.01069 0.1128,-0.01549l-0.00399,-0.01642l2.80121,-0.70271c0.12146,-0.03334 0.2492,-0.05112 0.38102,-0.05112c0.80573,0 1.45887,0.66427 1.45887,1.4837c0,0.66743 -0.43332,1.23193 -1.02945,1.41839l-2.73612,0.92755l-0.0281,-0.08577l-0.19954,0.14276c-0.13724,0.00083 -0.27202,0.00095 -0.40449,0.00037c-0.54906,0.17144 -1.18535,0.18846 -1.61476,0.5633c-0.57289,0.50006 -0.55718,1.47946 -1.0991,2.01404c-0.51212,0.50518 -1.40453,0.461 -1.91924,0.96341c-1.07763,1.05191 -1.41732,2.68457 -1.94377,4.10619c-0.75715,2.04458 -1.00685,8.07579 -3.36589,9.06266c-1.23587,0.517 -2.63261,-0.50774 -3.90468,-0.92417c-2.20337,-0.7213 -4.48667,-2.47758 -6.73437,-2.946c-2.83908,-0.59168 -6.4593,0.03807 -9.39745,0.03807h-1.94518c0,0 -1.45888,-0.00001 -1.45888,-1.4837zM462.86226,302.94376h1.08014c3.17067,0 6.97801,-0.59773 10.0542,0.03807c2.22117,0.45909 5.15114,2.00479 7.18127,3.09033c0.55499,0.29678 1.03744,1.15708 1.63135,0.95258c0.51322,-0.17672 0.1885,-1.08596 0.31335,-1.6222c0.06168,-0.26492 1.45518,-5.66918 1.49172,-5.76784c0.02817,-0.07604 2.36737,-4.9026 2.6111,-5.1586c0.51229,-0.53804 1.44218,-0.49367 1.97108,-1.01484c0.20662,-0.2036 0.33634,-0.4705 0.44798,-0.7514c-1.09735,-0.1669 -2.2131,-0.39297 -3.56635,-0.66573c-0.71068,-0.14326 -1.48847,0.18494 -2.17282,-0.05698c-0.34191,-0.12087 -4.09342,-3.03428 -4.19597,-3.11285c-3.42288,-1.72813 -5.60594,-3.68572 -8.35067,-6.39552c-0.00389,-0.00382 -4.43093,-3.84592 -4.45188,-3.69637c-0.50633,3.61713 -0.60086,7.49402 -1.54454,11.14893c-0.8445,3.27073 0.94274,7.26749 -0.37205,10.5461c-0.39457,0.98393 -1.18165,1.84738 -2.12794,2.4663z" fill="#a4a4a4" stroke="none" stroke-width="0.5" stroke-linecap="butt" stroke-linejoin="miter"></path><path d="M219.41877,279.14252c-0.4317,-0.11673 -1.05351,-0.453 -1.05351,-1.42163c0,-1.4837 1.45887,-1.4837 1.45887,-1.4837c1.86729,0 3.75864,0.32336 5.60182,0.01916c5.97495,-0.98609 11.32039,-5.55057 14.28253,-10.82821c1.83085,-3.26203 1.99803,-7.04945 4.13339,-10.20377l0.92302,-1.87744c0.23392,-0.50185 0.7366,-0.84893 1.319,-0.84893c0.65627,0 1.2113,0.4407 1.39464,1.04696l0.91203,2.78267l-0.57417,0.19463c2.15515,7.93055 -0.90663,16.67057 0.6801,24.91747c0.27427,1.42549 1.43123,5.01757 2.5093,6.11246c0.98075,0.99605 4.50685,0.76026 4.31481,2.93519c-0.13121,1.48607 -2.00063,2.21982 -3.21511,3.05688c-2.90417,2.0016 -6.47199,2.68428 -9.3779,4.91035c-1.93872,1.74955 -4.42624,3.01439 -6.19606,4.91263c-0.73807,0.7916 -0.96395,2.67905 -2.02799,2.54102c-1.62723,-0.21108 -3.59695,-4.33146 -4.3045,-5.74545c-1.65752,-3.31251 -1.46683,-7.55669 -3.78178,-10.69974c-2.01762,-2.73932 -4.39933,-5.01235 -5.95278,-8.11129l-0.69931,-0.60351c0,0 -0.73171,-0.74418 -0.34637,-1.60578zM222.33118,279.20491l0.74299,0.81984c1.7973,3.74624 5.33591,6.24444 6.90361,10.14592c0.98437,2.44979 1.39714,4.57432 1.96463,6.99197c0.34752,1.48057 1.57778,2.60916 2.104,4.03415c0.20422,0.553 -0.01826,1.24042 0.27583,1.7498c0.23532,0.40761 -0.32975,-1.01508 -0.08281,-1.41549c0.48439,-0.78555 1.34469,-1.25705 2.07395,-1.81354c1.53456,-1.17102 3.13532,-2.26322 4.56808,-3.56081c2.59474,-1.97178 6.46582,-4.74273 10.00494,-5.36099c-0.71634,-0.24851 -1.41577,-0.60785 -1.94376,-1.1453c-1.47843,-1.5049 -2.94674,-5.76474 -3.3262,-7.7354c-0.75785,-3.93571 -0.77142,-17.34904 -0.05976,-23.83448c-1.4223,2.81147 -1.74624,6.01582 -3.31308,8.81661c-3.3864,6.05335 -9.51933,11.16084 -16.35025,12.28823c-0.08604,0.0142 -1.92796,0.01845 -3.56214,0.01949z" fill="#a4a4a4" stroke="none" stroke-width="0.5" stroke-linecap="butt" stroke-linejoin="miter"></path><path d="M420.11718,246.00866c1.03158,-1.04913 2.06315,0 2.06315,0l1.24587,1.37474c0.01814,0.0384 0.0367,0.07662 0.05562,0.11473c3.46535,-0.34378 6.03113,-2.29554 5.93389,-6.37513v-1.97826c0,-0.81943 0.65316,-1.4837 1.45887,-1.4837c0.65627,0 1.21131,0.4407 1.39464,1.04696l0.91203,2.78267l-0.00809,0.00275c0.00811,0.01649 0.01616,0.03301 0.02417,0.04956c1.87166,3.86868 0.75967,11.10951 5.13773,13.08995l1.91689,0.97477c0.49345,0.2379 0.83471,0.74913 0.83471,1.34143c0,0.81943 -0.65316,1.4837 -1.45887,1.4837h-1.54526c-0.35385,0.27238 -0.69898,0.67667 -1.16158,1.36211c-0.69114,1.02412 -2.01511,5.03704 -2.472,5.27514c-1.95394,1.01824 -4.89444,-2.1988 -5.73049,-3.29688c-0.99244,-1.30346 -1.9511,-2.63318 -2.91775,-3.95653c-0.81941,-1.1218 -0.81295,-2.79567 -1.79324,-3.77493c-0.59083,-0.59021 -1.70537,-0.55064 -2.15458,-1.25824c-0.46663,-0.73504 -0.50429,-1.65534 -0.62265,-2.54492c-0.30358,-0.20835 -0.56782,-0.57105 -0.56782,-1.2025c0,-0.15573 0.01607,-0.2951 0.04483,-0.41982l-0.59013,-0.5093c0,0 -1.03158,-1.04913 0,-2.09827zM431.02178,246.21729c-1.36135,2.28388 -3.69654,3.63435 -6.6055,4.10935c-0.11567,0.32405 -0.25531,0.64439 -0.08134,0.89681c0.35863,0.5204 1.29765,0.26689 1.73574,0.72002c1.2534,1.2964 1.07984,2.77308 2.09708,4.13812c0.55386,0.74323 1.39498,1.23222 1.94518,1.97826c0.87017,1.17998 1.55215,2.51353 2.54384,3.58978c0.20873,0.22656 0.42372,0.98929 0.57874,0.72184c0.33986,-0.58636 -0.01717,-1.38366 0.18159,-2.03362c0.36369,-1.18932 1.08862,-2.86848 2.05129,-3.76517c-0.2835,-0.14881 -0.54713,-0.32424 -0.7674,-0.55774c-0.66844,-0.70851 -0.96163,-1.70853 -1.33647,-2.61342c-0.78135,-1.88617 -1.81481,-4.57982 -2.34275,-7.18426z" fill="#a4a4a4" stroke="none" stroke-width="0.5" stroke-linecap="butt" stroke-linejoin="miter"></path><path d="M534.5942,67.71188c1.30486,-0.66353 1.95729,0.66353 1.95729,0.66353l0.97258,1.97826c0.36885,0.75026 0.77067,1.47562 1.20393,2.17507c5.27677,0.16333 14.47249,0.93229 18.24928,-0.78449c2.99756,-1.36256 5.55375,-5.72282 8.22156,-7.75218c1.11895,-0.85115 2.18087,-2.71454 3.52127,-2.31311c1.34976,0.40424 1.26774,2.56068 1.76949,3.89763c1.62967,4.34228 2.50176,8.79754 4.30357,13.11909c1.6098,2.15686 3.11258,4.81756 4.97232,6.74627c0.79643,0.82596 2.63634,1.04306 2.63929,2.1999c0.00369,1.44907 -1.50727,2.53225 -2.62497,3.43097c-0.80211,0.64497 -1.97963,0.5628 -2.90149,1.01278c-2.85582,1.39395 -6.15911,3.93446 -8.68347,5.85268c-1.00992,0.76744 -3.43032,4.03809 -4.50966,4.21743c-2.96552,0.49271 -3.40673,-1.9912 -4.41323,-3.68723c-3.30496,-5.56925 -7.78512,-9.7844 -12.23481,-14.37806c-3.97517,-2.02141 -7.33964,-4.98996 -9.88586,-8.62359c-0.23542,-0.01322 -1.41842,-0.14617 -1.41842,-1.48222c0,-0.2317 0.03557,-0.42722 0.09562,-0.59222c-0.32276,-0.55808 -0.62769,-1.12893 -0.91418,-1.71165l-0.97258,-1.97828c0,0 -0.65243,-1.32705 0.65243,-1.99059zM540.94463,75.56816c2.1489,2.51989 4.78291,4.58148 7.79859,6.11498c3.26257,3.27646 6.98343,6.46191 9.72272,10.2151c1.56501,2.14427 2.67626,4.54903 4.072,6.75464c0.15937,0.25186 0.41995,0.71446 0.6799,0.57373c1.43861,-0.77879 1.96876,-2.69908 3.271,-3.69563c1.98083,-1.51584 4.40672,-2.93279 6.47954,-4.38382c1.60998,-1.12702 3.43294,-1.94135 5.27749,-2.59857c0.42997,-0.15319 1.46222,-0.1077 1.26536,-0.52557c-0.24793,-0.52628 -1.23547,0.00087 -1.68399,-0.36308c-2.08882,-1.69504 -3.95412,-5.29414 -5.55862,-7.47656c-1.55505,-3.6557 -2.79683,-7.12451 -3.82623,-10.96318c-0.2559,-0.95427 -0.65593,-1.88026 -0.76769,-2.86283c-0.06944,-0.61043 0.80586,-1.62941 0.2341,-1.82805c-0.56314,-0.19565 -0.36725,1.1807 -0.74041,1.65214c-0.60987,0.7705 -1.43517,1.33533 -2.15276,2.00302c-1.873,1.74271 -4.55281,5.22572 -6.84771,6.26889c-3.79241,1.72388 -11.54148,1.33668 -17.22325,1.11481z" fill="#a4a4a4" stroke="none" stroke-width="0.5" stroke-linecap="butt" stroke-linejoin="miter"></path><path d="M206.14898,67.98981c1.03158,-1.04913 2.06316,0 2.06316,0l1.07939,1.11038c1.03921,1.32356 1.9264,2.71877 2.8048,4.12863c3.33999,-0.77805 8.04405,-3.14784 9.54343,-5.16201c1.75988,-2.36408 0.53905,-6.32342 4.99245,-6.44636c2.00016,-0.05521 3.87943,2.34904 5.0399,3.52197c4.74679,4.79769 7.22218,10.91075 11.89804,16.00916c1.98481,2.11934 4.49442,3.06187 7.05646,4.36469l1.91689,0.97477c0.49345,0.2379 0.83471,0.74914 0.83471,1.34143c0,0.66743 -0.43333,1.23193 -1.02945,1.41838l-2.73612,0.92757l-0.01992,-0.06074c-3.79134,2.13486 -7.33506,4.1151 -10.73233,7.32544c-1.09252,1.0324 -0.27104,3.39639 -1.47084,4.2972c-3.22395,2.42056 -6.60977,-2.25666 -8.24072,-4.31689c-5.53316,-6.98942 -12.53018,-12.2233 -17.65487,-19.66942c-0.29047,-0.43836 -0.57188,-0.87977 -0.84901,-1.32209c-0.18912,0.0148 -0.37163,0.02339 -0.5467,0.02554c0,0 -1.45887,0 -1.45887,-1.48369c0,-0.52722 0.18423,-0.86711 0.42172,-1.0862c-0.63747,-1.00299 -1.30051,-1.98887 -2.04638,-2.93157l-0.86579,-0.86789c0,0 -1.03158,-1.04913 0,-2.09827zM213.73468,75.82458c0.05472,0.08352 0.10975,0.167 0.16506,0.25036c4.01719,5.86535 8.98152,9.73537 13.82291,14.75212c2.09226,2.16807 3.59586,4.53317 5.65864,6.71671c0.65484,0.69319 1.95709,3.05946 1.94518,2.09827c-0.05272,-4.24783 7.87662,-10.96942 13.184,-11.87954c-2.59271,-1.29267 -4.96497,-2.41272 -7.05409,-4.56545c-3.84612,-4.20098 -6.65585,-10.72577 -9.78426,-13.85811c-0.97805,-0.97927 -3.47765,-4.62653 -5.0399,-4.75108c-1.5656,-0.12484 -2.49798,5.04153 -2.78822,5.4232c-1.80619,2.3751 -6.31886,4.72224 -10.10931,5.81351z" fill="#a4a4a4" stroke="none" stroke-width="0.5" stroke-linecap="butt" stroke-linejoin="miter"></path><path d="M462.96981,226.80552c-1.45887,0 -1.45888,-1.48369 -1.45888,-1.48369c0,-5.60508 0,-13.18842 0,-18.79351c0,0 0,-1.4837 1.45888,-1.4837c1.45887,0 1.45887,1.4837 1.45887,1.4837c0,5.60508 0,11.21017 0,16.81525v1.97828c0,0 0,1.48369 -1.45887,1.48369z" fill="#f9bd15" stroke="none" stroke-width="0.5" stroke-linecap="butt" stroke-linejoin="miter"></path><path d="M461.51093,235.21316c0,-0.81943 0.65316,-1.48369 1.45888,-1.48369c0.80573,0 1.45887,0.66427 1.45887,1.48369c0,0.81943 -0.65316,1.4837 -1.45887,1.4837c-0.80573,0 -1.45888,-0.66427 -1.45888,-1.4837z" fill="#f9bd15" stroke="none" stroke-width="0.5" stroke-linecap="butt" stroke-linejoin="miter"></path></g></g></svg>