<svg xmlns="http://www.w3.org/2000/svg" xmlns:xlink="http://www.w3.org/1999/xlink" width="50" height="300" viewBox="0,0,50.25992,325.73161" preserveAspectRatio="none"><g transform="translate(-335.84602,4.63758)"><g stroke="none" stroke-miterlimit="10"><path d="M338.3938,319.71047c-1.41019,-0.04325 -2.55087,-10.32409 -2.54777,-22.96283l0.06823,-278.57897c0.00309,-12.63873 1.14879,-22.84935 2.55898,-22.80611l45.08494,1.38343c1.41019,0.04325 2.55086,10.32408 2.54776,22.96282l-0.06822,278.57898c-0.0031,12.63873 -1.14879,22.84936 -2.55898,22.80611z" fill="#fafafa" stroke-width="0"></path><g><path d="M361.11972,130.81416c-10.00453,0.58187 -18.60763,-7.71059 -19.21554,-18.52172c-0.60791,-10.81113 7.00955,-20.04699 17.01409,-20.62884c10.00453,-0.58186 18.60762,7.71058 19.21554,18.52172c0.60791,10.81113 -7.00955,20.04699 -17.01408,20.62884z" fill="#fff" stroke-width="0"></path><path d="M365.74888,111.73921c-0.00213,-0.01675 -0.00373,-0.03413 -0.00474,-0.05221c-0.0281,-0.49981 0.4424,-0.52716 0.4424,-0.52716c4.00094,-0.23269 6.04937,-2.31851 7.06857,-6.45314c0.10265,-0.25444 0.53357,-1.87602 0.74357,-1.97132c1.30019,-0.59005 2.45447,3.0162 3.13774,3.77854c1.58712,1.77078 3.33862,2.1005 5.45533,2.71465c0.32066,0.09386 1.89171,0.54996 1.9352,0.91654c0.14342,1.20881 -1.53989,1.46552 -2.19283,1.86323c-2.60298,1.58549 -3.83951,3.32784 -5.27208,5.92663c-0.20312,0.835 -0.16994,2.8128 -1.43954,2.48484c-0.42222,-0.10907 -1.25449,-2.69983 -1.49154,-3.15009c-0.83249,-1.58125 -2.81412,-2.90582 -4.37808,-3.35962c-0.99527,-0.62216 -2.20268,-0.96227 -3.31857,-1.28605l-0.52312,-0.425c0,0 -0.20927,-0.19829 -0.16231,-0.45979z" fill="#4285f0" stroke-width="0.5"></path><path d="M350.59363,136.07512c-5.89011,0.34257 -10.94392,-4.33998 -11.28798,-10.45876c-0.34406,-6.1188 4.15191,-11.35675 10.04201,-11.69932c5.89011,-0.34257 10.94391,4.33998 11.28797,10.45876c0.34406,6.1188 -4.1519,11.35675 -10.04201,11.69934z" fill="#f9bd15" stroke-width="0"></path><path d="M339.09461,108.18757c-0.00084,-0.00668 -0.00148,-0.0136 -0.00189,-0.02083c-0.01121,-0.19934 0.17646,-0.21026 0.17646,-0.21026c1.59576,-0.09281 2.41277,-0.92473 2.81927,-2.57382c0.04094,-0.10149 0.21281,-0.74825 0.29657,-0.78625c0.51857,-0.23534 0.97896,1.20301 1.25147,1.50706c0.63303,0.70627 1.33159,0.83777 2.17584,1.08272c0.1279,0.03744 0.7545,0.21935 0.77184,0.36556c0.0572,0.48213 -0.61418,0.58452 -0.87459,0.74313c-1.03819,0.63237 -1.53138,1.32731 -2.10275,2.36381c-0.08102,0.33304 -0.06778,1.12187 -0.57417,0.99107c-0.1684,-0.04349 -0.50034,-1.07681 -0.59489,-1.25639c-0.33205,-0.63067 -1.12239,-1.15897 -1.74618,-1.33996c-0.39695,-0.24815 -0.87854,-0.3838 -1.3236,-0.51294l-0.20865,-0.16951c0,0 -0.08348,-0.07909 -0.06474,-0.18338z" fill="#32d153" stroke-width="0.5"></path><path d="M349.72877,93.02729c-0.00084,-0.00669 -0.00149,-0.0136 -0.0019,-0.02083c-0.01121,-0.19934 0.17646,-0.21025 0.17646,-0.21025c1.59576,-0.09281 2.41276,-0.92473 2.81927,-2.57382c0.04094,-0.10149 0.21282,-0.74824 0.29657,-0.78625c0.51857,-0.23534 0.97895,1.20301 1.25147,1.50705c0.63303,0.70627 1.33159,0.83776 2.17584,1.08273c0.1279,0.03745 0.7545,0.21934 0.77185,0.36555c0.0572,0.48213 -0.61418,0.58452 -0.87459,0.74313c-1.03819,0.63237 -1.53137,1.32731 -2.10275,2.36381c-0.08102,0.33304 -0.06778,1.12186 -0.57417,0.99106c-0.1684,-0.04349 -0.50034,-1.07682 -0.5949,-1.2564c-0.33205,-0.63067 -1.12239,-1.15897 -1.74618,-1.33996c-0.39695,-0.24815 -0.87854,-0.3838 -1.3236,-0.51293l-0.20864,-0.16952c0,0 -0.08348,-0.07909 -0.06474,-0.18339z" fill="#e84236" stroke-width="0.5"></path><g><path d="M355.00908,121.97886c0.23926,-0.01391 0.45106,0.14214 0.53089,0.36911l0.02785,0.0739c0.18798,-0.10625 0.36328,-0.19028 0.44089,-0.24226c1.57652,-1.05614 2.84531,-2.38539 4.53979,-3.19493l-0.00678,-0.00197c-2.67652,-0.77658 -4.88037,-2.73167 -7.52156,-3.59687c0.00604,0.09785 0.01696,0.19217 0.03321,0.28252c0.18388,1.02199 1.57309,4.42961 1.88339,6.31994c0.02354,-0.00482 0.04769,-0.00801 0.07233,-0.00944zM360.81781,117.89115l0.1715,0.04976c0.23973,-1.35015 0.87704,-2.66753 1.25243,-3.94834c0.70264,-2.39742 0.80112,-4.98041 1.73143,-7.30098c0.59804,-2.38872 1.69629,-4.54981 2.2671,-6.89632l0.17479,-0.26393c0.04679,-0.11718 0.13192,-0.19825 0.20088,-0.24827c0.00689,-0.00521 0.01412,-0.01052 0.02167,-0.01581c-0.48866,-0.11362 -2.15116,-0.75819 -2.51976,-0.92748c-0.53696,-0.24659 -4.0888,-1.94339 -5.16806,-2.54916c0.29303,0.48995 0.19752,1.71998 0.22107,2.13872l0.02117,0.37667c0,0 0.0187,0.33259 -0.21282,0.50138c-0.69194,3.51746 -3.58565,6.98816 -4.17442,10.50928c-0.37533,1.20144 -1.36243,3.26049 -1.68599,4.92219c2.72092,0.84756 4.97027,2.86055 7.69902,3.65228zM357.96607,94.70535c2.37068,0.12088 4.43462,1.61512 6.56207,2.59216c0.61405,0.28201 2.37744,0.73491 2.82601,1.21701c0.29355,0.3155 0.66049,0.7285 0.60217,1.16626c-0.04076,0.306 -0.43043,0.37779 -0.71498,0.52014c-0.62192,2.33293 -1.65333,4.48465 -2.26106,6.86593c-0.93222,2.29561 -1.03066,4.87693 -1.7188,7.25974c-0.42397,1.46809 -1.37559,3.14006 -1.30333,4.7052c0.04094,0.16017 0.00428,0.29147 -0.05313,0.39059c-0.04693,0.10623 -0.13108,0.21149 -0.28159,0.26202l-0.33779,0.1998c-2.36702,0.9956 -4.48773,4.24598 -7.07737,4.05365c-0.61185,-2.67322 -1.84852,-5.49695 -2.21869,-8.2076c-0.26712,-1.95609 1.21058,-4.88106 1.78352,-6.70236c0.66187,-3.57966 4.22433,-8.26954 4.28717,-11.63738c-0.08692,-0.91201 -0.21909,-1.75573 -0.09416,-2.68514z" fill="#1a1a1a" stroke-width="0.5"></path><path d="M354.99678,122.00015c-0.02464,0.00143 -0.04909,0.00442 -0.07264,0.00922c-0.31027,-1.89033 -1.7057,-5.3342 -1.88957,-6.35619c-0.01625,-0.09035 -0.02661,-0.18543 -0.03265,-0.28327c2.64119,0.86519 4.88682,2.83769 7.56334,3.61427l0.00678,0.00197c-1.69448,0.80954 -2.99289,2.16145 -4.56941,3.21761c-0.0776,0.05199 -0.25513,0.13523 -0.44311,0.2415l-0.02815,-0.07402c-0.07982,-0.227 -0.29531,-0.385 -0.53457,-0.37108z" fill="#fff" stroke-width="0.25"></path><path d="M360.82022,117.91934c-2.72875,-0.79174 -4.99903,-2.81271 -7.71995,-3.66027c0.32356,-1.66171 1.30501,-3.72928 1.68034,-4.93073c0.58877,-3.52112 3.50355,-7.03157 4.19549,-10.54905c0.23151,-0.1688 0.21369,-0.50148 0.21369,-0.50148l-0.02115,-0.37666c-0.02354,-0.41874 0.07184,-1.64875 -0.2212,-2.13871c1.07925,0.60578 4.64588,2.30578 5.18284,2.55237c0.36862,0.16928 2.03695,0.81831 2.52562,0.93193c-0.00757,0.00528 -0.05124,0.05166 -0.05815,0.05688c-0.06895,0.05003 -0.11761,0.09002 -0.1644,0.20722l-0.17469,0.264c-0.5708,2.34651 -1.66077,4.52685 -2.25883,6.91556c-0.93032,2.32058 -1.04657,4.93146 -1.7492,7.32888c-0.37538,1.2808 -1.01875,2.5996 -1.25846,3.94976z" fill="#f9bd15" stroke-width="0.5"></path></g></g><path d="M349.58556,67.26691c0,-0.81941 0.65316,-1.48369 1.45887,-1.48369c0.80573,0 1.45888,0.66427 1.45888,1.48369c0,0.81943 -0.65316,1.4837 -1.45888,1.4837c-0.80573,0 -1.45887,-0.66429 -1.45887,-1.4837z" fill="#f9bd15" stroke-width="0.5"></path><path d="M349.04444,51.45709c0,-0.81941 0.65316,-1.48369 1.45888,-1.48369c0.80573,0 1.45887,0.66427 1.45887,1.48369c0,0.81941 -0.65316,1.4837 -1.45887,1.4837c-0.80573,0 -1.45888,-0.66429 -1.45888,-1.4837z" fill="#f9bd15" stroke-width="0.5"></path><path d="M359.36622,69.25604c0,-0.57413 0.21846,-0.92612 0.48629,-1.14188c0,-4.07047 0,-8.14096 0,-12.21142c0,-1.09807 -0.42109,-4.71939 0.17262,-5.64576c2.75672,-4.30126 13.76475,-1.6943 13.92982,4.65663c-0.04273,2.82554 1.06201,5.71856 0.46745,8.64529c-0.95315,4.69183 -8.48763,7.15274 -12.62474,7.18083h-0.97258c0,0 -1.45888,0 -1.45888,-1.48369zM362.74803,67.73189c2.92058,-0.25979 6.72955,-1.73982 8.58868,-3.82753c0.32128,-0.36081 0.1881,-1.80747 0.18679,-2.0668c-0.01232,-2.43499 -0.46035,-4.55377 -0.48629,-6.92392c0.11826,-2.92544 -2.74276,-3.48056 -5.3492,-3.46197c-0.28094,0.002 -2.86499,-0.35576 -3.09037,0.20553c-0.63322,1.57691 0.01862,12.10385 0.15039,16.0747z" fill="#f9bd15" stroke-width="0.5"></path></g></g></svg>