<svg version="1.1" xmlns="http://www.w3.org/2000/svg" xmlns:xlink="http://www.w3.org/1999/xlink" width="480.49999" height="271" viewBox="0,0,480.49999,271"><defs><linearGradient x1="52.00001" y1="-8.00001" x2="427.00001" y2="366.99999" gradientUnits="userSpaceOnUse" id="color-1"><stop offset="0" stop-color="#00ff84"/><stop offset="1" stop-color="#00c8ff"/></linearGradient><linearGradient x1="239.98537" y1="238.67965" x2="239.98537" y2="294.42937" gradientUnits="userSpaceOnUse" id="color-2"><stop offset="0" stop-color="#fff827"/><stop offset="1" stop-color="#ffb517"/></linearGradient><linearGradient x1="212.04121" y1="148.33321" x2="274.37471" y2="210.66674" gradientUnits="userSpaceOnUse" id="color-3"><stop offset="0" stop-color="#00994f"/><stop offset="1" stop-color="#007899"/></linearGradient><linearGradient x1="215.68409" y1="151.97609" x2="270.73186" y2="207.02389" gradientUnits="userSpaceOnUse" id="color-4"><stop offset="0" stop-color="#00ff84"/><stop offset="1" stop-color="#00c9ff"/></linearGradient></defs><g transform="translate(0.49998,-44.5)"><g stroke-linejoin="miter" stroke-miterlimit="10" stroke-dasharray="" stroke-dashoffset="0" style="mix-blend-mode: normal"><path d="M-0.49998,314.5v-270h479.99999v270z" fill="url(#color-1)" fill-rule="nonzero" stroke="none" stroke-width="1" stroke-linecap="butt"/><g fill-opacity="0.4" fill="#ffffff" fill-rule="nonzero" stroke="none" stroke-width="0" stroke-linecap="butt"><path d="M240.00001,180.5l239.72432,82.51454l0.27567,-0.15507v52.64053h-93.58316l0.27567,-0.15507z" data-paper-data="{&quot;index&quot;:null}"/><path d="M182.21879,315l57.78122,-135l57.78122,135z"/><path d="M297.78122,45l-57.78122,135l-57.78122,-135z" data-paper-data="{&quot;index&quot;:null}"/><path d="M0.00001,147.49806l240,32.50194l-239.99999,32.50194z"/><path d="M480,212.50194l-239.99999,-32.50194l240,-32.50194z" data-paper-data="{&quot;index&quot;:null}"/><path d="M240.00001,180l-239.72432,-82.51454l-0.27567,0.15507v-52.64053h93.58316l-0.27567,0.15507z" data-paper-data="{&quot;index&quot;:null}"/><path d="M93.3075,314.84493l0.27567,0.15507h-93.58316v-52.64053l0.27567,0.15507l239.72432,-82.51454z" data-paper-data="{&quot;index&quot;:null}"/><path d="M386.69251,45.15507l-0.27567,-0.15507h93.58316v52.64053l-0.27567,-0.15507l-239.72432,82.51454z" data-paper-data="{&quot;index&quot;:null}"/></g><path d="M24.63122,115.55733c-0.44385,-5.38601 -0.8461,-11.85732 -1.20678,-19.41393c-0.36112,-7.56591 -0.60561,-17.67758 -0.73346,-30.33497c3.93587,-1.67274 8.01424,-2.60984 12.23514,-2.8113c4.22089,-0.20146 8.06459,1.18402 11.53109,4.15641c3.46605,2.9631 5.3125,6.82062 5.53931,11.57262c0.22635,4.74268 -1.38092,8.92848 -4.82183,12.55743c-3.4316,3.6285 -8.02049,6.39238 -13.76662,8.29161c0.25483,5.33899 0.5913,10.82353 1.00947,16.45358zM39.93166,86.57232c1.64455,-2.13304 -0.59342,-4.9621 -0.71393,-7.48718c-0.12097,-2.5344 2.12407,-4.05759 0.73513,-5.56956c-1.38894,-1.51197 -2.89405,-2.22927 -4.51533,-2.15188c-0.4286,0.02046 -1.40117,0.18827 -2.91771,0.50347c0.07839,6.72956 0.2446,13.24484 0.49866,19.54579c2.96422,-1.09405 5.26864,-2.70759 6.91318,-4.84064zM68.789,86.34363c-2.00329,0.09562 -3.38757,2.69251 -4.15283,7.7907c0.25284,3.34059 0.45219,6.53897 0.59806,9.59516c0.14543,3.04685 0.21613,6.48486 0.21211,10.31401l-8.33602,-0.31655c-0.1951,-7.02285 -0.3098,-10.893 -0.34404,-11.61045c-0.42116,-8.82381 -1.17197,-15.55397 -2.25246,-20.19049l5.39431,0.31687c0.40169,1.37234 0.84175,2.57003 1.32017,3.59316c2.0999,-5.11519 4.34251,-7.72971 6.72783,-7.84357c1.95672,-0.09341 3.71671,0.68179 5.28005,2.32551l-1.55865,6.67231c-0.77965,-0.48578 -1.74247,-0.70128 -2.88853,-0.6466zM83.92991,98.59266c0.2575,5.39492 1.5789,8.03544 3.9642,7.92158c1.05289,-0.05025 1.86114,-1.60639 2.42475,-4.66842c0.57292,-3.06247 0.79334,-5.97737 0.66124,-8.74471c-0.29175,-6.11237 -1.43926,-9.12076 -3.44255,-9.02514c-1.28583,0.06137 -2.24669,1.74622 -2.8826,5.0545c-0.62658,3.30783 -0.86827,6.46191 -0.72508,9.46219zM75.52734,98.34932c-0.21169,-4.43519 0.48486,-8.82036 2.08968,-13.15548c0.85743,-2.18887 2.12488,-4.00505 3.80236,-5.44861c1.67748,-1.44352 3.58773,-2.21645 5.73077,-2.31874c2.14306,-0.10229 4.0113,0.29882 5.60472,1.20336c1.60274,0.90407 2.84813,2.1474 3.73614,3.72998c1.72722,3.1208 2.6809,6.56801 2.86101,10.34166c0.24817,5.19923 -0.59368,9.86683 -2.52555,14.00276c-1.92297,4.12619 -4.79457,6.28041 -8.61481,6.46276c-7.96658,0.38025 -12.19469,-4.559 -12.68433,-14.81769zM118.6635,77.85554c2.90708,-0.13875 5.17271,0.7617 6.79689,2.70137c2.30504,-3.75218 4.67352,-5.6863 7.10543,-5.80237c6.63415,-0.31664 10.18915,4.50995 10.66502,14.47983c0.26907,5.63716 0.11497,12.48525 -0.46229,20.54421l-8.33605,-0.31655c0.48708,-8.96988 0.61921,-15.78889 0.39639,-20.45703c-0.22326,-4.67745 -1.09892,-6.97973 -2.62701,-6.90678c-0.67088,0.03203 -1.40706,1.14113 -2.20858,3.32734c-0.80152,2.1862 -1.28398,4.59997 -1.44743,7.24133c0.19144,5.96773 0.25437,11.29722 0.18878,15.98846l-8.40991,-0.39706c0.06137,-6.73625 -0.01156,-12.27538 -0.2188,-16.6174c-0.20725,-4.34199 -0.90718,-6.48458 -2.09986,-6.42763c-0.76404,0.03647 -1.69323,1.40693 -2.78753,4.11141c-1.08499,2.70402 -1.82367,5.52226 -2.21601,8.45471c0.26538,4.38594 0.7007,8.9085 1.30598,13.56772l-8.40925,-0.38309c-0.85219,-6.70197 -1.41039,-12.82031 -1.67455,-18.355c-0.26417,-5.53468 -0.3668,-10.71753 -0.30788,-15.54854l5.96067,0.14976c0.35024,1.27204 0.86694,3.58675 1.55017,6.94415c2.33607,-4.08052 4.748,-6.18014 7.23582,-6.29889zM156.56264,95.1259c0.2575,5.39492 1.57891,8.03544 3.96422,7.92158c1.05289,-0.05025 1.86114,-1.60639 2.42473,-4.66842c0.57292,-3.06247 0.79333,-5.97737 0.66124,-8.74471c-0.29174,-6.11237 -1.43925,-9.12076 -3.44255,-9.02513c-1.28583,0.06137 -2.24669,1.74621 -2.8826,5.05449c-0.62658,3.30783 -0.86828,6.46192 -0.72509,9.4622zM148.16006,94.88258c-0.21169,-4.43519 0.48487,-8.82036 2.0897,-13.15548c0.85743,-2.18887 2.12487,-4.00505 3.80235,-5.4486c1.67748,-1.44352 3.58774,-2.21645 5.7308,-2.31874c2.14306,-0.10229 4.01128,0.29882 5.60472,1.20336c1.60274,0.90407 2.84811,2.14741 3.73613,3.72998c1.72722,3.1208 2.6809,6.56801 2.86101,10.34166c0.24817,5.19923 -0.59368,9.86682 -2.52554,14.00276c-1.92298,4.12619 -4.79458,6.28041 -8.61482,6.46276c-7.96658,0.38025 -12.19469,-4.559 -12.68434,-14.81769zM192.38461,76.35402l0.32422,6.79255c-2.29214,0.1094 -4.05672,0.21698 -5.29375,0.3227c0.08794,4.77729 0.40075,12.79845 0.93842,24.06349l-8.47981,-0.39374c-0.39846,-8.3486 -0.68948,-15.91319 -0.87303,-22.69378c-0.71747,0.03423 -2.07206,0.2203 -4.06378,0.55818l-1.34238,-5.81941c1.12518,-0.29652 2.8995,-0.68941 5.32291,-1.17862c-0.07537,-3.53582 -0.13496,-8.69737 -0.17875,-15.48462l8.56299,0.37575c-0.06338,4.73782 -0.05908,9.32767 0.01284,13.76954c1.19044,-0.10351 2.88047,-0.20753 5.07011,-0.31204zM212.42915,94.9809l5.59026,2.95508c-0.82866,1.61781 -1.63603,2.99648 -2.42215,4.13599c-0.78655,1.1302 -1.98973,2.23824 -3.60955,3.32416c-1.61984,1.0859 -3.45468,1.67777 -5.50457,1.77562c-3.00959,0.14365 -5.60026,-1.01212 -7.77199,-3.46732c-2.17173,-2.4552 -3.36123,-5.85379 -3.56848,-10.1958c-0.23703,-4.96632 0.42246,-9.63918 1.97848,-14.01868c0.85298,-2.28203 2.14039,-4.16923 3.86221,-5.66158c1.72183,-1.49233 3.52384,-2.28346 5.40598,-2.37329c1.88217,-0.08983 3.41051,0.13607 4.58504,0.6777c1.17453,0.54162 2.12412,1.16403 2.84876,1.86722c0.73397,0.70274 1.39605,1.75913 1.98634,3.16913c0.59027,1.41001 1.01413,2.5618 1.27157,3.45537c0.25744,0.89357 0.50184,2.19869 0.7332,3.91534c0.29531,2.27393 0.48744,4.34266 0.57639,6.20619c-3.76066,1.23479 -8.65341,2.42555 -14.67827,3.57229c0.24026,1.90301 0.64862,3.41509 1.22512,4.53625c0.57605,1.11186 1.22279,1.65063 1.94025,1.6164c0,0 3.66739,-1.91674 5.55138,-5.49005zM207.40909,78.43859c-1.05289,0.05025 -1.94859,1.1436 -2.68714,3.2801c-0.72922,2.13605 -1.09766,4.59108 -1.10532,7.3651c2.50017,-0.64233 4.67069,-1.24554 6.51154,-1.80967c-0.28462,-5.96328 -1.19098,-8.90845 -2.71908,-8.83552z" fill="none" fill-rule="nonzero" stroke="#000000" stroke-width="7.5" stroke-linecap="square"/><path d="M24.63122,115.55733c-0.44385,-5.38601 -0.8461,-11.85732 -1.20678,-19.41393c-0.36112,-7.56591 -0.60561,-17.67758 -0.73346,-30.33497c3.93587,-1.67274 8.01424,-2.60984 12.23514,-2.8113c4.22089,-0.20146 8.06459,1.18402 11.53109,4.15641c3.46605,2.9631 5.3125,6.82062 5.53931,11.57262c0.22635,4.74268 -1.38092,8.92848 -4.82183,12.55743c-3.4316,3.6285 -8.02049,6.39238 -13.76662,8.29161c0.25483,5.33899 0.5913,10.82353 1.00947,16.45358zM39.93166,86.57232c1.64455,-2.13304 2.40658,-4.4621 2.28607,-6.98718c-0.12097,-2.5344 -0.87593,-4.55759 -2.26487,-6.06956c-1.38894,-1.51197 -2.89405,-2.22927 -4.51533,-2.15188c-0.4286,0.02046 -1.40117,0.18827 -2.91771,0.50347c0.07839,6.72956 0.2446,13.24484 0.49866,19.54579c2.96422,-1.09405 5.26864,-2.70759 6.91318,-4.84064zM68.789,86.34363c-2.00329,0.09562 -3.38757,2.69251 -4.15283,7.7907c0.25284,3.34059 0.45219,6.53897 0.59806,9.59516c0.14543,3.04685 0.21613,6.48486 0.21211,10.31401l-8.33602,-0.31655c-0.1951,-7.02285 -0.3098,-10.893 -0.34404,-11.61045c-0.42116,-8.82381 -1.17197,-15.55397 -2.25246,-20.19049l5.39431,0.31687c0.40169,1.37234 0.84175,2.57003 1.32017,3.59316c2.0999,-5.11519 4.34251,-7.72971 6.72783,-7.84357c1.95672,-0.09341 3.71671,0.68179 5.28005,2.32551l-1.55865,6.67231c-0.77965,-0.48578 -1.74247,-0.70128 -2.88853,-0.6466zM83.92989,98.59266c0.2575,5.39492 1.5789,8.03544 3.9642,7.92158c1.05289,-0.05025 1.86114,-1.60639 2.42475,-4.66842c0.57292,-3.06247 0.79334,-5.97737 0.66124,-8.74471c-0.29175,-6.11237 -1.43926,-9.12076 -3.44255,-9.02514c-1.28583,0.06137 -2.24669,1.74622 -2.8826,5.0545c-0.62658,3.30783 -0.86827,6.46191 -0.72508,9.46219zM75.52734,98.34932c-0.21169,-4.43519 0.48486,-8.82036 2.08968,-13.15548c0.85743,-2.18887 2.12488,-4.00505 3.80236,-5.44861c1.67748,-1.44352 3.58773,-2.21645 5.73077,-2.31874c2.14306,-0.10229 4.0113,0.29882 5.60472,1.20336c1.60274,0.90407 2.84813,2.1474 3.73614,3.72998c1.72722,3.1208 2.6809,6.56801 2.86101,10.34166c0.24817,5.19923 -0.59368,9.86683 -2.52555,14.00276c-1.92297,4.12619 -4.79457,6.28041 -8.61481,6.46276c-7.96658,0.38025 -12.19469,-4.559 -12.68433,-14.81769zM118.66348,77.85554c2.90708,-0.13875 5.17271,0.7617 6.79688,2.70137c2.30504,-3.75218 4.67353,-5.6863 7.10544,-5.80237c6.63415,-0.31664 10.18915,4.50995 10.66502,14.47983c0.26907,5.63716 0.11497,12.48525 -0.46229,20.54421l-8.33605,-0.31655c0.48708,-8.96988 0.6192,-15.78889 0.39639,-20.45703c-0.22326,-4.67745 -1.09892,-6.97973 -2.62701,-6.90678c-0.67088,0.03203 -1.40706,1.14113 -2.20858,3.32734c-0.80152,2.1862 -1.28398,4.59997 -1.44743,7.24133c0.19144,5.96773 0.25437,11.29722 0.18878,15.98846l-8.40991,-0.39706c0.06137,-6.73625 -0.01156,-12.27538 -0.2188,-16.6174c-0.20725,-4.34199 -0.90718,-6.48458 -2.09986,-6.42763c-0.76404,0.03647 -1.69323,1.40693 -2.78753,4.11141c-1.08499,2.70402 -1.82366,5.52226 -2.216,8.45471c0.26538,4.38594 0.70069,8.9085 1.30597,13.56772l-8.40925,-0.38309c-0.85219,-6.70197 -1.41039,-12.82031 -1.67455,-18.355c-0.26417,-5.53468 -0.36679,-10.71753 -0.30787,-15.54854l5.96066,0.14976c0.35024,1.27204 0.86695,3.58675 1.55018,6.94415c2.33607,-4.08052 4.748,-6.18014 7.23582,-6.29889zM156.56264,95.1259c0.2575,5.39492 1.57891,8.03544 3.96422,7.92158c1.05289,-0.05025 1.86114,-1.60639 2.42473,-4.66842c0.57292,-3.06247 0.79333,-5.97737 0.66124,-8.74471c-0.29174,-6.11237 -1.43925,-9.12076 -3.44255,-9.02513c-1.28583,0.06137 -2.24669,1.74621 -2.8826,5.05449c-0.62658,3.30783 -0.86828,6.46192 -0.72509,9.4622zM148.16006,94.88258c-0.21169,-4.43519 0.48487,-8.82036 2.0897,-13.15548c0.85743,-2.18887 2.12487,-4.00505 3.80235,-5.4486c1.67748,-1.44352 3.58774,-2.21645 5.7308,-2.31874c2.14306,-0.10229 4.01128,0.29882 5.60472,1.20336c1.60274,0.90407 2.84811,2.14741 3.73613,3.72998c1.72722,3.1208 2.6809,6.56801 2.86101,10.34166c0.24817,5.19923 -0.59368,9.86682 -2.52554,14.00276c-1.92298,4.12619 -4.79458,6.28041 -8.61482,6.46276c-7.96658,0.38025 -12.19469,-4.559 -12.68434,-14.81769zM192.38461,76.35402l0.32422,6.79255c-2.29214,0.1094 -4.05672,0.21698 -5.29375,0.3227c0.08794,4.77729 0.40075,12.79845 0.93842,24.06349l-8.47981,-0.39374c-0.39846,-8.3486 -0.68948,-15.91319 -0.87303,-22.69378c-0.71747,0.03423 -2.07206,0.2203 -4.06378,0.55818l-1.34238,-5.81941c1.12518,-0.29652 2.8995,-0.68941 5.32291,-1.17862c-0.07537,-3.53582 -0.13496,-8.69737 -0.17875,-15.48462l8.56299,0.37575c-0.06338,4.73782 -0.05908,9.32767 0.01284,13.76954c1.19044,-0.10351 2.88047,-0.20753 5.07011,-0.31204zM206.87775,100.47098c1.81695,-0.08672 3.66739,-1.91675 5.55141,-5.49007l5.59027,2.95508c-0.82866,1.61781 -1.63603,2.99647 -2.42215,4.13598c-0.78655,1.1302 -1.98973,2.23824 -3.60955,3.32417c-1.61984,1.0859 -3.45468,1.67777 -5.50457,1.77562c-3.00959,0.14365 -5.60026,-1.01212 -7.77199,-3.46732c-2.17173,-2.4552 -3.36123,-5.85379 -3.56848,-10.1958c-0.23703,-4.96632 0.42246,-9.63918 1.97848,-14.01868c0.85298,-2.28203 2.14039,-4.16924 3.86221,-5.66159c1.72183,-1.49233 3.52384,-2.28345 5.40598,-2.37328c1.88217,-0.08983 3.41051,0.13607 4.58505,0.6777c1.17453,0.54162 2.12412,1.16403 2.84876,1.86721c0.73397,0.70274 1.39605,1.75913 1.98634,3.16912c0.59027,1.41001 1.01413,2.5618 1.27158,3.45537c0.25744,0.89357 0.50184,2.19869 0.7332,3.91534c0.29531,2.27393 0.48744,4.34266 0.5764,6.20619c-3.76066,1.23479 -8.65342,2.42556 -14.67828,3.57229c0.24026,1.90301 0.64862,3.41508 1.22512,4.53624c0.57605,1.11186 1.22279,1.65064 1.94026,1.6164zM207.40909,78.43859c-1.05289,0.05025 -1.94859,1.1436 -2.68714,3.2801c-0.72922,2.13605 -1.09766,4.59108 -1.10532,7.3651c2.50017,-0.64233 4.67069,-1.24554 6.51154,-1.80967c-0.28462,-5.96328 -1.19098,-8.90845 -2.71908,-8.83552z" fill="#ffffff" fill-rule="nonzero" stroke="none" stroke-width="1" stroke-linecap="square"/><path d="M251.9433,94.17244l0.21531,-4.73947c-4.85644,-11.61558 -7.45951,-19.94256 -7.80921,-24.98091l7.66529,1.08349c0.69708,4.64431 2.33558,10.23541 4.91547,16.77332c3.74595,-7.27916 6.69744,-13.8752 8.85448,-19.78809l7.11415,1.01024c-3.43278,8.5229 -7.48563,17.16225 -12.1585,25.91811c-0.24814,3.6933 -0.43558,6.93532 -0.56235,9.72608c-0.12677,2.79075 -0.17445,5.6092 -0.14302,8.45534l-8.09235,-1.2355c-0.19549,-3.83397 -0.19524,-7.90821 0.00076,-12.22264zM274.95177,95.89264c-0.21091,4.64324 0.7101,7.01149 2.76307,7.10474c0.90619,0.04117 1.72323,-1.22758 2.4511,-3.80619c0.7359,-2.57825 1.15793,-5.05827 1.26612,-7.44003c0.23897,-5.26074 -0.50362,-7.93023 -2.2278,-8.00856c-1.10668,-0.05026 -2.06477,1.31649 -2.87429,4.10035c-0.8015,2.78419 -1.26091,5.46744 -1.3782,8.04969zM267.77149,95.01199c0.17341,-3.81724 1.12105,-7.51895 2.84293,-11.10511c0.90978,-1.80693 2.14108,-3.26176 3.6939,-4.36447c1.5528,-1.10271 3.25145,-1.61218 5.09593,-1.52839c1.84445,0.08379 3.41317,0.57693 4.70614,1.47944c1.30098,0.90288 2.26863,2.06786 2.90294,3.49492c1.23032,2.81222 1.77171,5.84226 1.62417,9.09011c-0.20328,4.47484 -1.29798,8.40691 -3.28415,11.79626c-1.97778,3.3817 -4.61064,4.99785 -7.8986,4.84849c-6.85658,-0.31146 -10.08433,-4.88188 -9.68326,-13.71124zM313.01599,79.79402l-0.56236,9.72608c-0.41566,9.15014 -0.5571,15.88988 -0.42427,20.21926l-6.0709,-0.89052c-0.04198,-1.72964 -0.22735,-3.48587 -0.55622,-5.26872c-2.41229,3.21731 -4.75719,4.77423 -7.03469,4.67076c-2.27753,-0.10345 -4.05858,-0.96385 -5.34318,-2.58119c-1.28424,-1.62534 -1.86389,-3.81336 -1.73893,-6.56401c0.24226,-5.3329 0.92026,-11.67862 2.03402,-19.03717l7.1147,0.99821c-1.0569,6.99149 -1.69063,12.80483 -1.9012,17.44005c-0.09545,2.10107 0.51442,3.18149 1.82962,3.24125c0.60947,0.02768 1.39352,-0.78047 2.35216,-2.42446c0.96666,-1.64364 1.76873,-3.64433 2.4062,-6.00204c0.00107,-0.90802 0.02946,-1.9755 0.08521,-3.20248c0.0561,-1.23499 0.28693,-4.98933 0.69244,-11.26307zM330.02849,87.23262c-1.72418,-0.07832 -3.11804,2.0361 -4.18158,6.34329c-0.05057,2.8826 -0.13561,5.63909 -0.2551,8.26945c-0.11912,2.62234 -0.33355,5.57387 -0.6433,8.85452l-7.11742,-0.93806c0.39461,-6.03314 0.60593,-9.35846 0.63397,-9.97596c0.34497,-7.59437 0.24002,-13.42121 -0.31489,-17.48043l4.59677,0.70303c0.23442,1.20801 0.51567,2.26947 0.84377,3.1844c2.2085,-4.21497 4.33922,-6.27585 6.39218,-6.18259c1.68408,0.07651 3.13013,0.8815 4.33819,2.41498l-1.86926,5.5925c-0.62917,-0.4786 -1.43694,-0.7403 -2.42332,-0.78511zM367.5572,84.24846c0.62874,-1.98845 0.97388,-3.66035 1.03544,-5.01561c0.06157,-1.35528 -0.26051,-2.49093 -0.96625,-3.40693c-0.69772,-0.91566 -1.632,4.09994 -2.80282,4.04675c-1.16282,-0.05282 -2.16321,-5.0237 -3.00119,-3.91264c-0.82998,1.11143 -1.27867,2.40895 -1.34606,3.89254c-0.13042,2.87095 1.40173,5.40757 4.59643,7.60991c3.18302,2.28217 5.34649,3.92335 6.49038,4.92355c1.1519,1.00059 1.9588,1.90108 2.42066,2.70157c1.13554,2.0686 1.65485,4.16948 1.55795,6.30265c-0.16793,3.69694 -1.54481,6.58763 -4.13065,8.67199c-2.57783,2.08476 -5.42649,3.05626 -8.54604,2.91455c-3.69694,-0.16793 -6.72558,-1.86852 -9.08593,-5.10173c-1.70964,-2.3438 -3.24578,-5.2342 -4.60846,-8.67121l6.09757,-2.61595c0.83445,2.50494 1.91859,4.64355 3.25242,6.41579c1.34222,1.76459 -1.18475,-4.3167 0.41911,-4.24383c1.02648,0.04662 5.96365,6.75972 6.8115,6.13929c0.85587,-0.62007 1.31403,-1.59571 1.3745,-2.92693c0.06083,-1.33925 -0.39594,-2.60556 -1.37034,-3.79897c-0.97403,-1.20144 -2.29618,-2.43473 -3.96643,-3.69993c-1.66989,-1.27322 -2.96087,-2.30823 -3.87291,-3.10504c-0.91168,-0.80483 -1.91393,-1.82674 -3.0068,-3.06569c-2.06869,-2.40029 -3.02146,-5.39679 -2.85825,-8.98946c0.1632,-3.5927 1.5512,-6.55116 4.16397,-8.87539c2.61316,-2.33225 5.64391,-3.42006 9.09225,-3.26343c3.44833,0.15666 6.29071,1.62376 8.5271,4.4013c2.24477,2.76991 3.30323,5.56228 3.17537,8.37708c-0.12786,2.8148 -0.77063,5.20042 -1.92827,7.15681zM395.71241,86.69666l-0.26556,5.84614c-1.97277,-0.0896 -3.49336,-0.1386 -4.56176,-0.14695c-0.3068,4.10047 -0.68042,10.99844 -1.12085,20.69388l-7.23444,-1.01571c0.32641,-7.18538 0.68218,-13.6904 1.0673,-19.51504c-0.61749,-0.02805 -1.79307,0.02302 -3.52669,0.15322l-0.68472,-5.09375c0.98782,-0.16406 2.5396,-0.35876 4.65524,-0.58409c0.21825,-3.03571 0.5801,-7.46317 1.08553,-13.28234l7.30716,1.00696c-0.43331,4.05456 -0.79681,7.98769 -1.09049,11.79947c1.0283,0.00652 2.48474,0.05261 4.3693,0.13821zM419.25695,84.62014l-0.56236,9.72608c-0.41566,9.15014 -0.5571,15.88988 -0.42427,20.21926l-6.07088,-0.89052c-0.04198,-1.72964 -0.22737,-3.48588 -0.55622,-5.26873c-2.41229,3.21731 -4.75719,4.77424 -7.03469,4.67077c-2.27753,-0.10345 -4.05858,-0.96385 -5.34317,-2.58119c-1.28424,-1.62534 -1.86388,-3.81335 -1.73893,-6.56401c0.24226,-5.3329 0.92026,-11.67862 2.03402,-19.03717l7.1147,0.99821c-1.0569,6.99149 -1.69065,12.80483 -1.90121,17.44005c-0.09545,2.10107 0.51441,3.1815 1.82961,3.24125c0.60947,0.02768 1.39352,-0.78047 2.35217,-2.42446c0.96666,-1.64364 1.76873,-3.64433 2.4062,-6.00204c0.00107,-0.90802 0.02946,-1.9755 0.08521,-3.20248c0.0561,-1.23499 0.28693,-4.98933 0.69245,-11.26307zM426.15936,86.41632c0.25208,-5.54942 1.28026,-9.87428 3.08455,-12.97455c1.80464,-3.10828 4.01012,-4.60325 6.61642,-4.48485c2.60631,0.1184 4.53902,1.53211 5.79814,4.24117c1.25912,2.70907 1.78322,6.3852 1.57229,11.02844l-5.71002,-0.87413c0.20911,-4.60316 -0.40408,-6.9373 -1.83956,-7.00252c-1.22697,-0.05573 -1.99911,3.40885 -2.3164,10.39375l-0.08087,1.78031c2.76012,-0.08355 5.00228,-0.08616 6.72646,-0.00784l-0.26065,5.73789c-2.83887,-0.12895 -5.06079,-0.12944 -6.66575,-0.00145c-0.28561,6.28722 -0.37818,13.2783 -0.27773,20.97328l-7.17209,-1.0611c-0.07124,-5.68466 -0.00473,-12.10236 0.19959,-19.25311c-1.07423,0.11997 -1.82259,0.2306 -2.24506,0.33196l-1.03521,-5.60387c0.41445,-0.10171 1.57545,-0.27398 3.48295,-0.5168zM443.83536,87.21928c0.25208,-5.54942 1.28027,-9.87427 3.08456,-12.97455c1.80464,-3.10828 4.01012,-4.60325 6.61642,-4.48485c2.60631,0.1184 4.53901,1.53211 5.79814,4.24117c1.25912,2.70907 1.78322,6.3852 1.57229,11.02844l-5.71002,-0.87414c0.20911,-4.60316 -0.40407,-6.9373 -1.83957,-7.00251c-1.22697,-0.05573 -1.9991,3.40885 -2.3164,10.39374l-0.08087,1.78031c2.76012,-0.08355 5.00227,-0.08616 6.72645,-0.00784l-0.26065,5.73789c-2.83887,-0.12895 -5.0608,-0.12944 -6.66576,-0.00145c-0.28561,6.28722 -0.37817,13.2783 -0.27771,20.97328l-7.1721,-1.0611c-0.07124,-5.68466 -0.00473,-12.10237 0.19958,-19.25311c-1.07423,0.11997 -1.82259,0.23061 -2.24505,0.33196l-1.03521,-5.60388c0.41445,-0.10171 1.57545,-0.27398 3.48295,-0.5168z" fill="none" fill-rule="nonzero" stroke="#000000" stroke-width="7.5" stroke-linecap="square"/><path d="M251.9433,94.17244l0.21531,-4.73947c-4.85644,-11.61558 -7.45951,-19.94256 -7.80921,-24.98091l7.66529,1.08349c0.69708,4.64431 2.33558,10.23541 4.91547,16.77332c3.74595,-7.27916 6.69744,-13.8752 8.85448,-19.78809l7.11415,1.01024c-3.43278,8.5229 -7.48563,17.16225 -12.1585,25.91811c-0.24814,3.6933 -0.43558,6.93532 -0.56235,9.72608c-0.12677,2.79075 -0.17445,5.6092 -0.14302,8.45534l-8.09235,-1.2355c-0.19549,-3.83397 -0.19524,-7.90821 0.00076,-12.22264zM274.95177,95.89264c-0.21091,4.64324 0.7101,7.01149 2.76307,7.10474c0.90619,0.04117 1.72323,-1.22758 2.4511,-3.80619c0.7359,-2.57825 1.15793,-5.05827 1.26612,-7.44003c0.23897,-5.26074 -0.50362,-7.93023 -2.2278,-8.00856c-1.10668,-0.05026 -2.06477,1.31649 -2.87429,4.10035c-0.8015,2.78419 -1.26091,5.46744 -1.3782,8.04969zM267.77149,95.01199c0.17341,-3.81724 1.12105,-7.51895 2.84293,-11.10511c0.90978,-1.80693 2.14108,-3.26176 3.6939,-4.36447c1.5528,-1.10271 3.25145,-1.61218 5.09593,-1.52839c1.84445,0.08379 3.41317,0.57693 4.70614,1.47944c1.30098,0.90288 2.26863,2.06786 2.90294,3.49492c1.23032,2.81222 1.77171,5.84226 1.62417,9.09011c-0.20328,4.47484 -1.29798,8.40691 -3.28415,11.79626c-1.97778,3.3817 -4.61064,4.99785 -7.8986,4.84849c-6.85658,-0.31146 -10.08433,-4.88188 -9.68326,-13.71124zM313.01599,79.79402l-0.56236,9.72608c-0.41566,9.15014 -0.5571,15.88988 -0.42427,20.21926l-6.0709,-0.89052c-0.04198,-1.72964 -0.22735,-3.48587 -0.55622,-5.26872c-2.41229,3.21731 -4.75719,4.77423 -7.03469,4.67076c-2.27753,-0.10345 -4.05858,-0.96385 -5.34318,-2.58119c-1.28424,-1.62534 -1.86389,-3.81336 -1.73893,-6.56401c0.24226,-5.3329 0.92026,-11.67862 2.03402,-19.03717l7.1147,0.99821c-1.0569,6.99149 -1.69063,12.80483 -1.9012,17.44005c-0.09545,2.10107 0.51442,3.18149 1.82962,3.24125c0.60947,0.02768 1.39352,-0.78047 2.35216,-2.42446c0.96666,-1.64364 1.76873,-3.64433 2.4062,-6.00204c0.00107,-0.90802 0.02946,-1.9755 0.08521,-3.20248c0.0561,-1.23499 0.28693,-4.98933 0.69244,-11.26307zM330.02849,87.23262c-1.72418,-0.07832 -3.11804,2.0361 -4.18158,6.34329c-0.05057,2.8826 -0.13561,5.63909 -0.2551,8.26945c-0.11912,2.62234 -0.33355,5.57387 -0.6433,8.85452l-7.11742,-0.93806c0.39461,-6.03314 0.60593,-9.35846 0.63397,-9.97596c0.34497,-7.59437 0.24002,-13.42121 -0.31489,-17.48043l4.59677,0.70303c0.23442,1.20801 0.51567,2.26947 0.84377,3.1844c2.2085,-4.21497 4.33922,-6.27585 6.39218,-6.18259c1.68408,0.07651 3.13013,0.8815 4.33819,2.41498l-1.86926,5.5925c-0.62917,-0.4786 -1.43694,-0.7403 -2.42332,-0.78511zM367.5572,84.24846c0.62874,-1.98845 0.97388,-3.66035 1.03544,-5.01561c0.06157,-1.35528 -0.26051,-2.49093 -0.96625,-3.40693c-0.69772,-0.91566 -1.632,-1.40006 -2.80282,-1.45325c-1.16282,-0.05282 -2.16321,0.4763 -3.00119,1.58736c-0.82998,1.11143 -1.27867,2.40895 -1.34606,3.89254c-0.13042,2.87095 1.40173,5.40757 4.59643,7.60991c3.18302,2.28217 5.34649,3.92335 6.49038,4.92355c1.1519,1.00059 1.9588,1.90108 2.42066,2.70157c1.13554,2.0686 1.65485,4.16948 1.55795,6.30265c-0.16793,3.69694 -1.54481,6.58763 -4.13065,8.67199c-2.57783,2.08476 -5.42649,3.05626 -8.54604,2.91455c-3.69694,-0.16793 -6.72558,-1.86852 -9.08593,-5.10173c-1.70964,-2.3438 -3.24578,-5.2342 -4.60846,-8.67121l6.09757,-2.61595c0.83445,2.50494 1.91859,4.64355 3.25242,6.41579c1.34222,1.76459 2.81525,2.6833 4.41911,2.75617c1.02648,0.04662 1.96365,-0.24028 2.8115,-0.86071c0.85587,-0.62007 1.31403,-1.59571 1.3745,-2.92693c0.06083,-1.33925 -0.39594,-2.60556 -1.37034,-3.79897c-0.97403,-1.20144 -2.29618,-2.43473 -3.96643,-3.69993c-1.66989,-1.27322 -2.96087,-2.30823 -3.87291,-3.10504c-0.91168,-0.80483 -1.91393,-1.82674 -3.0068,-3.06569c-2.06869,-2.40029 -3.02146,-5.39679 -2.85825,-8.98946c0.1632,-3.5927 1.5512,-6.55116 4.16397,-8.87539c2.61316,-2.33225 5.64391,-3.42006 9.09225,-3.26343c3.44833,0.15666 6.29071,1.62376 8.5271,4.4013c2.24477,2.76991 3.30323,5.56228 3.17537,8.37708c-0.12786,2.8148 -0.77063,5.20042 -1.92827,7.15681zM395.71241,86.69666l-0.26556,5.84614c-1.97277,-0.0896 -3.49336,-0.1386 -4.56176,-0.14695c-0.3068,4.10047 -0.68042,10.99844 -1.12085,20.69388l-7.23444,-1.01571c0.32641,-7.18538 0.68218,-13.6904 1.0673,-19.51504c-0.61749,-0.02805 -1.79307,0.02302 -3.52669,0.15322l-0.68472,-5.09375c0.98782,-0.16406 2.5396,-0.35876 4.65524,-0.58409c0.21825,-3.03571 0.5801,-7.46317 1.08553,-13.28234l7.30716,1.00696c-0.43331,4.05456 -0.79681,7.98769 -1.09049,11.79947c1.0283,0.00652 2.48474,0.05261 4.3693,0.13821zM419.25695,84.62014l-0.56236,9.72608c-0.41566,9.15014 -0.5571,15.88988 -0.42427,20.21926l-6.07088,-0.89052c-0.04198,-1.72964 -0.22737,-3.48588 -0.55622,-5.26873c-2.41229,3.21731 -4.75719,4.77424 -7.03469,4.67077c-2.27753,-0.10345 -4.05858,-0.96385 -5.34317,-2.58119c-1.28424,-1.62534 -1.86388,-3.81335 -1.73893,-6.56401c0.24226,-5.3329 0.92026,-11.67862 2.03402,-19.03717l7.1147,0.99821c-1.0569,6.99149 -1.69065,12.80483 -1.90121,17.44005c-0.09545,2.10107 0.51441,3.1815 1.82961,3.24125c0.60947,0.02768 1.39352,-0.78047 2.35217,-2.42446c0.96666,-1.64364 1.76873,-3.64433 2.4062,-6.00204c0.00107,-0.90802 0.02946,-1.9755 0.08521,-3.20248c0.0561,-1.23499 0.28693,-4.98933 0.69245,-11.26307zM426.15936,86.41632c0.25208,-5.54942 1.28026,-9.87428 3.08455,-12.97455c1.80464,-3.10828 4.01012,-4.60325 6.61642,-4.48485c2.60631,0.1184 4.53902,1.53211 5.79814,4.24117c1.25912,2.70907 1.78322,6.3852 1.57229,11.02844l-5.71002,-0.87413c0.20911,-4.60316 -0.40408,-6.9373 -1.83956,-7.00252c-1.22697,-0.05573 -1.99911,3.40885 -2.3164,10.39375l-0.08087,1.78031c2.76012,-0.08355 5.00228,-0.08616 6.72646,-0.00784l-0.26065,5.73789c-2.83887,-0.12895 -5.06079,-0.12944 -6.66575,-0.00145c-0.28561,6.28722 -0.37818,13.2783 -0.27773,20.97328l-7.17209,-1.0611c-0.07124,-5.68466 -0.00473,-12.10236 0.19959,-19.25311c-1.07423,0.11997 -1.82259,0.2306 -2.24506,0.33196l-1.03521,-5.60387c0.41445,-0.10171 1.57545,-0.27398 3.48295,-0.5168zM443.83536,87.21928c0.25208,-5.54942 1.28027,-9.87427 3.08456,-12.97455c1.80464,-3.10828 4.01012,-4.60325 6.61642,-4.48485c2.60631,0.1184 4.53901,1.53211 5.79814,4.24117c1.25912,2.70907 1.78322,6.3852 1.57229,11.02844l-5.71002,-0.87414c0.20911,-4.60316 -0.40407,-6.9373 -1.83957,-7.00251c-1.22697,-0.05573 -1.9991,3.40885 -2.3164,10.39374l-0.08087,1.78031c2.76012,-0.08355 5.00227,-0.08616 6.72645,-0.00784l-0.26065,5.73789c-2.83887,-0.12895 -5.0608,-0.12944 -6.66576,-0.00145c-0.28561,6.28722 -0.37817,13.2783 -0.27771,20.97328l-7.1721,-1.0611c-0.07124,-5.68466 -0.00473,-12.10237 0.19958,-19.25311c-1.07423,0.11997 -1.82259,0.23061 -2.24505,0.33196l-1.03521,-5.60388c0.41445,-0.10171 1.57545,-0.27398 3.48295,-0.5168z" fill="#ffffff" fill-rule="nonzero" stroke="none" stroke-width="1" stroke-linecap="square"/><path d="M139.74277,252.86309c-5.91305,0 -10.64524,0.12682 -14.19657,0.3805c-0.03498,0.48109 -0.08747,2.3661 -0.15743,5.65502c-0.06122,3.28016 -0.53795,4.92025 -0.53795,4.92025c0,0 8.3535,-1.31206 12.22848,-1.31206l1.86314,10.14227c-6.06175,0.15744 -10.65835,0.42861 -13.78982,0.81348c0,6.14922 0.10933,12.41653 0.32801,18.80192l-11.88733,-1.32518c-0.09622,-8.07358 -0.14432,-15.23311 -0.14432,-21.47855c0,-6.24543 0.38051,-14.81324 1.1415,-25.70339c8.46721,-1.29458 16.85132,-1.94187 25.15233,-1.94187zM155.95515,293.10419c-4.75843,0 -8.72525,-2.06432 -11.90045,-6.19296c-3.16646,-4.13739 -4.74968,-10.26036 -4.74968,-18.36894c0,-8.10858 1.70568,-14.79137 5.11706,-20.04839c3.41138,-5.257 7.53127,-7.88553 12.35967,-7.88553c4.83715,0 8.81273,2.08183 11.9267,6.24545c3.12273,4.16362 4.68408,10.26474 4.68408,18.30333c0,8.02985 -1.71881,14.69515 -5.15642,19.99591c-3.42886,5.30075 -7.52253,7.95113 -12.28096,7.95113zM156.88673,251.39357c-1.34705,0 -2.6635,1.54823 -3.94933,4.64471c-1.27707,3.09648 -1.91562,7.177 -1.91562,12.24159c0,5.06457 0.52921,8.6859 1.58759,10.86392c1.05841,2.16929 2.20427,3.25391 3.43762,3.25391c1.23335,0 2.4798,-1.56135 3.7394,-4.68407c1.25959,-3.12273 1.88938,-7.21638 1.88938,-12.28095c0,-5.06457 -0.50733,-8.66839 -1.52199,-10.81143c-1.01467,-2.15179 -2.10368,-3.22769 -3.26704,-3.22769zM176.1153,291.26729c0.6298,-11.59866 0.94469,-21.59663 0.94469,-29.99387c0,-8.40598 -0.02624,-14.22717 -0.07872,-17.46361c5.65063,-2.66787 11.24441,-4.00181 16.78132,-4.00181c4.31233,0 7.938,1.38642 10.87704,4.15926c2.94778,2.76408 4.42167,6.63468 4.42167,11.61179c0,5.78184 -3.52072,10.97325 -10.56215,15.57424c3.45511,4.32982 7.575,9.94547 12.35967,16.84695l-8.71213,6.42913c-3.34139,-5.03833 -7.84618,-11.29689 -13.5143,-18.77567c-0.08747,4.24235 -0.28427,9.88862 -0.59043,16.9388zM188.9342,264.85538c1.82815,-0.86596 3.80938,-2.35735 5.94367,-4.47415c2.14305,-2.1168 3.21455,-3.91871 3.21455,-5.40573c0,-1.48701 -0.41112,-2.61102 -1.23335,-3.37202c-0.81348,-0.76975 -1.98561,-1.15462 -3.51633,-1.15462c-1.53074,0 -2.98714,0.24491 -4.36918,0.73476c0,6.91898 -0.01313,11.47622 -0.03937,13.67175zM254.61673,252.86309c-5.91305,0 -10.64523,0.12682 -14.19656,0.3805c-0.03498,0.48109 -0.08747,2.3661 -0.15745,5.65502c-0.06123,3.28016 -0.53795,4.92025 -0.53795,4.92025c0,0 8.35349,-1.31206 12.22847,-1.31206l1.86314,10.14227c-6.06175,0.15744 -10.65835,0.42861 -13.78982,0.81348c0,6.14922 0.10934,12.41653 0.32802,18.80192l-11.88732,-1.32518c-0.09622,-8.07358 -0.14432,-15.23311 -0.14432,-21.47855c0,-6.24543 0.3805,-14.81324 1.14149,-25.70339c8.46722,-1.29458 16.85132,-1.94187 25.15232,-1.94187zM255.98967,291.26729c0.6298,-11.59866 0.9447,-21.59663 0.9447,-29.99387c0,-8.40598 -0.02625,-14.22717 -0.07873,-17.46361c5.65064,-2.66787 11.2444,-4.00181 16.78134,-4.00181c4.31234,0 7.93801,1.38642 10.87704,4.15926c2.94778,2.76408 4.42166,6.63468 4.42166,11.61179c0,5.78184 -3.52071,10.97325 -10.56214,15.57424c3.45511,4.32982 7.575,9.94547 12.35967,16.84695l-8.71213,6.42913c-3.34139,-5.03833 -7.84616,-11.29689 -13.51429,-18.77567c-0.08747,4.24235 -0.28427,9.88862 -0.59043,16.9388zM268.80857,264.85538c1.82815,-0.86596 3.80937,-2.35735 5.94367,-4.47415c2.14305,-2.1168 3.21456,-3.91871 3.21456,-5.40573c0,-1.48701 -0.41111,-2.61102 -1.23336,-3.37202c-0.81348,-0.76975 -1.9856,-1.15462 -3.51633,-1.15462c-1.53074,0 -2.98714,0.24491 -4.36919,0.73476c0,6.91898 -0.01311,11.47622 -0.03936,13.67175zM292.22891,290.9655c-0.19244,-7.90739 -0.28865,-15.02756 -0.28865,-21.36046c0,-6.34166 0.3805,-14.95756 1.1415,-25.84772c8.46722,-1.29458 16.85133,-1.94186 25.15233,-1.94186v11.04761c-5.95679,0 -10.67585,0.12682 -14.15721,0.3805c-0.1487,4.17237 -0.23617,7.05455 -0.26242,8.64652c2.37922,-0.34987 6.32416,-0.57731 11.83485,-0.68228l1.7713,10.16852c-4.04991,0.06122 -8.64215,0.35862 -13.77671,0.8922c0,4.53976 0.01312,7.49628 0.03936,8.86958c2.86906,-0.22744 7.46128,-0.94469 13.77671,-2.15178l1.52199,9.85362c-4.63596,2.12554 -9.67431,3.18833 -15.115,3.18833zM322.25738,290.9655c-0.19244,-7.90739 -0.28865,-15.02756 -0.28865,-21.36046c0,-6.34166 0.3805,-14.95756 1.1415,-25.84772c8.46722,-1.29458 16.85132,-1.94186 25.15233,-1.94186v11.04761c-5.95679,0 -10.67586,0.12682 -14.15721,0.3805c-0.1487,4.17237 -0.23616,7.05455 -0.26241,8.64652c2.37921,-0.34987 6.32416,-0.57731 11.83483,-0.68228l1.7713,10.16852c-4.04991,0.06122 -8.64214,0.35862 -13.77671,0.8922c0,4.53976 0.01311,7.49628 0.03936,8.86958c2.86906,-0.22744 7.46128,-0.94469 13.77671,-2.15178l1.52199,9.85362c-4.63596,2.12554 -9.67431,3.18833 -15.115,3.18833zM353.67665,277.5037c-0.90095,-7.4438 -1.35143,-13.93852 -1.35143,-19.4842c0,-5.54566 0.49422,-11.9923 1.48264,-19.33986l12.71393,2.44045c-2.46668,9.55185 -4.1024,22.01649 -4.90713,37.39392zM361.3129,281.71538c0.83972,1.53074 1.25957,2.65915 1.25957,5.11709c0,2.44919 -0.54232,4.06742 -1.62696,6.58659l-8.83025,-2.04682c0.67353,-2.49293 1.01029,-3.73942 1.01029,-5.47134c0,-1.74068 -0.07872,-2.91281 -0.23617,-5.24829z" fill="none" fill-rule="nonzero" stroke="#000000" stroke-width="8.5" stroke-linecap="square"/><path d="M139.74277,241.81548v11.04761c-5.91305,0 -10.64524,0.12682 -14.19657,0.3805c-0.03498,0.48109 -0.08747,2.3661 -0.15743,5.65502c-0.06122,3.28016 -0.24056,4.92025 -0.53795,4.92025c4.27734,-0.87471 6.62161,-1.31206 10.49658,-1.31206l-0.44604,10.14227c-6.06175,0.15744 -6.61728,0.42861 -9.74875,0.81348c0,6.14922 0.10933,12.41653 0.32801,18.80192l-11.88733,-1.32518c-0.09622,-8.07358 -0.14432,-15.23311 -0.14432,-21.47855c0,-6.24543 0.38051,-14.81324 1.1415,-25.70339c8.46721,-1.29458 16.85132,-1.94187 25.15233,-1.94187zM155.95515,293.10419c-4.75843,0 -8.72525,-2.06432 -11.90045,-6.19296c-3.16646,-4.13739 -4.74968,-10.26036 -4.74968,-18.36894c0,-8.10858 1.70568,-14.79137 5.11706,-20.04839c3.41138,-5.257 7.53127,-7.88553 12.35967,-7.88553c4.83715,0 8.81273,2.08183 11.9267,6.24545c3.12273,4.16362 4.68408,10.26474 4.68408,18.30333c0,8.02985 -1.71881,14.69515 -5.15642,19.99591c-3.42886,5.30075 -7.52253,7.95113 -12.28096,7.95113zM156.88673,251.39357c-1.34705,0 -2.6635,1.54823 -3.94933,4.64471c-1.27707,3.09648 -1.91562,7.177 -1.91562,12.24159c0,5.06457 0.52921,8.6859 1.58759,10.86392c1.05841,2.16929 2.20427,3.25391 3.43762,3.25391c1.23335,0 2.4798,-1.56135 3.7394,-4.68407c1.25959,-3.12273 1.88938,-7.21638 1.88938,-12.28095c0,-5.06457 -0.50733,-8.66839 -1.52199,-10.81143c-1.01467,-2.15179 -2.10368,-3.22769 -3.26704,-3.22769zM176.11529,291.26729c0.6298,-11.59866 0.94469,-21.59663 0.94469,-29.99387c0,-8.40598 -0.02625,-14.22717 -0.07873,-17.46361c5.65063,-2.66787 11.24442,-4.00181 16.78133,-4.00181c4.31233,0 7.938,1.38642 10.87703,4.15926c2.94778,2.76408 4.42166,6.63468 4.42166,11.61179c0,5.78184 -3.52071,10.97325 -10.56214,15.57424c3.45511,4.32982 7.575,9.94547 12.35967,16.84695l-8.71213,6.42913c-3.34139,-5.03833 -7.84618,-11.29689 -13.5143,-18.77567c-0.08747,4.24235 -0.28427,9.88862 -0.59042,16.9388zM188.93419,264.85538c1.82815,-0.86596 3.80938,-2.35735 5.94367,-4.47415c2.14305,-2.1168 3.21455,-3.91871 3.21455,-5.40573c0,-1.48701 -0.41112,-2.61102 -1.23335,-3.37202c-0.81348,-0.76975 -1.98561,-1.15462 -3.51633,-1.15462c-1.53074,0 -2.98714,0.24491 -4.36918,0.73476c0,6.91898 -0.01313,11.47622 -0.03938,13.67175zM254.61673,241.81548v11.04761c-5.91305,0 -10.64523,0.12682 -14.19656,0.3805c-0.03498,0.48109 -0.08747,2.3661 -0.15745,5.65502c-0.06123,3.28016 -0.24056,4.92025 -0.53795,4.92025c4.27734,-0.87471 8.35349,-1.31206 12.22847,-1.31206l-1.02334,10.14227c-6.06175,0.15744 -7.77187,0.42861 -10.90333,0.81348c0,6.14922 0.10934,12.41653 0.32802,18.80192l-11.88732,-1.32518c-0.09622,-8.07358 -0.14432,-15.23311 -0.14432,-21.47855c0,-6.24543 0.3805,-14.81324 1.14149,-25.70339c8.46722,-1.29458 16.85132,-1.94187 25.15232,-1.94187zM255.98966,291.26729c0.6298,-11.59866 0.94469,-21.59663 0.94469,-29.99387c0,-8.40598 -0.02624,-14.22717 -0.07872,-17.46361c5.65064,-2.66787 11.24441,-4.00181 16.78135,-4.00181c4.31234,0 7.938,1.38642 10.87704,4.15926c2.94778,2.76408 4.42166,6.63468 4.42166,11.61179c0,5.78184 -3.52072,10.97325 -10.56215,15.57424c3.45511,4.32982 7.575,9.94547 12.35967,16.84695l-8.71213,6.42913c-3.34139,-5.03833 -7.84616,-11.29689 -13.5143,-18.77567c-0.08747,4.24235 -0.28427,9.88862 -0.59042,16.9388zM268.80856,264.85538c1.82815,-0.86596 3.80937,-2.35735 5.94367,-4.47415c2.14305,-2.1168 3.21455,-3.91871 3.21455,-5.40573c0,-1.48701 -0.41111,-2.61102 -1.23335,-3.37202c-0.81348,-0.76975 -1.9856,-1.15462 -3.51633,-1.15462c-1.53074,0 -2.98714,0.24491 -4.36919,0.73476c0,6.91898 -0.01311,11.47622 -0.03936,13.67175zM292.22891,290.9655c-0.19244,-7.90739 -0.28865,-15.02756 -0.28865,-21.36046c0,-6.34166 0.3805,-14.95756 1.1415,-25.84772c8.46722,-1.29458 16.85133,-1.94186 25.15233,-1.94186v11.04761c-5.95679,0 -10.67585,0.12682 -14.15721,0.3805c-0.1487,4.17237 -0.23617,7.05455 -0.26242,8.64652c2.37922,-0.34987 6.32416,-0.57731 11.83485,-0.68228l1.7713,10.16852c-4.04991,0.06122 -8.64215,0.35862 -13.77671,0.8922c0,4.53976 0.01312,7.49628 0.03936,8.86958c2.86906,-0.22744 7.46128,-0.94469 13.77671,-2.15178l1.52199,9.85362c-4.63596,2.12554 -9.67431,3.18833 -15.115,3.18833zM322.25738,290.9655c-0.19244,-7.90739 -0.28865,-15.02756 -0.28865,-21.36046c0,-6.34166 0.3805,-14.95756 1.1415,-25.84772c8.46722,-1.29458 16.85132,-1.94186 25.15233,-1.94186v11.04761c-5.95679,0 -10.67586,0.12682 -14.15721,0.3805c-0.1487,4.17237 -0.23616,7.05455 -0.26241,8.64652c2.37921,-0.34987 6.32416,-0.57731 11.83483,-0.68228l1.7713,10.16852c-4.04991,0.06122 -8.64214,0.35862 -13.77671,0.8922c0,4.53976 0.01311,7.49628 0.03936,8.86958c2.86906,-0.22744 7.46128,-0.94469 13.77671,-2.15178l1.52199,9.85362c-4.63596,2.12554 -9.67431,3.18833 -15.115,3.18833zM353.67665,277.5037c-0.90095,-7.4438 -1.35143,-13.93852 -1.35143,-19.4842c0,-5.54566 0.49422,-11.9923 1.48264,-19.33986l12.71393,2.44045c-2.46668,9.55185 -4.1024,22.01649 -4.90713,37.39392zM361.3129,281.71538c0.83972,1.53074 1.25957,2.65915 1.25957,5.11709c0,2.44919 -0.54232,4.06742 -1.62696,6.58659l-8.83025,-2.04682c0.67353,-2.49293 1.01029,-3.73942 1.01029,-5.47134c0,-1.74068 -0.07872,-2.91281 -0.23617,-5.24829z" fill="url(#color-2)" fill-rule="nonzero" stroke="none" stroke-width="1" stroke-linecap="square"/><path d="M204.0439,209.89704c-16.78782,-21.62969 -12.86273,-52.77325 8.76698,-69.56108c21.62969,-16.78783 52.77328,-12.86273 69.5611,8.76698c16.78782,21.62971 12.86274,52.77328 -8.76698,69.5611c-21.6297,16.78783 -52.77328,12.86272 -69.5611,-8.767z" fill="#000000" fill-rule="nonzero" stroke="none" stroke-width="0" stroke-linecap="butt"/><path d="M212.04121,210.66674c-17.21293,-17.21293 -17.21293,-45.12059 0,-62.3335c17.21293,-17.21293 45.12059,-17.21293 62.3335,0c17.21293,17.21293 17.21293,45.12059 0,62.3335c-17.21293,17.21293 -45.12059,17.21293 -62.3335,0z" fill="url(#color-3)" fill-rule="nonzero" stroke="none" stroke-width="0" stroke-linecap="butt"/><path d="M215.68409,207.02389c-15.20102,-15.20102 -15.20102,-39.84675 0,-55.04777c15.20102,-15.20102 39.84675,-15.20102 55.04777,0c15.20102,15.20102 15.20102,39.84676 0,55.04778c-15.20102,15.20102 -39.84675,15.20102 -55.04777,0z" fill="url(#color-4)" fill-rule="nonzero" stroke="none" stroke-width="0" stroke-linecap="butt"/><path d="M253.52057,178.04062l-7.99344,-6.5016l16.58832,-14.5754c0,0 1.54048,-1.6252 2.64457,-1.15283c1.78235,0.76255 0.98721,2.61286 0.98721,2.61286z" data-paper-data="{&quot;index&quot;:null}" fill="#ffffff" fill-rule="nonzero" stroke="none" stroke-width="1" stroke-linecap="butt"/><path d="M219.02752,194.7855c0.5542,-0.55679 1.18005,-1.03503 1.7705,-1.55296c1.8715,-1.64187 3.74299,-3.28288 5.61449,-4.92475c1.31298,-1.1518 5.59029,-4.90368 5.59029,-4.90368l9.1098,14.51588c0,0 -0.03542,0.1049 -0.2806,0.49886c-0.52226,0.83907 -0.85289,1.71612 -1.61253,2.40152c-1.6652,1.50203 -4.01836,2.18053 -6.18077,2.54568c-2.83314,0.47908 -5.80871,0.45838 -8.63148,-0.08719c-2.07695,-0.4014 -4.34985,-1.11184 -5.89504,-2.63373c-0.55075,-0.54211 -0.99445,-1.21372 -1.14378,-1.982c-0.09064,-0.46702 -0.06992,-0.95215 0.06216,-1.4088c0.15193,-0.52917 0.71821,-1.58662 1.59698,-2.46885zM229.09898,194.62503c-5.03193,0 -9.11109,1.56246 -9.11109,3.48982c0,1.92738 4.07917,3.48984 9.11109,3.48984c5.03193,0 9.1111,-1.56246 9.1111,-3.48984c0,-1.92738 -4.07917,-3.48982 -9.1111,-3.48982z" fill="#ffffff" fill-rule="nonzero" stroke="none" stroke-width="0.5" stroke-linecap="butt"/><path d="M265.42599,193.06214l1.69515,1.48716c0.61541,0.53945 1.10566,1.19973 1.51736,1.90749c0.00173,0.00346 0.00432,0.00691 0.00604,0.01122c0.28656,0.48853 0.4583,1.04264 0.4583,1.61145c0,3.73729 -5.56884,5.13986 -8.37743,5.40312c-4.23187,0.39617 -9.28972,0.30123 -12.79917,-2.09564c-1.1514,-0.7863 -1.63733,-1.8419 -2.33214,-2.95704c-0.62317,-1.00036 -1.24635,-2.00158 -1.86866,-3.00191c-5.37722,-8.63549 -10.75446,-17.27097 -16.1308,-25.90648c-2.48666,-3.99451 -4.97414,-7.98816 -7.4608,-11.98265c-0.71034,-1.14017 1.33352,-3.03732 2.63943,-1.89196c3.31265,2.90526 6.62443,5.81137 9.93708,8.71663c8.26435,7.24932 16.52957,14.49953 24.79394,21.74885c2.64027,2.31661 5.28055,4.63322 7.92169,6.94983zM257.44509,194.62503c-5.03193,0 -9.1111,1.56246 -9.1111,3.48982c0,1.92738 4.07918,3.48984 9.1111,3.48984c5.03193,0 9.11109,-1.56246 9.11109,-3.48984c0,-1.92738 -4.07916,-3.48982 -9.11109,-3.48982z" data-paper-data="{&quot;index&quot;:null}" fill="#ffffff" fill-rule="nonzero" stroke="none" stroke-width="1" stroke-linecap="butt"/><path d="M378.43992,182.19115l-18.97523,9.63191c-1.21571,0.6171 -2.7015,0.13182 -3.31862,-1.08389c-0.19444,-0.38308 -0.28557,-0.81026 -0.26433,-1.23935l1.04339,-21.08978c0.06737,-1.36171 1.22586,-2.41098 2.58756,-2.3436c0.42907,0.02122 0.84519,0.15407 1.2072,0.38539l17.93185,11.45785c1.14887,0.73408 0.18123,4.08196 -0.21182,4.28147z" fill="none" fill-rule="evenodd" stroke="#000000" stroke-width="7.5" stroke-linecap="butt"/><path d="M379.40277,181.31908c-0.23734,0.37144 -0.5698,0.67256 -0.96285,0.87207l-18.97523,9.63191c-1.21571,0.6171 -2.7015,0.13182 -3.31862,-1.08389c-0.19444,-0.38308 -0.28557,-0.81026 -0.26433,-1.23935l1.04339,-21.08978c0.06737,-1.36171 1.22586,-2.41098 2.58756,-2.3436c0.42907,0.02122 0.84519,0.15407 1.2072,0.38539l17.93185,11.45785c1.14887,0.73408 1.48511,2.26054 0.75103,3.4094z" fill="#ffffff" fill-rule="evenodd" stroke="none" stroke-width="1" stroke-linecap="butt"/><path d="M410.78832,208.59982c-0.24489,4.95 -4.45617,8.76422 -9.40616,8.51932l-70.11973,-3.46908c-4.95,-0.2449 -8.76422,-4.45618 -8.51932,-9.40617l2.66054,-53.77645c0.24489,-4.95 4.45617,-8.76422 9.40615,-8.51932l70.11973,3.46909c4.95,0.2449 8.76422,4.45618 8.51932,9.40617zM404.48611,154.37994l-70.11973,-3.46909l-2.66052,53.77645l70.11972,3.46909z" fill="none" fill-rule="nonzero" stroke="#000000" stroke-width="7.5" stroke-linecap="butt"/><path d="M413.44886,154.82337l-2.66054,53.77645c-0.24489,4.95 -4.45617,8.76422 -9.40616,8.51932l-70.11973,-3.46908c-4.95,-0.2449 -8.76422,-4.45618 -8.51932,-9.40617l2.66054,-53.77645c0.24489,-4.95 4.45617,-8.76422 9.40615,-8.51932l70.11973,3.46909c4.95,0.2449 8.76422,4.45618 8.51932,9.40617zM404.48611,154.37994l-70.11973,-3.46909l-2.66052,53.77645l70.11972,3.46909z" fill="#ffffff" fill-rule="nonzero" stroke="none" stroke-width="1" stroke-linecap="butt"/><g fill-rule="nonzero" stroke-linecap="butt"><path d="M100.10103,151.98546c0,0 -0.00757,-0.26812 0.37108,-0.30329c2.27878,-0.21167 23.9898,-2.22826 23.9898,-2.22826c5.32208,-6.71058 14.18175,-9.52386 22.40009,-7.11237c8.21833,2.4115 14.15392,9.56579 15.00621,18.08812c3.21228,12.72224 5.50172,25.66006 6.85039,38.71209c0.72531,7.80876 -2.03693,13.10954 -8.08316,14.94044c-1.13528,0.34474 -2.30295,0.57358 -3.48446,0.68193c-5.69516,0.65043 -11.11477,-2.61325 -13.20352,-7.95135c-1.59113,-3.46481 -4.30524,-8.16046 -5.96549,-10.96793c-6.98788,3.9762 -15.87255,0.69857 -18.60295,-6.86355l-7.29246,0.67735c-1.28553,7.95516 -9.44125,12.82128 -17.05287,10.17539c-1.11177,3.09749 -2.91542,8.21274 -3.84417,11.87908c-1.06788,5.61942 -5.77661,9.82081 -11.48089,10.24413c-1.17073,0.10754 -2.34875,0.09677 -3.51738,-0.03157c-6.30328,-0.58617 -10.00355,-5.38432 -10.72886,-13.19309c-1.07828,-13.07713 -1.21163,-26.21522 -0.39751,-39.31144c-0.73192,-8.53349 3.78445,-16.6586 11.41804,-20.54248c2.3855,-1.21372 4.92605,-1.9374 7.4898,-2.18759c5.64027,-0.55033 11.39099,1.19195 15.83704,5.05265z" fill="none" stroke="#000000" stroke-width="8"/><path d="M99.80977,151.72337l24.65213,-2.28977c5.32208,-6.71058 14.18177,-9.52384 22.40009,-7.11235c8.21833,2.4115 14.1539,9.56579 15.00621,18.08812c3.21228,12.72224 5.50172,25.66006 6.85038,38.71209c0.72531,7.80876 -2.03691,13.10953 -8.08315,14.94043c-1.13528,0.34474 -2.30295,0.57358 -3.48446,0.68194c-5.69516,0.65043 -11.11478,-2.61325 -13.20353,-7.95135c-1.59113,-3.46481 -4.30523,-8.16046 -5.96549,-10.96793c-6.98788,3.9762 -15.87254,0.69855 -18.60294,-6.86356l-7.29246,0.67735c-1.28553,7.95516 -9.44124,12.82129 -17.05287,10.17539c-1.11177,3.09749 -2.91542,8.21275 -3.84417,11.87908c-1.06788,5.61942 -5.7766,9.82081 -11.4809,10.24411c-1.17073,0.10754 -2.34875,0.09677 -3.51738,-0.03157c-6.30328,-0.58617 -10.00355,-5.38433 -10.72886,-13.19311c-1.07828,-13.07713 -1.21163,-26.21522 -0.39751,-39.31145c-0.73192,-8.53349 3.78445,-16.65859 11.41803,-20.54248c2.3855,-1.21372 4.92605,-1.93739 7.48982,-2.18758c5.64027,-0.55033 11.39099,1.19193 15.83704,5.05263z" fill="#ffffff" stroke="none" stroke-width="9.34454"/><path d="M136.50366,149.28795c0.97543,-1.01789 2.3447,-1.56215 3.75274,-1.49166c2.54638,0.12842 4.56085,2.20242 4.61505,4.75146c0.05424,2.54905 -1.87025,4.70681 -4.40886,4.94336c-2.67292,0.24812 -5.04098,-1.71741 -5.2894,-4.39031c-0.1304,-1.40375 0.35505,-2.79497 1.33048,-3.81285zM80.16804,156.58293l9.68049,-0.89917l0.59937,6.45288l6.45367,-0.59942l0.89916,9.68049l-6.45368,0.59944l0.59944,6.45367l-9.6805,0.89916l-0.59943,-6.45367l-6.45367,0.59942l-0.89916,-9.68049l6.45367,-0.59944zM141.62607,152.50221c-0.08254,-0.89106 -0.87178,-1.54649 -1.76284,-1.46397c-0.42792,0.03965 -0.82256,0.24764 -1.09712,0.57825c-0.27457,0.33061 -0.40654,0.75674 -0.36688,1.18466c0.08257,0.89106 0.87183,1.54647 1.76289,1.46393c0.89106,-0.08256 1.54648,-0.87181 1.46395,-1.76287zM83.69452,159.50927l0.59945,6.45365l-6.45367,0.59945l0.29972,3.22684l6.45366,-0.59945l0.59944,6.45367l3.22683,-0.29972l-0.59944,-6.45367l6.45367,-0.59944l-0.29972,-3.22684l-6.45367,0.59944l-0.59943,-6.45367zM127.72254,159.86722c0.9756,-1.01792 2.34513,-1.56209 3.7533,-1.49137c2.54653,0.12844 4.56101,2.20266 4.61501,4.75185c0.054,2.54919 -1.87083,4.70688 -4.40963,4.94304c-2.67292,0.24811 -5.04097,-1.71741 -5.28939,-4.39031c-0.13044,-1.40391 0.3551,-2.7953 1.3307,-3.81323zM147.08276,158.06899c0.9756,-1.01792 2.34512,-1.5621 3.7533,-1.49137c2.54637,0.12842 4.5608,2.20242 4.61502,4.75145c0.05422,2.54901 -1.87023,4.7068 -4.40883,4.94337c-1.28371,0.11936 -2.56225,-0.27613 -3.55436,-1.09946c-0.99211,-0.82334 -1.61651,-2.00707 -1.73583,-3.29078c-0.13044,-1.40391 0.35512,-2.79528 1.33073,-3.81322zM132.84536,163.08018c-0.08297,-0.89102 -0.87255,-1.54608 -1.76356,-1.46311c-0.42791,0.03985 -0.82245,0.24805 -1.09683,0.5788c-0.27439,0.33075 -0.40615,0.75695 -0.36629,1.18484c0.083,0.89101 0.8726,1.54605 1.76362,1.46306c0.89101,-0.083 1.54605,-0.87257 1.46308,-1.76361zM150.4428,159.81878c-0.42805,0.03965 -0.82282,0.24775 -1.09737,0.57854c-0.27457,0.33079 -0.40642,0.75713 -0.36655,1.18516c0.083,0.89092 0.87242,1.54592 1.76335,1.46308c0.89093,-0.08284 1.54608,-0.87214 1.46341,-1.76308c-0.08268,-0.89094 -0.87187,-1.54624 -1.76283,-1.46373zM138.30226,168.64866c0.9754,-1.01771 2.34459,-1.56186 3.75248,-1.49138c2.54637,0.12844 4.56079,2.20243 4.615,4.75144c0.05422,2.54901 -1.87024,4.70678 -4.40882,4.94336c-1.28373,0.11918 -2.56221,-0.27652 -3.55418,-1.10002c-0.99199,-0.82349 -1.61617,-2.00734 -1.73529,-3.29108c-0.13014,-1.40364 0.35541,-2.79465 1.33083,-3.81235zM143.42431,171.86239c-0.08254,-0.89106 -0.87179,-1.54651 -1.76286,-1.46397c-0.42792,0.03965 -0.82255,0.24765 -1.0971,0.57826c-0.27457,0.33061 -0.40652,0.75673 -0.36688,1.18465c0.08257,0.89106 0.87182,1.54648 1.76288,1.46393c0.89106,-0.08256 1.54648,-0.87181 1.46395,-1.76287zM93.10715,185.43543c0.77511,-2.50428 2.98244,-4.29506 5.59273,-4.53725c3.56403,-0.33068 6.72136,2.29031 7.05232,5.8543c0.2424,2.61026 -1.11149,5.10952 -3.43031,6.3323c-2.31883,1.2228 -5.14593,0.92835 -7.163,-0.74606c-2.01708,-1.67441 -2.82686,-4.399 -2.05175,-6.90329zM125.11344,184.95405c-0.33107,-3.56414 2.28984,-6.72186 5.85397,-7.05298c1.71163,-0.15901 3.41629,0.36845 4.73901,1.46632c1.32273,1.09788 2.15511,2.67628 2.31406,4.38791c0.33097,3.56416 -2.29,6.7218 -5.85416,7.05282c-3.56416,0.33102 -6.72183,-2.28991 -7.0529,-5.85405zM101.28278,184.78854c-0.7102,-0.54966 -1.61662,-0.77994 -2.50306,-0.63596c-1.72828,0.27576 -2.92538,1.87394 -2.70403,3.61003c0.22136,1.73609 1.78116,2.98278 3.52334,2.81606c0.85581,-0.07948 1.645,-0.49568 2.19396,-1.15704c0.54894,-0.66136 0.81266,-1.5137 0.73315,-2.36952c-0.08291,-0.89422 -0.53316,-1.71393 -1.24336,-2.26357zM133.5503,181.79143c-0.7102,-0.54966 -1.61663,-0.77994 -2.50306,-0.63596c-1.72828,0.27575 -2.92538,1.87395 -2.70403,3.61004c0.22135,1.73609 1.78116,2.98278 3.52334,2.81606c0.85581,-0.07948 1.645,-0.49568 2.19395,-1.15704c0.54894,-0.66136 0.81266,-1.5137 0.73315,-2.36952c-0.08292,-0.89422 -0.53316,-1.71393 -1.24336,-2.26359z" fill="#000000" stroke="none" stroke-width="9.34454"/><path d="M152.22805,161.2804c0.08268,0.89094 -0.59281,1.70476 -1.48373,1.7876c-0.89093,0.08283 -1.70486,-0.5925 -1.78785,-1.48342c-0.03987,-0.42803 0.09707,-0.87085 0.37163,-1.20164c0.27457,-0.33079 0.68456,-0.54694 1.11262,-0.5866c0.89096,-0.08251 1.70465,0.59311 1.78734,1.48405z" data-paper-data="{&quot;noHover&quot;:false,&quot;origItem&quot;:[&quot;Path&quot;,{&quot;applyMatrix&quot;:true,&quot;segments&quot;:[[[357.74897,136.43652],[1.98674,0.00053],[-0.95452,-0.00025]],[[355.20399,137.49029],[0.67495,-0.67495],[-0.67494,0.67496]],[[354.15023,140.03527],[-0.00025,-0.95452],[0.00054,1.98675]],[[357.74833,143.63209],[-1.98675,0.00017],[1.98676,-0.00018]],[[361.34579,140.03463],[-0.00017,1.98674],[0.00018,-1.98675]]],&quot;closed&quot;:true,&quot;fillColor&quot;:[1,1,1],&quot;strokeWidth&quot;:9.34454}]}" fill="#ffffff" stroke="#ffffff" stroke-width="1.5"/><path d="M141.64849,152.50013c0.08254,0.89106 -0.59322,1.70482 -1.48428,1.78737c-0.89106,0.08256 -1.70482,-0.59321 -1.78739,-1.48427c-0.03966,-0.42792 0.09742,-0.87051 0.37197,-1.20112c0.27455,-0.33061 0.68444,-0.54665 1.11236,-0.58629c0.89108,-0.08253 1.70481,0.59325 1.78735,1.48432z" data-paper-data="{&quot;noHover&quot;:false,&quot;origItem&quot;:[&quot;Path&quot;,{&quot;applyMatrix&quot;:true,&quot;segments&quot;:[[[339.75865,118.44983],[0,0],[0.00049,-1.98698]],[[336.16182,114.85115],[1.98699,0.00054],[-0.95421,-0.00025]],[[333.61748,115.90429],[0.6749,-0.67457],[-0.67491,0.67456]],[[332.56309,118.44812],[0.00021,-0.95421],[-0.00045,1.98698]],[[336.16001,122.04671],[-1.98699,-0.00047],[1.98698,0.00047]],[[339.75864,118.44983],[-0.00051,1.98698],[0,0]]],&quot;closed&quot;:true,&quot;fillColor&quot;:[1,1,1],&quot;strokeWidth&quot;:9.34454}]}" fill="#ffffff" stroke="#ffffff" stroke-width="1.5"/><path d="M132.86778,163.07809c0.08297,0.89102 -0.59241,1.70511 -1.48341,1.78809c-0.89102,0.083 -1.70511,-0.59239 -1.78811,-1.4834c-0.03986,-0.42791 0.09699,-0.87057 0.37138,-1.20131c0.27439,-0.33075 0.68416,-0.547 1.11207,-0.58683c0.89102,-0.08297 1.7051,0.59242 1.78808,1.48344z" data-paper-data="{&quot;noHover&quot;:false,&quot;origItem&quot;:[&quot;Path&quot;,{&quot;applyMatrix&quot;:true,&quot;segments&quot;:[[[318.17325,140.0334],[0,0],[-0.00048,-1.98699]],[[314.57466,136.43648],[1.98699,-0.00045],[-0.95421,0.00021]],[[312.03083,137.49088],[0.67457,-0.6749],[-0.67457,0.6749]],[[310.9777,140.03523],[-0.00025,-0.95421],[0.00054,1.98698]],[[314.5764,143.63205],[-1.98699,0.00051],[1.98698,-0.00051]],[[318.17326,140.0334],[0.00048,1.98699],[0,0]]],&quot;closed&quot;:true,&quot;fillColor&quot;:[1,1,1],&quot;strokeWidth&quot;:9.34454}]}" fill="#ffffff" stroke="#ffffff" stroke-width="1.5"/><path d="M143.44673,171.86029c0.08254,0.89106 -0.59324,1.7048 -1.4843,1.78736c-0.89106,0.08256 -1.70482,-0.5932 -1.78738,-1.48426c-0.03966,-0.42792 0.09742,-0.87052 0.37197,-1.20113c0.27455,-0.33061 0.68444,-0.54666 1.11236,-0.58629c0.89108,-0.08253 1.70481,0.59325 1.78735,1.48432z" data-paper-data="{&quot;noHover&quot;:false,&quot;origItem&quot;:[&quot;Path&quot;,{&quot;applyMatrix&quot;:true,&quot;segments&quot;:[[[339.75865,161.62233],[0,0],[0.00049,-1.98699]],[[336.16182,158.02363],[1.98699,0.00053],[-0.95421,-0.00026]],[[333.61748,159.07678],[0.6749,-0.67456],[-0.67491,0.67455]],[[332.56309,161.6206],[0.00021,-0.95421],[-0.00045,1.98698]],[[336.16001,165.21919],[-1.98699,-0.00048],[1.98698,0.00047]],[[339.75864,161.62231],[-0.00051,1.98699],[0,0]]],&quot;closed&quot;:true,&quot;fillColor&quot;:[1,1,1],&quot;strokeWidth&quot;:9.34454}]}" fill="#ffffff" stroke="#ffffff" stroke-width="1.5"/><path d="M133.5641,181.77363c0.7102,0.54966 1.16907,1.38507 1.25199,2.27929c0.07951,0.85582 -0.1893,1.7246 -0.73825,2.38596c-0.54894,0.66136 -1.35335,1.08561 -2.20917,1.16508c-1.74218,0.16672 -3.32645,-1.09954 -3.5478,-2.83563c-0.22135,-1.73609 0.9945,-3.35936 2.72278,-3.63512c0.88643,-0.14399 1.81024,0.09074 2.52042,0.6404z" data-paper-data="{&quot;noHover&quot;:false,&quot;origItem&quot;:[&quot;Path&quot;,{&quot;applyMatrix&quot;:true,&quot;segments&quot;:[[[315.88931,181.54666],[0,0],[-1.45728,-1.36107]],[[310.48593,179.62662],[1.98937,-0.13633],[-3.87765,0.25476]],[[303.7663,187.05271],[-0.13287,-3.88375],[0.13287,3.88375]],[[310.97772,194.00223],[-3.88601,0.01083],[1.90844,0.00004]],[[316.06591,191.8947],[-1.34946,1.34946],[1.34946,-1.34947]],[[318.17342,186.8065],[0.00004,1.90845],[0.00032,-1.99402]],[[315.88931,181.54665],[1.45729,1.36106],[0,0]]],&quot;closed&quot;:true,&quot;fillColor&quot;:[1,1,1],&quot;strokeWidth&quot;:9.34454}]}" fill="#ffffff" stroke="none" stroke-width="4.67227"/><path d="M101.29658,184.77076c0.7102,0.54966 1.16906,1.38506 1.25198,2.27928c0.07952,0.85582 -0.18929,1.72461 -0.73823,2.38599c-0.54894,0.66136 -1.35336,1.08562 -2.20918,1.16508c-1.74218,0.16672 -3.32645,-1.09954 -3.5478,-2.83563c-0.22136,-1.73609 0.99449,-3.35934 2.72277,-3.63512c0.88643,-0.14399 1.81024,0.09072 2.52042,0.64038z" data-paper-data="{&quot;noHover&quot;:false,&quot;origItem&quot;:[&quot;Path&quot;,{&quot;applyMatrix&quot;:true,&quot;segments&quot;:[[[243.93392,181.54665],[0,0],[-1.45728,-1.36107]],[[238.53054,179.62661],[1.98936,-0.13632],[-3.87766,0.25477]],[[231.81091,187.05271],[-0.13287,-3.88375],[0.13287,3.88375]],[[239.02232,194.00223],[-3.88601,0.01083],[1.90844,0.00004]],[[244.11051,191.89471],[-1.34946,1.34946],[1.34945,-1.34947]],[[246.21802,186.8065],[0.00005,1.90845],[0.00032,-1.99402]],[[243.93391,181.54666],[1.45729,1.36106],[0,0]]],&quot;closed&quot;:true,&quot;fillColor&quot;:[1,1,1],&quot;strokeWidth&quot;:9.34454}]}" fill="#ffffff" stroke="none" stroke-width="4.67227"/><path d="M86.92371,159.18716l0.61147,6.45873l6.46085,-0.58857l0.30052,3.23564l-6.45871,0.61147l0.58857,6.46085l-3.23564,0.30054l-0.61145,-6.45873l-6.46086,0.58856l-0.30054,-3.23563l6.45873,-0.61148l-0.58857,-6.46086z" data-paper-data="{&quot;noHover&quot;:false,&quot;origItem&quot;:[&quot;Path&quot;,{&quot;applyMatrix&quot;:true,&quot;segments&quot;:[[210.23947,122.04511],[210.23947,136.43653],[195.84803,136.43653],[195.84803,143.63225],[210.23947,143.63225],[210.23947,158.02368],[217.43518,158.02368],[217.43518,143.63225],[231.82661,143.63225],[231.82661,136.43653],[217.43518,136.43653],[217.43518,122.04511]],&quot;closed&quot;:true,&quot;fillColor&quot;:[1,1,1],&quot;strokeWidth&quot;:9.34454}]}" fill="#ffffff" stroke="none" stroke-width="4.67227"/></g></g></g></svg>
