<svg version="1.1" xmlns="http://www.w3.org/2000/svg" xmlns:xlink="http://www.w3.org/1999/xlink" width="50.49999" height="300.49998" viewBox="0,0,50.49999,300.49998"><defs><linearGradient x1="152.75" y1="92.74999" x2="327.75001" y2="267.74999" gradientUnits="userSpaceOnUse" id="color-1"><stop offset="0" stop-color="#00ff84"/><stop offset="1" stop-color="#00c8ff"/></linearGradient><linearGradient x1="251.83445" y1="213.97356" x2="226.64572" y2="213.97356" gradientUnits="userSpaceOnUse" id="color-2"><stop offset="0" stop-color="#fff827"/><stop offset="1" stop-color="#ffb517"/></linearGradient><linearGradient x1="226.30944" y1="289.30942" x2="254.19058" y2="317.19058" gradientUnits="userSpaceOnUse" id="color-3"><stop offset="0" stop-color="#00994f"/><stop offset="1" stop-color="#007899"/></linearGradient><linearGradient x1="227.93885" y1="290.93884" x2="252.56117" y2="315.56116" gradientUnits="userSpaceOnUse" id="color-4"><stop offset="0" stop-color="#00ff84"/><stop offset="1" stop-color="#00c9ff"/></linearGradient></defs><g transform="translate(-214.75001,-29.75001)"><g fill-rule="nonzero" stroke-linejoin="miter" stroke-miterlimit="10" stroke-dasharray="" stroke-dashoffset="0" style="mix-blend-mode: normal"><path d="M215.25001,330.24999v-299.99999h50v299.99999z" fill="url(#color-1)" stroke="none" stroke-width="1" stroke-linecap="butt"/><g fill-opacity="0.34902" fill="#ffffff" stroke="none" stroke-width="0" stroke-linecap="butt"><path d="M239.75002,179.75001l-15.28047,149.8277l0.02871,0.1723h-9.74824v-58.48947l0.02871,0.1723z" data-paper-data="{&quot;index&quot;:null}"/><path d="M214.75002,143.63674l25,36.11327l-25,36.11326z"/><path d="M264.75001,215.86327l-25,-36.11326l25,-36.11327z" data-paper-data="{&quot;index&quot;:null}"/><path d="M245.7689,29.75001l-6.01888,150l-6.01888,-150z"/><path d="M233.73114,329.75l6.01888,-150l6.01888,149.99999z" data-paper-data="{&quot;index&quot;:null}"/><path d="M239.75002,179.75001l15.28047,-149.8277l-0.02871,-0.17229h9.74825v58.48947l-0.02872,-0.17229z" data-paper-data="{&quot;index&quot;:null}"/><path d="M214.77872,88.06719l-0.02871,0.17229v-58.48947h9.74824l-0.02871,0.17229l15.28047,149.8277z" data-paper-data="{&quot;index&quot;:null}"/><path d="M264.7213,271.43282l0.02872,-0.1723v58.48947h-9.74825l0.02872,-0.1723l-15.28047,-149.82769z" data-paper-data="{&quot;index&quot;:null}"/></g><path d="M227.27581,44.49264c2.65626,-0.09175 5.84468,-0.13762 9.56528,-0.13762c3.72518,0 8.69821,0.11698 14.91908,0.35095c0.72943,1.9727 1.09415,3.99815 1.09416,6.07636c0,2.07822 -0.77072,3.93392 -2.31218,5.56713c-1.53687,1.6332 -3.47516,2.44981 -5.81486,2.44982c-2.33512,0 -4.35369,-0.88772 -6.05571,-2.66314c-1.70202,-1.77084 -2.95217,-4.0899 -3.75042,-6.95719c-2.62873,0 -5.33087,0.0367 -8.1064,0.11011zM241.15579,52.68851c1.00928,0.85789 2.13556,1.28684 3.37881,1.28684c1.24784,0 2.25942,-0.32343 3.03474,-0.9703c0.77531,-0.64686 1.16297,-1.36942 1.16297,-2.16767c0,-0.21103 -0.05964,-0.69273 -0.17892,-1.44511c-3.3077,-0.11928 -6.51219,-0.19039 -9.61345,-0.21333c0.46795,1.48181 1.20656,2.65167 2.21585,3.50957zM240.5915,66.86988c0,-0.98635 -1.24325,-1.72726 -3.72976,-2.22272c-1.64697,0.04587 -3.22284,0.06881 -4.72759,0.06881c-1.50016,0 -3.19072,-0.04587 -5.07167,-0.13763l0.35095,-4.0876c3.45451,0.06881 5.3584,0.10322 5.71164,0.10322c4.34452,0 7.66828,-0.21103 9.97128,-0.6331l-0.28214,2.64249c-0.68356,0.16516 -1.28226,0.35326 -1.79608,0.56429c2.46357,1.15151 3.69536,2.31447 3.69536,3.48892c0,0.96341 -0.42207,1.80984 -1.2662,2.53927l-3.24119,-0.92213c0.25691,-0.3716 0.38537,-0.83953 0.38536,-1.40382zM234.21924,74.02057c-2.65626,0 -3.98439,0.58722 -3.98439,1.76165c0,0.51841 0.7455,0.95195 2.23649,1.30061c1.49099,0.35325 2.91775,0.52988 4.28029,0.52988c3.0095,0 4.51426,-0.49317 4.51426,-1.47952c0,-0.6331 -0.80513,-1.14462 -2.4154,-1.53458c-1.61027,-0.38536 -3.15402,-0.57804 -4.63125,-0.57804zM234.53579,69.89855c2.18373,0 4.32159,0.445 6.41356,1.335c1.05516,0.47253 1.91764,1.13774 2.58744,1.99564c0.66979,0.85789 1.0047,1.81442 1.0047,2.86958c0,1.05516 -0.24085,1.96352 -0.72256,2.72507c-0.4817,0.76614 -1.12169,1.34878 -1.91994,1.7479c-1.57357,0.77532 -3.28936,1.16298 -5.14736,1.16297c-2.55992,0 -4.8331,-0.52299 -6.81956,-1.56898c-1.98188,-1.0414 -2.9728,-2.50257 -2.9728,-4.38351c0,-3.92245 2.52551,-5.88368 7.57653,-5.88367zM243.59184,91.56947c0,1.43135 -0.49547,2.52321 -1.4864,3.27559c1.78919,1.22032 2.68378,2.42917 2.68378,3.62655c0,3.26642 -2.4544,4.89962 -7.3632,4.89962c-2.77553,0 -6.136,-0.23626 -10.08139,-0.70879l0.35096,-4.08761c4.39498,0.44959 7.74168,0.67439 10.0401,0.67439c2.30301,0 3.45451,-0.37619 3.45451,-1.12857c0,-0.33031 -0.52758,-0.71796 -1.58274,-1.16297c-1.05516,-0.445 -2.2296,-0.73861 -3.52332,-0.88083c-2.9361,-0.04588 -5.55566,-0.13993 -7.85867,-0.28214l0.39224,-4.12201c3.3077,0.1881 6.03049,0.28214 8.16834,0.28214c2.13785,0 3.20678,-0.29361 3.20678,-0.88083c0,-0.37619 -0.65144,-0.86477 -1.95435,-1.46576c-1.3029,-0.5964 -2.67002,-1.02534 -4.10137,-1.28684c-2.16079,0.02753 -4.39268,0.13533 -6.69569,0.32343l0.38537,-4.12202c3.31229,-0.2615 6.33097,-0.39224 9.05604,-0.39224c2.72507,0 5.27352,0.0711 7.64534,0.21332l-0.21332,2.92464c-0.6331,0.14222 -1.78231,0.34178 -3.44763,0.59869c1.94976,1.24326 2.92464,2.47734 2.92463,3.70225zM234.21924,109.78228c-2.65626,0 -3.98439,0.58722 -3.98439,1.76167c0,0.5184 0.7455,0.95194 2.23649,1.3006c1.49099,0.35325 2.91775,0.52988 4.28029,0.52988c3.0095,0 4.51426,-0.49318 4.51426,-1.47952c0,-0.6331 -0.80514,-1.14462 -2.41541,-1.53457c-1.61027,-0.38536 -3.15402,-0.57805 -4.63125,-0.57805zM234.53578,105.66026c2.18373,0 4.32159,0.445 6.41356,1.33501c1.05516,0.47253 1.91764,1.13774 2.58744,1.99564c0.66979,0.8579 1.0047,1.81443 1.0047,2.86959c0,1.05516 -0.24085,1.96351 -0.72255,2.72507c-0.48171,0.76614 -1.12169,1.34877 -1.91994,1.7479c-1.57357,0.77532 -3.28936,1.16297 -5.14736,1.16297c-2.55991,0 -4.83311,-0.52299 -6.81956,-1.56898c-1.98188,-1.0414 -2.9728,-2.50257 -2.9728,-4.38351c0,-3.92245 2.52551,-5.88368 7.57653,-5.88368zM242.6009,127.81976l-3.34441,0c0,-1.12857 -0.01147,-1.99793 -0.03441,-2.60809c-2.34889,-0.06881 -6.29656,-0.10322 -11.84305,-0.10322l0.39225,-4.15643c4.11055,0 7.83344,0.03441 11.16867,0.10322c0,-0.35325 -0.05964,-1.02305 -0.17892,-2.0094l2.89023,-0.52299c0.11927,0.5597 0.27068,1.44053 0.45418,2.64249c1.73872,0.04587 4.2757,0.13762 7.61093,0.27525l-0.38536,4.19771c-2.32594,-0.14222 -4.58078,-0.24773 -6.7645,-0.31655c0.02294,0.58722 0.0344,1.41987 0.0344,2.49797zM232.98057,137.22979l-1.58274,2.67691c-0.77531,-0.44501 -1.43364,-0.87396 -1.97499,-1.28684c-0.53676,-0.41289 -1.05287,-1.02993 -1.54834,-1.85111c-0.49547,-0.8212 -0.7432,-1.73643 -0.7432,-2.74572c0,-1.48181 0.62851,-2.72737 1.88553,-3.73665c1.25702,-1.00929 2.95446,-1.51393 5.09231,-1.51393c2.44523,0 4.72529,0.43353 6.84021,1.3006c1.10104,0.47253 1.99793,1.14921 2.69067,2.03004c0.69274,0.88083 1.03911,1.7846 1.03911,2.71131c0,0.92671 -0.14681,1.6722 -0.44042,2.23649c-0.29361,0.56428 -0.62163,1.01617 -0.98405,1.35566c-0.36242,0.34408 -0.89689,0.64456 -1.60339,0.90147c-0.7065,0.25691 -1.28225,0.43812 -1.72725,0.54364c-0.445,0.10552 -1.09186,0.19498 -1.94058,0.26838c-1.12398,0.09176 -2.14474,0.13763 -3.06227,0.13764c-0.5184,-1.87636 -0.98864,-4.30782 -1.4107,-7.29439c-0.94048,0.0734 -1.69285,0.23855 -2.25713,0.49547c-0.5597,0.25691 -0.83954,0.56199 -0.83954,0.91524c0,0 0.8556,1.84652 2.56679,2.85581zM241.2246,135.15158c0,-0.5184 -0.51611,-0.98405 -1.54833,-1.39695c-1.03222,-0.4083 -2.22961,-0.64686 -3.59215,-0.71568c0.25692,1.24326 0.50235,2.32366 0.73632,3.24119c2.93611,0 4.40416,-0.37619 4.40416,-1.12857z" data-paper-data="{&quot;index&quot;:null}" fill="none" stroke="#000000" stroke-width="5.5" stroke-linecap="square"/><path d="M227.27581,44.49264c2.65626,-0.09175 5.84468,-0.13762 9.56528,-0.13762c3.72518,0 8.69821,0.11698 14.91908,0.35095c0.72943,1.9727 1.09415,3.99815 1.09416,6.07636c0,2.07822 -0.77072,3.93392 -2.31218,5.56713c-1.53687,1.6332 -3.47516,2.44981 -5.81486,2.44982c-2.33512,0 -4.35369,-0.88772 -6.05571,-2.66314c-1.70202,-1.77084 -2.95217,-4.0899 -3.75042,-6.95719c-2.62873,0 -5.33087,0.0367 -8.1064,0.11011zM241.15579,52.68851c1.00928,0.85789 2.13556,1.28684 3.37881,1.28684c1.24784,0 2.25942,-0.32343 3.03474,-0.9703c0.77531,-0.64686 1.16297,-1.36942 1.16297,-2.16767c0,-0.21103 -0.05964,-0.69273 -0.17892,-1.44511c-3.3077,-0.11928 -6.51219,-0.19039 -9.61345,-0.21333c0.46795,1.48181 1.20656,2.65167 2.21585,3.50957zM240.5915,66.86988c0,-0.98635 -1.24325,-1.72726 -3.72976,-2.22272c-1.64697,0.04587 -3.22284,0.06881 -4.72759,0.06881c-1.50016,0 -3.19072,-0.04587 -5.07167,-0.13763l0.35095,-4.0876c3.45451,0.06881 5.3584,0.10322 5.71164,0.10322c4.34452,0 7.66828,-0.21103 9.97128,-0.6331l-0.28214,2.64249c-0.68356,0.16516 -1.28226,0.35326 -1.79608,0.56429c2.46357,1.15151 3.69536,2.31447 3.69536,3.48892c0,0.96341 -0.42207,1.80984 -1.2662,2.53927l-3.24119,-0.92213c0.25691,-0.3716 0.38537,-0.83953 0.38536,-1.40382zM234.21924,74.02056c-2.65626,0 -3.98439,0.58722 -3.98439,1.76166c0,0.51841 0.7455,0.95195 2.23649,1.30061c1.49099,0.35325 2.91775,0.52987 4.28029,0.52987c3.0095,0 4.51426,-0.49317 4.51426,-1.47952c0,-0.6331 -0.80513,-1.14462 -2.4154,-1.53458c-1.61027,-0.38536 -3.15403,-0.57805 -4.63125,-0.57805zM234.53579,69.89855c2.18373,0 4.32159,0.445 6.41356,1.335c1.05516,0.47253 1.91764,1.13774 2.58744,1.99564c0.66979,0.85789 1.0047,1.81442 1.0047,2.86958c0,1.05516 -0.24085,1.96352 -0.72256,2.72507c-0.4817,0.76614 -1.12169,1.34878 -1.91994,1.7479c-1.57357,0.77532 -3.28936,1.16298 -5.14736,1.16297c-2.55992,0 -4.8331,-0.52299 -6.81956,-1.56898c-1.98188,-1.0414 -2.9728,-2.50257 -2.9728,-4.38351c0,-3.92245 2.52551,-5.88368 7.57653,-5.88367zM243.59184,91.56946c0,1.43135 -0.49547,2.52322 -1.48641,3.27559c1.7892,1.22032 2.68379,2.42917 2.68379,3.62655c0,3.26642 -2.4544,4.89962 -7.3632,4.89962c-2.77553,0 -6.136,-0.23626 -10.08139,-0.7088l0.35096,-4.08761c4.39498,0.44959 7.74168,0.67438 10.0401,0.67438c2.30301,0 3.45451,-0.37618 3.45451,-1.12857c0,-0.33031 -0.52758,-0.71797 -1.58274,-1.16297c-1.05516,-0.445 -2.22961,-0.73862 -3.52333,-0.88083c-2.9361,-0.04588 -5.55566,-0.13993 -7.85867,-0.28214l0.39225,-4.12201c3.3077,0.1881 6.03048,0.28214 8.16833,0.28214c2.13785,0 3.20677,-0.29362 3.20677,-0.88084c0,-0.37619 -0.65144,-0.86477 -1.95434,-1.46575c-1.3029,-0.5964 -2.67002,-1.02534 -4.10138,-1.28684c-2.16078,0.02753 -4.39268,0.13534 -6.69569,0.32344l0.38537,-4.12202c3.31229,-0.2615 6.33097,-0.39224 9.05604,-0.39225c2.72508,0 5.27352,0.07111 7.64534,0.21333l-0.21332,2.92464c-0.6331,0.14222 -1.78231,0.34178 -3.44763,0.59869c1.94975,1.24326 2.92464,2.47734 2.92464,3.70225zM234.21924,109.78228c-2.65626,0 -3.98439,0.58722 -3.98439,1.76167c0,0.5184 0.7455,0.95194 2.23649,1.3006c1.49099,0.35325 2.91775,0.52988 4.28029,0.52988c3.0095,0 4.51426,-0.49318 4.51426,-1.47952c0,-0.6331 -0.80514,-1.14462 -2.41541,-1.53457c-1.61027,-0.38536 -3.15402,-0.57805 -4.63125,-0.57805zM234.53578,105.66026c2.18373,0 4.32159,0.445 6.41356,1.33501c1.05516,0.47253 1.91764,1.13774 2.58744,1.99564c0.66979,0.8579 1.0047,1.81443 1.0047,2.86959c0,1.05516 -0.24085,1.96351 -0.72255,2.72507c-0.48171,0.76614 -1.12169,1.34877 -1.91994,1.7479c-1.57357,0.77532 -3.28936,1.16297 -5.14736,1.16297c-2.55991,0 -4.83311,-0.52299 -6.81956,-1.56898c-1.98188,-1.0414 -2.9728,-2.50257 -2.9728,-4.38351c0,-3.92245 2.52551,-5.88368 7.57653,-5.88368zM242.6009,127.81976l-3.34441,0c0,-1.12857 -0.01147,-1.99793 -0.03441,-2.60809c-2.34889,-0.06881 -6.29656,-0.10322 -11.84305,-0.10322l0.39225,-4.15643c4.11055,0 7.83344,0.03441 11.16867,0.10322c0,-0.35325 -0.05964,-1.02305 -0.17892,-2.0094l2.89023,-0.52299c0.11927,0.5597 0.27068,1.44053 0.45418,2.64249c1.73872,0.04587 4.2757,0.13762 7.61093,0.27525l-0.38536,4.19771c-2.32594,-0.14222 -4.58078,-0.24773 -6.7645,-0.31655c0.02294,0.58722 0.0344,1.41987 0.0344,2.49797zM230.41377,134.37397c0,0.89459 0.85561,1.84653 2.5668,2.85582l-1.58274,2.67691c-0.77531,-0.44501 -1.43364,-0.87396 -1.97499,-1.28684c-0.53676,-0.41289 -1.05287,-1.02993 -1.54834,-1.85111c-0.49547,-0.8212 -0.7432,-1.73643 -0.7432,-2.74572c0,-1.48181 0.62851,-2.72737 1.88553,-3.73665c1.25702,-1.00929 2.95446,-1.51393 5.09231,-1.51393c2.44523,0 4.72529,0.43353 6.84021,1.3006c1.10104,0.47253 1.99793,1.14921 2.69067,2.03004c0.69274,0.88083 1.03911,1.7846 1.03911,2.71131c0,0.92671 -0.14681,1.6722 -0.44042,2.23649c-0.29361,0.56428 -0.62163,1.01617 -0.98405,1.35566c-0.36242,0.34408 -0.89689,0.64456 -1.60339,0.90147c-0.7065,0.25691 -1.28225,0.43812 -1.72725,0.54364c-0.445,0.10552 -1.09186,0.19498 -1.94058,0.26838c-1.12398,0.09176 -2.14474,0.13763 -3.06227,0.13764c-0.5184,-1.87636 -0.98864,-4.30782 -1.4107,-7.29439c-0.94048,0.0734 -1.69285,0.23855 -2.25713,0.49547c-0.5597,0.25691 -0.83954,0.56199 -0.83954,0.91524zM241.2246,135.15158c0,-0.5184 -0.51611,-0.98405 -1.54833,-1.39695c-1.03222,-0.4083 -2.22961,-0.64686 -3.59215,-0.71568c0.25692,1.24326 0.50235,2.32366 0.73632,3.24119c2.93611,0 4.40416,-0.37619 4.40416,-1.12857z" data-paper-data="{&quot;index&quot;:null}" fill="#ffffff" stroke="none" stroke-width="1" stroke-linecap="square"/><path d="M250.41763,168.68213h-4.99151c0,-2.67162 -0.0573,-4.80972 -0.17192,-6.41426c-0.21736,-0.01581 -1.06905,-0.03952 -2.55504,-0.07113c-1.48204,-0.02767 -2.22306,-0.24306 -2.22306,-0.24306c0,0 0.59282,3.77426 0.59282,5.52504l-4.58246,0.84181c-0.07114,-2.73881 -0.19365,-4.81564 -0.36754,-6.2305c-2.77833,0 -5.61002,0.0494 -8.49505,0.1482l0.59875,-5.37091c3.64779,-0.04347 6.88259,-0.06521 9.70439,-0.06521c2.8218,0 6.69289,0.17192 11.61327,0.51575c0.58491,3.82564 0.87736,7.61373 0.87736,11.36428zM227.24446,176.00718c0,-2.14995 0.93269,-3.94222 2.79809,-5.37684c1.86935,-1.43066 4.63582,-2.146 8.29942,-2.146c3.6636,0 6.68301,0.77066 9.05822,2.31199c2.37521,1.54133 3.56283,3.40276 3.56283,5.58432c0,2.18552 -0.9406,3.98174 -2.8218,5.3887c-1.8812,1.41091 -4.6378,2.11635 -8.26978,2.11635c-3.62803,0 -6.63954,-0.77659 -9.03452,-2.32977c-2.39498,-1.54922 -3.59246,-3.39881 -3.59246,-5.54875zM246.09007,176.42808c0,-0.60862 -0.69952,-1.20342 -2.09856,-1.78438c-1.39905,-0.577 -3.24271,-0.86551 -5.53098,-0.86551c-2.28826,0 -3.92444,0.23911 -4.90851,0.71731c-0.98013,0.47821 -1.47018,0.99593 -1.47018,1.55318c0,0.55725 0.70544,1.12042 2.11635,1.68953c1.41091,0.5691 3.26049,0.85365 5.54876,0.85365c2.28826,0 3.91654,-0.22922 4.8848,-0.68766c0.97222,-0.45844 1.45832,-0.95048 1.45833,-1.47611zM228.0744,185.1159c5.24049,0.28456 9.75774,0.42682 13.55177,0.42682c3.79797,0 6.4281,-0.01185 7.89038,-0.03556c1.20539,2.55306 1.80809,5.08043 1.80808,7.58211c0,1.94839 -0.62641,3.58654 -1.87922,4.91444c-1.24887,1.33186 -2.99767,1.99778 -5.24642,1.99778c-2.61234,0 -4.95792,-1.59072 -7.03672,-4.77216c-1.9563,1.56108 -4.49355,3.42252 -7.61175,5.58432l-2.9048,-3.93629c2.27641,-1.5097 5.10414,-3.54504 8.48319,-6.106c-1.91677,-0.03952 -4.46785,-0.12844 -7.65326,-0.26677zM240.00778,190.90771c0.39126,0.82599 1.0651,1.72114 2.02151,2.68545c0.9564,0.96827 1.77054,1.45239 2.4424,1.45239c0.67186,0 1.1797,-0.18575 1.52353,-0.55724c0.34778,-0.36755 0.52167,-0.89713 0.52168,-1.58875c0,-0.69162 -0.11066,-1.34965 -0.33198,-1.97408c-3.12612,0 -5.18516,-0.00593 -6.17714,-0.01779zM250.41763,220.58427l-4.99151,0c0,-2.67163 -0.0573,-4.80971 -0.17191,-6.41426c-0.21736,-0.01581 -1.06905,-0.03952 -2.55504,-0.07114c-1.48203,-0.02766 -2.22306,-0.24306 -2.22306,-0.24306c0,0 0.59281,3.77426 0.59281,5.52504l-4.58246,0.8418c-0.07114,-2.73881 -0.19366,-4.81564 -0.36754,-6.23049c-2.77833,0 -5.61002,0.04941 -8.49506,0.14821l0.59874,-5.3709c3.64779,-0.04348 6.8826,-0.06521 9.70439,-0.06521c2.8218,0 6.69289,0.17192 11.61327,0.51575c0.58492,3.82564 0.87736,7.61372 0.87736,11.36427zM228.0744,221.20459c5.24049,0.28456 9.75775,0.42683 13.55177,0.42683c3.79797,0 6.4281,-0.01186 7.89038,-0.03557c1.20539,2.55306 1.80808,5.08043 1.80809,7.58211c0,1.94839 -0.62641,3.58654 -1.87923,4.91444c-1.24887,1.33186 -2.99767,1.99779 -5.24642,1.99779c-2.61234,0 -4.95792,-1.59072 -7.03672,-4.77217c-1.9563,1.56108 -4.49355,3.42252 -7.61175,5.58432l-2.9048,-3.93629c2.27641,-1.5097 5.10414,-3.54504 8.48319,-6.10601c-1.91677,-0.03952 -4.46785,-0.12844 -7.65325,-0.26677zM240.00778,226.9964c0.39126,0.82599 1.0651,1.72114 2.0215,2.68545c0.9564,0.96827 1.77054,1.45239 2.4424,1.45239c0.67186,0 1.1797,-0.18574 1.52354,-0.55724c0.34778,-0.36755 0.52167,-0.89713 0.52168,-1.58875c0,-0.69162 -0.11066,-1.34964 -0.33198,-1.97408c-3.12612,0 -5.18517,-0.00593 -6.17714,-0.01778zM228.21075,237.57814c3.5727,-0.08695 6.78973,-0.13042 9.65105,-0.13042c2.86528,0 6.75809,0.17192 11.67847,0.51576c0.58491,3.82564 0.87736,7.61373 0.87736,11.36428l-4.99151,0c0,-2.69139 -0.0573,-4.82354 -0.17191,-6.39649c-1.88515,-0.06718 -3.18737,-0.10671 -3.90666,-0.11856c0.15808,1.07497 0.26084,2.85737 0.30826,5.3472l-4.59432,0.8003c-0.02766,-1.82982 -0.16204,-3.90468 -0.40311,-6.22457c-2.05115,0 -3.38696,0.00593 -4.00744,0.01779c0.10276,1.29629 0.42683,3.37114 0.97222,6.22456l-4.45205,0.68767c-0.96036,-2.09461 -1.44054,-4.37103 -1.44054,-6.82924zM228.21075,251.14554c3.5727,-0.08695 6.78972,-0.13041 9.65104,-0.13042c2.86528,0 6.7581,0.17192 11.67847,0.51575c0.58492,3.82564 0.87737,7.61373 0.87736,11.36428l-4.99151,0c0,-2.69138 -0.0573,-4.82355 -0.17192,-6.39648c-1.88516,-0.06718 -3.18737,-0.1067 -3.90665,-0.11856c0.15808,1.07497 0.26083,2.85738 0.30826,5.3472l-4.59432,0.8003c-0.02767,-1.82982 -0.16204,-3.90468 -0.40311,-6.22457c-2.05114,0 -3.38696,0.00593 -4.00744,0.01779c0.10276,1.29629 0.42683,3.37115 0.97222,6.22457l-4.45205,0.68767c-0.96036,-2.09461 -1.44054,-4.37103 -1.44054,-6.82924zM234.29304,265.34134c3.36324,-0.40707 6.29768,-0.6106 8.80331,-0.6106c2.50563,0 5.41834,0.22329 8.7381,0.66988l-1.10264,5.74438c-4.3157,-1.11449 -9.94745,-1.85353 -16.89524,-2.21713zM232.39013,268.79154c-0.69162,0.3794 -1.20145,0.5691 -2.31199,0.5691c-1.10659,0 -1.83774,-0.24503 -2.97594,-0.73509l0.92479,-3.98967c1.12635,0.30432 1.68954,0.45647 2.47206,0.45647c0.78647,0 1.31606,-0.03557 2.37127,-0.10671z" data-paper-data="{&quot;index&quot;:null}" fill="none" stroke="#000000" stroke-width="5" stroke-linecap="square"/><path d="M250.41763,168.68213h-4.99151c0,-2.67162 -0.0573,-4.80972 -0.17191,-6.41426c-0.21736,-0.01581 -1.06905,-0.03952 -2.55504,-0.07113c-1.48203,-0.02767 -2.22306,-0.10869 -2.22306,-0.24306c0.39521,1.93258 0.59281,2.99176 0.59282,4.74254l-4.58246,-0.20152c-0.07114,-2.73881 -0.19365,-2.98981 -0.36754,-4.40467c-2.77833,0 -5.61002,0.0494 -8.49505,0.1482l0.59875,-5.37091c3.64779,-0.04347 6.88259,-0.06521 9.70439,-0.06521c2.8218,0 6.69289,0.17192 11.61327,0.51575c0.58492,3.82564 0.87736,7.61373 0.87736,11.36428zM227.24446,176.00718c0,-2.14995 0.9327,-3.94222 2.79809,-5.37684c1.86935,-1.43066 4.63582,-2.146 8.29942,-2.146c3.6636,0 6.68301,0.77066 9.05822,2.31199c2.37521,1.54133 3.56283,3.40276 3.56283,5.58432c0,2.18552 -0.9406,3.98174 -2.8218,5.3887c-1.8812,1.41091 -4.63779,2.11635 -8.26978,2.11635c-3.62803,0 -6.63954,-0.77659 -9.03452,-2.32977c-2.39498,-1.54922 -3.59247,-3.39881 -3.59246,-5.54875zM246.09007,176.42808c0,-0.60862 -0.69952,-1.20342 -2.09857,-1.78438c-1.39905,-0.577 -3.24271,-0.86551 -5.53098,-0.86551c-2.28826,0 -3.92444,0.23911 -4.90851,0.71731c-0.98013,0.47821 -1.47018,0.99593 -1.47018,1.55318c0,0.55725 0.70544,1.12042 2.11635,1.68953c1.41091,0.5691 3.26049,0.85365 5.54876,0.85365c2.28827,0 3.91654,-0.22922 4.8848,-0.68766c0.97222,-0.45844 1.45833,-0.95048 1.45833,-1.47611zM228.0744,185.1159c5.24049,0.28455 9.75774,0.42683 13.55177,0.42683c3.79797,0 6.4281,-0.01186 7.89038,-0.03557c1.20539,2.55306 1.80808,5.08043 1.80808,7.58211c0,1.94839 -0.62641,3.58653 -1.87922,4.91444c-1.24887,1.33186 -2.99767,1.99779 -5.24642,1.99779c-2.61234,0 -4.95792,-1.59072 -7.03673,-4.77216c-1.95629,1.56108 -4.49354,3.42252 -7.61175,5.58432l-2.9048,-3.9363c2.27641,-1.5097 5.10414,-3.54504 8.48319,-6.106c-1.91677,-0.03952 -4.46785,-0.12844 -7.65325,-0.26677zM240.00778,190.90771c0.39126,0.82599 1.0651,1.72115 2.02151,2.68546c0.95641,0.96827 1.77054,1.45239 2.4424,1.45239c0.67186,0 1.1797,-0.18575 1.52353,-0.55724c0.34779,-0.36755 0.52168,-0.89713 0.52168,-1.58875c0,-0.69161 -0.11066,-1.34965 -0.33198,-1.97408c-3.12612,0 -5.18516,-0.00593 -6.17714,-0.01778zM250.41763,220.58427l-4.99151,0c0,-2.67163 -0.0573,-4.80971 -0.17191,-6.41426c-0.21736,-0.01581 -1.06905,-0.03952 -2.55504,-0.07114c-1.48203,-0.02766 -2.22306,-0.10868 -2.22306,-0.24306c0.39521,1.93258 0.59281,3.77426 0.59281,5.52504l-4.58246,-0.46236c-0.07114,-2.73881 -0.19366,-3.51147 -0.36754,-4.92633c-2.77833,0 -5.61002,0.04941 -8.49506,0.14821l0.59874,-5.3709c3.64779,-0.04348 6.8826,-0.06521 9.70439,-0.06521c2.8218,0 6.69289,0.17192 11.61327,0.51575c0.58491,3.82564 0.87736,7.61372 0.87736,11.36427zM228.0744,221.20459c5.24049,0.28456 9.75775,0.42682 13.55177,0.42683c3.79797,0 6.4281,-0.01185 7.89038,-0.03556c1.20539,2.55306 1.80808,5.08043 1.80808,7.58211c0,1.94839 -0.62641,3.58654 -1.87922,4.91444c-1.24887,1.33186 -2.99767,1.99779 -5.24642,1.99778c-2.61234,0 -4.95792,-1.59072 -7.03672,-4.77216c-1.9563,1.56108 -4.49355,3.42252 -7.61176,5.58432l-2.90479,-3.93629c2.27641,-1.5097 5.10414,-3.54504 8.48319,-6.10601c-1.91677,-0.03952 -4.46785,-0.12844 -7.65326,-0.26677zM240.00778,226.9964c0.39126,0.82599 1.0651,1.72114 2.0215,2.68545c0.95641,0.96827 1.77054,1.4524 2.4424,1.45239c0.67186,0 1.1797,-0.18574 1.52354,-0.55724c0.34778,-0.36755 0.52167,-0.89713 0.52167,-1.58875c0,-0.69161 -0.11066,-1.34965 -0.33198,-1.97408c-3.12612,0 -5.18516,-0.00592 -6.17714,-0.01778zM228.21074,237.57814c3.5727,-0.08695 6.78973,-0.13042 9.65105,-0.13042c2.86527,0 6.75809,0.17192 11.67847,0.51576c0.58491,3.82564 0.87736,7.61373 0.87736,11.36428l-4.99151,0c0,-2.69139 -0.0573,-4.82354 -0.17192,-6.39649c-1.88515,-0.06718 -3.18737,-0.10671 -3.90666,-0.11856c0.15808,1.07497 0.26084,2.85737 0.30826,5.3472l-4.59432,0.8003c-0.02766,-1.82982 -0.16204,-3.90468 -0.40311,-6.22457c-2.05115,0 -3.38696,0.00593 -4.00744,0.01779c0.10276,1.29629 0.42683,3.37114 0.97222,6.22456l-4.45205,0.68767c-0.96036,-2.09461 -1.44054,-4.37103 -1.44054,-6.82924zM228.21074,251.14554c3.5727,-0.08695 6.78972,-0.13041 9.65105,-0.13042c2.86528,0 6.7581,0.17192 11.67847,0.51575c0.58492,3.82564 0.87737,7.61373 0.87736,11.36428l-4.99151,0c0,-2.69138 -0.0573,-4.82355 -0.17192,-6.39648c-1.88515,-0.06718 -3.18737,-0.1067 -3.90665,-0.11856c0.15808,1.07497 0.26083,2.85738 0.30826,5.3472l-4.59432,0.8003c-0.02767,-1.82982 -0.16204,-3.90468 -0.40311,-6.22457c-2.05114,0 -3.38696,0.00593 -4.00744,0.01779c0.10276,1.29629 0.42683,3.37115 0.97222,6.22457l-4.45205,0.68767c-0.96036,-2.09461 -1.44054,-4.37103 -1.44054,-6.82924zM234.29304,265.34134c3.36324,-0.40707 6.29768,-0.6106 8.80331,-0.6106c2.50564,0 5.41834,0.22329 8.7381,0.66988l-1.10264,5.74438c-4.3157,-1.11449 -9.94745,-1.85353 -16.89524,-2.21713zM232.39013,268.79154c-0.69162,0.3794 -1.20145,0.5691 -2.31199,0.5691c-1.10659,0 -1.83774,-0.24503 -2.97594,-0.73509l0.92479,-3.98967c1.12635,0.30432 1.68954,0.45647 2.47206,0.45647c0.78647,0 1.31606,-0.03557 2.37127,-0.10671z" data-paper-data="{&quot;index&quot;:null}" fill="url(#color-2)" stroke="none" stroke-width="1" stroke-linecap="square"/><path d="M223.26592,316.43214c-7.2803,-9.38004 -5.57812,-22.88593 3.80193,-30.16623c9.38005,-7.2803 22.88593,-5.57812 30.16623,3.80194c7.2803,9.38005 5.57812,22.88594 -3.80193,30.16623c-9.38005,7.2803 -22.88594,5.57812 -30.16623,-3.80194z" fill="#000000" stroke="none" stroke-width="0" stroke-linecap="butt"/><path d="M226.30944,317.19058c-7.69917,-7.69917 -7.69917,-20.18198 0,-27.88115c7.69917,-7.69917 20.18198,-7.69917 27.88115,0c7.69917,7.69917 7.69917,20.18198 0,27.88115c-7.69917,7.69917 -20.18198,7.69917 -27.88115,0z" fill="url(#color-3)" stroke="none" stroke-width="0" stroke-linecap="butt"/><path d="M227.93885,315.56116c-6.79926,-6.79926 -6.79926,-17.82306 0,-24.62232c6.79927,-6.79926 17.82306,-6.79926 24.62232,0c6.79926,6.79926 6.79926,17.82306 0,24.62232c-6.79926,6.79926 -17.82305,6.79926 -24.62232,0z" fill="url(#color-4)" stroke="none" stroke-width="0" stroke-linecap="butt"/><path d="M244.86274,302.59724l-3.57539,-2.9081l7.41978,-6.51943c0,0 0.68904,-0.72693 1.18289,-0.51565c0.79723,0.34109 0.44158,1.1687 0.44158,1.1687z" data-paper-data="{&quot;index&quot;:null}" fill="#ffffff" stroke="none" stroke-width="1" stroke-linecap="butt"/><path d="M229.43434,310.08705c0.24788,-0.24905 0.52782,-0.46296 0.79193,-0.69462c0.8371,-0.7344 1.67419,-1.46839 2.5113,-2.20279c0.58728,-0.51518 2.50048,-2.19336 2.50048,-2.19336l4.07472,6.49281c0,0 -0.01584,0.04692 -0.12551,0.22313c-0.23361,0.3753 -0.38148,0.7676 -0.72127,1.07418c-0.74482,0.67184 -1.79737,0.97532 -2.76459,1.13865c-1.26723,0.21429 -2.59817,0.20503 -3.86078,-0.03899c-0.92899,-0.17954 -1.94564,-0.49732 -2.63679,-1.17804c-0.24635,-0.24248 -0.44481,-0.54288 -0.51161,-0.88653c-0.04054,-0.20889 -0.03128,-0.42588 0.0278,-0.63014c0.06796,-0.23669 0.32125,-0.70968 0.71432,-1.10429zM233.9392,310.01527c-2.25073,0 -4.0753,0.69886 -4.0753,1.56097c0,0.8621 1.82458,1.56097 4.0753,1.56097c2.25073,0 4.0753,-0.69887 4.0753,-1.56097c0,-0.8621 -1.82457,-1.56097 -4.0753,-1.56097z" fill="#ffffff" stroke="none" stroke-width="0.5" stroke-linecap="butt"/><path d="M250.18791,309.31621l0.75822,0.66519c0.27526,0.24129 0.49455,0.53663 0.6787,0.8532c0.00077,0.00154 0.00193,0.00309 0.0027,0.00502c0.12817,0.21851 0.205,0.46636 0.205,0.72078c0,1.67166 -2.49089,2.29901 -3.74714,2.41676c-1.89287,0.17721 -4.15521,0.13474 -5.72494,-0.93736c-0.51501,-0.3517 -0.73236,-0.82386 -1.04314,-1.32265c-0.27874,-0.44745 -0.55749,-0.89529 -0.83584,-1.34273c-2.40518,-3.86257 -4.81035,-7.72513 -7.21515,-11.5877c-1.11226,-1.7867 -2.22488,-3.57303 -3.33713,-5.35973c-0.31773,-0.50999 0.59646,-1.35856 1.18059,-0.84625c1.48171,1.29949 2.96304,2.59937 4.44475,3.89886c3.69657,3.24255 7.39351,6.48549 11.09008,9.72804c1.18097,1.03619 2.36194,2.07239 3.5433,3.10859zM246.61813,310.01527c-2.25073,0 -4.07531,0.69886 -4.07531,1.56096c0,0.8621 1.82458,1.56097 4.07531,1.56097c2.25073,0 4.0753,-0.69887 4.0753,-1.56097c0,-0.8621 -1.82457,-1.56096 -4.0753,-1.56096z" data-paper-data="{&quot;index&quot;:null}" fill="#ffffff" stroke="none" stroke-width="1" stroke-linecap="butt"/></g></g></svg>
