<svg version="1.1" xmlns="http://www.w3.org/2000/svg" xmlns:xlink="http://www.w3.org/1999/xlink" width="120" height="360.5" viewBox="0,0,120,360.5"><defs><linearGradient x1="120" y1="59.75" x2="360" y2="299.75" gradientUnits="userSpaceOnUse" id="color-1"><stop offset="0" stop-color="#00ff84"/><stop offset="1" stop-color="#00c8ff"/></linearGradient><linearGradient x1="286.82519" y1="258.39055" x2="251.8174" y2="258.39055" gradientUnits="userSpaceOnUse" id="color-2"><stop offset="0" stop-color="#fff827"/><stop offset="1" stop-color="#ffb517"/></linearGradient><linearGradient x1="196.66914" y1="28.66913" x2="232.33089" y2="64.3309" gradientUnits="userSpaceOnUse" id="color-3"><stop offset="0" stop-color="#00994f"/><stop offset="1" stop-color="#007899"/></linearGradient><linearGradient x1="198.75325" y1="30.75325" x2="230.24676" y2="62.24676" gradientUnits="userSpaceOnUse" id="color-4"><stop offset="0" stop-color="#00ff84"/><stop offset="1" stop-color="#00c9ff"/></linearGradient></defs><g transform="translate(-180,0.25)"><g stroke-linejoin="round" stroke-miterlimit="10" stroke-dasharray="" stroke-dashoffset="0" style="mix-blend-mode: normal"><path d="M180,359.75v-360h120v360z" fill="url(#color-1)" fill-rule="nonzero" stroke="none" stroke-width="1" stroke-linecap="butt"/><g fill-opacity="0.34902" fill="#ffffff" fill-rule="nonzero" stroke="none" stroke-width="0" stroke-linecap="butt"><path d="M240,180.25l-36.67313,179.79324l0.06892,0.20676h-23.39579v-70.18737l0.06892,0.20675z" data-paper-data="{&quot;index&quot;:null}"/><path d="M180,136.91408l60,43.33592l-60,43.33591z"/><path d="M300,223.58591l-60,-43.33591l60,-43.33592z" data-paper-data="{&quot;index&quot;:null}"/><path d="M254.44531,0.25l-14.44531,180l-14.4453,-180z"/><path d="M225.5547,360.25l14.4453,-180l14.44531,180z" data-paper-data="{&quot;index&quot;:null}"/><path d="M240,180.25l36.67313,-179.79325l-0.06892,-0.20675h23.39579v70.18737l-0.06892,-0.20675z" data-paper-data="{&quot;index&quot;:null}"/><path d="M180.06892,70.23061l-0.06892,0.20675v-70.18737h23.39579l-0.06892,0.20675l36.67313,179.79325z" data-paper-data="{&quot;index&quot;:null}"/><path d="M299.93108,290.26938l0.06892,-0.20675v70.18737h-23.39579l0.06892,-0.20676l-36.67313,-179.79324z" data-paper-data="{&quot;index&quot;:null}"/></g><path d="M252.69312,22.84273c3.69172,-0.12752 8.12305,-0.19128 13.29401,-0.19128c5.17732,0 12.08894,0.16258 20.73484,0.48777c1.01379,2.74168 1.52068,5.5567 1.52068,8.44504c0,2.88833 -1.07118,5.46744 -3.21352,7.73731c-2.13597,2.26986 -4.82985,3.40479 -8.0816,3.40479c-3.2454,0 -6.05084,-1.23375 -8.41635,-3.70127c-2.3655,-2.46115 -4.10298,-5.68424 -5.21241,-9.66925c-3.65346,0 -7.40894,0.05101 -11.26643,0.15303zM271.98377,34.2335c1.40272,1.19231 2.96804,1.78847 4.69593,1.78847c1.73427,0 3.1402,-0.44951 4.21774,-1.34852c1.07754,-0.89902 1.61632,-1.90324 1.61632,-3.01267c0,-0.2933 -0.08289,-0.96277 -0.24867,-2.00844c-4.5971,-0.16578 -9.05077,-0.26461 -13.36096,-0.29649c0.65035,2.05945 1.6769,3.68534 3.07962,4.87766zM271.19953,53.94304c0,-1.37085 -1.72789,-2.40058 -5.18371,-3.08918c-2.28899,0.06377 -4.47917,0.09565 -6.5705,0.09565c-2.08497,0 -4.43452,-0.06376 -7.0487,-0.19128l0.48777,-5.68103c4.80114,0.09565 7.44719,0.14346 7.93814,0.14346c6.03809,0 10.65753,-0.2933 13.85829,-0.8799l-0.39212,3.6726c-0.95004,0.22953 -1.7821,0.49095 -2.49621,0.78424c3.42391,1.60037 5.13588,3.2167 5.13588,4.84896c0,1.33897 -0.5866,2.51535 -1.75979,3.52912l-4.50466,-1.28158c0.35706,-0.51645 0.53558,-1.16681 0.53558,-1.95105zM262.34324,63.88121c-3.69172,0 -5.53758,0.81613 -5.53758,2.44839c0,0.72049 1.03611,1.32303 3.10832,1.8076c2.0722,0.49096 4.05514,0.73642 5.94883,0.73642c4.18267,0 6.274,-0.68542 6.274,-2.05627c0,-0.8799 -1.119,-1.59081 -3.35698,-2.13277c-2.23799,-0.53558 -4.38351,-0.80339 -6.4366,-0.80339zM262.78318,58.15235c3.03499,0 6.00622,0.61847 8.91368,1.85542c1.46648,0.65673 2.66517,1.58125 3.59607,2.77357c0.9309,1.19231 1.39635,2.52172 1.39635,3.9882c0,1.46649 -0.33473,2.72894 -1.00422,3.78736c-0.66948,1.0648 -1.55895,1.87455 -2.66836,2.42926c-2.18698,1.07754 -4.57161,1.61632 -7.1539,1.61632c-3.55783,0 -6.71715,-0.72687 -9.47796,-2.1806c-2.75444,-1.44736 -4.13165,-3.47812 -4.13165,-6.09229c0,-5.45149 3.51,-8.17725 10.52999,-8.17725zM275.36944,88.27101c0,1.98932 -0.68861,3.5068 -2.06583,4.55247c2.48665,1.69602 3.72997,3.37611 3.72997,5.04025c0,4.53974 -3.41117,6.80958 -10.23352,6.80958c-3.8575,0 -8.52793,-0.32836 -14.01131,-0.98509l0.48777,-5.68104c6.10823,0.62486 10.75953,0.93728 13.95392,0.93728c3.20076,0 4.80114,-0.52282 4.80114,-1.5685c0,-0.45907 -0.73324,-0.99785 -2.19973,-1.61632c-1.46648,-0.61848 -3.09875,-1.02653 -4.89678,-1.2242c-4.08066,-0.06376 -7.72137,-0.19447 -10.92213,-0.39212l0.54515,-5.72885c4.5971,0.26143 8.38129,0.39213 11.35251,0.39213c2.97123,0 4.45684,-0.40807 4.45684,-1.2242c0,-0.52283 -0.90539,-1.20188 -2.71619,-2.03715c-1.8108,-0.82889 -3.71085,-1.42504 -5.70017,-1.78848c-3.00311,0.03826 -6.10503,0.1881 -9.30579,0.44951l0.53558,-5.72886c4.60349,-0.36344 8.7989,-0.54514 12.58627,-0.54514c3.78737,0 7.32924,0.09882 10.62565,0.29649l-0.29649,4.06472c-0.8799,0.19766 -2.47709,0.47502 -4.79158,0.83208c2.70981,1.7279 4.06472,3.44305 4.06472,5.14545zM262.34324,113.58352c-3.69172,0 -5.53758,0.81613 -5.53758,2.44839c0,0.72049 1.03611,1.32303 3.10832,1.8076c2.0722,0.49096 4.05514,0.73642 5.94883,0.73642c4.18267,0 6.274,-0.68542 6.274,-2.05626c0,-0.8799 -1.119,-1.59082 -3.35698,-2.13278c-2.23799,-0.53558 -4.38351,-0.80338 -6.4366,-0.80338zM262.78318,107.85465c3.03499,0 6.00622,0.61848 8.91368,1.85542c1.46648,0.65673 2.66517,1.58125 3.59607,2.77356c0.9309,1.19231 1.39635,2.52173 1.39635,3.98821c0,1.4665 -0.33473,2.72893 -1.00422,3.78735c-0.66948,1.0648 -1.55895,1.87455 -2.66836,2.42927c-2.18698,1.07754 -4.57161,1.61632 -7.1539,1.61632c-3.55783,0 -6.71715,-0.72687 -9.47796,-2.1806c-2.75444,-1.44736 -4.13165,-3.47812 -4.13165,-6.09229c0,-5.45149 3.51,-8.17725 10.52999,-8.17725zM273.99223,138.65235h-4.64812c0,-1.56851 -0.01594,-2.77677 -0.04782,-3.62477c-3.26453,-0.09564 -8.75108,-0.14345 -16.4597,-0.14345l0.54515,-5.77669c5.71291,0 10.88707,0.04782 15.52243,0.14346c0,-0.49096 -0.08289,-1.42185 -0.24867,-2.7927l4.0169,-0.72687c0.16578,0.77787 0.37619,2.00206 0.63123,3.67258c2.41651,0.06376 5.94245,0.19128 10.57782,0.38256l-0.53558,5.83406c-3.23265,-0.19766 -6.36646,-0.34431 -9.40144,-0.43995c0.03188,0.81613 0.04782,1.97338 0.04782,3.47174zM260.62171,151.73061l-2.19974,3.7204c-1.07754,-0.61848 -1.99251,-1.21464 -2.74488,-1.78848c-0.746,-0.57384 -1.46329,-1.43142 -2.15191,-2.57272c-0.68861,-1.14132 -1.03292,-2.41333 -1.03292,-3.81606c0,-2.05945 0.87351,-3.79054 2.62054,-5.19327c1.74703,-1.40273 4.10615,-2.10408 7.07737,-2.10408c3.39843,0 6.5673,0.60254 9.50666,1.80759c1.53025,0.65673 2.77676,1.59719 3.73954,2.82139c0.96277,1.2242 1.44418,2.48027 1.44418,3.76823c0,1.28796 -0.20404,2.32406 -0.6121,3.10832c-0.40806,0.78424 -0.86396,1.41229 -1.36767,1.88412c-0.5037,0.47821 -1.24651,0.89583 -2.22842,1.25289c-0.98191,0.35706 -1.78209,0.6089 -2.40057,0.75556c-0.61847,0.14666 -1.51749,0.27098 -2.69706,0.373c-1.56213,0.12751 -2.98078,0.19128 -4.256,0.19128c-0.72049,-2.6078 -1.37405,-5.98709 -1.96063,-10.13787c-1.30709,0.10202 -2.35276,0.33156 -3.137,0.68861c-0.77788,0.35706 -1.16681,0.78107 -1.16681,1.27202c0,0 1.18913,2.56633 3.56739,3.96906zM272.07942,148.84226c0,-0.72049 -0.7173,-1.36766 -2.1519,-1.9415c-1.4346,-0.56746 -3.09876,-0.89902 -4.99242,-0.99466c0.35706,1.7279 0.69817,3.22945 1.02335,4.50466c4.08066,0 6.12098,-0.52282 6.12098,-1.5685z" fill="none" fill-rule="nonzero" stroke="#000000" stroke-width="7" stroke-linecap="square"/><path d="M252.69312,22.84273c3.69172,-0.12752 8.12305,-0.19128 13.29401,-0.19128c5.17732,0 12.08894,0.16258 20.73484,0.48777c1.01379,2.74168 1.52068,5.5567 1.52068,8.44504c0,2.88833 -1.07118,5.46744 -3.21352,7.73731c-2.13597,2.26986 -4.82985,3.40479 -8.0816,3.40479c-3.2454,0 -6.05084,-1.23375 -8.41635,-3.70127c-2.3655,-2.46115 -4.10298,-5.68424 -5.21241,-9.66925c-3.65346,0 -7.40894,0.05101 -11.26643,0.15303zM271.98377,34.2335c1.40272,1.19231 2.96804,1.78847 4.69593,1.78847c1.73427,0 3.1402,-0.44951 4.21774,-1.34852c1.07754,-0.89902 1.61632,-1.90324 1.61632,-3.01267c0,-0.2933 -0.08289,-0.96277 -0.24867,-2.00844c-4.5971,-0.16578 -9.05077,-0.26461 -13.36096,-0.29649c0.65035,2.05945 1.6769,3.68534 3.07962,4.87766zM271.19953,53.94304c0,-1.37085 -1.72789,-2.40058 -5.18371,-3.08918c-2.28899,0.06377 -4.47917,0.09565 -6.5705,0.09565c-2.08497,0 -4.43452,-0.06376 -7.0487,-0.19128l0.48777,-5.68103c4.80114,0.09565 7.44719,0.14346 7.93814,0.14346c6.03809,0 10.65753,-0.2933 13.85829,-0.8799l-0.39212,3.6726c-0.95004,0.22953 -1.7821,0.49095 -2.49621,0.78424c3.42391,1.60037 5.13588,3.2167 5.13588,4.84896c0,1.33897 -0.5866,2.51535 -1.75979,3.52912l-4.50466,-1.28158c0.35706,-0.51645 0.53558,-1.16681 0.53558,-1.95105zM262.34324,63.88119c-3.69172,0 -5.53758,0.81613 -5.53758,2.44839c0,0.72049 1.03611,1.32302 3.10832,1.8076c2.0722,0.49095 4.05514,0.73643 5.94883,0.73643c4.18267,0 6.274,-0.68542 6.274,-2.05627c0,-0.8799 -1.119,-1.59081 -3.35698,-2.13277c-2.23799,-0.53558 -4.38351,-0.80339 -6.4366,-0.80339zM262.78318,58.15235c3.03499,0 6.00622,0.61847 8.91368,1.85542c1.46648,0.65673 2.66517,1.58125 3.59607,2.77357c0.9309,1.19231 1.39635,2.52172 1.39635,3.9882c0,1.46649 -0.33473,2.72894 -1.00422,3.78736c-0.66948,1.0648 -1.55895,1.87455 -2.66836,2.42926c-2.18698,1.07754 -4.57161,1.61632 -7.1539,1.61632c-3.55783,0 -6.71715,-0.72687 -9.47796,-2.1806c-2.75444,-1.44736 -4.13165,-3.47812 -4.13165,-6.09229c0,-5.45149 3.51,-8.17725 10.52999,-8.17725zM275.36944,88.27099c0,1.98932 -0.68861,3.50681 -2.06583,4.55248c2.48665,1.69602 3.72997,3.37611 3.72997,5.04025c0,4.53974 -3.41117,6.80958 -10.23352,6.80958c-3.8575,0 -8.52793,-0.32836 -14.01131,-0.98509l0.48777,-5.68104c6.10823,0.62486 10.75953,0.93728 13.95392,0.93728c3.20076,0 4.80114,-0.52282 4.80114,-1.56851c0,-0.45907 -0.73324,-0.99785 -2.19973,-1.61632c-1.46648,-0.61848 -3.09875,-1.02653 -4.89678,-1.2242c-4.08066,-0.06376 -7.72137,-0.19448 -10.92213,-0.39212l0.54515,-5.72885c4.5971,0.26143 8.38129,0.39212 11.35251,0.39212c2.97123,0 4.45684,-0.40806 4.45684,-1.22419c0,-0.52283 -0.90539,-1.20188 -2.71619,-2.03714c-1.8108,-0.82889 -3.71085,-1.42503 -5.70017,-1.78847c-3.00311,0.03826 -6.10503,0.1881 -9.30579,0.44951l0.53558,-5.72886c4.60349,-0.36344 8.7989,-0.54514 12.58627,-0.54514c3.78737,0 7.32924,0.09882 10.62565,0.29649l-0.29649,4.06472c-0.8799,0.19766 -2.47709,0.47501 -4.79158,0.83207c2.70981,1.7279 4.06472,3.44305 4.06472,5.14545zM262.34324,113.58352c-3.69172,0 -5.53758,0.81613 -5.53758,2.44839c0,0.72049 1.03611,1.32303 3.10832,1.8076c2.0722,0.49096 4.05514,0.73642 5.94883,0.73642c4.18267,0 6.274,-0.68542 6.274,-2.05626c0,-0.8799 -1.119,-1.59082 -3.35698,-2.13278c-2.23799,-0.53558 -4.38351,-0.80338 -6.4366,-0.80338zM262.78318,107.85465c3.03499,0 6.00622,0.61848 8.91368,1.85542c1.46648,0.65673 2.66517,1.58125 3.59607,2.77356c0.9309,1.19231 1.39635,2.52173 1.39635,3.98821c0,1.4665 -0.33473,2.72893 -1.00422,3.78735c-0.66948,1.0648 -1.55895,1.87455 -2.66836,2.42927c-2.18698,1.07754 -4.57161,1.61632 -7.1539,1.61632c-3.55783,0 -6.71715,-0.72687 -9.47796,-2.1806c-2.75444,-1.44736 -4.13165,-3.47812 -4.13165,-6.09229c0,-5.45149 3.51,-8.17725 10.52999,-8.17725zM273.99223,138.65235h-4.64812c0,-1.56851 -0.01594,-2.77677 -0.04782,-3.62477c-3.26453,-0.09564 -8.75108,-0.14345 -16.4597,-0.14345l0.54515,-5.77669c5.71291,0 10.88707,0.04782 15.52243,0.14346c0,-0.49096 -0.08289,-1.42185 -0.24867,-2.7927l4.0169,-0.72687c0.16578,0.77787 0.37619,2.00206 0.63123,3.67258c2.41651,0.06376 5.94245,0.19128 10.57782,0.38256l-0.53558,5.83406c-3.23265,-0.19766 -6.36646,-0.34431 -9.40144,-0.43995c0.03188,0.81613 0.04782,1.97338 0.04782,3.47174zM257.05432,147.76152c0,1.24333 1.18912,2.56634 3.56739,3.96907l-2.19974,3.7204c-1.07754,-0.61848 -1.99251,-1.21463 -2.74488,-1.78847c-0.746,-0.57384 -1.46329,-1.43142 -2.15191,-2.57272c-0.68861,-1.14132 -1.03292,-2.41333 -1.03292,-3.81606c0,-2.05945 0.87351,-3.79054 2.62054,-5.19326c1.74703,-1.40273 4.10615,-2.10409 7.07737,-2.10409c3.39843,0 6.5673,0.60255 9.50666,1.8076c1.53025,0.65673 2.77676,1.59719 3.73954,2.82138c0.96277,1.2242 1.44418,2.48027 1.44418,3.76823c0,1.28796 -0.20404,2.32406 -0.6121,3.10832c-0.40806,0.78424 -0.86396,1.41229 -1.36767,1.88412c-0.5037,0.47821 -1.24651,0.89583 -2.22842,1.25289c-0.98191,0.35706 -1.78209,0.6089 -2.40057,0.75556c-0.61847,0.14666 -1.51749,0.27099 -2.69706,0.373c-1.56213,0.12751 -2.98078,0.19128 -4.256,0.19128c-0.72049,-2.6078 -1.37405,-5.98708 -1.96063,-10.13786c-1.30709,0.10202 -2.35276,0.33155 -3.137,0.68861c-0.77788,0.35706 -1.16681,0.78106 -1.16681,1.27202zM272.07942,148.84226c0,-0.72049 -0.7173,-1.36766 -2.1519,-1.9415c-1.4346,-0.56746 -3.09876,-0.89902 -4.99242,-0.99466c0.35706,1.7279 0.69817,3.22945 1.02335,4.50466c4.08066,0 6.12098,-0.52282 6.12098,-1.5685z" fill="#ffffff" fill-rule="nonzero" stroke="none" stroke-width="1" stroke-linecap="square"/><path d="M284.85607,195.44366h-6.9373c0,-3.71307 -0.07964,-6.68464 -0.23892,-8.91467c-0.30209,-0.02197 -1.48578,-0.05493 -3.55104,-0.09886c-2.05977,-0.03844 -3.08965,-0.33779 -3.08965,-0.33779c0,0 0.82391,5.24554 0.82391,7.67882l-6.36879,1.16995c-0.09887,-3.80645 -0.26914,-6.69287 -0.51081,-8.65926c-3.86138,0 -7.79692,0.06866 -11.80659,0.20597l0.83214,-7.4646c5.06977,-0.06043 9.56557,-0.09063 13.48736,-0.09063c3.92179,0 9.30191,0.23894 16.14033,0.7168c0.81292,5.31695 1.21938,10.58171 1.21938,15.7943zM252.64954,205.62417c0,-2.98804 1.29629,-5.47897 3.88884,-7.47283c2.59806,-1.98836 6.44296,-2.98254 11.53469,-2.98254c5.09174,0 9.28817,1.07108 12.5893,3.21323c3.30111,2.14216 4.95168,4.72922 4.95168,7.76121c0,3.03746 -1.30728,5.5339 -3.92181,7.48932c-2.61453,1.96089 -6.44571,2.94134 -11.4935,2.94134c-5.0423,0 -9.22776,-1.07932 -12.55634,-3.23794c-3.32858,-2.15314 -4.99289,-4.72373 -4.99289,-7.71177zM278.84155,206.20914c0,-0.84587 -0.97221,-1.67253 -2.91663,-2.47996c-1.94442,-0.80192 -4.50677,-1.2029 -7.68705,-1.2029c-3.18028,0 -5.45426,0.33232 -6.82196,0.99693c-1.3622,0.66463 -2.04328,1.38416 -2.04328,2.15864c0,0.77447 0.98045,1.55718 2.94135,2.34813c1.96089,0.79096 4.53149,1.18642 7.71177,1.18642c3.18028,0 5.44328,-0.31857 6.78899,-0.95574c1.35121,-0.63716 2.02682,-1.32099 2.02682,-2.05152zM253.80302,218.28363c7.28333,0.39547 13.5615,0.59321 18.8345,0.59321c5.27849,0 8.9339,-0.01648 10.96621,-0.04944c1.67527,3.54829 2.51292,7.06088 2.51292,10.53776c0,2.70791 -0.8706,4.98464 -2.61179,6.83018c-1.73569,1.85104 -4.16622,2.77657 -7.29157,2.77657c-3.63068,0 -6.89061,-2.21081 -9.77976,-6.63245c-2.71889,2.16962 -6.24522,4.75669 -10.57897,7.76119l-4.03715,-5.47075c3.1638,-2.09821 7.09384,-4.92696 11.7901,-8.48623c-2.66396,-0.05493 -6.2095,-0.1785 -10.63663,-0.37074zM270.38826,226.33319c0.54377,1.14797 1.48029,2.39209 2.80952,3.7323c1.32924,1.34572 2.46073,2.01857 3.39449,2.01857c0.93376,0 1.63957,-0.25816 2.11745,-0.77448c0.48335,-0.51081 0.72504,-1.24685 0.72504,-2.20806c0,-0.96121 -0.1538,-1.87576 -0.46139,-2.74362c-4.34474,0 -7.20645,-0.00824 -8.5851,-0.02472zM284.85607,267.57826h-6.9373c0,-3.71307 -0.07964,-6.68462 -0.23892,-8.91466c-0.30209,-0.02197 -1.48578,-0.05493 -3.55104,-0.09887c-2.05977,-0.03844 -3.08965,-0.33779 -3.08965,-0.33779c0,0 0.82391,5.24553 0.82391,7.6788l-6.36879,1.16995c-0.09887,-3.80645 -0.26914,-6.69287 -0.51081,-8.65926c-3.86138,0 -7.79692,0.06867 -11.80659,0.20599l0.83214,-7.4646c5.06977,-0.06043 9.56557,-0.09063 13.48736,-0.09063c3.92179,0 9.30191,0.23892 16.14033,0.71678c0.81292,5.31695 1.21938,10.58171 1.21938,15.7943zM253.80302,268.44038c7.28333,0.39547 13.5615,0.59321 18.8345,0.59321c5.27849,0 8.9339,-0.01648 10.96621,-0.04943c1.67527,3.54829 2.51292,7.06088 2.51292,10.53777c0,2.70791 -0.8706,4.98465 -2.61179,6.83019c-1.73569,1.85104 -4.16622,2.77657 -7.29157,2.77657c-3.63068,0 -6.89061,-2.21081 -9.77976,-6.63245c-2.71889,2.16962 -6.24522,4.75669 -10.57897,7.76119l-4.03715,-5.47074c3.1638,-2.09821 7.09384,-4.92697 11.7901,-8.48624c-2.66396,-0.05493 -6.2095,-0.1785 -10.63663,-0.37074zM270.38826,276.48995c0.54377,1.14797 1.48029,2.39207 2.80952,3.7323c1.32924,1.34572 2.46073,2.01857 3.39449,2.01857c0.93376,0 1.63957,-0.25815 2.11745,-0.77447c0.48335,-0.51081 0.72504,-1.24685 0.72504,-2.20806c0,-0.96121 -0.1538,-1.87575 -0.46139,-2.74361c-4.34474,0 -7.20645,-0.00824 -8.5851,-0.02471zM253.99252,291.19665c4.96541,-0.12084 9.43649,-0.18126 13.4132,-0.18126c3.98222,0 9.39253,0.23892 16.23096,0.7168c0.81292,5.31695 1.21939,10.58171 1.21939,15.79429h-6.9373c0,-3.74053 -0.07964,-6.70385 -0.23892,-8.88995c-2.62002,-0.09338 -4.42987,-0.1483 -5.42955,-0.16477c0.21971,1.49403 0.36252,3.97123 0.42843,7.43164l-6.38527,1.11227c-0.03844,-2.54312 -0.22519,-5.4268 -0.56025,-8.65103c-2.85072,0 -4.70725,0.00824 -5.56962,0.02471c0.14282,1.80161 0.59322,4.68529 1.35121,8.65103l-6.18755,0.95574c-1.33472,-2.91113 -2.00209,-6.07495 -2.00209,-9.49141zM253.99252,310.05291c4.96541,-0.12084 9.43649,-0.18126 13.4132,-0.18126c3.98222,0 9.39253,0.23892 16.23096,0.7168c0.81292,5.31695 1.21939,10.58171 1.21939,15.7943h-6.9373c0,-3.74053 -0.07964,-6.70386 -0.23892,-8.88995c-2.62002,-0.09338 -4.42987,-0.1483 -5.42955,-0.16478c0.21971,1.49401 0.36252,3.97123 0.42843,7.43163l-6.38527,1.11227c-0.03844,-2.54312 -0.22519,-5.4268 -0.56025,-8.65103c-2.85072,0 -4.70725,0.00824 -5.56962,0.02471c0.14282,1.80161 0.59322,4.68529 1.35121,8.65103l-6.18755,0.95574c-1.33472,-2.91113 -2.00209,-6.07494 -2.00209,-9.49141zM262.44581,329.78248c4.6743,-0.56576 8.75263,-0.84863 12.235,-0.84863c3.48237,0 7.5305,0.31034 12.14438,0.93102l-1.53247,7.98366c-5.99804,-1.54894 -13.82516,-2.57608 -23.48134,-3.0814zM259.80109,334.57764c-0.96122,0.52729 -1.6698,0.79095 -3.21325,0.79095c-1.53796,0 -2.55411,-0.34054 -4.13602,-1.02164l1.28529,-5.54492c1.56543,0.42293 2.34814,0.63441 3.4357,0.63441c1.09305,0 1.82908,-0.04944 3.29564,-0.14831z" fill="none" fill-rule="nonzero" stroke="#000000" stroke-width="7" stroke-linecap="square"/><path d="M284.85607,195.44366h-6.9373c0,-3.71307 -0.07964,-6.68464 -0.23892,-8.91467c-0.30209,-0.02197 -1.48578,-0.05493 -3.55104,-0.09886c-2.05977,-0.03844 -3.08965,-0.15105 -3.08965,-0.33779c0.54927,2.68594 0.82391,4.15801 0.82391,6.59129l-6.36879,-0.28009c-0.09887,-3.80645 -0.26914,-4.1553 -0.51081,-6.12169c-3.86138,0 -7.79692,0.06866 -11.80659,0.20597l0.83214,-7.4646c5.06977,-0.06043 9.56557,-0.09063 13.48736,-0.09063c3.92179,0 9.30191,0.23894 16.14033,0.7168c0.81292,5.31695 1.21938,10.58171 1.21938,15.7943zM252.64954,205.62417c0,-2.98804 1.29629,-5.47897 3.88884,-7.47283c2.59806,-1.98836 6.44296,-2.98254 11.53469,-2.98254c5.09174,0 9.28817,1.07108 12.5893,3.21323c3.30111,2.14216 4.95168,4.72922 4.95168,7.76121c0,3.03746 -1.30728,5.5339 -3.92181,7.48932c-2.61453,1.96089 -6.44571,2.94134 -11.4935,2.94134c-5.0423,0 -9.22776,-1.07932 -12.55634,-3.23794c-3.32858,-2.15314 -4.99289,-4.72373 -4.99289,-7.71177zM278.84155,206.20914c0,-0.84587 -0.97221,-1.67253 -2.91663,-2.47996c-1.94442,-0.80192 -4.50677,-1.2029 -7.68705,-1.2029c-3.18028,0 -5.45426,0.33232 -6.82196,0.99693c-1.3622,0.66463 -2.04328,1.38416 -2.04328,2.15864c0,0.77447 0.98045,1.55718 2.94135,2.34813c1.96089,0.79096 4.53149,1.18642 7.71177,1.18642c3.18028,0 5.44328,-0.31857 6.78899,-0.95574c1.35121,-0.63716 2.02682,-1.32099 2.02682,-2.05152zM253.80302,218.28363c7.28333,0.39547 13.5615,0.59321 18.8345,0.59321c5.27849,0 8.9339,-0.01648 10.96621,-0.04944c1.67527,3.54829 2.51292,7.06088 2.51292,10.53776c0,2.70791 -0.8706,4.98464 -2.61179,6.83018c-1.73569,1.85104 -4.16622,2.77657 -7.29157,2.77657c-3.63068,0 -6.89061,-2.21081 -9.77976,-6.63245c-2.71889,2.16962 -6.24522,4.75669 -10.57897,7.76119l-4.03715,-5.47075c3.1638,-2.09821 7.09384,-4.92696 11.7901,-8.48623c-2.66396,-0.05493 -6.2095,-0.1785 -10.63663,-0.37074zM270.38826,226.33319c0.54377,1.14797 1.48029,2.39209 2.80952,3.7323c1.32924,1.34572 2.46073,2.01857 3.39449,2.01857c0.93376,0 1.63957,-0.25816 2.11745,-0.77448c0.48335,-0.51081 0.72504,-1.24685 0.72504,-2.20806c0,-0.96121 -0.1538,-1.87576 -0.46139,-2.74362c-4.34474,0 -7.20645,-0.00824 -8.5851,-0.02472zM284.85607,267.57826h-6.9373c0,-3.71307 -0.07964,-6.68462 -0.23892,-8.91466c-0.30209,-0.02197 -1.48578,-0.05493 -3.55104,-0.09887c-2.05977,-0.03844 -3.08965,-0.15104 -3.08965,-0.33779c0.54927,2.68593 0.82391,5.24553 0.82391,7.6788l-6.36879,-0.64259c-0.09887,-3.80645 -0.26914,-4.88031 -0.51081,-6.84671c-3.86138,0 -7.79692,0.06867 -11.80659,0.20599l0.83214,-7.4646c5.06977,-0.06043 9.56557,-0.09063 13.48736,-0.09063c3.92179,0 9.30191,0.23892 16.14033,0.71678c0.81292,5.31695 1.21938,10.58171 1.21938,15.7943zM253.80302,268.44038c7.28333,0.39547 13.5615,0.59321 18.8345,0.59321c5.27849,0 8.9339,-0.01648 10.96621,-0.04943c1.67527,3.54829 2.51292,7.06088 2.51292,10.53777c0,2.70791 -0.8706,4.98465 -2.61179,6.83019c-1.73569,1.85104 -4.16622,2.77657 -7.29157,2.77657c-3.63068,0 -6.89061,-2.21081 -9.77976,-6.63245c-2.71889,2.16962 -6.24522,4.75669 -10.57897,7.76119l-4.03715,-5.47074c3.1638,-2.09821 7.09384,-4.92697 11.7901,-8.48624c-2.66396,-0.05493 -6.2095,-0.1785 -10.63663,-0.37074zM270.38826,276.48995c0.54377,1.14797 1.48029,2.39207 2.80952,3.7323c1.32924,1.34572 2.46073,2.01857 3.39449,2.01857c0.93376,0 1.63957,-0.25815 2.11745,-0.77447c0.48335,-0.51081 0.72504,-1.24685 0.72504,-2.20806c0,-0.96121 -0.1538,-1.87575 -0.46139,-2.74361c-4.34474,0 -7.20645,-0.00824 -8.5851,-0.02471zM253.99252,291.19665c4.96541,-0.12084 9.43649,-0.18126 13.4132,-0.18126c3.98222,0 9.39253,0.23892 16.23096,0.7168c0.81292,5.31695 1.21939,10.58171 1.21939,15.79429h-6.9373c0,-3.74053 -0.07964,-6.70385 -0.23892,-8.88995c-2.62002,-0.09338 -4.42987,-0.1483 -5.42955,-0.16477c0.21971,1.49403 0.36252,3.97123 0.42843,7.43164l-6.38527,1.11227c-0.03844,-2.54312 -0.22519,-5.4268 -0.56025,-8.65103c-2.85072,0 -4.70725,0.00824 -5.56962,0.02471c0.14282,1.80161 0.59322,4.68529 1.35121,8.65103l-6.18755,0.95574c-1.33472,-2.91113 -2.00209,-6.07495 -2.00209,-9.49141zM253.99252,310.05291c4.96541,-0.12084 9.43649,-0.18126 13.4132,-0.18126c3.98222,0 9.39253,0.23892 16.23096,0.7168c0.81292,5.31695 1.21939,10.58171 1.21939,15.7943h-6.9373c0,-3.74053 -0.07964,-6.70386 -0.23892,-8.88995c-2.62002,-0.09338 -4.42987,-0.1483 -5.42955,-0.16478c0.21971,1.49401 0.36252,3.97123 0.42843,7.43163l-6.38527,1.11227c-0.03844,-2.54312 -0.22519,-5.4268 -0.56025,-8.65103c-2.85072,0 -4.70725,0.00824 -5.56962,0.02471c0.14282,1.80161 0.59322,4.68529 1.35121,8.65103l-6.18755,0.95574c-1.33472,-2.91113 -2.00209,-6.07494 -2.00209,-9.49141zM262.44581,329.78248c4.6743,-0.56576 8.75263,-0.84863 12.235,-0.84863c3.48237,0 7.5305,0.31034 12.14438,0.93102l-1.53247,7.98366c-5.99804,-1.54894 -13.82516,-2.57608 -23.48134,-3.0814zM259.80109,334.57764c-0.96122,0.52729 -1.6698,0.79095 -3.21325,0.79095c-1.53796,0 -2.55411,-0.34054 -4.13602,-1.02164l1.28529,-5.54492c1.56543,0.42293 2.34814,0.63441 3.4357,0.63441c1.09305,0 1.82908,-0.04944 3.29564,-0.14831z" fill="url(#color-2)" fill-rule="nonzero" stroke="none" stroke-width="1" stroke-linecap="square"/><path d="M192.21054,63.79991c-9.55446,-12.31013 -7.32058,-30.0349 4.98957,-39.58937c12.31013,-9.55448 30.03491,-7.32058 39.58937,4.98957c9.55446,12.31013 7.32058,30.03491 -4.98957,39.58937c-12.31013,9.55448 -30.03491,7.32058 -39.58937,-4.98957z" fill="#000000" fill-rule="nonzero" stroke="none" stroke-width="0" stroke-linecap="butt"/><path d="M196.66914,64.3309c-9.84773,-9.84773 -9.84773,-25.81403 0,-35.66176c9.84773,-9.84773 25.81403,-9.84773 35.66176,0c9.84773,9.84773 9.84773,25.81403 0,35.66176c-9.84773,9.84773 -25.81403,9.84773 -35.66176,0z" fill="url(#color-3)" fill-rule="nonzero" stroke="none" stroke-width="0" stroke-linecap="butt"/><path d="M198.75325,62.24676c-8.69668,-8.69668 -8.69668,-22.79681 0,-31.49351c8.69668,-8.69668 22.79681,-8.69668 31.49351,0c8.69668,8.69668 8.69668,22.79681 0,31.49351c-8.69668,8.69668 -22.79681,8.69668 -31.49351,0z" fill="url(#color-4)" fill-rule="nonzero" stroke="none" stroke-width="0" stroke-linecap="butt"/><path d="M220.39998,45.66509l-4.57315,-3.71964l9.49038,-8.33876c0,0 0.88133,-0.9298 1.51299,-0.65955c1.01971,0.43626 0.5648,1.49485 0.5648,1.49485z" data-paper-data="{&quot;index&quot;:null}" fill="#ffffff" fill-rule="nonzero" stroke="none" stroke-width="1" stroke-linecap="butt"/><path d="M200.66609,55.24505c0.31707,-0.31855 0.67512,-0.59216 1.01292,-0.88846c1.0707,-0.93933 2.14141,-1.87818 3.21211,-2.81751c0.75117,-0.65896 3.19827,-2.80545 3.19827,-2.80545l5.21183,8.30472c0,0 -0.02026,0.06001 -0.16054,0.2854c-0.29879,0.48005 -0.48795,0.98181 -0.92255,1.37394c-0.95267,0.85933 -2.29895,1.24751 -3.53609,1.45642c-1.62088,0.27409 -3.32324,0.26225 -4.93818,-0.04988c-1.18825,-0.22964 -2.4886,-0.6361 -3.37262,-1.50679c-0.31508,-0.31015 -0.56894,-0.69438 -0.65438,-1.13393c-0.05185,-0.26718 -0.04001,-0.54473 0.03556,-0.80599c0.08693,-0.30274 0.4109,-0.90773 0.91366,-1.41247zM206.42809,55.15323c-2.87883,0 -5.21257,0.8939 -5.21257,1.99657c0,1.10268 2.33375,1.99658 5.21257,1.99658c2.87883,0 5.21257,-0.8939 5.21257,-1.99658c0,-1.10268 -2.33374,-1.99657 -5.21257,-1.99657z" fill="#ffffff" fill-rule="nonzero" stroke="none" stroke-width="0.5" stroke-linecap="butt"/><path d="M227.21122,54.25908l0.96982,0.85082c0.35209,0.30863 0.63256,0.68638 0.8681,1.0913c0.00098,0.00197 0.00247,0.00395 0.00345,0.00642c0.16394,0.27949 0.26221,0.5965 0.26221,0.92192c0,2.13816 -3.18601,2.94058 -4.79283,3.09119c-2.4211,0.22665 -5.31476,0.17234 -7.32256,-1.19894c-0.65873,-0.44986 -0.93673,-1.05377 -1.33424,-1.69175c-0.35653,-0.57232 -0.71305,-1.14512 -1.06908,-1.71744c-3.07638,-4.94047 -6.15276,-9.88094 -9.22863,-14.82142c-1.42264,-2.2853 -2.84576,-4.57012 -4.26841,-6.85542c-0.4064,-0.65231 0.76292,-1.73768 1.51005,-1.08242c1.8952,1.66213 3.78992,3.32476 5.68513,4.98689c4.72813,4.14743 9.45677,8.29535 14.1849,12.44278c1.51054,1.32537 3.02107,2.65072 4.53209,3.97608zM222.64525,55.15322c-2.87883,0 -5.21257,0.8939 -5.21257,1.99657c0,1.10268 2.33375,1.99658 5.21257,1.99658c2.87883,0 5.21257,-0.8939 5.21257,-1.99658c0,-1.10268 -2.33374,-1.99657 -5.21257,-1.99657z" data-paper-data="{&quot;index&quot;:null}" fill="#ffffff" fill-rule="nonzero" stroke="none" stroke-width="1" stroke-linecap="butt"/><path d="M220.62435,224.89648l-9.83107,4.99029c-0.62986,0.31972 -1.39964,0.0683 -1.71938,-0.56156c-0.10074,-0.19847 -0.14795,-0.41979 -0.13695,-0.64211l0.54058,-10.92661c0.0349,-0.7055 0.63512,-1.24913 1.34062,-1.21422c0.2223,0.01099 0.43789,0.07982 0.62545,0.19967l9.29049,5.93631c0.59523,0.38033 0.09389,2.11486 -0.10974,2.21823z" fill="none" fill-rule="evenodd" stroke="#000000" stroke-width="6" stroke-linecap="butt"/><path d="M221.1232,224.44467c-0.12296,0.19244 -0.29521,0.34845 -0.49885,0.45182l-9.83107,4.99029c-0.62986,0.31972 -1.39964,0.0683 -1.71938,-0.56156c-0.10074,-0.19847 -0.14795,-0.41979 -0.13695,-0.64211l0.54058,-10.92661c0.0349,-0.7055 0.63512,-1.24913 1.34062,-1.21422c0.2223,0.01099 0.43789,0.07982 0.62545,0.19967l9.29049,5.93631c0.59523,0.38033 0.76944,1.17119 0.38911,1.76641z" fill="#ffffff" fill-rule="evenodd" stroke="none" stroke-width="1" stroke-linecap="butt"/><path d="M237.38406,238.57882c-0.12688,2.5646 -2.30874,4.54074 -4.87333,4.41386l-36.32903,-1.79733c-2.5646,-0.12688 -4.54074,-2.30874 -4.41386,-4.87333l1.37842,-27.86158c0.12688,-2.5646 2.30874,-4.54074 4.87332,-4.41386l36.32903,1.79734c2.5646,0.12688 4.54074,2.30874 4.41386,4.87333zM234.11888,210.4875l-36.32903,-1.79734l-1.37842,27.86158l36.32903,1.79733z" fill="none" fill-rule="nonzero" stroke="#000000" stroke-width="6" stroke-linecap="butt"/><path d="M238.76248,210.71724l-1.37842,27.86158c-0.12688,2.5646 -2.30874,4.54074 -4.87333,4.41386l-36.32903,-1.79733c-2.5646,-0.12688 -4.54074,-2.30874 -4.41386,-4.87333l1.37842,-27.86158c0.12688,-2.5646 2.30874,-4.54074 4.87332,-4.41386l36.32903,1.79734c2.5646,0.12688 4.54074,2.30874 4.41386,4.87333zM234.11888,210.4875l-36.32903,-1.79734l-1.37842,27.86158l36.32903,1.79733z" fill="#ffffff" fill-rule="nonzero" stroke="none" stroke-width="1" stroke-linecap="butt"/><g fill-rule="nonzero" stroke-linecap="butt"><path d="M207.24503,124.59296c0,0 -0.00366,-0.12966 0.17944,-0.14666c1.10197,-0.10236 11.60095,-1.07754 11.60095,-1.07754c2.57364,-3.24509 6.85799,-4.60554 10.8322,-3.43939c3.97421,1.16615 6.84454,4.62581 7.25668,8.74703c1.55339,6.1522 2.66051,12.40866 3.3127,18.72034c0.35074,3.77615 -0.98501,6.33949 -3.90884,7.22488c-0.549,0.16671 -1.11366,0.27737 -1.68501,0.32977c-2.75406,0.31453 -5.37487,-1.26371 -6.38494,-3.8451c-0.76944,-1.67551 -2.08192,-3.94622 -2.88478,-5.30386c-3.37919,1.92281 -7.67562,0.33781 -8.99599,-3.31907l-3.52648,0.32755c-0.62166,3.84694 -4.56559,6.2001 -8.2464,4.9206c-0.53763,1.49788 -1.40984,3.9715 -1.85896,5.74447c-0.5164,2.71743 -2.79344,4.74913 -5.55191,4.95384c-0.56614,0.05201 -1.13581,0.0468 -1.70093,-0.01526c-3.04813,-0.28346 -4.8375,-2.60374 -5.18825,-6.3799c-0.52143,-6.32382 -0.58592,-12.67712 -0.19223,-19.01017c-0.35394,-4.12661 1.83008,-8.05574 5.52152,-9.9339c1.15358,-0.58693 2.38213,-0.93688 3.62191,-1.05787c2.72751,-0.26613 5.50844,0.5764 7.65845,2.44335z" fill="none" stroke="#000000" stroke-width="6.5"/><path d="M207.10418,124.46622l11.92124,-1.10728c2.57364,-3.24509 6.858,-4.60552 10.8322,-3.43938c3.97421,1.16615 6.84453,4.62581 7.25668,8.74703c1.55339,6.1522 2.66051,12.40866 3.3127,18.72034c0.35074,3.77615 -0.985,6.33949 -3.90884,7.22487c-0.549,0.16671 -1.11366,0.27737 -1.68501,0.32977c-2.75406,0.31453 -5.37487,-1.26371 -6.38494,-3.8451c-0.76944,-1.67551 -2.08192,-3.94622 -2.88478,-5.30386c-3.37919,1.92281 -7.67562,0.3378 -8.99598,-3.31907l-3.52648,0.32755c-0.62166,3.84694 -4.56558,6.2001 -8.2464,4.9206c-0.53763,1.49788 -1.40984,3.97151 -1.85896,5.74447c-0.5164,2.71743 -2.79344,4.74913 -5.55191,4.95383c-0.56614,0.05201 -1.13581,0.0468 -1.70093,-0.01527c-3.04813,-0.28346 -4.8375,-2.60375 -5.18825,-6.37991c-0.52143,-6.32382 -0.58592,-12.67711 -0.19223,-19.01017c-0.35394,-4.12661 1.83008,-8.05574 5.52151,-9.9339c1.15358,-0.58693 2.38213,-0.93688 3.62192,-1.05787c2.72751,-0.26613 5.50844,0.57639 7.65845,2.44334z" fill="#ffffff" stroke="none" stroke-width="9.34454"/><path d="M224.84856,123.2885c0.4717,-0.49223 1.13385,-0.75542 1.81475,-0.72134c1.23138,0.0621 2.20553,1.06504 2.23174,2.2977c0.02623,1.23267 -0.90441,2.27612 -2.13203,2.39051c-1.29256,0.11999 -2.43771,-0.8305 -2.55784,-2.12306c-0.06306,-0.67883 0.17169,-1.35159 0.64339,-1.84382zM197.60586,126.8162l4.68128,-0.43482l0.28984,3.12047l3.12086,-0.28987l0.43481,4.68128l-3.12086,0.28987l0.28987,3.12086l-4.68128,0.43482l-0.28987,-3.12086l-3.12086,0.28987l-0.43482,-4.68128l3.12086,-0.28987zM227.32564,124.84285c-0.03992,-0.4309 -0.42157,-0.74785 -0.85247,-0.70794c-0.20693,0.01917 -0.39777,0.11975 -0.53054,0.27963c-0.13277,0.15988 -0.19659,0.36595 -0.17741,0.57288c0.03993,0.4309 0.42159,0.74784 0.85249,0.70793c0.4309,-0.03993 0.74784,-0.42159 0.70794,-0.85249zM199.31119,128.23131l0.28988,3.12085l-3.12085,0.28988l0.14494,1.56043l3.12085,-0.28988l0.28988,3.12086l1.56042,-0.14494l-0.28987,-3.12085l3.12085,-0.28988l-0.14494,-1.56043l-3.12085,0.28987l-0.28987,-3.12085zM220.6022,128.40441c0.47178,-0.49224 1.13406,-0.7554 1.81502,-0.7212c1.23145,0.06211 2.2056,1.06516 2.23172,2.29789c0.02611,1.23274 -0.90469,2.27615 -2.1324,2.39035c-1.29256,0.11998 -2.4377,-0.8305 -2.55783,-2.12306c-0.06308,-0.6789 0.17172,-1.35175 0.6435,-1.84399zM229.96438,127.53482c0.47178,-0.49224 1.13405,-0.7554 1.81502,-0.72119c1.23137,0.0621 2.20551,1.06504 2.23173,2.2977c0.02622,1.23265 -0.90441,2.2761 -2.13202,2.39051c-0.62078,0.05772 -1.23905,-0.13353 -1.71881,-0.53168c-0.47976,-0.39815 -0.78171,-0.97057 -0.83941,-1.59135c-0.06308,-0.6789 0.17172,-1.35174 0.64351,-1.84399zM223.07948,129.95813c-0.04012,-0.43088 -0.42194,-0.74765 -0.85282,-0.70753c-0.20693,0.01927 -0.39772,0.11995 -0.53041,0.27989c-0.13269,0.15994 -0.1964,0.36605 -0.17713,0.57297c0.04014,0.43088 0.42197,0.74763 0.85285,0.7075c0.43088,-0.04014 0.74764,-0.42195 0.70752,-0.85284zM231.58923,128.38098c-0.207,0.01917 -0.3979,0.1198 -0.53066,0.27977c-0.13277,0.15996 -0.19654,0.36613 -0.17726,0.57312c0.04014,0.43083 0.42188,0.74758 0.85272,0.70752c0.43084,-0.04006 0.74765,-0.42175 0.70767,-0.85259c-0.03998,-0.43084 -0.42162,-0.74773 -0.85247,-0.70783zM225.71832,132.65092c0.47168,-0.49214 1.13379,-0.75528 1.81462,-0.7212c1.23137,0.06211 2.2055,1.06504 2.23171,2.29769c0.02622,1.23265 -0.90441,2.2761 -2.13201,2.39051c-0.62078,0.05763 -1.23903,-0.13372 -1.71873,-0.53195c-0.47971,-0.39822 -0.78155,-0.97071 -0.83915,-1.5915c-0.06293,-0.67877 0.17187,-1.35143 0.64356,-1.84357zM228.19524,134.20502c-0.03992,-0.4309 -0.42158,-0.74786 -0.85248,-0.70794c-0.20693,0.01917 -0.39777,0.11975 -0.53053,0.27963c-0.13277,0.15988 -0.19658,0.36594 -0.17741,0.57287c0.03993,0.4309 0.42159,0.74784 0.85249,0.70792c0.4309,-0.03993 0.74784,-0.42159 0.70794,-0.85248zM203.86294,140.76864c0.37482,-1.21102 1.44225,-2.077 2.70453,-2.19411c1.72349,-0.15991 3.25031,1.10754 3.41035,2.83101c0.11722,1.26227 -0.53749,2.47085 -1.65882,3.06217c-1.12134,0.59132 -2.48846,0.44893 -3.46388,-0.36078c-0.97542,-0.80971 -1.36701,-2.12727 -0.99218,-3.33829zM219.34049,140.53586c-0.1601,-1.72354 1.10732,-3.25055 2.83085,-3.41067c0.82771,-0.07689 1.65205,0.17818 2.29169,0.70908c0.63964,0.53091 1.04217,1.29419 1.11903,2.1219c0.16005,1.72355 -1.1074,3.25052 -2.83095,3.41059c-1.72355,0.16007 -3.25053,-1.10735 -3.41063,-2.83089zM207.8165,140.45582c-0.34344,-0.2658 -0.78176,-0.37716 -1.21043,-0.30753c-0.83576,0.13335 -1.41465,0.90619 -1.30761,1.74573c0.10705,0.83954 0.86133,1.44241 1.70381,1.36179c0.41385,-0.03843 0.79549,-0.2397 1.06095,-0.55952c0.26546,-0.31982 0.39298,-0.73199 0.35454,-1.14585c-0.04009,-0.43242 -0.25783,-0.82882 -0.60126,-1.09462zM223.42038,139.00649c-0.34344,-0.2658 -0.78177,-0.37716 -1.21043,-0.30754c-0.83576,0.13335 -1.41465,0.9062 -1.30761,1.74574c0.10704,0.83954 0.86133,1.4424 1.70381,1.36178c0.41385,-0.03843 0.79548,-0.2397 1.06095,-0.55952c0.26546,-0.31982 0.39298,-0.73199 0.35454,-1.14585c-0.0401,-0.43242 -0.25783,-0.82882 -0.60126,-1.09462z" fill="#000000" stroke="none" stroke-width="9.34454"/><path d="M232.45254,129.08779c0.03998,0.43084 -0.28667,0.82438 -0.7175,0.86444c-0.43084,0.04006 -0.82444,-0.28652 -0.86457,-0.71735c-0.01928,-0.20699 0.04694,-0.42113 0.17972,-0.58109c0.13277,-0.15996 0.33104,-0.26449 0.53804,-0.28366c0.43085,-0.0399 0.82433,0.28681 0.86432,0.71765z" data-paper-data="{&quot;noHover&quot;:false,&quot;origItem&quot;:[&quot;Path&quot;,{&quot;applyMatrix&quot;:true,&quot;segments&quot;:[[[357.74897,136.43652],[1.98674,0.00053],[-0.95452,-0.00025]],[[355.20399,137.49029],[0.67495,-0.67495],[-0.67494,0.67496]],[[354.15023,140.03527],[-0.00025,-0.95452],[0.00054,1.98675]],[[357.74833,143.63209],[-1.98675,0.00017],[1.98676,-0.00018]],[[361.34579,140.03463],[-0.00017,1.98674],[0.00018,-1.98675]]],&quot;closed&quot;:true,&quot;fillColor&quot;:[1,1,1],&quot;strokeWidth&quot;:9.34454}]}" fill="#ffffff" stroke="#ffffff" stroke-width="1.5"/><path d="M227.33649,124.84184c0.03992,0.4309 -0.28687,0.82441 -0.71776,0.86434c-0.4309,0.03993 -0.82441,-0.28687 -0.86434,-0.71776c-0.01918,-0.20693 0.04711,-0.42096 0.17988,-0.58084c0.13277,-0.15988 0.33098,-0.26435 0.53791,-0.28352c0.43091,-0.03991 0.82441,0.28688 0.86432,0.71778z" data-paper-data="{&quot;noHover&quot;:false,&quot;origItem&quot;:[&quot;Path&quot;,{&quot;applyMatrix&quot;:true,&quot;segments&quot;:[[[339.75865,118.44983],[0,0],[0.00049,-1.98698]],[[336.16182,114.85115],[1.98699,0.00054],[-0.95421,-0.00025]],[[333.61748,115.90429],[0.6749,-0.67457],[-0.67491,0.67456]],[[332.56309,118.44812],[0.00021,-0.95421],[-0.00045,1.98698]],[[336.16001,122.04671],[-1.98699,-0.00047],[1.98698,0.00047]],[[339.75864,118.44983],[-0.00051,1.98698],[0,0]]],&quot;closed&quot;:true,&quot;fillColor&quot;:[1,1,1],&quot;strokeWidth&quot;:9.34454}]}" fill="#ffffff" stroke="#ffffff" stroke-width="1.5"/><path d="M223.09033,129.95712c0.04012,0.43088 -0.28648,0.82455 -0.71735,0.86468c-0.43088,0.04014 -0.82456,-0.28646 -0.86469,-0.71734c-0.01927,-0.20693 0.04691,-0.42099 0.17959,-0.58093c0.13269,-0.15994 0.33085,-0.26452 0.53778,-0.28378c0.43088,-0.04012 0.82455,0.28648 0.86468,0.71736z" data-paper-data="{&quot;noHover&quot;:false,&quot;origItem&quot;:[&quot;Path&quot;,{&quot;applyMatrix&quot;:true,&quot;segments&quot;:[[[318.17325,140.0334],[0,0],[-0.00048,-1.98699]],[[314.57466,136.43648],[1.98699,-0.00045],[-0.95421,0.00021]],[[312.03083,137.49088],[0.67457,-0.6749],[-0.67457,0.6749]],[[310.9777,140.03523],[-0.00025,-0.95421],[0.00054,1.98698]],[[314.5764,143.63205],[-1.98699,0.00051],[1.98698,-0.00051]],[[318.17326,140.0334],[0.00048,1.98699],[0,0]]],&quot;closed&quot;:true,&quot;fillColor&quot;:[1,1,1],&quot;strokeWidth&quot;:9.34454}]}" fill="#ffffff" stroke="#ffffff" stroke-width="1.5"/><path d="M228.20608,134.204c0.03992,0.4309 -0.28688,0.82441 -0.71778,0.86433c-0.4309,0.03993 -0.82441,-0.28686 -0.86434,-0.71776c-0.01918,-0.20693 0.04711,-0.42096 0.17988,-0.58084c0.13277,-0.15988 0.33098,-0.26436 0.53791,-0.28352c0.43091,-0.03991 0.82441,0.28688 0.86433,0.71778z" data-paper-data="{&quot;noHover&quot;:false,&quot;origItem&quot;:[&quot;Path&quot;,{&quot;applyMatrix&quot;:true,&quot;segments&quot;:[[[339.75865,161.62233],[0,0],[0.00049,-1.98699]],[[336.16182,158.02363],[1.98699,0.00053],[-0.95421,-0.00026]],[[333.61748,159.07678],[0.6749,-0.67456],[-0.67491,0.67455]],[[332.56309,161.6206],[0.00021,-0.95421],[-0.00045,1.98698]],[[336.16001,165.21919],[-1.98699,-0.00048],[1.98698,0.00047]],[[339.75864,161.62231],[-0.00051,1.98699],[0,0]]],&quot;closed&quot;:true,&quot;fillColor&quot;:[1,1,1],&quot;strokeWidth&quot;:9.34454}]}" fill="#ffffff" stroke="#ffffff" stroke-width="1.5"/><path d="M223.42705,138.99788c0.34344,0.2658 0.56533,0.66979 0.60543,1.10221c0.03845,0.41386 -0.09154,0.83398 -0.357,1.1538c-0.26546,0.31982 -0.65445,0.52498 -1.06831,0.5634c-0.84248,0.08062 -1.6086,-0.53171 -1.71564,-1.37125c-0.10704,-0.83954 0.48092,-1.62452 1.31668,-1.75787c0.42866,-0.06963 0.8754,0.04388 1.21882,0.30969z" data-paper-data="{&quot;noHover&quot;:false,&quot;origItem&quot;:[&quot;Path&quot;,{&quot;applyMatrix&quot;:true,&quot;segments&quot;:[[[315.88931,181.54666],[0,0],[-1.45728,-1.36107]],[[310.48593,179.62662],[1.98937,-0.13633],[-3.87765,0.25476]],[[303.7663,187.05271],[-0.13287,-3.88375],[0.13287,3.88375]],[[310.97772,194.00223],[-3.88601,0.01083],[1.90844,0.00004]],[[316.06591,191.8947],[-1.34946,1.34946],[1.34946,-1.34947]],[[318.17342,186.8065],[0.00004,1.90845],[0.00032,-1.99402]],[[315.88931,181.54665],[1.45729,1.36106],[0,0]]],&quot;closed&quot;:true,&quot;fillColor&quot;:[1,1,1],&quot;strokeWidth&quot;:9.34454}]}" fill="#ffffff" stroke="none" stroke-width="4.67227"/><path d="M207.82317,140.44722c0.34344,0.2658 0.56533,0.66979 0.60543,1.10221c0.03846,0.41386 -0.09154,0.83398 -0.35699,1.15381c-0.26546,0.31982 -0.65445,0.52498 -1.06831,0.56341c-0.84248,0.08062 -1.6086,-0.53171 -1.71564,-1.37125c-0.10705,-0.83954 0.48092,-1.62451 1.31668,-1.75787c0.42866,-0.06963 0.87539,0.04387 1.21882,0.30967z" data-paper-data="{&quot;noHover&quot;:false,&quot;origItem&quot;:[&quot;Path&quot;,{&quot;applyMatrix&quot;:true,&quot;segments&quot;:[[[243.93392,181.54665],[0,0],[-1.45728,-1.36107]],[[238.53054,179.62661],[1.98936,-0.13632],[-3.87766,0.25477]],[[231.81091,187.05271],[-0.13287,-3.88375],[0.13287,3.88375]],[[239.02232,194.00223],[-3.88601,0.01083],[1.90844,0.00004]],[[244.11051,191.89471],[-1.34946,1.34946],[1.34945,-1.34947]],[[246.21802,186.8065],[0.00005,1.90845],[0.00032,-1.99402]],[[243.93391,181.54666],[1.45729,1.36106],[0,0]]],&quot;closed&quot;:true,&quot;fillColor&quot;:[1,1,1],&quot;strokeWidth&quot;:9.34454}]}" fill="#ffffff" stroke="none" stroke-width="4.67227"/><path d="M200.87276,128.07554l0.2957,3.1233l3.12433,-0.28462l0.14533,1.56468l-3.12329,0.2957l0.28462,3.12433l-1.56469,0.14534l-0.29569,-3.1233l-3.12433,0.28462l-0.14534,-1.56468l3.1233,-0.2957l-0.28462,-3.12433z" data-paper-data="{&quot;noHover&quot;:false,&quot;origItem&quot;:[&quot;Path&quot;,{&quot;applyMatrix&quot;:true,&quot;segments&quot;:[[210.23947,122.04511],[210.23947,136.43653],[195.84803,136.43653],[195.84803,143.63225],[210.23947,143.63225],[210.23947,158.02368],[217.43518,158.02368],[217.43518,143.63225],[231.82661,143.63225],[231.82661,136.43653],[217.43518,136.43653],[217.43518,122.04511]],&quot;closed&quot;:true,&quot;fillColor&quot;:[1,1,1],&quot;strokeWidth&quot;:9.34454}]}" fill="#ffffff" stroke="none" stroke-width="4.67227"/></g><path d="M239.94593,314.28505c0,6.29461 -4.63435,11.52677 -10.67013,12.46424v0.9312c0,3.63321 -3.19707,6.58907 -7.12687,6.58907c-3.92956,0 -7.12663,-2.95587 -7.12663,-6.58907c0,-0.26416 0.01846,-0.52466 0.05136,-0.78137h-1.09583v3.17163c0,3.63321 -3.19695,6.58907 -7.12675,6.58907c-3.9298,0 -7.12687,-2.95587 -7.12687,-6.58907c0,-1.16223 0.32831,-2.25995 0.90599,-3.21459c-6.47167,-0.52939 -11.57612,-5.96512 -11.57612,-12.57111c0,-6.85927 5.50283,-12.45726 12.32601,-12.61041c1.37538,-5.54804 6.37486,-9.55335 12.24032,-9.55335c3.18808,0 6.23117,1.19253 8.56888,3.35768c1.8372,1.70168 3.1102,3.88198 3.68989,6.27556c0.48099,-0.05539 0.96612,-0.0832 1.45302,-0.0832c6.95526,0 12.61372,5.65858 12.61372,12.61372zM226.90874,310.39147c0,-0.4198 -0.19327,-0.81628 -0.52407,-1.07488c-0.33068,-0.25848 -0.76207,-0.35021 -1.16956,-0.24902l-16.32776,4.06212c-0.6081,0.15137 -1.03488,0.69734 -1.03488,1.32402c0,0 -1.51059,8.73974 -1.66667,14.8143c-0.15608,6.07455 1.37268,-3.37215 1.37268,-3.37215c-0.23481,-0.03113 -0.47282,-0.04687 -0.70751,-0.04687c-2.6246,0 -4.75981,1.89401 -4.75981,4.22189c0,2.32813 2.13533,4.22201 4.75981,4.22201c2.62448,0 4.75969,-1.89389 4.75969,-4.22201v-13.3997l11.53967,-2.94723c0,0 -0.52407,7.40556 -0.66667,12.15369c-0.14259,4.74812 0.37292,-2.37215 0.37292,-2.37215c-0.23469,-0.03101 -0.47294,-0.04675 -0.70763,-0.04675c-2.62448,0 -4.75957,1.89401 -4.75957,4.22189c0,2.32813 2.13509,4.22201 4.75957,4.22201c2.6246,0 4.75981,-1.89389 4.75981,-4.22201z" fill="none" fill-rule="nonzero" stroke="#000000" stroke-width="6" stroke-linecap="butt"/><path d="M239.94593,314.28504c0,6.29461 -4.63436,11.52676 -10.67013,12.46424v0.93121c0,3.6332 -3.19707,6.58907 -7.12687,6.58907c-3.92956,0 -7.12663,-2.95587 -7.12663,-6.58907c0,-0.26416 0.01846,-0.52466 0.05137,-0.78137h-1.09583v3.17163c0,3.6332 -3.19695,6.58907 -7.12675,6.58907c-3.9298,0 -7.12687,-2.95587 -7.12687,-6.58907c0,-1.16222 0.32831,-2.25996 0.90599,-3.21459c-6.47166,-0.5294 -11.57612,-5.96511 -11.57612,-12.57111c0,-6.85928 5.50283,-12.45726 12.32601,-12.61041c1.37538,-5.54804 6.37486,-9.55335 12.24032,-9.55335c3.18807,0 6.23117,1.19253 8.56888,3.35768c1.8372,1.70168 3.11021,3.88199 3.6899,6.27556c0.48099,-0.05539 0.96612,-0.08321 1.45302,-0.08321c6.95526,0 12.61372,5.65858 12.61372,12.61372zM226.90874,310.39146c0,-0.4198 -0.19328,-0.81628 -0.52407,-1.07488c-0.33068,-0.25849 -0.76207,-0.35021 -1.16956,-0.24902l-16.32776,4.06212c-0.6081,0.15137 -1.03488,0.69734 -1.03488,1.32402v11.48096l-0.29399,-0.03882c-0.23482,-0.03112 -0.47282,-0.04687 -0.70752,-0.04687c-2.6246,0 -4.75981,1.89401 -4.75981,4.2219c0,2.32813 2.13533,4.22201 4.75981,4.22201c2.62448,0 4.75969,-1.89389 4.75969,-4.22201v-13.3997l11.53967,-2.94723v9.82036l-0.29375,-0.03882c-0.23469,-0.03101 -0.47294,-0.04675 -0.70763,-0.04675c-2.62448,0 -4.75957,1.894 -4.75957,4.22189c0,2.32813 2.13509,4.22201 4.75957,4.22201c2.6246,0 4.75981,-1.89389 4.75981,-4.22201z" fill="#ffffff" fill-rule="nonzero" stroke="none" stroke-width="1" stroke-linecap="butt"/></g></g></svg>
