<svg version="1.1" xmlns="http://www.w3.org/2000/svg" xmlns:xlink="http://www.w3.org/1999/xlink" width="250.00001" height="250" viewBox="0,0,250.00001,250"><defs><linearGradient x1="115.00003" y1="55" x2="365.00003" y2="305" gradientUnits="userSpaceOnUse" id="color-1"><stop offset="0" stop-color="#00ff84"/><stop offset="1" stop-color="#00c8ff"/></linearGradient><linearGradient x1="239.45261" y1="227.37533" x2="239.45261" y2="280.85563" gradientUnits="userSpaceOnUse" id="color-2"><stop offset="0" stop-color="#fff827"/><stop offset="1" stop-color="#ffb517"/></linearGradient><linearGradient x1="298.46736" y1="86.56928" x2="338.21118" y2="137.77585" gradientUnits="userSpaceOnUse" id="color-3"><stop offset="0" stop-color="#00994f"/><stop offset="1" stop-color="#007899"/></linearGradient><linearGradient x1="300.79005" y1="89.56188" x2="335.88849" y2="134.78327" gradientUnits="userSpaceOnUse" id="color-4"><stop offset="0" stop-color="#00ff84"/><stop offset="1" stop-color="#00c9ff"/></linearGradient></defs><g transform="translate(-115.00001,-55)"><g fill-rule="nonzero" stroke-linejoin="miter" stroke-miterlimit="10" stroke-dasharray="" stroke-dashoffset="0" style="mix-blend-mode: normal"><path d="M115.00003,55h250v250h-250z" fill="url(#color-1)" stroke="none" stroke-width="1" stroke-linecap="butt"/><g fill-opacity="0.50196" fill="#ffffff" stroke="none" stroke-width="0" stroke-linecap="butt"><path d="M240.00003,180l124.85642,76.40235l0.14358,-0.14358v48.74123h-48.74123l0.14358,-0.14358z" data-paper-data="{&quot;index&quot;:null}"/><path d="M209.90564,305l30.09438,-125l30.09438,125z"/><path d="M270.09441,55l-30.09438,125l-30.09438,-125z" data-paper-data="{&quot;index&quot;:null}"/><path d="M115.00003,149.90562l125,30.09438l-125,30.09438z"/><path d="M365.00003,210.09439l-125,-30.09438l125,-30.09438z" data-paper-data="{&quot;index&quot;:null}"/><path d="M240.00003,180l-124.85642,-76.40235l-0.14358,0.14358v-48.74123h48.74123l-0.14358,0.14358z" data-paper-data="{&quot;index&quot;:null}"/><path d="M163.59767,304.85642l0.14358,0.14358h-48.74123v-48.74123l0.14358,0.14358l124.85642,-76.40235z" data-paper-data="{&quot;index&quot;:null}"/><path d="M316.40236,55.14358l-0.14358,-0.14358h48.74123v48.74123l-0.14358,-0.14358l-124.85642,76.40235z" data-paper-data="{&quot;index&quot;:null}"/></g><path d="M145.54983,186.36288l0.23601,-4.47116c-4.50255,-10.99529 -6.90139,-18.87151 -7.19651,-23.62864l7.22624,1.0756c0.62567,4.38766 2.13318,9.67535 4.52253,15.86307c3.58548,-6.8434 6.41652,-13.04765 8.49309,-18.61272l6.70664,1.00266c-3.29856,8.01928 -7.1831,16.14419 -11.65356,24.37473c-0.25975,3.48365 -0.4591,6.54187 -0.59807,9.17463c-0.13897,2.63277 -0.2035,5.2922 -0.19355,7.97834l-7.6282,-1.22199c-0.15792,-3.6195 -0.12945,-7.46434 0.0854,-11.53453zM167.25106,188.14564c-0.23122,4.38036 0.62154,6.62167 2.55829,6.7239c0.85489,0.04513 1.63472,-1.14653 2.33947,-3.57493c0.71232,-2.42801 1.12779,-4.76548 1.24639,-7.01239c0.26197,-4.96291 -0.42033,-7.48727 -2.0469,-7.57313c-1.04403,-0.05511 -1.95765,1.22809 -2.74088,3.8496c-0.77567,2.62191 -1.22779,5.1509 -1.35638,7.58696zM160.48111,187.26482c0.19009,-3.60112 1.11003,-7.08787 2.75981,-10.46022c0.87108,-1.69891 2.04314,-3.0633 3.51617,-4.09318c1.47304,-1.02988 3.07957,-1.49888 4.81962,-1.40703c1.74004,0.09185 3.21703,0.56809 4.43095,1.42876c1.22149,0.86106 2.1266,1.96715 2.71529,3.31827c1.14157,2.66243 1.63149,5.52562 1.46976,8.58961c-0.22283,4.2215 -1.28315,7.92463 -3.18097,11.1094c-1.88986,3.17761 -4.3857,4.68453 -7.48752,4.5208c-6.46841,-0.34143 -9.48279,-4.67691 -9.04311,-13.00641zM203.28386,173.21704l-0.59808,9.17463c-0.45565,8.63213 -0.63581,14.99146 -0.54047,19.07801l-5.72294,-0.88245c-0.02763,-1.63255 -0.19042,-3.2912 -0.4884,-4.97596c-2.29877,3.01946 -4.52244,4.47249 -6.67101,4.35908c-2.14858,-0.11342 -3.82341,-0.93771 -5.02448,-2.47289c-1.20068,-1.54274 -1.73253,-3.61158 -1.59556,-6.20651c0.26556,-5.03098 0.94935,-11.01477 2.05139,-17.95132l6.70723,0.9913c-1.04584,6.59055 -1.68416,12.07223 -1.91497,16.44503c-0.10462,1.98213 0.46341,3.00595 1.70415,3.07144c0.57497,0.03035 1.32047,-0.72688 2.23654,-2.27168c0.92362,-1.54441 1.6944,-3.4269 2.31232,-5.64746c0.0073,-0.85689 0.04149,-1.86408 0.10259,-3.02159c0.0615,-1.16507 0.30533,-4.70647 0.7315,-10.62419zM219.28706,180.35475c-1.62656,-0.08586 -2.9566,1.89987 -3.9901,5.95719c-0.06771,2.71997 -0.16705,5.32068 -0.29804,7.80214c-0.13058,2.47388 -0.35339,5.25774 -0.66843,8.35157l-6.71022,-0.93457c0.41419,-5.69076 0.63665,-8.82739 0.6674,-9.40993c0.37817,-7.16443 0.31949,-12.66395 -0.17606,-16.49851l4.33312,0.69529c0.21286,1.14163 0.47092,2.14529 0.7742,3.01098c2.11336,-3.96238 4.13842,-5.89247 6.07515,-5.79024c1.58874,0.08386 2.94781,0.85357 4.07723,2.30909l-1.80278,5.26469c-0.59044,-0.45601 -1.35091,-0.70857 -2.28146,-0.75769zM254.72364,177.79856c0.60712,-1.87216 0.94441,-3.44752 1.0119,-4.72607c0.06749,-1.27855 -0.22859,-2.35249 -0.88825,-3.22182c-0.6521,-0.86894 -1.53041,-1.33255 -2.63496,-1.39086c-1.09698,-0.05791 -2.04472,0.43449 -2.84324,1.47721c-0.79095,1.04312 -1.22337,2.26448 -1.29725,3.66407c-0.14297,2.70842 1.28535,5.11285 4.28493,7.21332c2.98803,2.17573 5.01832,3.7395 6.09088,4.69132c1.08013,0.95222 1.83534,1.80763 2.26565,2.56624c1.05728,1.96001 1.5328,3.94622 1.42658,5.95862c-0.1841,3.48764 -1.50349,6.20604 -3.95819,8.15516c-2.44714,1.94953 -5.14215,2.84662 -8.0851,2.69127c-3.48764,-0.1841 -6.334,-1.80991 -8.53906,-4.87745c-1.59715,-2.22369 -3.0268,-4.96202 -4.28894,-8.21496l5.7724,-2.42643c0.77012,2.3697 1.7784,4.39541 3.02486,6.07712c1.25441,1.67455 2.63816,2.55175 4.15125,2.63162c0.96837,0.05112 1.85477,-0.21314 2.65918,-0.79277c0.81198,-0.57924 1.25111,-1.49677 1.3174,-2.75263c0.06669,-1.26342 -0.3556,-2.46161 -1.26686,-3.59458c-0.91087,-1.14054 -2.15002,-2.31357 -3.71749,-3.51911c-1.56707,-1.21311 -2.77818,-2.19879 -3.63335,-2.95706c-0.85478,-0.76584 -1.79354,-1.73714 -2.81629,-2.91393c-1.93561,-2.2795 -2.81396,-5.11389 -2.63505,-8.50318c0.1789,-3.38929 1.50925,-6.17159 3.99105,-8.34688c2.4822,-2.18285 5.34986,-3.18842 8.60298,-3.01671c3.25312,0.17172 5.92531,1.57591 8.01655,4.21259c2.09921,2.62952 3.07874,5.27201 2.93857,7.92746c-0.14017,2.65545 -0.76327,4.90231 -1.8693,6.74054zM281.2768,180.304l-0.29112,5.51518c-1.86109,-0.09824 -3.29574,-0.155 -4.30393,-0.17029c-0.31795,3.86749 -0.7183,10.37453 -1.2011,19.5211l-6.82011,-1.00864c0.35781,-6.7786 0.73861,-12.91493 1.14241,-18.40899c-0.58254,-0.03075 -1.69227,0.0093 -3.32921,0.12015l-0.61088,-4.81173c0.93336,-0.14799 2.3991,-0.32097 4.39721,-0.51895c0.22701,-2.86328 0.59914,-7.03898 1.11642,-12.52704l6.8888,1.00089c-0.437,3.82328 -0.80727,7.53248 -1.11084,11.12762c0.97037,0.01329 2.34448,0.06686 4.12236,0.1607zM303.51018,178.50749l-0.59808,9.17463c-0.45565,8.63213 -0.63581,14.99146 -0.54046,19.07801l-5.72294,-0.88245c-0.02763,-1.63255 -0.19043,-3.2912 -0.48841,-4.97597c-2.29877,3.01946 -4.52244,4.47249 -6.67101,4.35908c-2.14858,-0.11342 -3.8234,-0.93771 -5.02448,-2.47288c-1.20068,-1.54274 -1.73253,-3.61158 -1.59555,-6.20652c0.26556,-5.03098 0.94935,-11.01477 2.05138,-17.95132l6.70723,0.9913c-1.04584,6.59055 -1.68416,12.07223 -1.91498,16.44503c-0.10462,1.98213 0.46341,3.00595 1.70414,3.07144c0.57497,0.03035 1.32048,-0.72688 2.23654,-2.27168c0.92363,-1.54441 1.69439,-3.4269 2.31231,-5.64747c0.0073,-0.85689 0.0415,-1.86408 0.1026,-3.02159c0.0615,-1.16507 0.30533,-4.70647 0.73149,-10.62419zM310.0116,180.25037c0.27634,-5.23526 1.2766,-9.30951 3.00078,-12.22273c1.72458,-2.92079 3.81625,-4.31631 6.27499,-4.18653c2.45875,0.12978 4.27287,1.47731 5.44234,4.04258c1.16947,2.56527 1.63859,6.03808 1.40737,10.41844l-5.38249,-0.86448c0.22922,-4.34255 -0.33328,-6.54954 -1.68748,-6.62103c-1.15751,-0.0611 -1.91017,3.20309 -2.258,9.79254l-0.08866,1.67953c2.60532,-0.05973 4.72125,-0.04666 6.34782,0.0392l-0.28573,5.41304c-2.67815,-0.14137 -4.77498,-0.15721 -6.29048,-0.04754c-0.31309,5.93127 -0.44888,12.52813 -0.40739,19.79058l-6.76096,-1.05104c-0.02785,-5.36512 0.07939,-11.42105 0.32172,-18.16781c-1.01459,0.10576 -1.72158,0.205 -2.12096,0.29772l-0.93811,-5.29556c0.39182,-0.09312 1.48864,-0.24764 3.29045,-0.46358zM326.68692,181.13058c0.27634,-5.23526 1.2766,-9.30951 3.00078,-12.22273c1.72458,-2.92079 3.81625,-4.31631 6.27499,-4.18652c2.45875,0.12978 4.27286,1.47731 5.44232,4.04257c1.16947,2.56527 1.63859,6.03809 1.40737,10.41845l-5.3825,-0.86449c0.22922,-4.34255 -0.33326,-6.54954 -1.68748,-6.62102c-1.15751,-0.0611 -1.91017,3.20309 -2.258,9.79254l-0.08866,1.67952c2.60532,-0.05973 4.72126,-0.04666 6.34781,0.0392l-0.28573,5.41305c-2.67815,-0.14137 -4.77498,-0.15722 -6.29048,-0.04755c-0.31309,5.93127 -0.44889,12.52814 -0.40739,19.79059l-6.76097,-1.05105c-0.02785,-5.36512 0.0794,-11.42105 0.32173,-18.16781c-1.01459,0.10576 -1.72159,0.205 -2.12097,0.29771l-0.93811,-5.29556c0.39182,-0.09312 1.48864,-0.24764 3.29045,-0.46358z" fill="none" stroke="#000000" stroke-width="7.5" stroke-linecap="square"/><path d="M133.53605,116.90702c-0.40333,-3.88226 -0.79332,-8.5488 -1.16997,-13.99964c-0.37712,-5.45757 -0.70918,-12.75513 -0.99617,-21.89268c2.81625,-1.26837 5.7467,-2.00774 8.79138,-2.21814c3.04468,-0.21039 5.8414,0.7309 8.39017,2.82386c2.54831,2.08625 3.9409,4.84326 4.17776,8.27103c0.23639,3.42106 -0.85979,6.46823 -3.28856,9.14151c-2.42206,2.67282 -5.69304,4.7391 -9.81294,6.19885c0.26612,3.85121 0.59345,7.80626 0.98197,11.86511zM144.13822,95.7425c1.15468,-1.56549 1.66908,-3.25897 1.54323,-5.08039c-0.12633,-1.82815 -0.70257,-3.27742 -1.72875,-4.34781c-1.02617,-1.07039 -2.124,-1.56517 -3.29348,-1.48436c-0.30917,0.02137 -1.00884,0.1575 -2.09904,0.40842c0.16011,4.85801 0.38034,9.55993 0.66069,14.10575c2.12355,-0.83557 3.76267,-2.0361 4.91735,-3.6016zM164.9717,95.13354c-1.44505,0.09986 -2.40465,1.99628 -2.87881,5.6893c0.23395,2.40824 0.42708,4.71464 0.57942,6.91917c0.15187,2.19782 0.2558,4.6792 0.3118,7.44416l-6.02406,-0.10036c-0.2489,-5.06798 -0.39123,-7.86074 -0.427,-8.37826c-0.43982,-6.36492 -1.08547,-11.21302 -1.93696,-14.5443l3.89994,0.14584c0.31116,0.98474 0.64735,1.84279 1.00853,2.5742c1.4376,-3.72582 3.01671,-5.64818 4.73732,-5.76708c1.41144,-0.09753 2.69422,0.43512 3.84833,1.59797l-1.02283,4.84184c-0.57042,-0.33877 -1.26898,-0.47959 -2.09568,-0.42246zM176.09292,103.7453c0.2689,3.89154 1.26367,5.77786 2.98427,5.65897c0.75949,-0.05248 1.31917,-1.18856 1.67903,-3.40823c0.36659,-2.22013 0.48091,-4.32829 0.34297,-6.32446c-0.30467,-4.40906 -1.17952,-6.56368 -2.62457,-6.46382c-0.92752,0.06409 -1.59542,1.29544 -2.0037,3.69404c-0.40156,2.39813 -0.52756,4.67931 -0.37801,6.84351zM170.02191,103.69884c-0.22107,-3.19926 0.21445,-6.37637 1.30657,-9.5313c0.58545,-1.59369 1.47271,-2.92462 2.66175,-3.99276c1.18904,-1.06813 2.55649,-1.65561 4.10235,-1.76243c1.54586,-0.10682 2.90104,0.15407 4.06551,0.7827c1.1712,0.62816 2.08957,1.50678 2.75511,2.63584c1.29517,2.22687 2.03681,4.70133 2.22491,7.42339c0.25915,3.75039 -0.27693,7.13367 -1.60825,10.14981c-1.32506,3.00897 -3.36543,4.60864 -6.12109,4.79906c-5.74658,0.39709 -8.87553,-3.10435 -9.38687,-10.50432zM200.85404,88.23744c2.09699,-0.1449 3.74678,0.47044 4.94937,1.84604c1.6067,-2.74479 3.28715,-4.17779 5.04137,-4.299c4.78546,-0.33067 7.42664,3.0998 7.92359,10.29142c0.28098,4.06629 0.27504,9.01345 -0.01782,14.84146l-6.02407,-0.10036c0.21375,-6.48436 0.20427,-11.4102 -0.02841,-14.77748c-0.23315,-3.37401 -0.90085,-5.02294 -2.00312,-4.94677c-0.48392,0.03344 -0.99845,0.84561 -1.54358,2.43653c-0.54513,1.59091 -0.85638,3.34125 -0.93377,5.251c0.23003,4.30617 0.35743,8.15347 0.38223,11.54188l-6.07865,-0.15736c-0.05928,-4.86498 -0.19715,-8.86351 -0.41357,-11.99555c-0.21642,-3.13205 -0.7548,-4.66836 -1.6151,-4.60891c-0.55113,0.03808 -1.20099,1.04194 -1.94956,3.0116c-0.74185,1.96918 -1.23187,4.0155 -1.47007,6.13898c0.25908,3.16286 0.64296,6.42179 1.15168,9.77676l-6.07796,-0.14728c-0.71843,-4.82618 -1.21558,-9.23545 -1.49145,-13.22782c-0.27588,-3.99237 -0.4297,-7.73315 -0.46144,-11.22239l4.30633,0.01646c0.27246,0.91312 0.68116,2.57656 1.22613,4.99032c1.62404,-2.98234 3.33334,-4.53552 5.12788,-4.65953zM228.48549,100.12495c0.2689,3.89154 1.26366,5.77786 2.98428,5.65897c0.75949,-0.05248 1.31916,-1.18856 1.67903,-3.40823c0.36659,-2.22013 0.48091,-4.32828 0.34297,-6.32446c-0.30467,-4.40906 -1.17952,-6.56368 -2.62457,-6.46382c-0.92752,0.06409 -1.59542,1.29544 -2.0037,3.69403c-0.40156,2.39813 -0.52757,4.67931 -0.37802,6.84351zM222.41449,100.07849c-0.22107,-3.19926 0.21446,-6.37637 1.30658,-9.5313c0.58545,-1.59369 1.47271,-2.92462 2.66175,-3.99276c1.18904,-1.06813 2.55651,-1.65561 4.10237,-1.76243c1.54586,-0.10682 2.90102,0.15408 4.0655,0.78271c1.1712,0.62816 2.08956,1.50678 2.75512,2.63584c1.29517,2.22687 2.03681,4.70133 2.22491,7.42339c0.25915,3.75039 -0.27693,7.13367 -1.60825,10.14981c-1.32506,3.00897 -3.36543,4.60864 -6.12109,4.79906c-5.74658,0.39709 -8.87554,-3.10435 -9.38688,-10.50433zM254.06272,86.0194l0.33858,4.89972c-1.6534,0.11425 -2.9259,0.21906 -3.81749,0.31444c0.13697,3.44819 0.48621,9.23521 1.04771,17.36108l-6.12907,-0.15389c-0.41613,-6.02214 -0.74261,-11.47983 -0.97944,-16.37306c-0.51753,0.03576 -1.49278,0.19094 -2.92575,0.46554l-1.0588,-4.18138c0.8079,-0.2314 2.08303,-0.54239 3.82539,-0.93291c-0.10881,-2.55195 -0.23122,-6.27804 -0.36723,-11.17823l6.18885,0.13962c0.02711,3.42202 0.1008,6.73614 0.22105,9.94237c0.85799,-0.09306 2.07671,-0.19415 3.65617,-0.30329zM268.82275,99.161l4.08202,2.04779c-0.57346,1.18092 -1.13524,2.18883 -1.68534,3.02372c-0.55057,0.82818 -1.40231,1.64678 -2.55523,2.45579c-1.15293,0.80902 -2.46871,1.26461 -3.94736,1.36678c-2.17093,0.15001 -4.05935,-0.64469 -5.66525,-2.38411c-1.60591,-1.73942 -2.51707,-4.17515 -2.7335,-7.3072c-0.24755,-3.58237 0.15679,-6.96667 1.21298,-10.1529c0.58081,-1.6609 1.48138,-3.0434 2.70171,-4.14746c1.22033,-1.10406 2.50933,-1.703 3.86699,-1.79681c1.35767,-0.09382 2.46472,0.04578 3.32114,0.41881c0.85643,0.37303 1.55166,0.80784 2.08572,1.30445c0.54078,0.49613 1.03511,1.24873 1.48303,2.25778c0.4479,1.00905 0.77167,1.8342 0.97131,2.47546c0.19964,0.64127 0.39619,1.5799 0.58964,2.81588c0.24821,1.63738 0.41876,3.12821 0.51164,4.47244c-2.69647,0.94944 -6.21106,1.88451 -10.54379,2.8052c0.20275,1.37041 0.52088,2.45595 0.95439,3.25664c0.43304,0.79398 0.90833,1.17307 1.42586,1.13731c0,0 2.61862,-1.44042 3.92404,-4.04958zM264.9435,87.2935c-0.75949,0.05248 -1.38943,0.85574 -1.88984,2.4098c-0.49369,1.55358 -0.72197,3.33196 -0.68485,5.33511c1.79542,-0.50225 3.35341,-0.9712 4.67395,-1.40687c-0.29724,-4.30153 -0.99698,-6.41421 -2.09926,-6.33804z" fill="none" stroke="#000000" stroke-width="7.5" stroke-linecap="square"/><path d="M133.53605,116.90702c-0.40333,-3.88226 -0.79332,-8.5488 -1.16997,-13.99964c-0.37712,-5.45757 -0.70918,-12.75513 -0.99617,-21.89268c2.81625,-1.26837 5.7467,-2.00774 8.79138,-2.21814c3.04468,-0.21039 5.8414,0.7309 8.39017,2.82386c2.54831,2.08625 3.9409,4.84326 4.17776,8.27103c0.23639,3.42106 -0.85979,6.46823 -3.28856,9.14151c-2.42206,2.67282 -5.69304,4.7391 -9.81294,6.19885c0.26612,3.85121 0.59345,7.80626 0.98197,11.86511zM144.13822,95.7425c1.15468,-1.56549 1.66908,-3.25897 1.54323,-5.08039c-0.12633,-1.82815 -0.70257,-3.27742 -1.72875,-4.34781c-1.02617,-1.07039 -2.124,-1.56517 -3.29348,-1.48436c-0.30917,0.02137 -1.00884,0.1575 -2.09904,0.40842c0.16011,4.85801 0.38034,9.55993 0.66069,14.10575c2.12355,-0.83557 3.76267,-2.0361 4.91735,-3.6016zM164.9717,95.13354c-1.44505,0.09986 -2.40465,1.99628 -2.87881,5.6893c0.23395,2.40824 0.42708,4.71464 0.57942,6.91917c0.15187,2.19782 0.2558,4.6792 0.3118,7.44416l-6.02406,-0.10036c-0.2489,-5.06798 -0.39123,-7.86074 -0.427,-8.37826c-0.43982,-6.36492 -1.08547,-11.21302 -1.93696,-14.5443l3.89994,0.14584c0.31116,0.98474 0.64735,1.84279 1.00853,2.5742c1.4376,-3.72582 3.01671,-5.64818 4.73732,-5.76708c1.41144,-0.09753 2.69422,0.43512 3.84833,1.59797l-1.02283,4.84184c-0.57042,-0.33877 -1.26898,-0.47959 -2.09568,-0.42246zM176.09292,103.7453c0.2689,3.89154 1.26367,5.77786 2.98427,5.65897c0.75949,-0.05248 1.31917,-1.18856 1.67903,-3.40823c0.36659,-2.22013 0.48091,-4.32829 0.34297,-6.32446c-0.30467,-4.40906 -1.17952,-6.56368 -2.62457,-6.46382c-0.92752,0.06409 -1.59542,1.29544 -2.0037,3.69404c-0.40156,2.39813 -0.52756,4.67931 -0.37801,6.84351zM170.02191,103.69884c-0.22107,-3.19926 0.21445,-6.37637 1.30657,-9.5313c0.58545,-1.59369 1.47271,-2.92462 2.66175,-3.99276c1.18904,-1.06813 2.55649,-1.65561 4.10235,-1.76243c1.54586,-0.10682 2.90104,0.15407 4.06551,0.7827c1.1712,0.62816 2.08957,1.50678 2.75511,2.63584c1.29517,2.22687 2.03681,4.70133 2.22491,7.42339c0.25915,3.75039 -0.27693,7.13367 -1.60825,10.14981c-1.32506,3.00897 -3.36543,4.60864 -6.12109,4.79906c-5.74658,0.39709 -8.87553,-3.10435 -9.38687,-10.50432zM200.85404,88.23744c2.09699,-0.1449 3.74678,0.47044 4.94937,1.84604c1.6067,-2.74479 3.28715,-4.17779 5.04137,-4.299c4.78546,-0.33067 7.42664,3.0998 7.92359,10.29142c0.28098,4.06629 0.27504,9.01345 -0.01782,14.84146l-6.02407,-0.10036c0.21375,-6.48436 0.20427,-11.4102 -0.02841,-14.77748c-0.23315,-3.37401 -0.90085,-5.02294 -2.00312,-4.94677c-0.48392,0.03344 -0.99845,0.84561 -1.54358,2.43653c-0.54513,1.59091 -0.85638,3.34125 -0.93377,5.251c0.23003,4.30617 0.35743,8.15347 0.38223,11.54188l-6.07865,-0.15736c-0.05928,-4.86498 -0.19715,-8.86351 -0.41357,-11.99555c-0.21642,-3.13205 -0.7548,-4.66836 -1.6151,-4.60891c-0.55113,0.03808 -1.20099,1.04194 -1.94956,3.0116c-0.74185,1.96918 -1.23187,4.0155 -1.47007,6.13898c0.25908,3.16286 0.64296,6.42179 1.15168,9.77676l-6.07796,-0.14728c-0.71843,-4.82618 -1.21558,-9.23545 -1.49145,-13.22782c-0.27588,-3.99237 -0.4297,-7.73315 -0.46144,-11.22239l4.30633,0.01646c0.27246,0.91312 0.68116,2.57656 1.22613,4.99032c1.62404,-2.98234 3.33334,-4.53552 5.12788,-4.65953zM228.48549,100.12495c0.2689,3.89154 1.26366,5.77786 2.98428,5.65897c0.75949,-0.05248 1.31916,-1.18856 1.67903,-3.40823c0.36659,-2.22013 0.48091,-4.32828 0.34297,-6.32446c-0.30467,-4.40906 -1.17952,-6.56368 -2.62457,-6.46382c-0.92752,0.06409 -1.59542,1.29544 -2.0037,3.69403c-0.40156,2.39813 -0.52757,4.67931 -0.37802,6.84351zM222.41449,100.07849c-0.22107,-3.19926 0.21446,-6.37637 1.30658,-9.5313c0.58545,-1.59369 1.47271,-2.92462 2.66175,-3.99276c1.18904,-1.06813 2.55651,-1.65561 4.10237,-1.76243c1.54586,-0.10682 2.90102,0.15408 4.0655,0.78271c1.1712,0.62816 2.08956,1.50678 2.75512,2.63584c1.29517,2.22687 2.03681,4.70133 2.22491,7.42339c0.25915,3.75039 -0.27693,7.13367 -1.60825,10.14981c-1.32506,3.00897 -3.36543,4.60864 -6.12109,4.79906c-5.74658,0.39709 -8.87554,-3.10435 -9.38688,-10.50433zM254.06272,86.0194l0.33858,4.89972c-1.6534,0.11425 -2.9259,0.21906 -3.81749,0.31444c0.13697,3.44819 0.48621,9.23521 1.04771,17.36108l-6.12907,-0.15389c-0.41613,-6.02214 -0.74261,-11.47983 -0.97944,-16.37306c-0.51753,0.03576 -1.49278,0.19094 -2.92575,0.46554l-1.0588,-4.18138c0.8079,-0.2314 2.08303,-0.54239 3.82539,-0.93291c-0.10881,-2.55195 -0.23122,-6.27804 -0.36723,-11.17823l6.18885,0.13962c0.02711,3.42202 0.1008,6.73614 0.22105,9.94237c0.85799,-0.09306 2.07671,-0.19415 3.65617,-0.30329zM264.89869,103.21059c1.31063,-0.09056 2.61864,-1.44043 3.92406,-4.04959l4.08202,2.04779c-0.57346,1.18092 -1.13524,2.18883 -1.68534,3.02372c-0.55057,0.82818 -1.40231,1.64678 -2.55523,2.45579c-1.15293,0.80902 -2.46871,1.26461 -3.94736,1.36678c-2.17093,0.15001 -4.05935,-0.64469 -5.66525,-2.38411c-1.60591,-1.73942 -2.51707,-4.17515 -2.7335,-7.3072c-0.24755,-3.58237 0.15679,-6.96667 1.21298,-10.1529c0.58081,-1.6609 1.48138,-3.0434 2.70171,-4.14746c1.22033,-1.10406 2.50933,-1.703 3.86699,-1.79681c1.35767,-0.09382 2.46472,0.04578 3.32114,0.41881c0.85643,0.37303 1.55166,0.80784 2.08572,1.30445c0.54078,0.49613 1.03511,1.24873 1.48303,2.25778c0.4479,1.00905 0.77167,1.8342 0.97131,2.47546c0.19964,0.64127 0.39619,1.5799 0.58964,2.81588c0.24821,1.63738 0.41876,3.12821 0.51164,4.47244c-2.69647,0.94944 -6.21106,1.88451 -10.54379,2.8052c0.20275,1.37041 0.52088,2.45595 0.95439,3.25664c0.43304,0.79398 0.90833,1.17307 1.42586,1.13731zM264.9435,87.2935c-0.75949,0.05248 -1.38943,0.85574 -1.88984,2.4098c-0.49369,1.55358 -0.72197,3.33196 -0.68485,5.33511c1.79542,-0.50225 3.35341,-0.9712 4.67395,-1.40687c-0.29724,-4.30153 -0.99698,-6.41421 -2.09926,-6.33804z" fill="#ffffff" stroke="none" stroke-width="1" stroke-linecap="square"/><path d="M145.54983,186.36288l0.23601,-4.47116c-4.50255,-10.99529 -6.90139,-18.87151 -7.19651,-23.62864l7.22624,1.0756c0.62567,4.38766 2.13318,9.67535 4.52253,15.86307c3.58548,-6.8434 6.41652,-13.04765 8.49309,-18.61272l6.70664,1.00266c-3.29856,8.01928 -7.1831,16.14419 -11.65356,24.37473c-0.25975,3.48365 -0.4591,6.54187 -0.59807,9.17463c-0.13897,2.63277 -0.2035,5.2922 -0.19355,7.97834l-7.6282,-1.22199c-0.15792,-3.6195 -0.12945,-7.46434 0.0854,-11.53453zM167.25106,188.14564c-0.23122,4.38036 0.62154,6.62167 2.55829,6.7239c0.85489,0.04513 1.63472,-1.14653 2.33947,-3.57493c0.71232,-2.42801 1.12779,-4.76548 1.24639,-7.01239c0.26197,-4.96291 -0.42033,-7.48727 -2.0469,-7.57313c-1.04403,-0.05511 -1.95765,1.22809 -2.74088,3.8496c-0.77567,2.62191 -1.22779,5.1509 -1.35638,7.58696zM160.48111,187.26482c0.19009,-3.60112 1.11003,-7.08787 2.75981,-10.46022c0.87108,-1.69891 2.04314,-3.0633 3.51617,-4.09318c1.47304,-1.02988 3.07957,-1.49888 4.81962,-1.40703c1.74004,0.09185 3.21703,0.56809 4.43095,1.42876c1.22149,0.86106 2.1266,1.96715 2.71529,3.31827c1.14157,2.66243 1.63149,5.52562 1.46976,8.58961c-0.22283,4.2215 -1.28315,7.92463 -3.18097,11.1094c-1.88986,3.17761 -4.3857,4.68453 -7.48752,4.5208c-6.46841,-0.34143 -9.48279,-4.67691 -9.04311,-13.00641zM203.28386,173.21704l-0.59808,9.17463c-0.45565,8.63213 -0.63581,14.99146 -0.54047,19.07801l-5.72294,-0.88245c-0.02763,-1.63255 -0.19042,-3.2912 -0.4884,-4.97596c-2.29877,3.01946 -4.52244,4.47249 -6.67101,4.35908c-2.14858,-0.11342 -3.82341,-0.93771 -5.02448,-2.47289c-1.20068,-1.54274 -1.73253,-3.61158 -1.59556,-6.20651c0.26556,-5.03098 0.94935,-11.01477 2.05139,-17.95132l6.70723,0.9913c-1.04584,6.59055 -1.68416,12.07223 -1.91497,16.44503c-0.10462,1.98213 0.46341,3.00595 1.70415,3.07144c0.57497,0.03035 1.32047,-0.72688 2.23654,-2.27168c0.92362,-1.54441 1.6944,-3.4269 2.31232,-5.64746c0.0073,-0.85689 0.04149,-1.86408 0.10259,-3.02159c0.0615,-1.16507 0.30533,-4.70647 0.7315,-10.62419zM219.28706,180.35475c-1.62656,-0.08586 -2.9566,1.89987 -3.9901,5.95719c-0.06771,2.71997 -0.16705,5.32068 -0.29804,7.80214c-0.13058,2.47388 -0.35339,5.25774 -0.66843,8.35157l-6.71022,-0.93457c0.41419,-5.69076 0.63665,-8.82739 0.6674,-9.40993c0.37817,-7.16443 0.31949,-12.66395 -0.17606,-16.49851l4.33312,0.69529c0.21286,1.14163 0.47092,2.14529 0.7742,3.01098c2.11336,-3.96238 4.13842,-5.89247 6.07515,-5.79024c1.58874,0.08386 2.94781,0.85357 4.07723,2.30909l-1.80278,5.26469c-0.59044,-0.45601 -1.35091,-0.70857 -2.28146,-0.75769zM254.72364,177.79856c0.60712,-1.87216 0.94441,-3.44752 1.0119,-4.72607c0.06749,-1.27855 -0.22859,-2.35249 -0.88825,-3.22182c-0.6521,-0.86894 -1.53041,-1.33255 -2.63496,-1.39086c-1.09698,-0.05791 -2.04472,0.43449 -2.84324,1.47721c-0.79095,1.04312 -1.22337,2.26448 -1.29725,3.66407c-0.14297,2.70842 1.28535,5.11285 4.28493,7.21332c2.98803,2.17573 5.01832,3.7395 6.09088,4.69132c1.08013,0.95222 1.83534,1.80763 2.26565,2.56624c1.05728,1.96001 1.5328,3.94622 1.42658,5.95862c-0.1841,3.48764 -1.50349,6.20604 -3.95819,8.15516c-2.44714,1.94953 -5.14215,2.84662 -8.0851,2.69127c-3.48764,-0.1841 -6.334,-1.80991 -8.53906,-4.87745c-1.59715,-2.22369 -3.0268,-4.96202 -4.28894,-8.21496l5.7724,-2.42643c0.77012,2.3697 1.7784,4.39541 3.02486,6.07712c1.25441,1.67455 2.63816,2.55175 4.15125,2.63162c0.96837,0.05112 1.85477,-0.21314 2.65918,-0.79277c0.81198,-0.57924 1.25111,-1.49677 1.3174,-2.75263c0.06669,-1.26342 -0.3556,-2.46161 -1.26686,-3.59458c-0.91087,-1.14054 -2.15002,-2.31357 -3.71749,-3.51911c-1.56707,-1.21311 -2.77818,-2.19879 -3.63335,-2.95706c-0.85478,-0.76584 -1.79354,-1.73714 -2.81629,-2.91393c-1.93561,-2.2795 -2.81396,-5.11389 -2.63505,-8.50318c0.1789,-3.38929 1.50925,-6.17159 3.99105,-8.34688c2.4822,-2.18285 5.34986,-3.18842 8.60298,-3.01671c3.25312,0.17172 5.92531,1.57591 8.01655,4.21259c2.09921,2.62952 3.07874,5.27201 2.93857,7.92746c-0.14017,2.65545 -0.76327,4.90231 -1.8693,6.74054zM281.2768,180.304l-0.29112,5.51518c-1.86109,-0.09824 -3.29574,-0.155 -4.30393,-0.17029c-0.31795,3.86749 -0.7183,10.37453 -1.2011,19.5211l-6.82011,-1.00864c0.35781,-6.7786 0.73861,-12.91493 1.14241,-18.40899c-0.58254,-0.03075 -1.69227,0.0093 -3.32921,0.12015l-0.61088,-4.81173c0.93336,-0.14799 2.3991,-0.32097 4.39721,-0.51895c0.22701,-2.86328 0.59914,-7.03898 1.11642,-12.52704l6.8888,1.00089c-0.437,3.82328 -0.80727,7.53248 -1.11084,11.12762c0.97037,0.01329 2.34448,0.06686 4.12236,0.1607zM303.51018,178.50749l-0.59808,9.17463c-0.45565,8.63213 -0.63581,14.99146 -0.54046,19.07801l-5.72294,-0.88245c-0.02763,-1.63255 -0.19043,-3.2912 -0.48841,-4.97597c-2.29877,3.01946 -4.52244,4.47249 -6.67101,4.35908c-2.14858,-0.11342 -3.8234,-0.93771 -5.02448,-2.47288c-1.20068,-1.54274 -1.73253,-3.61158 -1.59555,-6.20652c0.26556,-5.03098 0.94935,-11.01477 2.05138,-17.95132l6.70723,0.9913c-1.04584,6.59055 -1.68416,12.07223 -1.91498,16.44503c-0.10462,1.98213 0.46341,3.00595 1.70414,3.07144c0.57497,0.03035 1.32048,-0.72688 2.23654,-2.27168c0.92363,-1.54441 1.69439,-3.4269 2.31231,-5.64747c0.0073,-0.85689 0.0415,-1.86408 0.1026,-3.02159c0.0615,-1.16507 0.30533,-4.70647 0.73149,-10.62419zM310.0116,180.25037c0.27634,-5.23526 1.2766,-9.30951 3.00078,-12.22273c1.72458,-2.92079 3.81625,-4.31631 6.27499,-4.18653c2.45875,0.12978 4.27287,1.47731 5.44234,4.04258c1.16947,2.56527 1.63859,6.03808 1.40737,10.41844l-5.38249,-0.86448c0.22922,-4.34255 -0.33328,-6.54954 -1.68748,-6.62103c-1.15751,-0.0611 -1.91017,3.20309 -2.258,9.79254l-0.08866,1.67953c2.60532,-0.05973 4.72125,-0.04666 6.34782,0.0392l-0.28573,5.41304c-2.67815,-0.14137 -4.77498,-0.15721 -6.29048,-0.04754c-0.31309,5.93127 -0.44888,12.52813 -0.40739,19.79058l-6.76096,-1.05104c-0.02785,-5.36512 0.07939,-11.42105 0.32172,-18.16781c-1.01459,0.10576 -1.72158,0.205 -2.12096,0.29772l-0.93811,-5.29556c0.39182,-0.09312 1.48864,-0.24764 3.29045,-0.46358zM326.68692,181.13058c0.27634,-5.23526 1.2766,-9.30951 3.00078,-12.22273c1.72458,-2.92079 3.81625,-4.31631 6.27499,-4.18652c2.45875,0.12978 4.27286,1.47731 5.44232,4.04257c1.16947,2.56527 1.63859,6.03809 1.40737,10.41845l-5.3825,-0.86449c0.22922,-4.34255 -0.33326,-6.54954 -1.68748,-6.62102c-1.15751,-0.0611 -1.91017,3.20309 -2.258,9.79254l-0.08866,1.67952c2.60532,-0.05973 4.72126,-0.04666 6.34781,0.0392l-0.28573,5.41305c-2.67815,-0.14137 -4.77498,-0.15722 -6.29048,-0.04755c-0.31309,5.93127 -0.44889,12.52814 -0.40739,19.79059l-6.76097,-1.05105c-0.02785,-5.36512 0.0794,-11.42105 0.32173,-18.16781c-1.01459,0.10576 -1.72159,0.205 -2.12097,0.29771l-0.93811,-5.29556c0.39182,-0.09312 1.48864,-0.24764 3.29045,-0.46358z" fill="#ffffff" stroke="none" stroke-width="1" stroke-linecap="square"/><path d="M156.29728,247.60435c-4.90548,0.23375 -8.82631,0.52604 -11.76246,0.87688c-0.01,0.40049 0.02097,1.96639 0.09294,4.69764c0.07888,2.72365 -0.25178,4.10312 -0.25178,4.10312c0,0 6.87821,-1.41872 10.0929,-1.57191l1.94661,8.3404c-5.02262,0.37025 -8.82525,0.77692 -11.40791,1.22c0.24309,5.10141 0.58156,10.29646 1.01539,15.58515l-9.91415,-0.62945c-0.39899,-6.69406 -0.72193,-12.63172 -0.96882,-17.81295c-0.24689,-5.18123 -0.26993,-12.30414 -0.06911,-21.36872c6.97324,-1.40871 13.90313,-2.27714 20.78967,-2.60529zM171.33793,280.34755c-3.94761,0.18811 -7.32009,-1.36764 -10.11746,-4.66724c-2.79046,-3.30721 -4.34596,-8.32426 -4.66651,-15.05115c-0.32055,-6.72689 0.8303,-12.33839 3.45257,-16.83448c2.62227,-4.49609 5.93623,-6.83957 9.94189,-7.03045c4.01291,-0.19122 7.39335,1.3787 10.14131,4.70975c2.75521,3.3307 4.29171,8.33048 4.60949,14.99931c0.31744,6.66158 -0.845,12.25908 -3.4873,16.7925c-2.63504,4.53306 -5.92637,6.89366 -9.87398,7.08177zM170.46187,245.7075c-1.11752,0.05325 -2.14845,1.38972 -3.09276,4.00939c-0.93705,2.61933 -1.30548,6.02979 -1.10527,10.23138c0.20021,4.20158 0.7824,7.18492 1.74655,8.94997c0.96381,1.75781 1.9573,2.61232 2.98049,2.56356c1.02319,-0.04876 1.99552,-1.39334 2.91704,-4.03375c0.92151,-2.64041 1.28215,-6.06141 1.08194,-10.26299c-0.20021,-4.20158 -0.76356,-7.17126 -1.69005,-8.90902c-0.92683,-1.74502 -1.87281,-2.59453 -2.83795,-2.54854zM187.99021,278.02669c0.06396,-9.64718 -0.07004,-17.95396 -0.402,-24.92032c-0.3323,-6.97362 -0.5842,-11.80186 -0.75568,-14.48474c4.58231,-2.43665 9.17019,-3.76442 13.76363,-3.98331c3.57752,-0.17047 6.6402,0.83638 9.18804,3.02054c2.55475,2.17656 3.9305,5.32935 4.12726,9.45837c0.22857,4.79663 -2.487,9.24262 -8.1467,13.33797c3.03753,3.45545 6.6774,7.95133 10.9196,13.48766l-6.97344,5.67803c-2.9712,-4.04772 -6.95579,-9.06176 -11.95373,-15.0421c0.09514,3.52292 0.15508,8.21485 0.17981,14.0758zM197.58069,255.60855c1.4824,-0.79067 3.06708,-2.10626 4.75401,-3.94673c1.6942,-1.84082 2.51189,-3.37805 2.45311,-4.61168c-0.05878,-1.23363 -0.44429,-2.14984 -1.15649,-2.74867c-0.70529,-0.60642 -1.6929,-0.87938 -2.9628,-0.81886c-1.2699,0.06051 -2.46845,0.32127 -3.59564,0.78228c0.27352,5.74 0.44279,9.52122 0.50781,11.34367zM251.16026,233.89803l0.43673,9.16513c-4.90548,0.23375 -8.8263,0.52604 -11.76245,0.87688c-0.01,0.40049 0.02097,1.96639 0.09293,4.69764c0.07888,2.72365 -0.25178,4.10312 -0.25178,4.10312c0,0 6.8782,-1.41872 10.09289,-1.57191l1.94661,8.3404c-5.02262,0.37025 -8.82525,0.77692 -11.4079,1.22c0.24309,5.10141 0.58157,10.29646 1.0154,15.58515l-9.91414,-0.62945c-0.39899,-6.69406 -0.72193,-12.63172 -0.96882,-17.81295c-0.24689,-5.18123 -0.26994,-12.30414 -0.06912,-21.36872c6.97324,-1.40871 13.90312,-2.27714 20.78966,-2.60529zM254.25417,274.8691c0.06396,-9.64718 -0.07004,-17.95396 -0.402,-24.92032c-0.3323,-6.97362 -0.5842,-11.80186 -0.75568,-14.48474c4.58231,-2.43665 9.17019,-3.76442 13.76364,-3.98331c3.57752,-0.17047 6.6402,0.83638 9.18804,3.02054c2.55475,2.17656 3.9305,5.32935 4.12726,9.45837c0.22857,4.79663 -2.487,9.24262 -8.1467,13.33797c3.03753,3.45545 6.6774,7.95133 10.9196,13.48766l-6.97344,5.67803c-2.9712,-4.04772 -6.95578,-9.06176 -11.95373,-15.0421c0.09514,3.52292 0.15508,8.21485 0.17981,14.0758zM263.84465,252.45096c1.4824,-0.79067 3.06707,-2.10626 4.75401,-3.94673c1.6942,-1.84082 2.51189,-3.37805 2.45311,-4.61168c-0.05878,-1.23363 -0.44428,-2.14985 -1.15649,-2.74867c-0.70529,-0.60642 -1.6929,-0.87938 -2.9628,-0.81886c-1.2699,0.06051 -2.46845,0.32127 -3.59564,0.78228c0.27352,5.74 0.4428,9.52122 0.50782,11.34367zM284.30638,273.18614c-0.47224,-6.55238 -0.83353,-12.45548 -1.08388,-17.70927c-0.2507,-5.26105 -0.27564,-12.42387 -0.07482,-21.48845c6.97324,-1.40871 13.90313,-2.27714 20.78967,-2.60529l0.43673,9.16513c-4.94176,0.23548 -8.85169,0.52725 -11.72981,0.87532c0.04158,3.46729 0.08295,5.86181 0.12411,7.18355c1.95998,-0.38431 5.22372,-0.72894 9.79125,-1.03387l1.87145,8.3658c-3.35739,0.2109 -7.15537,0.63916 -11.39392,1.28479c0.17947,3.76619 0.30722,6.21841 0.38328,7.35667c2.37119,-0.3021 6.15256,-1.07867 11.34413,-2.32975l1.65218,8.11442c-3.76198,1.94663 -7.89979,3.02749 -12.41341,3.24257zM309.21808,271.99905c-0.47224,-6.55238 -0.83353,-12.45548 -1.08388,-17.70927c-0.2507,-5.26105 -0.27564,-12.42387 -0.07482,-21.48845c6.97324,-1.40871 13.90312,-2.27714 20.78967,-2.60529l0.43673,9.16513c-4.94176,0.23548 -8.8517,0.52725 -11.72981,0.87532c0.04158,3.46729 0.08296,5.86181 0.12411,7.18355c1.95997,-0.38431 5.22372,-0.72894 9.79124,-1.03387l1.87145,8.3658c-3.35739,0.2109 -7.15537,0.63916 -11.39392,1.28479c0.17947,3.76619 0.30722,6.21841 0.38328,7.35667c2.37119,-0.3021 6.15256,-1.07867 11.34413,-2.32975l1.65218,8.11442c-3.76198,1.94663 -7.89979,3.02749 -12.41341,3.24257zM334.7514,259.58904c-1.0417,-6.13977 -1.67216,-11.51001 -1.89139,-16.11071c-0.21923,-4.6007 -0.06408,-9.96837 0.46546,-16.103l10.64398,1.522c-1.66876,8.02175 -2.533,18.4271 -2.59272,31.21606zM341.25296,262.78118c0.75715,1.23671 1.15007,2.15624 1.24724,4.19535c0.09682,2.03185 -0.28911,3.39578 -1.08935,5.52857l-7.40651,-1.34897c0.46021,-2.09476 0.69031,-3.14216 0.62185,-4.57898c-0.06881,-1.44407 -0.18046,-2.41336 -0.4034,-4.34466z" fill="none" stroke="#000000" stroke-width="9" stroke-linecap="square"/><path d="M155.86055,238.43922l0.43673,9.16513c-4.90548,0.23375 -8.82631,0.52604 -11.76246,0.87688c-0.01,0.40049 0.02097,1.96639 0.09294,4.69764c0.07888,2.72365 -0.00505,4.09136 -0.25178,4.10312c3.51391,-0.89475 5.37821,-1.41872 8.5929,-1.57191l0.94661,8.3404c-5.02262,0.37025 -6.32525,0.77692 -8.90791,1.22c0.24309,5.10141 0.58156,10.29646 1.01539,15.58515l-9.91415,-0.62945c-0.39899,-6.69406 -0.72193,-12.63172 -0.96882,-17.81295c-0.24689,-5.18123 -0.26993,-12.30414 -0.06911,-21.36872c6.97324,-1.40871 13.90313,-2.27714 20.78967,-2.60529zM171.33793,280.34755c-3.94761,0.18811 -7.32009,-1.36764 -10.11746,-4.66724c-2.79046,-3.30721 -4.34596,-8.32426 -4.66651,-15.05115c-0.32055,-6.72689 0.8303,-12.33839 3.45257,-16.83448c2.62227,-4.49609 5.93623,-6.83957 9.94189,-7.03045c4.01291,-0.19122 7.39335,1.3787 10.14131,4.70975c2.75521,3.3307 4.29171,8.33048 4.60949,14.99931c0.31744,6.66158 -0.845,12.25908 -3.4873,16.7925c-2.63504,4.53306 -5.92637,6.89366 -9.87398,7.08177zM170.46187,245.7075c-1.11752,0.05325 -2.14845,1.38972 -3.09276,4.00939c-0.93705,2.61933 -1.30548,6.02979 -1.10527,10.23138c0.20021,4.20158 0.7824,7.18492 1.74655,8.94997c0.96381,1.75781 1.9573,2.61232 2.98049,2.56356c1.02319,-0.04876 1.99552,-1.39334 2.91704,-4.03375c0.92151,-2.64041 1.28215,-6.06141 1.08194,-10.26299c-0.20021,-4.20158 -0.76356,-7.17126 -1.69005,-8.90902c-0.92683,-1.74502 -1.87281,-2.59453 -2.83795,-2.54854zM187.99021,278.02669c0.06396,-9.64718 -0.07004,-17.95396 -0.402,-24.92032c-0.3323,-6.97362 -0.5842,-11.80186 -0.75568,-14.48474c4.58231,-2.43665 9.17019,-3.76442 13.76363,-3.98331c3.57752,-0.17047 6.6402,0.83638 9.18804,3.02054c2.55475,2.17656 3.9305,5.32935 4.12726,9.45837c0.22857,4.79663 -2.487,9.24262 -8.1467,13.33797c3.03753,3.45545 6.6774,7.95133 10.9196,13.48766l-6.97344,5.67803c-2.9712,-4.04772 -6.95579,-9.06176 -11.95373,-15.0421c0.09514,3.52292 0.15508,8.21485 0.17981,14.0758zM197.58069,255.60855c1.4824,-0.79067 3.06708,-2.10626 4.75401,-3.94673c1.6942,-1.84082 2.51189,-3.37805 2.45311,-4.61168c-0.05878,-1.23363 -0.44429,-2.14984 -1.15649,-2.74867c-0.70529,-0.60642 -1.6929,-0.87938 -2.9628,-0.81886c-1.2699,0.06051 -2.46845,0.32127 -3.59564,0.78228c0.27352,5.74 0.44279,9.52122 0.50781,11.34367zM251.16026,233.89803l0.43673,9.16513c-4.90548,0.23375 -8.8263,0.52604 -11.76245,0.87688c-0.01,0.40049 0.02097,1.96639 0.09293,4.69764c0.07888,2.72365 -0.00505,4.09136 -0.25178,4.10312c3.51391,-0.89475 6.8782,-1.41872 10.09289,-1.57191l1.94661,8.3404c-5.02262,0.37025 -8.82525,0.77692 -11.4079,1.22c0.24309,5.10141 0.58157,10.29646 1.0154,15.58515l-9.91414,-0.62945c-0.39899,-6.69406 -0.72193,-12.63172 -0.96882,-17.81295c-0.24689,-5.18123 -0.26994,-12.30414 -0.06912,-21.36872c6.97324,-1.40871 13.90312,-2.27714 20.78966,-2.60529zM254.25417,274.8691c0.06396,-9.64718 -0.07004,-17.95396 -0.402,-24.92032c-0.3323,-6.97362 -0.5842,-11.80186 -0.75568,-14.48474c4.58231,-2.43665 9.17019,-3.76442 13.76364,-3.98331c3.57752,-0.17047 6.6402,0.83638 9.18804,3.02054c2.55475,2.17656 3.9305,5.32935 4.12726,9.45837c0.22857,4.79663 -2.487,9.24262 -8.1467,13.33797c3.03753,3.45545 6.6774,7.95133 10.9196,13.48766l-6.97344,5.67803c-2.9712,-4.04772 -6.95578,-9.06176 -11.95373,-15.0421c0.09514,3.52292 0.15508,8.21485 0.17981,14.0758zM263.84465,252.45096c1.4824,-0.79067 3.06707,-2.10626 4.75401,-3.94673c1.6942,-1.84082 2.51189,-3.37805 2.45311,-4.61168c-0.05878,-1.23363 -0.44428,-2.14985 -1.15649,-2.74867c-0.70529,-0.60642 -1.6929,-0.87938 -2.9628,-0.81886c-1.2699,0.06051 -2.46845,0.32127 -3.59564,0.78228c0.27352,5.74 0.4428,9.52122 0.50782,11.34367zM284.30638,273.18614c-0.47224,-6.55238 -0.83353,-12.45548 -1.08388,-17.70927c-0.2507,-5.26105 -0.27564,-12.42387 -0.07482,-21.48845c6.97324,-1.40871 13.90313,-2.27714 20.78967,-2.60529l0.43673,9.16513c-4.94176,0.23548 -8.85169,0.52725 -11.72981,0.87532c0.04158,3.46729 0.08295,5.86181 0.12411,7.18355c1.95998,-0.38431 5.22372,-0.72894 9.79125,-1.03387l1.87145,8.3658c-3.35739,0.2109 -7.15537,0.63916 -11.39392,1.28479c0.17947,3.76619 0.30722,6.21841 0.38328,7.35667c2.37119,-0.3021 6.15256,-1.07867 11.34413,-2.32975l1.65218,8.11442c-3.76198,1.94663 -7.89979,3.02749 -12.41341,3.24257zM309.21808,271.99905c-0.47224,-6.55238 -0.83353,-12.45548 -1.08388,-17.70927c-0.2507,-5.26105 -0.27564,-12.42387 -0.07482,-21.48845c6.97324,-1.40871 13.90312,-2.27714 20.78967,-2.60529l0.43673,9.16513c-4.94176,0.23548 -8.8517,0.52725 -11.72981,0.87532c0.04158,3.46729 0.08296,5.86181 0.12411,7.18355c1.95997,-0.38431 5.22372,-0.72894 9.79124,-1.03387l1.87145,8.3658c-3.35739,0.2109 -7.15537,0.63916 -11.39392,1.28479c0.17947,3.76619 0.30722,6.21841 0.38328,7.35667c2.37119,-0.3021 6.15256,-1.07867 11.34413,-2.32975l1.65218,8.11442c-3.76198,1.94663 -7.89979,3.02749 -12.41341,3.24257zM334.7514,259.58904c-1.0417,-6.13977 -1.67216,-11.51001 -1.89139,-16.11071c-0.21923,-4.6007 -0.06408,-9.96837 0.46546,-16.103l10.64398,1.522c-1.66876,8.02175 -2.533,18.4271 -2.59272,31.21606zM341.25296,262.78118c0.75715,1.23671 1.15007,2.15624 1.24724,4.19535c0.09682,2.03185 -0.28911,3.39578 -1.08935,5.52857l-7.40651,-1.34897c0.46021,-2.09476 0.69031,-3.14216 0.62185,-4.57898c-0.06881,-1.44407 -0.18046,-2.41336 -0.4034,-4.34466z" fill="url(#color-2)" stroke="none" stroke-width="1" stroke-linecap="square"/><path d="M290.35025,133.89616c-11.99761,-15.45791 -9.19249,-37.71501 6.26542,-49.71261c15.45791,-11.99762 37.71501,-9.19249 49.71262,6.26542c11.99761,15.45792 9.1925,37.71501 -6.26542,49.71262c-15.45792,11.99762 -37.71501,9.19249 -49.71262,-6.26543z" fill="#000000" stroke="none" stroke-width="0" stroke-linecap="butt"/><path d="M292.736,132.04448c-10.97495,-14.1403 -8.40895,-34.50024 5.73137,-45.47518c14.1403,-10.97495 34.50024,-8.40894 45.47519,5.73137c10.97495,14.1403 8.40894,34.50024 -5.73137,45.47519c-14.1403,10.97496 -34.50024,8.40895 -45.47518,-5.73137z" fill="url(#color-3)" stroke="none" stroke-width="0" stroke-linecap="butt"/><path d="M295.72858,129.7218c-9.69217,-12.48753 -7.42607,-30.46774 5.06147,-40.15991c12.48753,-9.69216 30.46774,-7.42608 40.15991,5.06147c9.69217,12.48753 7.42607,30.46775 -5.06147,40.15992c-12.48753,9.69216 -30.46774,7.42608 -40.15991,-5.06147z" fill="url(#color-4)" stroke="none" stroke-width="0" stroke-linecap="butt"/><path d="M325.99697,112.0561l-5.23378,-5.47819l13.44211,-9.10819c0,0 1.27328,-1.04402 2.03533,-0.59789c1.23019,0.72021 0.47998,1.99698 0.47998,1.99698z" data-paper-data="{&quot;index&quot;:null}" fill="#ffffff" stroke="none" stroke-width="1" stroke-linecap="butt"/><path d="M299.29305,121.10074c0.45551,-0.35525 0.95607,-0.6466 1.43445,-0.97017c1.51631,-1.02574 3.03253,-2.05087 4.54884,-3.07661c1.06378,-0.71956 4.52925,-3.06344 4.52925,-3.06344l5.31133,11.42762c0,0 -0.03548,0.07327 -0.25058,0.33813c-0.45816,0.56412 -0.78001,1.17357 -1.39722,1.60376c-1.35293,0.94269 -3.13208,1.22133 -4.74322,1.2889c-2.11096,0.08902 -4.27988,-0.19969 -6.28907,-0.85725c-1.47831,-0.48381 -3.07118,-1.21111 -4.05853,-2.46346c-0.35195,-0.44614 -0.61389,-0.97689 -0.65221,-1.55112c-0.02318,-0.34904 0.03653,-0.70107 0.17488,-1.02207c0.1595,-0.37209 0.66985,-1.09148 1.39207,-1.65431zM306.65538,121.9097c-3.67102,-0.46267 -6.79062,0.30215 -6.96784,1.70826c-0.17722,1.40611 2.65508,2.92107 6.32609,3.38374c3.67102,0.46266 6.79062,-0.30215 6.96784,-1.70826c0.17722,-1.40611 -2.65507,-2.92106 -6.32609,-3.38373z" fill="#ffffff" stroke="none" stroke-width="0.5" stroke-linecap="butt"/><path d="M333.30135,124.10966l1.09995,1.24081c0.39938,0.45013 0.69632,0.97693 0.93159,1.53112c0.00094,0.00268 0.00252,0.00544 0.00337,0.00875c0.16414,0.38275 0.23849,0.8028 0.18619,1.21776c-0.34363,2.72654 -4.53532,3.23773 -6.60851,3.17155c-3.12376,-0.10008 -6.80499,-0.6344 -9.1449,-2.70572c-0.76771,-0.67951 -1.02514,-1.49429 -1.42951,-2.37173c-0.36266,-0.78711 -0.72523,-1.57484 -1.08726,-2.36185c-3.12892,-6.79441 -6.25786,-13.58882 -9.38615,-20.38316c-1.44684,-3.14282 -2.89438,-6.28509 -4.34122,-9.42791c-0.4134,-0.89712 1.25213,-2.09325 2.09954,-1.13759c2.1496,2.42411 4.29849,4.84876 6.4481,7.27287c5.36269,6.0486 10.7259,12.09792 16.08859,18.14652c1.71321,1.93284 3.4264,3.86568 5.14022,5.79859zM327.33521,124.51604c-3.67102,-0.46267 -6.79062,0.30214 -6.96784,1.70826c-0.17722,1.40612 2.65507,2.92107 6.32609,3.38374c3.67102,0.46267 6.79063,-0.30215 6.96785,-1.70826c0.17722,-1.40611 -2.65507,-2.92106 -6.32609,-3.38373z" data-paper-data="{&quot;index&quot;:null}" fill="#ffffff" stroke="none" stroke-width="1" stroke-linecap="butt"/></g></g></svg>
