<svg version="1.1" xmlns="http://www.w3.org/2000/svg" xmlns:xlink="http://www.w3.org/1999/xlink" width="300" height="50.00001" viewBox="0,0,300,50.00001"><defs><linearGradient x1="152.00001" y1="92.00001" x2="327.00001" y2="267.00001" gradientUnits="userSpaceOnUse" id="color-1"><stop offset="0" stop-color="#00ff84"/><stop offset="1" stop-color="#00c8ff"/></linearGradient><linearGradient x1="319.72355" y1="167.41558" x2="319.72355" y2="192.60432" gradientUnits="userSpaceOnUse" id="color-2"><stop offset="0" stop-color="#fff827"/><stop offset="1" stop-color="#ffb517"/></linearGradient><linearGradient x1="104.05945" y1="165.55943" x2="131.94059" y2="193.44059" gradientUnits="userSpaceOnUse" id="color-3"><stop offset="0" stop-color="#00994f"/><stop offset="1" stop-color="#007899"/></linearGradient><linearGradient x1="105.68886" y1="167.18885" x2="130.31118" y2="191.81117" gradientUnits="userSpaceOnUse" id="color-4"><stop offset="0" stop-color="#00ff84"/><stop offset="1" stop-color="#00c9ff"/></linearGradient></defs><g transform="translate(-89.50001,-154.50001)"><g fill-rule="nonzero" stroke-linejoin="miter" stroke-miterlimit="10" stroke-dasharray="" stroke-dashoffset="0" style="mix-blend-mode: normal"><path d="M89.50001,204.50001v-50h299.99999v50z" fill="url(#color-1)" stroke="none" stroke-width="1" stroke-linecap="butt"/><g fill-opacity="0.34902" fill="#ffffff" stroke="none" stroke-width="0" stroke-linecap="butt"><path d="M239.50001,179.50001l149.8277,15.28047l0.1723,-0.02872v9.74825h-58.48947l0.1723,-0.02872z" data-paper-data="{&quot;index&quot;:null}"/><path d="M203.38675,204.50001l36.11326,-25l36.11326,25z"/><path d="M275.61327,154.50001l-36.11326,25l-36.11326,-25z" data-paper-data="{&quot;index&quot;:null}"/><path d="M89.50001,173.48114l149.99999,6.01888l-149.99999,6.01888z"/><path d="M389.5,185.51889l-150,-6.01888l150,-6.01888z" data-paper-data="{&quot;index&quot;:null}"/><path d="M239.50001,179.50001l-149.8277,-15.28047l-0.1723,0.02872v-9.74825h58.48947l-0.1723,0.02872z" data-paper-data="{&quot;index&quot;:null}"/><path d="M147.81719,204.4713l0.1723,0.02872h-58.48947v-9.74825l0.1723,0.02872l149.8277,-15.28047z" data-paper-data="{&quot;index&quot;:null}"/><path d="M331.18283,154.52873l-0.1723,-0.02872h58.48947v9.74825l-0.1723,-0.02872l-149.8277,15.28047z" data-paper-data="{&quot;index&quot;:null}"/></g><path d="M150.24263,191.97422c-0.09175,-2.65626 -0.13763,-5.84468 -0.13763,-9.56528c0,-3.72518 0.11698,-8.69821 0.35096,-14.91909c1.97269,-0.72944 3.99815,-1.09416 6.07636,-1.09416c2.07821,0 3.93392,0.77073 5.56713,2.31218c1.63321,1.53687 2.44981,3.47516 2.44981,5.81486c0,2.33512 -0.88771,4.35369 -2.66313,6.05572c-1.77084,1.70202 -4.08991,2.95217 -6.9572,3.75042c0,2.62873 0.0367,5.33087 0.11011,8.1064zM158.4385,178.09425c0.85789,-1.00928 1.28684,-2.13556 1.28684,-3.37881c0,-1.24784 -0.32343,-2.25943 -0.97029,-3.03474c-0.64686,-0.77531 -1.36942,-1.16297 -2.16767,-1.16297c-0.21103,0 -0.69273,0.05964 -1.44511,0.17892c-0.11928,3.3077 -0.19039,6.51219 -0.21333,9.61345c1.48181,-0.46794 2.65167,-1.20656 3.50956,-2.21584zM172.61987,178.65853c-0.98635,0 -1.72726,1.24325 -2.22272,3.72977c0.04588,1.64697 0.06882,3.22284 0.06882,4.72759c0,1.50017 -0.04588,3.19072 -0.13763,5.07167l-4.0876,-0.35096c0.06882,-3.45451 0.10322,-5.35839 0.10322,-5.71164c0,-4.34452 -0.21103,-7.66828 -0.6331,-9.97129l2.6425,0.28214c0.16515,0.68357 0.35325,1.28225 0.56428,1.79607c1.1515,-2.46357 2.31447,-3.69536 3.48891,-3.69536c0.96341,0 1.80984,0.42207 2.53927,1.2662l-0.92212,3.24119c-0.3716,-0.25691 -0.83954,-0.38536 -1.40382,-0.38536zM179.77056,185.03079c0,2.65626 0.58722,3.98439 1.76166,3.98439c0.51841,0 0.95194,-0.7455 1.3006,-2.23649c0.35325,-1.49099 0.52987,-2.91775 0.52987,-4.28029c0,-3.00951 -0.49317,-4.51426 -1.47952,-4.51426c-0.6331,0 -1.14462,0.80514 -1.53457,2.41541c-0.38536,1.61027 -0.57805,3.15402 -0.57805,4.63125zM175.64854,184.71424c0,-2.18373 0.445,-4.32158 1.33501,-6.41355c0.47253,-1.05516 1.13774,-1.91764 1.99563,-2.58744c0.85789,-0.6698 1.81442,-1.0047 2.86958,-1.0047c1.05517,0 1.96352,0.24085 2.72507,0.72256c0.76614,0.4817 1.34878,1.12169 1.7479,1.91993c0.77531,1.57357 1.16297,3.28936 1.16297,5.14736c0,2.55992 -0.52299,4.83311 -1.56898,6.81956c-1.0414,1.98187 -2.50257,2.9728 -4.38351,2.9728c-3.92245,0 -5.88368,-2.52551 -5.88368,-7.57652zM197.31946,175.6582c1.43135,0 2.52321,0.49547 3.27559,1.4864c1.22032,-1.78919 2.42917,-2.68378 3.62655,-2.68378c3.26642,0 4.89962,2.4544 4.89962,7.3632c0,2.77554 -0.23626,6.136 -0.70879,10.08139l-4.08761,-0.35096c0.4496,-4.39498 0.67439,-7.74168 0.67439,-10.0401c0,-2.30301 -0.37618,-3.45451 -1.12857,-3.45451c-0.33031,0 -0.71797,0.52758 -1.16297,1.58275c-0.44501,1.05516 -0.73861,2.2296 -0.88083,3.52332c-0.04588,2.93611 -0.13993,5.55566 -0.28214,7.85867l-4.12201,-0.39224c0.1881,-3.3077 0.28214,-6.03049 0.28214,-8.16834c0,-2.13785 -0.29361,-3.20678 -0.88083,-3.20678c-0.37619,0 -0.86477,0.65145 -1.46576,1.95435c-0.5964,1.3029 -1.02534,2.67002 -1.28684,4.10137c0.02753,2.16079 0.13534,4.39268 0.32343,6.69569l-4.12202,-0.38536c-0.2615,-3.31229 -0.39224,-6.33097 -0.39224,-9.05605c0,-2.72508 0.0711,-5.27352 0.21333,-7.64535l2.92464,0.21333c0.14222,0.6331 0.34178,1.78231 0.59869,3.44763c1.24326,-1.94976 2.47734,-2.92464 3.70225,-2.92464zM215.53227,185.03079c0,2.65626 0.58722,3.98439 1.76166,3.98439c0.51841,0 0.95194,-0.7455 1.3006,-2.23649c0.35325,-1.49099 0.52987,-2.91775 0.52987,-4.28029c0,-3.00951 -0.49317,-4.51426 -1.47952,-4.51426c-0.6331,0 -1.14462,0.80514 -1.53457,2.41541c-0.38536,1.61027 -0.57805,3.15402 -0.57805,4.63125zM211.41025,184.71424c0,-2.18373 0.44501,-4.32158 1.33501,-6.41355c0.47253,-1.05516 1.13774,-1.91764 1.99563,-2.58744c0.85789,-0.6698 1.81443,-1.0047 2.86959,-1.0047c1.05517,0 1.96351,0.24085 2.72507,0.72256c0.76614,0.4817 1.34877,1.12169 1.7479,1.91993c0.77531,1.57357 1.16297,3.28936 1.16297,5.14736c0,2.55992 -0.52299,4.83311 -1.56898,6.81956c-1.0414,1.98187 -2.50257,2.9728 -4.38351,2.9728c-3.92245,0 -5.88368,-2.52551 -5.88368,-7.57652zM233.56975,176.64913v3.34441c-1.12857,0 -1.99793,0.01147 -2.60809,0.03441c-0.06882,2.34889 -0.10322,6.29656 -0.10322,11.84305l-4.15643,-0.39225c0,-4.11054 0.03441,-7.83344 0.10322,-11.16867c-0.35325,0 -1.02305,0.05964 -2.0094,0.17892l-0.52299,-2.89023c0.55969,-0.11928 1.44052,-0.27068 2.64249,-0.45418c0.04588,-1.73872 0.13763,-4.2757 0.27526,-7.61093l4.19771,0.38536c-0.14222,2.32595 -0.24773,4.58078 -0.31655,6.76451c0.58722,-0.02294 1.41988,-0.03441 2.49798,-0.03441zM242.97979,186.26946l2.6769,1.58275c-0.44501,0.77531 -0.87395,1.43365 -1.28684,1.97499c-0.41289,0.53676 -1.02993,1.05287 -1.85112,1.54834c-0.8212,0.49547 -1.73643,0.7432 -2.74572,0.7432c-1.48181,0 -2.72736,-0.62851 -3.73665,-1.88553c-1.00929,-1.25702 -1.51393,-2.95445 -1.51393,-5.0923c0,-2.44523 0.43354,-4.72529 1.3006,-6.84021c0.47253,-1.10104 1.14921,-1.99793 2.03004,-2.69067c0.88083,-0.69273 1.7846,-1.03911 2.71131,-1.03911c0.92671,0 1.6722,0.14681 2.23649,0.44042c0.56428,0.29361 1.01617,0.62163 1.35566,0.98406c0.34408,0.36242 0.64456,0.89689 0.90148,1.60339c0.25691,0.7065 0.43812,1.28225 0.54364,1.72725c0.10552,0.445 0.19498,1.09186 0.26838,1.94058c0.09175,1.12398 0.13763,2.14473 0.13763,3.06227c-1.87636,0.51841 -4.30782,0.98865 -7.29438,1.41071c0.07341,0.94047 0.23856,1.69285 0.49547,2.25713c0.25691,0.5597 0.56199,0.83954 0.91524,0.83954c0,0 1.84652,-0.8556 2.85581,-2.5668zM240.90157,178.02543c-0.51841,0 -0.98405,0.51611 -1.39694,1.54833c-0.4083,1.03222 -0.64686,2.22961 -0.71568,3.59214c1.24326,-0.25691 2.32365,-0.50235 3.24119,-0.73632c0,-2.93611 -0.37618,-4.40415 -1.12857,-4.40415z" fill="none" stroke="#000000" stroke-width="5.5" stroke-linecap="square"/><path d="M150.24263,191.97422c-0.09175,-2.65626 -0.13763,-5.84468 -0.13763,-9.56528c0,-3.72518 0.11698,-8.69821 0.35096,-14.91909c1.97269,-0.72944 3.99815,-1.09416 6.07636,-1.09416c2.07821,0 3.93392,0.77073 5.56713,2.31218c1.63321,1.53687 2.44981,3.47516 2.44981,5.81486c0,2.33512 -0.88771,4.35369 -2.66313,6.05572c-1.77084,1.70202 -4.08991,2.95217 -6.9572,3.75042c0,2.62873 0.0367,5.33087 0.11011,8.1064zM158.4385,178.09425c0.85789,-1.00928 1.28684,-2.13556 1.28684,-3.37881c0,-1.24784 -0.32343,-2.25943 -0.97029,-3.03474c-0.64686,-0.77531 -1.36942,-1.16297 -2.16767,-1.16297c-0.21103,0 -0.69273,0.05964 -1.44511,0.17892c-0.11928,3.3077 -0.19039,6.51219 -0.21333,9.61345c1.48181,-0.46794 2.65167,-1.20656 3.50956,-2.21584zM172.61987,178.65853c-0.98635,0 -1.72726,1.24325 -2.22272,3.72977c0.04588,1.64697 0.06882,3.22284 0.06882,4.72759c0,1.50017 -0.04588,3.19072 -0.13763,5.07167l-4.0876,-0.35096c0.06882,-3.45451 0.10322,-5.35839 0.10322,-5.71164c0,-4.34452 -0.21103,-7.66828 -0.6331,-9.97129l2.6425,0.28214c0.16515,0.68357 0.35325,1.28225 0.56428,1.79607c1.1515,-2.46357 2.31447,-3.69536 3.48891,-3.69536c0.96341,0 1.80984,0.42207 2.53927,1.2662l-0.92212,3.24119c-0.3716,-0.25691 -0.83954,-0.38536 -1.40382,-0.38536zM179.77055,185.03079c0,2.65626 0.58722,3.98439 1.76166,3.98439c0.51841,0 0.95194,-0.7455 1.3006,-2.23649c0.35325,-1.49099 0.52987,-2.91775 0.52987,-4.28029c0,-3.00951 -0.49317,-4.51426 -1.47952,-4.51426c-0.6331,0 -1.14462,0.80514 -1.53457,2.41541c-0.38536,1.61027 -0.57805,3.15402 -0.57805,4.63125zM175.64854,184.71424c0,-2.18373 0.445,-4.32158 1.33501,-6.41355c0.47253,-1.05516 1.13774,-1.91764 1.99563,-2.58744c0.85789,-0.6698 1.81442,-1.0047 2.86958,-1.0047c1.05517,0 1.96352,0.24085 2.72507,0.72256c0.76614,0.4817 1.34878,1.12169 1.7479,1.91993c0.77531,1.57357 1.16297,3.28936 1.16297,5.14736c0,2.55992 -0.52299,4.83311 -1.56898,6.81956c-1.0414,1.98187 -2.50257,2.9728 -4.38351,2.9728c-3.92245,0 -5.88368,-2.52551 -5.88368,-7.57652zM197.31945,175.6582c1.43135,0 2.52321,0.49547 3.27559,1.4864c1.22032,-1.78919 2.42917,-2.68378 3.62655,-2.68378c3.26642,0 4.89962,2.4544 4.89962,7.3632c0,2.77554 -0.23626,6.136 -0.70879,10.08139l-4.08761,-0.35096c0.4496,-4.39498 0.67439,-7.74168 0.67439,-10.0401c0,-2.30301 -0.37618,-3.45451 -1.12857,-3.45451c-0.33031,0 -0.71797,0.52758 -1.16297,1.58275c-0.44501,1.05516 -0.73861,2.2296 -0.88083,3.52332c-0.04588,2.93611 -0.13993,5.55566 -0.28214,7.85867l-4.12201,-0.39224c0.1881,-3.3077 0.28214,-6.03049 0.28214,-8.16834c0,-2.13785 -0.29361,-3.20678 -0.88083,-3.20678c-0.37619,0 -0.86477,0.65145 -1.46576,1.95435c-0.5964,1.3029 -1.02534,2.67002 -1.28684,4.10137c0.02753,2.16079 0.13534,4.39268 0.32343,6.69569l-4.12202,-0.38536c-0.2615,-3.31229 -0.39224,-6.33097 -0.39224,-9.05605c0,-2.72508 0.0711,-5.27352 0.21333,-7.64535l2.92464,0.21333c0.14222,0.6331 0.34178,1.78231 0.59869,3.44763c1.24326,-1.94976 2.47734,-2.92464 3.70225,-2.92464zM215.53227,185.03079c0,2.65626 0.58722,3.98439 1.76166,3.98439c0.51841,0 0.95194,-0.7455 1.3006,-2.23649c0.35325,-1.49099 0.52987,-2.91775 0.52987,-4.28029c0,-3.00951 -0.49317,-4.51426 -1.47952,-4.51426c-0.6331,0 -1.14462,0.80514 -1.53457,2.41541c-0.38536,1.61027 -0.57805,3.15402 -0.57805,4.63125zM211.41025,184.71424c0,-2.18373 0.44501,-4.32158 1.33501,-6.41355c0.47253,-1.05516 1.13774,-1.91764 1.99563,-2.58744c0.85789,-0.6698 1.81443,-1.0047 2.86959,-1.0047c1.05517,0 1.96351,0.24085 2.72507,0.72256c0.76614,0.4817 1.34877,1.12169 1.7479,1.91993c0.77531,1.57357 1.16297,3.28936 1.16297,5.14736c0,2.55992 -0.52299,4.83311 -1.56898,6.81956c-1.0414,1.98187 -2.50257,2.9728 -4.38351,2.9728c-3.92245,0 -5.88368,-2.52551 -5.88368,-7.57652zM233.56975,176.64913v3.34441c-1.12857,0 -1.99793,0.01147 -2.60809,0.03441c-0.06882,2.34889 -0.10322,6.29656 -0.10322,11.84305l-4.15643,-0.39225c0,-4.11054 0.03441,-7.83344 0.10322,-11.16867c-0.35325,0 -1.02305,0.05964 -2.0094,0.17892l-0.52299,-2.89023c0.55969,-0.11928 1.44052,-0.27068 2.64249,-0.45418c0.04588,-1.73872 0.13763,-4.2757 0.27526,-7.61093l4.19771,0.38536c-0.14222,2.32595 -0.24773,4.58078 -0.31655,6.76451c0.58722,-0.02294 1.41988,-0.03441 2.49798,-0.03441zM240.12396,188.83626c0.8946,0 1.84653,-0.8556 2.85582,-2.5668l2.6769,1.58275c-0.44501,0.77531 -0.87395,1.43365 -1.28684,1.97499c-0.41289,0.53676 -1.02993,1.05287 -1.85112,1.54834c-0.8212,0.49547 -1.73643,0.7432 -2.74572,0.7432c-1.48181,0 -2.72736,-0.62851 -3.73665,-1.88553c-1.00929,-1.25702 -1.51393,-2.95445 -1.51393,-5.0923c0,-2.44523 0.43354,-4.72529 1.3006,-6.84021c0.47253,-1.10104 1.14921,-1.99793 2.03004,-2.69067c0.88083,-0.69273 1.7846,-1.03911 2.71131,-1.03911c0.92671,0 1.6722,0.14681 2.23649,0.44042c0.56428,0.29361 1.01617,0.62163 1.35566,0.98406c0.34408,0.36242 0.64456,0.89689 0.90148,1.60339c0.25691,0.7065 0.43812,1.28225 0.54364,1.72725c0.10552,0.445 0.19498,1.09186 0.26838,1.94058c0.09175,1.12398 0.13763,2.14473 0.13763,3.06227c-1.87636,0.51841 -4.30782,0.98865 -7.29438,1.41071c0.07341,0.94047 0.23856,1.69285 0.49547,2.25713c0.25691,0.5597 0.56199,0.83954 0.91524,0.83954zM240.90157,178.02543c-0.51841,0 -0.98405,0.51611 -1.39694,1.54833c-0.4083,1.03222 -0.64686,2.22961 -0.71568,3.59214c1.24326,-0.25691 2.32365,-0.50235 3.24119,-0.73632c0,-2.93611 -0.37618,-4.40415 -1.12857,-4.40415z" fill="#ffffff" stroke="none" stroke-width="1" stroke-linecap="square"/><path d="M274.43212,168.8324v4.99151c-2.67162,0 -4.80972,0.0573 -6.41427,0.17191c-0.01581,0.21736 -0.03952,1.06905 -0.07113,2.55504c-0.02766,1.48204 -0.24305,2.22306 -0.24305,2.22306c0,0 3.77426,-0.59282 5.52505,-0.59282l0.8418,4.58246c-2.73881,0.07114 -4.81564,0.19365 -6.23049,0.36754c0,2.77833 0.0494,5.61002 0.1482,8.49505l-5.37091,-0.59874c-0.04348,-3.64779 -0.06521,-6.8826 -0.06521,-9.7044c0,-2.8218 0.17192,-6.69289 0.51575,-11.61326c3.82564,-0.58491 7.61373,-0.87737 11.36428,-0.87737zM281.75718,192.00558c-2.14995,0 -3.94222,-0.9327 -5.37684,-2.79809c-1.43066,-1.86935 -2.14599,-4.63582 -2.14599,-8.29942c0,-3.6636 0.77066,-6.68301 2.31198,-9.05823c1.54132,-2.37521 3.40276,-3.56282 5.58433,-3.56282c2.18551,0 3.98174,0.94061 5.3887,2.82181c1.4109,1.8812 2.11635,4.6378 2.11635,8.26978c0,3.62803 -0.77659,6.63954 -2.32976,9.03452c-1.54922,2.39497 -3.39881,3.59247 -5.54876,3.59247zM282.17808,173.15996c-0.60862,0 -1.20342,0.69952 -1.78438,2.09857c-0.577,1.39905 -0.86551,3.2427 -0.86551,5.53097c0,2.28827 0.23911,3.92444 0.71731,4.90852c0.47821,0.98013 0.99593,1.47018 1.55318,1.47018c0.55725,0 1.12042,-0.70545 1.68952,-2.11635c0.56911,-1.4109 0.85365,-3.26049 0.85365,-5.54876c0,-2.28827 -0.22922,-3.91654 -0.68767,-4.8848c-0.45845,-0.97222 -0.95048,-1.45833 -1.47611,-1.45833zM290.86589,191.17563c0.28455,-5.24049 0.42683,-9.75775 0.42683,-13.55177c0,-3.79797 -0.01186,-6.4281 -0.03557,-7.89038c2.55306,-1.20539 5.08043,-1.80809 7.58211,-1.80809c1.94839,0 3.58654,0.62641 4.91444,1.87923c1.33186,1.24886 1.99779,2.99767 1.99779,5.24642c0,2.61234 -1.59072,4.95792 -4.77217,7.03672c1.56108,1.95629 3.42252,4.49355 5.58432,7.61176l-3.9363,2.9048c-1.5097,-2.27641 -3.54504,-5.10415 -6.106,-8.48319c-0.03952,1.91677 -0.12844,4.46785 -0.26676,7.65325zM296.6577,179.24225c0.82599,-0.39125 1.72115,-1.0651 2.68546,-2.0215c0.96827,-0.95641 1.4524,-1.77054 1.4524,-2.4424c0,-0.67186 -0.18575,-1.1797 -0.55725,-1.52354c-0.36754,-0.34778 -0.89713,-0.52168 -1.58874,-0.52168c-0.69161,0 -1.34964,0.11066 -1.97408,0.33198c0,3.12612 -0.00593,5.18517 -0.01779,6.17714zM326.33427,168.8324v4.99151c-2.67162,0 -4.80971,0.0573 -6.41426,0.17191c-0.01581,0.21736 -0.03952,1.06905 -0.07114,2.55504c-0.02766,1.48204 -0.24305,2.22306 -0.24305,2.22306c0,0 3.77426,-0.59282 5.52504,-0.59282l0.8418,4.58246c-2.73881,0.07114 -4.81564,0.19365 -6.23049,0.36754c0,2.77833 0.04941,5.61002 0.14821,8.49505l-5.37091,-0.59874c-0.04348,-3.64779 -0.06521,-6.8826 -0.06521,-9.7044c0,-2.8218 0.17191,-6.69289 0.51574,-11.61326c3.82564,-0.58491 7.61373,-0.87737 11.36428,-0.87737zM326.95458,191.17563c0.28455,-5.24049 0.42683,-9.75775 0.42683,-13.55177c0,-3.79797 -0.01186,-6.4281 -0.03557,-7.89038c2.55306,-1.20539 5.08043,-1.80809 7.58212,-1.80809c1.94839,0 3.58654,0.62641 4.91444,1.87923c1.33186,1.24886 1.99779,2.99767 1.99779,5.24642c0,2.61234 -1.59072,4.95792 -4.77217,7.03672c1.56108,1.95629 3.42252,4.49355 5.58432,7.61176l-3.9363,2.9048c-1.5097,-2.27641 -3.54504,-5.10415 -6.106,-8.48319c-0.03952,1.91677 -0.12844,4.46785 -0.26676,7.65325zM332.74639,179.24225c0.82599,-0.39125 1.72114,-1.0651 2.68546,-2.0215c0.96827,-0.95641 1.4524,-1.77054 1.4524,-2.4424c0,-0.67186 -0.18575,-1.1797 -0.55725,-1.52354c-0.36754,-0.34778 -0.89713,-0.52168 -1.58874,-0.52168c-0.69161,0 -1.34964,0.11066 -1.97408,0.33198c0,3.12612 -0.00593,5.18517 -0.01778,6.17714zM343.32813,191.03928c-0.08695,-3.5727 -0.13042,-6.78972 -0.13042,-9.65104c0,-2.86528 0.17191,-6.7581 0.51575,-11.67847c3.82564,-0.58491 7.61373,-0.87737 11.36428,-0.87737v4.99151c-2.69138,0 -4.82354,0.0573 -6.39648,0.17191c-0.06719,1.88515 -0.10671,3.18737 -0.11856,3.90666c1.07498,-0.15808 2.85737,-0.26084 5.3472,-0.30826l0.8003,4.59432c-1.82982,0.02766 -3.90468,0.16203 -6.22457,0.40311c0,2.05114 0.00593,3.38695 0.01778,4.00744c1.29629,-0.10276 3.37115,-0.42683 6.22457,-0.97222l0.68767,4.45205c-2.09461,0.96036 -4.37103,1.44054 -6.82924,1.44054zM356.89554,191.03928c-0.08695,-3.5727 -0.13042,-6.78972 -0.13042,-9.65104c0,-2.86528 0.17191,-6.7581 0.51575,-11.67847c3.82564,-0.58491 7.61373,-0.87737 11.36428,-0.87737v4.99151c-2.69138,0 -4.82355,0.0573 -6.39648,0.17191c-0.06719,1.88515 -0.1067,3.18737 -0.11856,3.90666c1.07497,-0.15808 2.85737,-0.26084 5.34719,-0.30826l0.8003,4.59432c-1.82982,0.02766 -3.90468,0.16203 -6.22457,0.40311c0,2.05114 0.00593,3.38695 0.01778,4.00744c1.29629,-0.10276 3.37115,-0.42683 6.22457,-0.97222l0.68767,4.45205c-2.09461,0.96036 -4.37103,1.44054 -6.82924,1.44054zM371.09133,184.95699c-0.40707,-3.36324 -0.6106,-6.29768 -0.6106,-8.80331c0,-2.50563 0.22329,-5.41833 0.66988,-8.7381l5.74439,1.10264c-1.11449,4.3157 -1.85354,9.94745 -2.21713,16.89525zM374.54153,186.85991c0.3794,0.69161 0.5691,1.20145 0.5691,2.31199c0,1.10659 -0.24503,1.83773 -0.73509,2.97594l-3.98967,-0.92479c0.30431,-1.12635 0.45647,-1.68953 0.45647,-2.47205c0,-0.78647 -0.03557,-1.31606 -0.10671,-2.37127z" fill="none" stroke="#000000" stroke-width="5" stroke-linecap="square"/><path d="M274.43212,168.8324v4.99151c-2.67162,0 -4.80972,0.0573 -6.41427,0.17191c-0.01581,0.21736 -0.03952,1.06905 -0.07113,2.55504c-0.02766,1.48204 -0.10868,2.22306 -0.24305,2.22306c1.93258,-0.39521 2.99176,-0.59282 4.74255,-0.59282l-0.20153,4.58246c-2.73881,0.07114 -2.98981,0.19365 -4.40466,0.36754c0,2.77833 0.0494,5.61002 0.1482,8.49505l-5.37091,-0.59874c-0.04348,-3.64779 -0.06521,-6.8826 -0.06521,-9.7044c0,-2.8218 0.17192,-6.69289 0.51575,-11.61326c3.82564,-0.58491 7.61373,-0.87737 11.36428,-0.87737zM281.75718,192.00558c-2.14995,0 -3.94222,-0.9327 -5.37684,-2.79809c-1.43066,-1.86935 -2.14599,-4.63582 -2.14599,-8.29942c0,-3.6636 0.77066,-6.68301 2.31198,-9.05823c1.54132,-2.37521 3.40276,-3.56282 5.58433,-3.56282c2.18551,0 3.98174,0.94061 5.3887,2.82181c1.4109,1.8812 2.11635,4.6378 2.11635,8.26978c0,3.62803 -0.77659,6.63954 -2.32976,9.03452c-1.54922,2.39497 -3.39881,3.59247 -5.54876,3.59247zM282.17808,173.15996c-0.60862,0 -1.20342,0.69952 -1.78438,2.09857c-0.577,1.39905 -0.86551,3.2427 -0.86551,5.53097c0,2.28827 0.23911,3.92444 0.71731,4.90852c0.47821,0.98013 0.99593,1.47018 1.55318,1.47018c0.55725,0 1.12042,-0.70545 1.68952,-2.11635c0.56911,-1.4109 0.85365,-3.26049 0.85365,-5.54876c0,-2.28827 -0.22922,-3.91654 -0.68767,-4.8848c-0.45845,-0.97222 -0.95048,-1.45833 -1.47611,-1.45833zM290.86589,191.17563c0.28455,-5.24049 0.42683,-9.75775 0.42683,-13.55177c0,-3.79797 -0.01186,-6.4281 -0.03557,-7.89038c2.55306,-1.20539 5.08043,-1.80809 7.58211,-1.80809c1.94839,0 3.58654,0.62641 4.91444,1.87923c1.33186,1.24886 1.99779,2.99767 1.99779,5.24642c0,2.61234 -1.59072,4.95792 -4.77217,7.03672c1.56108,1.95629 3.42252,4.49355 5.58432,7.61176l-3.9363,2.9048c-1.5097,-2.27641 -3.54504,-5.10415 -6.106,-8.48319c-0.03952,1.91677 -0.12844,4.46785 -0.26676,7.65325zM296.6577,179.24225c0.82599,-0.39125 1.72115,-1.0651 2.68546,-2.0215c0.96827,-0.95641 1.4524,-1.77054 1.4524,-2.4424c0,-0.67186 -0.18575,-1.1797 -0.55725,-1.52354c-0.36754,-0.34778 -0.89713,-0.52168 -1.58874,-0.52168c-0.69161,0 -1.34964,0.11066 -1.97408,0.33198c0,3.12612 -0.00593,5.18517 -0.01779,6.17714zM326.33427,168.8324v4.99151c-2.67162,0 -4.80971,0.0573 -6.41426,0.17191c-0.01581,0.21736 -0.03952,1.06905 -0.07114,2.55504c-0.02766,1.48204 -0.10868,2.22306 -0.24305,2.22306c1.93258,-0.39521 3.77426,-0.59282 5.52504,-0.59282l-0.46236,4.58246c-2.73881,0.07114 -3.51147,0.19365 -4.92633,0.36754c0,2.77833 0.04941,5.61002 0.14821,8.49505l-5.37091,-0.59874c-0.04348,-3.64779 -0.06521,-6.8826 -0.06521,-9.7044c0,-2.8218 0.17191,-6.69289 0.51574,-11.61326c3.82564,-0.58491 7.61373,-0.87737 11.36428,-0.87737zM326.95458,191.17563c0.28455,-5.24049 0.42683,-9.75775 0.42683,-13.55177c0,-3.79797 -0.01186,-6.4281 -0.03557,-7.89038c2.55306,-1.20539 5.08043,-1.80809 7.58212,-1.80809c1.94839,0 3.58654,0.62641 4.91444,1.87923c1.33186,1.24886 1.99779,2.99767 1.99779,5.24642c0,2.61234 -1.59072,4.95792 -4.77217,7.03672c1.56108,1.95629 3.42252,4.49355 5.58432,7.61176l-3.9363,2.9048c-1.5097,-2.27641 -3.54504,-5.10415 -6.106,-8.48319c-0.03952,1.91677 -0.12844,4.46785 -0.26676,7.65325zM332.74639,179.24225c0.82599,-0.39125 1.72114,-1.0651 2.68546,-2.0215c0.96827,-0.95641 1.4524,-1.77054 1.4524,-2.4424c0,-0.67186 -0.18575,-1.1797 -0.55725,-1.52354c-0.36754,-0.34778 -0.89713,-0.52168 -1.58874,-0.52168c-0.69161,0 -1.34964,0.11066 -1.97408,0.33198c0,3.12612 -0.00593,5.18517 -0.01778,6.17714zM343.32813,191.03928c-0.08695,-3.5727 -0.13042,-6.78972 -0.13042,-9.65104c0,-2.86528 0.17191,-6.7581 0.51575,-11.67847c3.82564,-0.58491 7.61373,-0.87737 11.36428,-0.87737v4.99151c-2.69138,0 -4.82354,0.0573 -6.39648,0.17191c-0.06719,1.88515 -0.10671,3.18737 -0.11856,3.90666c1.07498,-0.15808 2.85737,-0.26084 5.3472,-0.30826l0.8003,4.59432c-1.82982,0.02766 -3.90468,0.16203 -6.22457,0.40311c0,2.05114 0.00593,3.38695 0.01778,4.00744c1.29629,-0.10276 3.37115,-0.42683 6.22457,-0.97222l0.68767,4.45205c-2.09461,0.96036 -4.37103,1.44054 -6.82924,1.44054zM356.89554,191.03928c-0.08695,-3.5727 -0.13042,-6.78972 -0.13042,-9.65104c0,-2.86528 0.17191,-6.7581 0.51575,-11.67847c3.82564,-0.58491 7.61373,-0.87737 11.36428,-0.87737v4.99151c-2.69138,0 -4.82355,0.0573 -6.39648,0.17191c-0.06719,1.88515 -0.1067,3.18737 -0.11856,3.90666c1.07497,-0.15808 2.85737,-0.26084 5.34719,-0.30826l0.8003,4.59432c-1.82982,0.02766 -3.90468,0.16203 -6.22457,0.40311c0,2.05114 0.00593,3.38695 0.01778,4.00744c1.29629,-0.10276 3.37115,-0.42683 6.22457,-0.97222l0.68767,4.45205c-2.09461,0.96036 -4.37103,1.44054 -6.82924,1.44054zM371.09133,184.95699c-0.40707,-3.36324 -0.6106,-6.29768 -0.6106,-8.80331c0,-2.50563 0.22329,-5.41833 0.66988,-8.7381l5.74439,1.10264c-1.11449,4.3157 -1.85354,9.94745 -2.21713,16.89525zM374.54153,186.85991c0.3794,0.69161 0.5691,1.20145 0.5691,2.31199c0,1.10659 -0.24503,1.83773 -0.73509,2.97594l-3.98967,-0.92479c0.30431,-1.12635 0.45647,-1.68953 0.45647,-2.47205c0,-0.78647 -0.03557,-1.31606 -0.10671,-2.37127z" fill="url(#color-2)" stroke="none" stroke-width="1" stroke-linecap="square"/><path d="M101.01593,192.68215c-7.28029,-9.38005 -5.57812,-22.88593 3.80194,-30.16623c9.38005,-7.2803 22.88594,-5.57812 30.16623,3.80194c7.28029,9.38005 5.57812,22.88594 -3.80194,30.16623c-9.38005,7.2803 -22.88594,5.57812 -30.16623,-3.80194z" fill="#000000" stroke="none" stroke-width="0" stroke-linecap="butt"/><path d="M104.05945,193.44059c-7.69917,-7.69917 -7.69917,-20.18198 0,-27.88115c7.69917,-7.69917 20.18198,-7.69917 27.88115,0c7.69917,7.69917 7.69917,20.18198 0,27.88115c-7.69917,7.69917 -20.18198,7.69917 -27.88115,0z" fill="url(#color-3)" stroke="none" stroke-width="0" stroke-linecap="butt"/><path d="M105.68886,191.81117c-6.79926,-6.79926 -6.79926,-17.82305 0,-24.62232c6.79926,-6.79926 17.82305,-6.79926 24.62232,0c6.79926,6.79926 6.79926,17.82305 0,24.62232c-6.79926,6.79926 -17.82305,6.79926 -24.62232,0z" fill="url(#color-4)" stroke="none" stroke-width="0" stroke-linecap="butt"/><path d="M122.61274,178.84725l-3.57539,-2.9081l7.41979,-6.51943c0,0 0.68904,-0.72694 1.18289,-0.51565c0.79723,0.34108 0.44157,1.16871 0.44157,1.16871z" data-paper-data="{&quot;index&quot;:null}" fill="#ffffff" stroke="none" stroke-width="1" stroke-linecap="butt"/><path d="M107.18435,186.33707c0.24789,-0.24905 0.52782,-0.46296 0.79192,-0.69462c0.8371,-0.73439 1.6742,-1.4684 2.5113,-2.20279c0.58728,-0.51519 2.50048,-2.19336 2.50048,-2.19336l4.07472,6.49281c0,0 -0.01584,0.04692 -0.12551,0.22313c-0.2336,0.37531 -0.38149,0.7676 -0.72127,1.07418c-0.74482,0.67184 -1.79737,0.97533 -2.76459,1.13866c-1.26724,0.21429 -2.59818,0.20503 -3.86078,-0.039c-0.929,-0.17954 -1.94564,-0.49732 -2.63679,-1.17804c-0.24634,-0.24248 -0.44481,-0.54288 -0.51161,-0.88653c-0.04054,-0.20889 -0.03128,-0.42588 0.0278,-0.63014c0.06796,-0.23669 0.32125,-0.70968 0.71432,-1.1043zM111.68921,186.26528c-2.25073,0 -4.0753,0.69887 -4.0753,1.56096c0,0.8621 1.82458,1.56097 4.0753,1.56097c2.25073,0 4.0753,-0.69887 4.0753,-1.56097c0,-0.8621 -1.82457,-1.56096 -4.0753,-1.56096z" fill="#ffffff" stroke="none" stroke-width="0.5" stroke-linecap="butt"/><path d="M127.93792,185.56622l0.75823,0.66519c0.27527,0.24129 0.49455,0.53663 0.6787,0.8532c0.00077,0.00154 0.00193,0.00309 0.0027,0.00502c0.12817,0.21851 0.205,0.46636 0.205,0.72078c0,1.67166 -2.49089,2.29901 -3.74714,2.41676c-1.89287,0.1772 -4.1552,0.13474 -5.72494,-0.93736c-0.51501,-0.35171 -0.73236,-0.82386 -1.04314,-1.32265c-0.27874,-0.44745 -0.55748,-0.89528 -0.83583,-1.34273c-2.40518,-3.86257 -4.81036,-7.72514 -7.21515,-11.58771c-1.11225,-1.7867 -2.22488,-3.57302 -3.33714,-5.35972c-0.31773,-0.50999 0.59647,-1.35856 1.18059,-0.84626c1.48171,1.29949 2.96304,2.59937 4.44476,3.89886c3.69656,3.24255 7.39351,6.48549 11.09007,9.72804c1.18097,1.0362 2.36194,2.07239 3.54329,3.10859zM124.36814,186.26528c-2.25073,0 -4.0753,0.69887 -4.0753,1.56096c0,0.8621 1.82458,1.56097 4.0753,1.56097c2.25073,0 4.0753,-0.69887 4.0753,-1.56097c0,-0.8621 -1.82457,-1.56096 -4.0753,-1.56096z" data-paper-data="{&quot;index&quot;:null}" fill="#ffffff" stroke="none" stroke-width="1" stroke-linecap="butt"/></g></g></svg>
