<svg version="1.1" xmlns="http://www.w3.org/2000/svg" xmlns:xlink="http://www.w3.org/1999/xlink" width="300" height="250.00001" viewBox="0,0,300,250.00001"><defs><linearGradient x1="102.5" y1="42.50004" x2="377.50001" y2="317.50004" gradientUnits="userSpaceOnUse" id="color-1"><stop offset="0" stop-color="#00ff84"/><stop offset="1" stop-color="#00c8ff"/></linearGradient><linearGradient x1="240.00001" y1="234.4603" x2="240.00001" y2="286.27016" gradientUnits="userSpaceOnUse" id="color-2"><stop offset="0" stop-color="#fff827"/><stop offset="1" stop-color="#ffb517"/></linearGradient><linearGradient x1="218.34079" y1="167.3408" x2="261.65922" y2="210.65926" gradientUnits="userSpaceOnUse" id="color-3"><stop offset="0" stop-color="#00994f"/><stop offset="1" stop-color="#007899"/></linearGradient><linearGradient x1="220.87239" y1="169.87242" x2="259.12763" y2="208.12767" gradientUnits="userSpaceOnUse" id="color-4"><stop offset="0" stop-color="#00ff84"/><stop offset="1" stop-color="#00c9ff"/></linearGradient></defs><g transform="translate(-90,-55.00002)"><g stroke-linejoin="miter" stroke-miterlimit="10" stroke-dasharray="" stroke-dashoffset="0" style="mix-blend-mode: normal"><path d="M90,305.00004v-250.00001h299.99999v250.00001z" fill="url(#color-1)" fill-rule="nonzero" stroke="none" stroke-width="1" stroke-linecap="butt"/><g fill-opacity="0.4" fill="#ffffff" fill-rule="nonzero" stroke="none" stroke-width="0" stroke-linecap="butt"><path d="M240,180.00004l149.8277,76.40235l0.1723,-0.14358v48.74123h-58.48947l0.1723,-0.14358z" data-paper-data="{&quot;index&quot;:null}"/><path d="M203.88674,305.00004l36.11326,-125l36.11326,125z"/><path d="M276.11327,55.00004l-36.11326,125l-36.11326,-125z" data-paper-data="{&quot;index&quot;:null}"/><path d="M90.00001,149.90563l149.99999,30.09438l-149.99999,30.09438z"/><path d="M390,210.09443l-150,-30.09438l150,-30.09438z" data-paper-data="{&quot;index&quot;:null}"/><path d="M240,180.00004l-149.8277,-76.40235l-0.1723,0.14358v-48.74123h58.48947l-0.1723,0.14358z" data-paper-data="{&quot;index&quot;:null}"/><path d="M148.31719,304.85643l0.1723,0.14358h-58.48947v-48.74123l0.1723,0.14358l149.8277,-76.40235z" data-paper-data="{&quot;index&quot;:null}"/><path d="M331.68282,55.14362l-0.1723,-0.14358h58.48947v48.74123l-0.1723,-0.14358l-149.8277,76.40235z" data-paper-data="{&quot;index&quot;:null}"/></g><path d="M110.00881,105.70284c-0.30147,-3.65823 -0.57467,-8.05357 -0.81965,-13.18608c-0.24528,-5.13882 -0.41134,-12.00674 -0.49818,-20.60375c2.67327,-1.13613 5.44334,-1.77262 8.3102,-1.90945c2.86687,-0.13683 5.47753,0.80419 7.832,2.82307c2.35417,2.01256 3.60828,4.63261 3.76234,7.8602c0.15374,3.22127 -0.93792,6.0643 -3.27502,8.52911c-2.33077,2.46451 -5.44758,4.34175 -9.3504,5.63172c0.17308,3.62628 0.40162,7.35143 0.68564,11.1754zM120.40099,86.01601c1.11699,-1.44877 1.63457,-3.03069 1.55272,-4.74575c-0.08217,-1.72138 -0.59494,-3.09555 -1.53832,-4.12249c-0.94338,-1.02694 -1.96566,-1.51414 -3.06684,-1.46157c-0.29111,0.0139 -0.95168,0.12788 -1.98174,0.34196c0.05325,4.57077 0.16614,8.99599 0.3387,13.27565c2.01332,-0.74309 3.57849,-1.83901 4.69548,-3.2878zM140.00111,85.86068c-1.36065,0.06495 -2.30086,1.82878 -2.82063,5.29151c0.17173,2.26896 0.30713,4.44132 0.4062,6.51711c0.09877,2.06945 0.1468,4.40456 0.14407,7.00535l-5.66189,-0.215c-0.13252,-4.76997 -0.21043,-7.39862 -0.23368,-7.88591c-0.28606,-5.9932 -0.79601,-10.56437 -1.52989,-13.71353l3.66386,0.21523c0.27283,0.9321 0.57173,1.74558 0.89667,2.4405c1.42627,-3.47428 2.94947,-5.25007 4.56959,-5.32741c1.32901,-0.06344 2.52443,0.46307 3.58625,1.5795l-1.05864,4.53188c-0.52954,-0.32994 -1.1835,-0.47631 -1.96192,-0.43917zM150.28493,94.18031c0.17489,3.66427 1.07241,5.45774 2.69252,5.3804c0.71513,-0.03413 1.26411,-1.09108 1.64691,-3.17083c0.38914,-2.08006 0.53884,-4.05988 0.44912,-5.93948c-0.19816,-4.15157 -0.97756,-6.19488 -2.33821,-6.12994c-0.87335,0.04169 -1.52597,1.18603 -1.95788,3.43304c-0.42558,2.24671 -0.58973,4.38899 -0.49248,6.4268zM144.57784,94.01503c-0.14378,-3.01241 0.32933,-5.99085 1.41933,-8.93529c0.58237,-1.48669 1.44323,-2.72027 2.58259,-3.70074c1.13935,-0.98045 2.43682,-1.50543 3.89239,-1.57491c1.45559,-0.06947 2.7245,0.20296 3.80677,0.81733c1.08859,0.61405 1.93447,1.45853 2.53761,2.53343c1.17314,2.11967 1.82088,4.46104 1.94321,7.02413c0.16855,3.53136 -0.40323,6.70162 -1.71536,9.51078c-1.3061,2.80254 -3.25651,4.2657 -5.85125,4.38956c-5.41096,0.25826 -8.28272,-3.09651 -8.6153,-10.06429zM173.87625,80.0955c1.97451,-0.09423 3.51335,0.51735 4.6165,1.83479c1.56561,-2.54851 3.1743,-3.86218 4.82607,-3.94101c4.50597,-0.21507 6.92054,3.0632 7.24376,9.83481c0.18275,3.8288 0.07809,8.48007 -0.31399,13.95378l-5.6619,-0.215c0.33083,-6.09241 0.42057,-10.72393 0.26923,-13.89457c-0.15164,-3.17696 -0.7464,-4.74068 -1.78429,-4.69114c-0.45567,0.02175 -0.95569,0.77506 -1.50008,2.25996c-0.5444,1.48488 -0.8721,3.12433 -0.98311,4.91836c0.13003,4.05333 0.17277,7.67317 0.12822,10.85949l-5.71207,-0.26969c0.04169,-4.57531 -0.00785,-8.33753 -0.14861,-11.28666c-0.14076,-2.94912 -0.61616,-4.40438 -1.42624,-4.3657c-0.51895,0.02477 -1.15006,0.9556 -1.89332,2.7925c-0.73693,1.83659 -1.23864,3.75077 -1.50512,5.74251c0.18025,2.97897 0.47592,6.05073 0.88703,9.21531l-5.71163,-0.2602c-0.57881,-4.55203 -0.95794,-8.70765 -1.13736,-12.46685c-0.17943,-3.7592 -0.24913,-7.27943 -0.20911,-10.56069l4.04853,0.10172c0.23789,0.86397 0.58884,2.43615 1.05289,4.71652c1.58668,-2.77152 3.22487,-4.1976 4.91462,-4.27826zM199.61764,91.82566c0.17489,3.66427 1.07241,5.45773 2.69253,5.3804c0.71513,-0.03413 1.26411,-1.09108 1.6469,-3.17083c0.38914,-2.08006 0.53884,-4.05988 0.44912,-5.93948c-0.19816,-4.15157 -0.97755,-6.19488 -2.3382,-6.12994c-0.87335,0.04169 -1.52597,1.18604 -1.95789,3.43305c-0.42558,2.24671 -0.58973,4.38899 -0.49248,6.42679zM193.91054,91.66039c-0.14378,-3.01241 0.32933,-5.99085 1.41934,-8.9353c0.58237,-1.48669 1.44323,-2.72026 2.58258,-3.70073c1.13935,-0.98045 2.43681,-1.50544 3.89239,-1.57491c1.45559,-0.06947 2.72449,0.20296 3.80677,0.81733c1.08859,0.61405 1.93446,1.45853 2.53762,2.53343c1.17314,2.11967 1.82088,4.46104 1.94321,7.02413c0.16855,3.53136 -0.40323,6.70163 -1.71537,9.51079c-1.3061,2.80254 -3.25651,4.2657 -5.85125,4.38955c-5.41096,0.25826 -8.28273,-3.09651 -8.6153,-10.06429zM223.94819,79.07564l0.22021,4.61356c-1.55684,0.0743 -2.75535,0.14737 -3.59555,0.21918c0.05973,3.24478 0.27219,8.6928 0.63738,16.3441l-5.75955,-0.26743c-0.27064,-5.67043 -0.46831,-10.80837 -0.59297,-15.41379c-0.4873,0.02325 -1.40736,0.14963 -2.76015,0.37912l-0.91176,-3.95258c0.76423,-0.2014 1.96936,-0.46824 3.61536,-0.80052c-0.05119,-2.40156 -0.09167,-5.90732 -0.12141,-10.51728l5.81605,0.25521c-0.04305,3.21797 -0.04013,6.33543 0.00872,9.35238c0.80856,-0.07031 1.95644,-0.14096 3.44366,-0.21194zM237.56259,91.72718l3.79695,2.00711c-0.56283,1.09883 -1.1112,2.03523 -1.64514,2.8092c-0.53423,0.76764 -1.35144,1.52023 -2.45164,2.2578c-1.10021,0.73756 -2.34644,1.13955 -3.73874,1.20601c-2.04414,0.09757 -3.80374,-0.68744 -5.2788,-2.35503c-1.47505,-1.66759 -2.28297,-3.97594 -2.42373,-6.92507c-0.161,-3.37316 0.28694,-6.54701 1.3438,-9.52159c0.57935,-1.54998 1.45378,-2.83178 2.62324,-3.84539c1.16949,-1.0136 2.39342,-1.55093 3.67179,-1.61195c1.27838,-0.06101 2.31644,0.09242 3.11419,0.4603c0.79775,0.36787 1.44271,0.79062 1.93489,1.26823c0.49852,0.4773 0.94821,1.19481 1.34914,2.15249c0.40091,0.95769 0.6888,1.73999 0.86366,2.34691c0.17486,0.60692 0.34086,1.49337 0.498,2.65933c0.20058,1.54447 0.33107,2.94956 0.39149,4.21528c-2.55427,0.83868 -5.87747,1.64746 -9.96959,2.42633c0.16319,1.29254 0.44055,2.31955 0.83211,3.08105c0.39126,0.75518 0.83053,1.12112 1.31784,1.09787c0,0 2.49092,-1.30186 3.77053,-3.72888zM234.15293,80.49151c-0.71513,0.03413 -1.3235,0.77675 -1.82512,2.22787c-0.49529,1.45082 -0.74554,3.1183 -0.75075,5.00244c1.69813,-0.43627 3.17238,-0.84598 4.42269,-1.22915c-0.19332,-4.05031 -0.80893,-6.0507 -1.84682,-6.00116z" fill="none" fill-rule="nonzero" stroke="#000000" stroke-width="7" stroke-linecap="square"/><path d="M110.00881,105.70284c-0.30147,-3.65823 -0.57467,-8.05357 -0.81965,-13.18608c-0.24528,-5.13882 -0.41134,-12.00674 -0.49818,-20.60375c2.67327,-1.13613 5.44334,-1.77262 8.3102,-1.90945c2.86687,-0.13683 5.47753,0.80419 7.832,2.82307c2.35417,2.01256 3.60829,4.63261 3.76235,7.8602c0.15374,3.22127 -0.93793,6.0643 -3.27503,8.52911c-2.33077,2.46451 -5.44758,4.34175 -9.3504,5.63172c0.17308,3.62628 0.40162,7.35143 0.68564,11.1754zM120.40098,86.01601c1.11699,-1.44877 1.63457,-3.03069 1.55272,-4.74575c-0.08217,-1.72138 -0.59494,-3.09555 -1.53832,-4.12249c-0.94338,-1.02694 -1.96566,-1.51414 -3.06684,-1.46157c-0.29111,0.0139 -0.95168,0.12788 -1.98174,0.34196c0.05325,4.57077 0.16614,8.99599 0.3387,13.27565c2.01332,-0.74309 3.57849,-1.83901 4.69548,-3.2878zM140.00111,85.86068c-1.36065,0.06495 -2.30086,1.82878 -2.82063,5.29151c0.17173,2.26896 0.30712,4.44132 0.4062,6.51711c0.09877,2.06945 0.14681,4.40456 0.14407,7.00535l-5.66189,-0.215c-0.13252,-4.76997 -0.21042,-7.39862 -0.23367,-7.88591c-0.28606,-5.9932 -0.79601,-10.56437 -1.52989,-13.71353l3.66385,0.21523c0.27283,0.9321 0.57173,1.74558 0.89668,2.4405c1.42627,-3.47428 2.94947,-5.25007 4.56959,-5.32741c1.32901,-0.06344 2.52443,0.46307 3.58625,1.5795l-1.05865,4.53188c-0.52954,-0.32994 -1.1835,-0.47631 -1.96192,-0.43917zM150.28492,94.18031c0.17489,3.66427 1.07241,5.45774 2.69252,5.3804c0.71513,-0.03413 1.2641,-1.09108 1.6469,-3.17083c0.38914,-2.08006 0.53884,-4.05988 0.44912,-5.93948c-0.19816,-4.15157 -0.97756,-6.19488 -2.33821,-6.12994c-0.87335,0.04169 -1.52596,1.18603 -1.95788,3.43304c-0.42558,2.24671 -0.58974,4.38899 -0.49249,6.4268zM144.57784,94.01503c-0.14378,-3.01241 0.32933,-5.99085 1.41933,-8.93529c0.58237,-1.48669 1.44324,-2.72027 2.58259,-3.70074c1.13935,-0.98045 2.43681,-1.50543 3.89238,-1.57491c1.45559,-0.06947 2.7245,0.20296 3.80677,0.81733c1.08859,0.61405 1.93447,1.45853 2.53761,2.53343c1.17314,2.11967 1.82089,4.46104 1.94322,7.02413c0.16855,3.53136 -0.40323,6.70162 -1.71537,9.51078c-1.3061,2.80254 -3.25651,4.2657 -5.85125,4.38956c-5.41096,0.25826 -8.28272,-3.09651 -8.61529,-10.06429zM173.87624,80.0955c1.97451,-0.09423 3.51334,0.51735 4.61649,1.83479c1.56561,-2.54851 3.17429,-3.86218 4.82606,-3.94101c4.50597,-0.21507 6.92055,3.0632 7.24376,9.83481c0.18275,3.8288 0.07809,8.48007 -0.31399,13.95378l-5.66191,-0.215c0.33083,-6.09241 0.42057,-10.72393 0.26923,-13.89457c-0.15164,-3.17696 -0.7464,-4.74068 -1.78428,-4.69114c-0.45567,0.02175 -0.95569,0.77506 -1.50009,2.25996c-0.5444,1.48488 -0.87209,3.12433 -0.98311,4.91836c0.13003,4.05333 0.17277,7.67317 0.12822,10.85949l-5.71207,-0.26969c0.04169,-4.57531 -0.00785,-8.33753 -0.14861,-11.28666c-0.14076,-2.94912 -0.61616,-4.40438 -1.42624,-4.3657c-0.51895,0.02477 -1.15006,0.9556 -1.89331,2.7925c-0.73693,1.83659 -1.23864,3.75077 -1.50512,5.74251c0.18025,2.97897 0.47591,6.05073 0.88702,9.21531l-5.71162,-0.2602c-0.57881,-4.55203 -0.95795,-8.70765 -1.13737,-12.46685c-0.17943,-3.7592 -0.24913,-7.27943 -0.20911,-10.56069l4.04854,0.10172c0.23789,0.86397 0.58883,2.43615 1.05289,4.71652c1.58668,-2.77152 3.22488,-4.1976 4.91463,-4.27826zM199.61763,91.82566c0.17489,3.66427 1.07241,5.45773 2.69253,5.3804c0.71513,-0.03413 1.26411,-1.09108 1.6469,-3.17083c0.38914,-2.08006 0.53884,-4.05988 0.44912,-5.93948c-0.19816,-4.15157 -0.97756,-6.19488 -2.33821,-6.12994c-0.87335,0.04169 -1.52596,1.18604 -1.95788,3.43305c-0.42558,2.24671 -0.58973,4.38899 -0.49248,6.42679zM193.91053,91.66039c-0.14378,-3.01241 0.32933,-5.99085 1.41934,-8.9353c0.58237,-1.48669 1.44323,-2.72026 2.58259,-3.70073c1.13935,-0.98045 2.43681,-1.50544 3.89239,-1.57491c1.45559,-0.06947 2.72449,0.20296 3.80677,0.81733c1.08859,0.61405 1.93446,1.45853 2.53761,2.53343c1.17314,2.11967 1.82088,4.46104 1.94321,7.02413c0.16855,3.53136 -0.40323,6.70163 -1.71537,9.51079c-1.3061,2.80254 -3.25651,4.2657 -5.85125,4.38955c-5.41096,0.25826 -8.28274,-3.09651 -8.61531,-10.06429zM223.94819,79.07564l0.22021,4.61356c-1.55684,0.0743 -2.75535,0.14737 -3.59555,0.21918c0.05973,3.24478 0.27219,8.6928 0.63738,16.3441l-5.75956,-0.26743c-0.27064,-5.67043 -0.4683,-10.80837 -0.59296,-15.41379c-0.4873,0.02325 -1.40736,0.14963 -2.76015,0.37912l-0.91175,-3.95258c0.76423,-0.2014 1.96936,-0.46824 3.61536,-0.80052c-0.05119,-2.40156 -0.09167,-5.90732 -0.12142,-10.51728l5.81605,0.25521c-0.04305,3.21797 -0.04013,6.33543 0.00872,9.35238c0.80856,-0.07031 1.95643,-0.14096 3.44366,-0.21194zM233.79204,95.45608c1.23408,-0.0589 2.49092,-1.30187 3.77056,-3.72889l3.79695,2.00711c-0.56283,1.09883 -1.11121,2.03523 -1.64514,2.8092c-0.53423,0.76764 -1.35144,1.52023 -2.45164,2.25779c-1.10021,0.73756 -2.34644,1.13956 -3.73874,1.20602c-2.04414,0.09757 -3.80374,-0.68744 -5.2788,-2.35503c-1.47505,-1.66759 -2.28297,-3.97594 -2.42373,-6.92507c-0.161,-3.37316 0.28694,-6.547 1.3438,-9.52159c0.57935,-1.54998 1.45378,-2.83177 2.62324,-3.84539c1.16949,-1.0136 2.39342,-1.55094 3.67179,-1.61195c1.27838,-0.06101 2.31644,0.09241 3.11419,0.4603c0.79775,0.36787 1.44272,0.79062 1.9349,1.26823c0.49852,0.4773 0.94821,1.19482 1.34914,2.1525c0.40091,0.95769 0.68881,1.73999 0.86366,2.34691c0.17486,0.60692 0.34085,1.49337 0.49799,2.65933c0.20058,1.54447 0.33108,2.94957 0.3915,4.21529c-2.55427,0.83868 -5.87747,1.64745 -9.9696,2.42633c0.16319,1.29254 0.44055,2.31955 0.83211,3.08105c0.39126,0.75518 0.83053,1.12113 1.31784,1.09788zM234.15293,80.49151c-0.71513,0.03413 -1.3235,0.77675 -1.82512,2.22787c-0.49529,1.45082 -0.74554,3.1183 -0.75075,5.00244c1.69813,-0.43627 3.17237,-0.84598 4.42269,-1.22915c-0.19332,-4.05031 -0.80892,-6.0507 -1.84682,-6.00116z" fill="#ffffff" fill-rule="nonzero" stroke="none" stroke-width="1" stroke-linecap="square"/><path d="M227.25244,134.0505l0.1488,-3.27535c-3.35619,-8.02728 -5.15511,-13.78188 -5.39678,-17.26378l5.29732,0.74878c0.48174,3.20958 1.61407,7.07347 3.39697,11.59168c2.58874,-5.03047 4.62846,-9.58885 6.11915,-13.67513l4.91644,0.69815c-2.37232,5.88999 -5.17316,11.86047 -8.40248,17.91146c-0.17148,2.55236 -0.30102,4.79285 -0.38863,6.72149c-0.08761,1.92863 -0.12056,3.8764 -0.09884,5.84331l-5.59245,-0.85383c-0.1351,-2.64958 -0.13492,-5.4652 0.00053,-8.44681zM243.1531,135.23929c-0.14576,3.20884 0.49074,4.84549 1.9095,4.90993c0.62625,0.02845 1.19089,-0.84835 1.6939,-2.63038c0.50856,-1.78178 0.80023,-3.49567 0.875,-5.14165c0.16515,-3.63558 -0.34805,-5.48041 -1.53959,-5.53454c-0.7648,-0.03473 -1.42692,0.9098 -1.98636,2.83367c-0.5539,1.9241 -0.87139,3.77843 -0.95245,5.56297zM238.19096,134.6307c0.11984,-2.63801 0.77473,-5.19618 1.96469,-7.67451c0.62873,-1.24873 1.47966,-2.25414 2.55278,-3.0162c1.07311,-0.76206 2.24701,-1.11414 3.52169,-1.05624c1.27466,0.05791 2.35877,0.39871 3.25231,1.02241c0.89908,0.62396 1.5678,1.42905 2.00616,2.41526c0.85025,1.94347 1.22439,4.03747 1.12242,6.28199c-0.14048,3.09247 -0.89701,5.80983 -2.2696,8.15214c-1.3668,2.33702 -3.18632,3.45391 -5.45856,3.35069c-4.73844,-0.21525 -6.96906,-3.37376 -6.69189,-9.47555zM269.45847,124.11388l-0.38864,6.72149c-0.28726,6.32346 -0.385,10.98116 -0.29321,13.9731l-4.19547,-0.61542c-0.02901,-1.19531 -0.15712,-2.40901 -0.38439,-3.64111c-1.66708,2.22341 -3.2876,3.29937 -4.86153,3.22787c-1.57395,-0.07149 -2.8048,-0.6661 -3.69255,-1.78381c-0.88752,-1.12324 -1.28809,-2.63532 -1.20174,-4.53625c0.16743,-3.68545 0.63597,-8.07085 1.40566,-13.15618l4.91682,0.68985c-0.7304,4.83167 -1.16836,8.84914 -1.31387,12.05244c-0.06597,1.45201 0.3555,2.19867 1.26441,2.23996c0.4212,0.01913 0.96303,-0.53937 1.62554,-1.67549c0.66804,-1.13589 1.22233,-2.51852 1.66287,-4.14788c0.00074,-0.62751 0.02036,-1.36523 0.05889,-2.21317c0.03877,-0.85348 0.19829,-3.44802 0.47853,-7.78367zM281.21545,129.25454c-1.19155,-0.05412 -2.15481,1.40711 -2.88979,4.38371c-0.03495,1.99211 -0.09372,3.89706 -0.1763,5.71484c-0.08232,1.81224 -0.2305,3.85198 -0.44457,6.11917l-4.9187,-0.64828c0.2727,-4.16938 0.41874,-6.46743 0.43812,-6.89417c0.23841,-5.2483 0.16587,-9.27511 -0.21761,-12.08035l3.17672,0.48585c0.16201,0.83483 0.35637,1.56839 0.58312,2.20068c1.52625,-2.91287 2.99874,-4.33711 4.41751,-4.27266c1.16382,0.05288 2.16316,0.60919 2.99803,1.66895l-1.2918,3.86485c-0.4348,-0.33075 -0.99304,-0.5116 -1.67471,-0.54256zM307.15074,127.19225c0.43451,-1.37417 0.67303,-2.52959 0.71557,-3.46618c0.04255,-0.93661 -0.18004,-1.72142 -0.66776,-2.35446c-0.48218,-0.63279 -1.12784,-0.96755 -1.93696,-1.00431c-0.8036,-0.03651 -1.49495,0.32916 -2.07406,1.09699c-0.57358,0.76808 -0.88366,1.66477 -0.93023,2.69005c-0.09013,1.98405 0.96871,3.73706 3.17649,5.25905c2.19972,1.57716 3.69485,2.71134 4.48537,3.40256c0.79606,0.69148 1.35368,1.3138 1.67287,1.867c0.78474,1.42956 1.14363,2.88144 1.07667,4.35563c-0.11606,2.55488 -1.06759,4.55256 -2.8546,5.99302c-1.78148,1.44073 -3.75012,2.11212 -5.90598,2.01419c-2.55487,-0.11606 -4.6479,-1.2913 -6.27909,-3.5257c-1.18149,-1.61975 -2.2431,-3.61724 -3.18481,-5.99249l4.2139,-1.80783c0.57667,1.73111 1.3259,3.20906 2.24768,4.43381c0.92757,1.21947 1.94555,1.85438 3.05395,1.90473c0.70938,0.03222 1.35703,-0.16605 1.94297,-0.59482c0.59148,-0.42852 0.9081,-1.10277 0.9499,-2.02274c0.04203,-0.92552 -0.27363,-1.80065 -0.94701,-2.62539c-0.67313,-0.83029 -1.58684,-1.68258 -2.74112,-2.55694c-1.15403,-0.8799 -2.0462,-1.59517 -2.67649,-2.14583c-0.63004,-0.5562 -1.32268,-1.26243 -2.07794,-2.11864c-1.42963,-1.65879 -2.08806,-3.7296 -1.97527,-6.21242c0.11278,-2.48284 1.072,-4.52737 2.87763,-6.13359c1.8059,-1.61177 3.90039,-2.36353 6.28346,-2.25529c2.38307,0.10827 4.34737,1.12215 5.8929,3.04165c1.55131,1.91423 2.2828,3.84396 2.19443,5.78921c-0.08836,1.94525 -0.53256,3.59391 -1.33259,4.94592zM326.60821,128.88415l-0.18353,4.04014c-1.36334,-0.06192 -2.41419,-0.09578 -3.15254,-0.10156c-0.21202,2.83374 -0.47022,7.60079 -0.77459,14.3011l-4.99957,-0.70194c0.22557,-4.96567 0.47144,-9.46114 0.73759,-13.48642c-0.42674,-0.01938 -1.23915,0.01591 -2.43722,0.10589l-0.4732,-3.52018c0.68266,-0.11338 1.75507,-0.24793 3.21714,-0.40365c0.15083,-2.09792 0.40089,-5.15763 0.75018,-9.17914l5.04982,0.69589c-0.29944,2.80202 -0.55066,5.52012 -0.75361,8.15436c0.71064,0.00451 1.71715,0.03636 3.01953,0.09552zM342.87934,127.44911l-0.38864,6.72149c-0.28726,6.32346 -0.385,10.98116 -0.29321,13.9731l-4.19545,-0.61542c-0.02901,-1.19531 -0.15713,-2.40901 -0.38439,-3.6411c-1.66708,2.22341 -3.28759,3.29937 -4.86152,3.22786c-1.57395,-0.07149 -2.8048,-0.6661 -3.69256,-1.78381c-0.88752,-1.12324 -1.28808,-2.63532 -1.20174,-4.53624c0.16742,-3.68545 0.63597,-8.07085 1.40566,-13.15619l4.91682,0.68985c-0.7304,4.83167 -1.16837,8.84914 -1.31389,12.05244c-0.06597,1.45201 0.3555,2.19867 1.26441,2.23996c0.4212,0.01913 0.96303,-0.53937 1.62553,-1.6755c0.66804,-1.13589 1.22233,-2.51852 1.66287,-4.14788c0.00074,-0.62751 0.02037,-1.36523 0.05889,-2.21317c0.03877,-0.85348 0.19828,-3.44802 0.47853,-7.78367zM347.64945,128.69041c0.17421,-3.83509 0.88476,-6.82391 2.13167,-8.96644c1.24715,-2.14807 2.7713,-3.1812 4.57247,-3.09938c1.80117,0.08182 3.13682,1.05882 4.00696,2.93099c0.87016,1.87218 1.23235,4.41268 1.08658,7.62152l-3.94608,-0.6041c0.1445,-3.18114 -0.27925,-4.79422 -1.27128,-4.83929c-0.84793,-0.03852 -1.38155,2.35579 -1.60082,7.1829l-0.05589,1.23033c1.90746,-0.05774 3.45697,-0.05954 4.64852,-0.00541l-0.18014,3.96533c-1.96188,-0.08911 -3.4974,-0.08945 -4.60656,-0.001c-0.19738,4.34496 -0.26135,9.17635 -0.19194,14.49418l-4.95648,-0.73331c-0.04923,-3.92855 -0.00326,-8.36368 0.13793,-13.30541c-0.74238,0.08291 -1.25955,0.15937 -1.55151,0.22941l-0.71541,-3.87271c0.28642,-0.07029 1.08875,-0.18934 2.40699,-0.35715zM359.86496,129.24532c0.17421,-3.83509 0.88476,-6.8239 2.13167,-8.96643c1.24715,-2.14807 2.7713,-3.1812 4.57247,-3.09938c1.80117,0.08182 3.13681,1.05881 4.00697,2.93098c0.87016,1.87218 1.23235,4.41268 1.08657,7.62152l-3.94607,-0.6041c0.1445,-3.18114 -0.27925,-4.79422 -1.27128,-4.83929c-0.84793,-0.03852 -1.38155,2.35579 -1.60082,7.1829l-0.05588,1.23033c1.90746,-0.05774 3.45697,-0.05955 4.64851,-0.00542l-0.18014,3.96534c-1.96188,-0.08911 -3.4974,-0.08945 -4.60656,-0.001c-0.19738,4.34496 -0.26135,9.17635 -0.19193,14.49418l-4.95648,-0.73331c-0.04923,-3.92855 -0.00326,-8.36369 0.13793,-13.30542c-0.74238,0.08291 -1.25955,0.15937 -1.55151,0.22941l-0.71541,-3.87271c0.28642,-0.07029 1.08876,-0.18934 2.40699,-0.35715z" fill="none" fill-rule="nonzero" stroke="#000000" stroke-width="6.5" stroke-linecap="square"/><path d="M227.25244,134.0505l0.1488,-3.27535c-3.35619,-8.02728 -5.15511,-13.78188 -5.39678,-17.26378l5.29732,0.74878c0.48174,3.20958 1.61407,7.07347 3.39697,11.59168c2.58874,-5.03047 4.62846,-9.58885 6.11915,-13.67513l4.91644,0.69815c-2.37232,5.88999 -5.17316,11.86047 -8.40248,17.91146c-0.17148,2.55236 -0.30102,4.79285 -0.38863,6.72149c-0.08761,1.92863 -0.12056,3.8764 -0.09884,5.84331l-5.59245,-0.85383c-0.1351,-2.64958 -0.13492,-5.4652 0.00053,-8.44681zM243.1531,135.23929c-0.14576,3.20884 0.49074,4.84549 1.9095,4.90993c0.62625,0.02845 1.19089,-0.84835 1.6939,-2.63038c0.50856,-1.78178 0.80023,-3.49567 0.875,-5.14165c0.16515,-3.63558 -0.34805,-5.48041 -1.53959,-5.53454c-0.7648,-0.03473 -1.42692,0.9098 -1.98636,2.83367c-0.5539,1.9241 -0.87139,3.77843 -0.95245,5.56297zM238.19096,134.6307c0.11984,-2.63801 0.77473,-5.19618 1.96469,-7.67451c0.62873,-1.24873 1.47966,-2.25414 2.55278,-3.0162c1.07311,-0.76206 2.24701,-1.11414 3.52169,-1.05624c1.27466,0.05791 2.35877,0.39871 3.25231,1.02241c0.89908,0.62396 1.5678,1.42905 2.00616,2.41526c0.85025,1.94347 1.22439,4.03747 1.12242,6.28199c-0.14048,3.09247 -0.89701,5.80983 -2.2696,8.15214c-1.3668,2.33702 -3.18632,3.45391 -5.45856,3.35069c-4.73844,-0.21525 -6.96906,-3.37376 -6.69189,-9.47555zM269.45847,124.11388l-0.38864,6.72149c-0.28726,6.32346 -0.385,10.98116 -0.29321,13.9731l-4.19547,-0.61542c-0.02901,-1.19531 -0.15712,-2.40901 -0.38439,-3.64111c-1.66708,2.22341 -3.2876,3.29937 -4.86153,3.22787c-1.57395,-0.07149 -2.8048,-0.6661 -3.69255,-1.78381c-0.88752,-1.12324 -1.28809,-2.63532 -1.20174,-4.53625c0.16743,-3.68545 0.63597,-8.07085 1.40566,-13.15618l4.91682,0.68985c-0.7304,4.83167 -1.16836,8.84914 -1.31387,12.05244c-0.06597,1.45201 0.3555,2.19867 1.26441,2.23996c0.4212,0.01913 0.96303,-0.53937 1.62554,-1.67549c0.66804,-1.13589 1.22233,-2.51852 1.66287,-4.14788c0.00074,-0.62751 0.02036,-1.36523 0.05889,-2.21317c0.03877,-0.85348 0.19829,-3.44802 0.47853,-7.78367zM281.21545,129.25454c-1.19155,-0.05412 -2.15481,1.40711 -2.88979,4.38371c-0.03495,1.99211 -0.09372,3.89706 -0.1763,5.71484c-0.08232,1.81224 -0.2305,3.85198 -0.44457,6.11917l-4.9187,-0.64828c0.2727,-4.16938 0.41874,-6.46743 0.43812,-6.89417c0.23841,-5.2483 0.16587,-9.27511 -0.21761,-12.08035l3.17672,0.48585c0.16201,0.83483 0.35637,1.56839 0.58312,2.20068c1.52625,-2.91287 2.99874,-4.33711 4.41751,-4.27266c1.16382,0.05288 2.16316,0.60919 2.99803,1.66895l-1.2918,3.86485c-0.4348,-0.33075 -0.99304,-0.5116 -1.67471,-0.54256zM307.15074,127.19225c0.43451,-1.37417 0.67303,-2.52959 0.71557,-3.46618c0.04255,-0.93661 -0.18004,-1.72142 -0.66776,-2.35446c-0.48218,-0.63279 -1.12784,-0.96755 -1.93696,-1.00431c-0.8036,-0.03651 -1.49495,0.32916 -2.07406,1.09699c-0.57358,0.76808 -0.88366,1.66477 -0.93023,2.69005c-0.09013,1.98405 0.96871,3.73706 3.17649,5.25905c2.19972,1.57716 3.69485,2.71134 4.48537,3.40256c0.79606,0.69148 1.35368,1.3138 1.67287,1.867c0.78474,1.42956 1.14363,2.88144 1.07667,4.35563c-0.11606,2.55488 -1.06759,4.55256 -2.8546,5.99302c-1.78148,1.44073 -3.75012,2.11212 -5.90598,2.01419c-2.55487,-0.11606 -4.6479,-1.2913 -6.27909,-3.5257c-1.18149,-1.61975 -2.2431,-3.61724 -3.18481,-5.99249l4.2139,-1.80783c0.57667,1.73111 1.3259,3.20906 2.24768,4.43381c0.92757,1.21947 1.94555,1.85438 3.05395,1.90473c0.70938,0.03222 1.35703,-0.16605 1.94297,-0.59482c0.59148,-0.42852 0.9081,-1.10277 0.9499,-2.02274c0.04203,-0.92552 -0.27363,-1.80065 -0.94701,-2.62539c-0.67313,-0.83029 -1.58684,-1.68258 -2.74112,-2.55694c-1.15403,-0.8799 -2.0462,-1.59517 -2.67649,-2.14583c-0.63004,-0.5562 -1.32268,-1.26243 -2.07794,-2.11864c-1.42963,-1.65879 -2.08806,-3.7296 -1.97527,-6.21242c0.11278,-2.48284 1.072,-4.52737 2.87763,-6.13359c1.8059,-1.61177 3.90039,-2.36353 6.28346,-2.25529c2.38307,0.10827 4.34737,1.12215 5.8929,3.04165c1.55131,1.91423 2.2828,3.84396 2.19443,5.78921c-0.08836,1.94525 -0.53256,3.59391 -1.33259,4.94592zM326.60821,128.88415l-0.18353,4.04014c-1.36334,-0.06192 -2.41419,-0.09578 -3.15254,-0.10156c-0.21202,2.83374 -0.47022,7.60079 -0.77459,14.3011l-4.99957,-0.70194c0.22557,-4.96567 0.47144,-9.46114 0.73759,-13.48642c-0.42674,-0.01938 -1.23915,0.01591 -2.43722,0.10589l-0.4732,-3.52018c0.68266,-0.11338 1.75507,-0.24793 3.21714,-0.40365c0.15083,-2.09792 0.40089,-5.15763 0.75018,-9.17914l5.04982,0.69589c-0.29944,2.80202 -0.55066,5.52012 -0.75361,8.15436c0.71064,0.00451 1.71715,0.03636 3.01953,0.09552zM342.87934,127.44911l-0.38864,6.72149c-0.28726,6.32346 -0.385,10.98116 -0.29321,13.9731l-4.19545,-0.61542c-0.02901,-1.19531 -0.15713,-2.40901 -0.38439,-3.6411c-1.66708,2.22341 -3.28759,3.29937 -4.86152,3.22786c-1.57395,-0.07149 -2.8048,-0.6661 -3.69256,-1.78381c-0.88752,-1.12324 -1.28808,-2.63532 -1.20174,-4.53624c0.16742,-3.68545 0.63597,-8.07085 1.40566,-13.15619l4.91682,0.68985c-0.7304,4.83167 -1.16837,8.84914 -1.31389,12.05244c-0.06597,1.45201 0.3555,2.19867 1.26441,2.23996c0.4212,0.01913 0.96303,-0.53937 1.62553,-1.6755c0.66804,-1.13589 1.22233,-2.51852 1.66287,-4.14788c0.00074,-0.62751 0.02037,-1.36523 0.05889,-2.21317c0.03877,-0.85348 0.19828,-3.44802 0.47853,-7.78367zM347.64945,128.69041c0.17421,-3.83509 0.88476,-6.82391 2.13167,-8.96644c1.24715,-2.14807 2.7713,-3.1812 4.57247,-3.09938c1.80117,0.08182 3.13682,1.05882 4.00696,2.93099c0.87016,1.87218 1.23235,4.41268 1.08658,7.62152l-3.94608,-0.6041c0.1445,-3.18114 -0.27925,-4.79422 -1.27128,-4.83929c-0.84793,-0.03852 -1.38155,2.35579 -1.60082,7.1829l-0.05589,1.23033c1.90746,-0.05774 3.45697,-0.05954 4.64852,-0.00541l-0.18014,3.96533c-1.96188,-0.08911 -3.4974,-0.08945 -4.60656,-0.001c-0.19738,4.34496 -0.26135,9.17635 -0.19194,14.49418l-4.95648,-0.73331c-0.04923,-3.92855 -0.00326,-8.36368 0.13793,-13.30541c-0.74238,0.08291 -1.25955,0.15937 -1.55151,0.22941l-0.71541,-3.87271c0.28642,-0.07029 1.08875,-0.18934 2.40699,-0.35715zM359.86496,129.24532c0.17421,-3.83509 0.88476,-6.8239 2.13167,-8.96643c1.24715,-2.14807 2.7713,-3.1812 4.57247,-3.09938c1.80117,0.08182 3.13681,1.05881 4.00697,2.93098c0.87016,1.87218 1.23235,4.41268 1.08657,7.62152l-3.94607,-0.6041c0.1445,-3.18114 -0.27925,-4.79422 -1.27128,-4.83929c-0.84793,-0.03852 -1.38155,2.35579 -1.60082,7.1829l-0.05588,1.23033c1.90746,-0.05774 3.45697,-0.05955 4.64851,-0.00542l-0.18014,3.96534c-1.96188,-0.08911 -3.4974,-0.08945 -4.60656,-0.001c-0.19738,4.34496 -0.26135,9.17635 -0.19193,14.49418l-4.95648,-0.73331c-0.04923,-3.92855 -0.00326,-8.36369 0.13793,-13.30542c-0.74238,0.08291 -1.25955,0.15937 -1.55151,0.22941l-0.71541,-3.87271c0.28642,-0.07029 1.08876,-0.18934 2.40699,-0.35715z" fill="#ffffff" fill-rule="nonzero" stroke="none" stroke-width="1" stroke-linecap="square"/><path d="M146.84161,237.37452v10.26687c-5.49517,0 -9.89294,0.11786 -13.19329,0.35361c-0.03251,0.44709 -0.08129,2.19889 -0.14631,5.25538c-0.0569,3.04835 -0.49993,4.57253 -0.49993,4.57253c0,0 7.76315,-1.21934 11.36428,-1.21934l1.73147,9.42551c-5.63336,0.14632 -9.90512,0.39832 -12.81529,0.75599c0,5.71465 0.10161,11.53905 0.30483,17.47318l-11.04725,-1.23153c-0.08942,-7.50302 -0.13412,-14.15658 -0.13412,-19.96065c0,-5.80406 0.35362,-13.76638 1.06083,-23.88692c7.86883,-1.20309 15.66043,-1.80463 23.3748,-1.80463zM161.90826,285.03863c-4.42215,0 -8.10863,-1.91843 -11.05944,-5.7553c-2.94268,-3.845 -4.41402,-9.53526 -4.41402,-17.0708c0,-7.53554 1.58514,-13.74606 4.75544,-18.63156c3.1703,-4.88549 6.99903,-7.32825 11.48621,-7.32825c4.49531,0 8.18992,1.9347 11.08383,5.80408c2.90204,3.86938 4.35305,9.53933 4.35305,17.00982c0,7.46237 -1.59734,13.65664 -4.79201,18.58279c-3.18654,4.92614 -6.9909,7.38922 -11.41305,7.38922zM162.774,246.27572c-1.25185,0 -2.47527,1.43882 -3.67023,4.31647c-1.18682,2.87765 -1.78024,6.6698 -1.78024,11.37647c0,4.70666 0.49181,8.07206 1.4754,10.09616c0.98361,2.01599 2.04849,3.02396 3.19468,3.02396c1.14619,0 2.30455,-1.45101 3.47513,-4.35305c1.17058,-2.90204 1.75585,-6.70639 1.75585,-11.41305c0,-4.70666 -0.47147,-8.05579 -1.41443,-10.04738c-0.94296,-1.99972 -1.95501,-2.99958 -3.03616,-2.99958zM180.64367,283.33153c0.58529,-10.77898 0.87793,-20.07038 0.87793,-27.87418c0,-7.81192 -0.02439,-13.22173 -0.07316,-16.22945c5.2513,-2.47933 10.44976,-3.719 15.59538,-3.719c4.00758,0 7.37702,1.28844 10.10835,3.86532c2.73946,2.56874 4.10918,6.1658 4.10918,10.79118c0,5.37323 -3.2719,10.19777 -9.81571,14.4736c3.21093,4.02383 7.03967,9.24262 11.4862,15.65636l-8.09644,5.97478c-3.10525,-4.68227 -7.29168,-10.49854 -12.55923,-17.44879c-0.08129,3.94254 -0.26418,9.18978 -0.5487,15.74172zM192.55665,258.78618c1.69895,-0.80476 3.54017,-2.19076 5.52363,-4.15796c1.9916,-1.9672 2.98738,-3.64177 2.98738,-5.0237c0,-1.38192 -0.38207,-2.42649 -1.14619,-3.13371c-0.75599,-0.71535 -1.84528,-1.07302 -3.26783,-1.07302c-1.42256,0 -2.77604,0.2276 -4.06041,0.68283c0,6.43001 -0.0122,10.66519 -0.03659,12.70556zM253.59736,237.37452v10.26687c-5.49517,0 -9.89293,0.11786 -13.19328,0.35361c-0.03251,0.44709 -0.08129,2.19889 -0.14632,5.25538c-0.0569,3.04835 -0.49993,4.57253 -0.49993,4.57253c0,0 7.76314,-1.21934 11.36427,-1.21934l1.73147,9.42551c-5.63336,0.14632 -9.90512,0.39832 -12.81528,0.75599c0,5.71465 0.10162,11.53905 0.30484,17.47318l-11.04724,-1.23153c-0.08942,-7.50302 -0.13412,-14.15658 -0.13412,-19.96065c0,-5.80406 0.35361,-13.76638 1.06082,-23.88692c7.86883,-1.20309 15.66042,-1.80463 23.37479,-1.80463zM254.87327,283.33153c0.58529,-10.77898 0.87793,-20.07038 0.87793,-27.87418c0,-7.81192 -0.02439,-13.22173 -0.07316,-16.22945c5.2513,-2.47933 10.44976,-3.719 15.5954,-3.719c4.00758,0 7.37702,1.28844 10.10835,3.86532c2.73946,2.56874 4.10918,6.1658 4.10918,10.79118c0,5.37323 -3.2719,10.19777 -9.81571,14.4736c3.21093,4.02383 7.03967,9.24262 11.4862,15.65636l-8.09644,5.97478c-3.10525,-4.68227 -7.29167,-10.49854 -12.55923,-17.44879c-0.08129,3.94254 -0.26418,9.18978 -0.5487,15.74172zM266.78625,258.78618c1.69895,-0.80476 3.54016,-2.19076 5.52363,-4.15796c1.9916,-1.9672 2.98738,-3.64177 2.98738,-5.0237c0,-1.38192 -0.38206,-2.42649 -1.14619,-3.13371c-0.75599,-0.71535 -1.84528,-1.07302 -3.26783,-1.07302c-1.42256,0 -2.77604,0.2276 -4.06041,0.68283c0,6.43001 -0.01219,10.66519 -0.03658,12.70556zM288.55146,283.05108c-0.17884,-7.34857 -0.26825,-13.96555 -0.26825,-19.8509c0,-5.89349 0.35361,-13.9005 1.06083,-24.02105c7.86883,-1.20309 15.66043,-1.80463 23.3748,-1.80463v10.26687c-5.53582,0 -9.92138,0.11786 -13.15671,0.35361c-0.13819,3.87751 -0.21948,6.556 -0.24387,8.03547c2.21108,-0.32515 5.87723,-0.53651 10.99847,-0.63406l1.64612,9.4499c-3.7637,0.0569 -8.0314,0.33328 -12.8031,0.82915c0,4.21893 0.01219,6.96651 0.03658,8.24276c2.6663,-0.21136 6.93399,-0.87793 12.8031,-1.99972l1.41443,9.15726c-4.30834,1.97533 -8.99062,2.96301 -14.04682,2.96301zM316.4578,283.05108c-0.17884,-7.34857 -0.26825,-13.96555 -0.26825,-19.8509c0,-5.89349 0.35361,-13.9005 1.06083,-24.02105c7.86883,-1.20309 15.66042,-1.80463 23.3748,-1.80463v10.26687c-5.53582,0 -9.92139,0.11786 -13.15671,0.35361c-0.13819,3.87751 -0.21947,6.556 -0.24387,8.03547c2.21107,-0.32515 5.87723,-0.53651 10.99846,-0.63406l1.64612,9.4499c-3.7637,0.0569 -8.0314,0.33328 -12.8031,0.82915c0,4.21893 0.01219,6.96651 0.03658,8.24276c2.6663,-0.21136 6.93399,-0.87793 12.8031,-1.99972l1.41443,9.15726c-4.30834,1.97533 -8.99062,2.96301 -14.04682,2.96301zM345.65665,270.54062c-0.83728,-6.91774 -1.25592,-12.95348 -1.25592,-18.10724c0,-5.15375 0.45929,-11.14479 1.37786,-17.9731l11.81543,2.26798c-2.29236,8.87682 -3.81248,20.46057 -4.56034,34.75126zM352.75324,274.45466c0.78038,1.42256 1.17056,2.47122 1.17056,4.75546c0,2.2761 -0.50399,3.77997 -1.51198,6.12111l-8.20621,-1.90217c0.62593,-2.31675 0.93889,-3.47515 0.93889,-5.08468c0,-1.61766 -0.07316,-2.70696 -0.21948,-4.87739z" fill="none" fill-rule="nonzero" stroke="#000000" stroke-width="7.5" stroke-linecap="square"/><path d="M146.84161,237.37452v10.26687c-5.49517,0 -9.89294,0.11786 -13.19329,0.35361c-0.03251,0.44709 -0.08129,2.19889 -0.14631,5.25538c-0.0569,3.04835 -0.22355,4.57253 -0.49993,4.57253c3.97506,-0.81289 6.15366,-1.21934 9.75478,-1.21934l-0.41452,9.42551c-5.63336,0.14632 -6.14963,0.39832 -9.0598,0.75599c0,5.71465 0.10161,11.53905 0.30483,17.47318l-11.04725,-1.23153c-0.08942,-7.50302 -0.13412,-14.15658 -0.13412,-19.96065c0,-5.80406 0.35362,-13.76638 1.06083,-23.88692c7.86883,-1.20309 15.66043,-1.80463 23.3748,-1.80463zM161.90826,285.03863c-4.42215,0 -8.10863,-1.91843 -11.05944,-5.7553c-2.94268,-3.845 -4.41402,-9.53526 -4.41402,-17.0708c0,-7.53554 1.58514,-13.74606 4.75544,-18.63156c3.1703,-4.88549 6.99903,-7.32825 11.48621,-7.32825c4.49531,0 8.18992,1.9347 11.08383,5.80408c2.90204,3.86938 4.35305,9.53933 4.35305,17.00982c0,7.46237 -1.59734,13.65664 -4.79201,18.58279c-3.18654,4.92614 -6.9909,7.38922 -11.41305,7.38922zM162.774,246.27572c-1.25185,0 -2.47527,1.43882 -3.67023,4.31647c-1.18682,2.87765 -1.78024,6.6698 -1.78024,11.37647c0,4.70666 0.49181,8.07206 1.4754,10.09616c0.98361,2.01599 2.04849,3.02396 3.19468,3.02396c1.14619,0 2.30455,-1.45101 3.47513,-4.35305c1.17058,-2.90204 1.75585,-6.70639 1.75585,-11.41305c0,-4.70666 -0.47147,-8.05579 -1.41443,-10.04738c-0.94296,-1.99972 -1.95501,-2.99958 -3.03616,-2.99958zM180.64366,283.33153c0.58529,-10.77898 0.87793,-20.07038 0.87793,-27.87418c0,-7.81192 -0.02439,-13.22173 -0.07316,-16.22945c5.2513,-2.47933 10.44976,-3.719 15.59538,-3.719c4.00758,0 7.37702,1.28844 10.10835,3.86532c2.73946,2.56874 4.10918,6.1658 4.10918,10.79118c0,5.37323 -3.2719,10.19777 -9.81571,14.4736c3.21093,4.02383 7.03967,9.24262 11.4862,15.65636l-8.09644,5.97478c-3.10525,-4.68227 -7.29168,-10.49854 -12.55923,-17.44879c-0.08129,3.94254 -0.26418,9.18978 -0.5487,15.74172zM192.55664,258.78618c1.69895,-0.80476 3.54017,-2.19076 5.52363,-4.15796c1.9916,-1.9672 2.98738,-3.64177 2.98738,-5.0237c0,-1.38192 -0.38207,-2.42649 -1.14619,-3.13371c-0.75599,-0.71535 -1.84528,-1.07302 -3.26783,-1.07302c-1.42256,0 -2.77604,0.2276 -4.06041,0.68283c0,6.43001 -0.0122,10.66519 -0.03659,12.70556zM253.59736,237.37452v10.26687c-5.49517,0 -9.89293,0.11786 -13.19328,0.35361c-0.03251,0.44709 -0.08129,2.19889 -0.14632,5.25538c-0.0569,3.04835 -0.22355,4.57253 -0.49993,4.57253c3.97506,-0.81289 7.76314,-1.21934 11.36427,-1.21934l-0.95102,9.42551c-5.63336,0.14632 -7.22263,0.39832 -10.13279,0.75599c0,5.71465 0.10162,11.53905 0.30484,17.47318l-11.04724,-1.23153c-0.08942,-7.50302 -0.13412,-14.15658 -0.13412,-19.96065c0,-5.80406 0.35361,-13.76638 1.06082,-23.88692c7.86883,-1.20309 15.66042,-1.80463 23.37479,-1.80463zM254.87326,283.33153c0.58529,-10.77898 0.87793,-20.07038 0.87793,-27.87418c0,-7.81192 -0.02439,-13.22173 -0.07316,-16.22945c5.2513,-2.47933 10.44976,-3.719 15.5954,-3.719c4.00758,0 7.37702,1.28844 10.10835,3.86532c2.73946,2.56874 4.10918,6.1658 4.10918,10.79118c0,5.37323 -3.2719,10.19777 -9.81571,14.4736c3.21093,4.02383 7.03967,9.24262 11.4862,15.65636l-8.09644,5.97478c-3.10525,-4.68227 -7.29167,-10.49854 -12.55923,-17.44879c-0.08129,3.94254 -0.26418,9.18978 -0.5487,15.74172zM266.78624,258.78618c1.69895,-0.80476 3.54016,-2.19076 5.52363,-4.15796c1.9916,-1.9672 2.98738,-3.64177 2.98738,-5.0237c0,-1.38192 -0.38206,-2.42649 -1.14619,-3.13371c-0.75599,-0.71535 -1.84528,-1.07302 -3.26783,-1.07302c-1.42256,0 -2.77604,0.2276 -4.06041,0.68283c0,6.43001 -0.01219,10.66519 -0.03658,12.70556zM288.55146,283.05108c-0.17884,-7.34857 -0.26825,-13.96555 -0.26825,-19.8509c0,-5.89349 0.35361,-13.9005 1.06083,-24.02105c7.86883,-1.20309 15.66043,-1.80463 23.3748,-1.80463v10.26687c-5.53582,0 -9.92138,0.11786 -13.15671,0.35361c-0.13819,3.87751 -0.21948,6.556 -0.24387,8.03547c2.21108,-0.32515 5.87723,-0.53651 10.99847,-0.63406l1.64612,9.4499c-3.7637,0.0569 -8.0314,0.33328 -12.8031,0.82915c0,4.21893 0.01219,6.96651 0.03658,8.24276c2.6663,-0.21136 6.93399,-0.87793 12.8031,-1.99972l1.41443,9.15726c-4.30834,1.97533 -8.99062,2.96301 -14.04682,2.96301zM316.4578,283.05108c-0.17884,-7.34857 -0.26825,-13.96555 -0.26825,-19.8509c0,-5.89349 0.35361,-13.9005 1.06083,-24.02105c7.86883,-1.20309 15.66042,-1.80463 23.3748,-1.80463v10.26687c-5.53582,0 -9.92139,0.11786 -13.15671,0.35361c-0.13819,3.87751 -0.21947,6.556 -0.24387,8.03547c2.21107,-0.32515 5.87723,-0.53651 10.99846,-0.63406l1.64612,9.4499c-3.7637,0.0569 -8.0314,0.33328 -12.8031,0.82915c0,4.21893 0.01219,6.96651 0.03658,8.24276c2.6663,-0.21136 6.93399,-0.87793 12.8031,-1.99972l1.41443,9.15726c-4.30834,1.97533 -8.99062,2.96301 -14.04682,2.96301zM345.65665,270.54062c-0.83728,-6.91774 -1.25592,-12.95348 -1.25592,-18.10724c0,-5.15375 0.45929,-11.14479 1.37786,-17.9731l11.81543,2.26798c-2.29236,8.87682 -3.81248,20.46057 -4.56034,34.75126zM352.75324,274.45466c0.78038,1.42256 1.17056,2.47122 1.17056,4.75546c0,2.2761 -0.50399,3.77997 -1.51198,6.12111l-8.20621,-1.90217c0.62593,-2.31675 0.93889,-3.47515 0.93889,-5.08468c0,-1.61766 -0.07316,-2.70696 -0.21948,-4.87739z" fill="url(#color-2)" fill-rule="nonzero" stroke="none" stroke-width="1" stroke-linecap="square"/><path d="M212.78309,210.12436c-11.66663,-15.03147 -8.9389,-36.67457 6.09258,-48.34121c15.03147,-11.66664 36.67459,-8.9389 48.34122,6.09258c11.66663,15.03148 8.93891,36.67459 -6.09258,48.34122c-15.03148,11.66664 -36.67459,8.9389 -48.34122,-6.09259z" fill="#000000" fill-rule="nonzero" stroke="none" stroke-width="0" stroke-linecap="butt"/><path d="M218.34079,210.65926c-11.96206,-11.96206 -11.96206,-31.35638 0,-43.31843c11.96206,-11.96206 31.35638,-11.96206 43.31843,0c11.96206,11.96206 11.96206,31.35638 0,43.31843c-11.96206,11.96206 -31.35638,11.96206 -43.31843,0z" fill="url(#color-3)" fill-rule="nonzero" stroke="none" stroke-width="0" stroke-linecap="butt"/><path d="M220.87239,208.12767c-10.56389,-10.56389 -10.56389,-27.69135 0,-38.25524c10.56389,-10.56389 27.69135,-10.56389 38.25524,0c10.56389,10.56389 10.56389,27.69135 0,38.25524c-10.56389,10.56389 -27.69135,10.56389 -38.25524,0z" fill="url(#color-4)" fill-rule="nonzero" stroke="none" stroke-width="0" stroke-linecap="butt"/><path d="M247.16671,187.98586l-5.55501,-4.51826l11.52799,-10.12912c0,0 1.07055,-1.12943 1.83783,-0.80116c1.23864,0.52993 0.68606,1.8158 0.68606,1.8158z" data-paper-data="{&quot;index&quot;:null}" fill="#ffffff" fill-rule="nonzero" stroke="none" stroke-width="1" stroke-linecap="butt"/><path d="M223.1959,199.62265c0.38514,-0.38694 0.82007,-0.71929 1.2304,-1.07922c1.30059,-1.14101 2.60118,-2.28143 3.90177,-3.42244c0.91245,-0.80044 3.88495,-3.40779 3.88495,-3.40779l6.33082,10.08776c0,0 -0.02461,0.0729 -0.195,0.34668c-0.36294,0.58311 -0.59271,1.19261 -1.12062,1.66893c-1.15722,1.04383 -2.79254,1.51535 -4.2953,1.76911c-1.96888,0.33294 -4.03674,0.31855 -5.99842,-0.06059c-1.44337,-0.27895 -3.02291,-0.77267 -4.09673,-1.8303c-0.38274,-0.37674 -0.69109,-0.84347 -0.79487,-1.37738c-0.06299,-0.32455 -0.04859,-0.66169 0.0432,-0.97904c0.10558,-0.36774 0.49912,-1.10262 1.10982,-1.71572zM230.19502,199.51113c-3.49692,0 -6.33172,1.08582 -6.33172,2.42524c0,1.33943 2.83481,2.42525 6.33172,2.42525c3.49692,0 6.33172,-1.08582 6.33172,-2.42525c0,-1.33943 -2.8348,-2.42524 -6.33172,-2.42524z" fill="#ffffff" fill-rule="nonzero" stroke="none" stroke-width="0.5" stroke-linecap="butt"/><path d="M255.44034,198.42501l1.17804,1.03349c0.42768,0.37489 0.76837,0.83375 1.05448,1.3256c0.0012,0.0024 0.003,0.0048 0.0042,0.0078c0.19914,0.3395 0.3185,0.72458 0.3185,1.11987c0,2.59722 -3.87004,3.57193 -5.82186,3.75488c-2.94092,0.27532 -6.45586,0.20934 -8.89474,-1.45636c-0.80016,-0.54644 -1.13785,-1.28002 -1.62071,-2.05498c-0.43307,-0.6952 -0.86615,-1.39099 -1.29862,-2.08617c-3.73688,-6.0012 -7.47377,-12.0024 -11.21004,-18.00361c-1.72809,-2.77597 -3.45676,-5.55134 -5.18485,-8.3273c-0.49365,-0.79236 0.92672,-2.11077 1.83426,-1.31481c2.30211,2.019 4.60362,4.03859 6.90574,6.05759c5.74328,5.03789 11.48716,10.07639 17.23045,15.11428c1.83485,1.60992 3.6697,3.21984 5.50515,4.82976zM249.89404,199.51113c-3.49692,0 -6.33172,1.08582 -6.33172,2.42524c0,1.33943 2.83481,2.42525 6.33172,2.42525c3.49692,0 6.33172,-1.08582 6.33172,-2.42525c0,-1.33943 -2.8348,-2.42524 -6.33172,-2.42524z" data-paper-data="{&quot;index&quot;:null}" fill="#ffffff" fill-rule="nonzero" stroke="none" stroke-width="1" stroke-linecap="butt"/><path d="M334.32642,193.34689l-13.18677,6.69366c-0.84485,0.42885 -1.8774,0.09161 -2.30626,-0.75324c-0.13513,-0.26622 -0.19846,-0.56309 -0.1837,-0.86128l0.7251,-14.65626c0.04682,-0.94631 0.85191,-1.6755 1.79822,-1.62868c0.29818,0.01475 0.58736,0.10707 0.83894,0.26782l12.46167,7.96259c0.7984,0.51015 0.12594,2.83674 -0.14721,2.97539z" fill="none" fill-rule="evenodd" stroke="#000000" stroke-width="6.5" stroke-linecap="butt"/><path d="M334.99555,192.74085c-0.16494,0.25813 -0.39598,0.46739 -0.66913,0.60604l-13.18677,6.69366c-0.84485,0.42885 -1.8774,0.09161 -2.30626,-0.75324c-0.13513,-0.26622 -0.19846,-0.56309 -0.1837,-0.86128l0.7251,-14.65626c0.04682,-0.94631 0.85191,-1.6755 1.79822,-1.62868c0.29818,0.01475 0.58736,0.10707 0.83894,0.26782l12.46167,7.96259c0.7984,0.51015 1.03207,1.57095 0.52192,2.36935z" fill="#ffffff" fill-rule="evenodd" stroke="none" stroke-width="1" stroke-linecap="butt"/><path d="M356.80682,211.6995c-0.17019,3.43998 -3.0968,6.09066 -6.53678,5.92047l-48.72944,-2.41083c-3.43998,-0.17019 -6.09066,-3.0968 -5.92047,-6.53678l1.84893,-37.37174c0.17019,-3.43998 3.0968,-6.09066 6.53677,-5.92047l48.72944,2.41083c3.43998,0.17019 6.09066,3.0968 5.92047,6.53678zM352.42712,174.0196l-48.72944,-2.41083l-1.84892,37.37174l48.72943,2.41083z" fill="none" fill-rule="nonzero" stroke="#000000" stroke-width="6.5" stroke-linecap="butt"/><path d="M358.65575,174.32776l-1.84893,37.37174c-0.17019,3.43998 -3.0968,6.09066 -6.53678,5.92047l-48.72944,-2.41083c-3.43998,-0.17019 -6.09066,-3.0968 -5.92047,-6.53678l1.84893,-37.37174c0.17019,-3.43998 3.0968,-6.09066 6.53677,-5.92047l48.72944,2.41083c3.43998,0.17019 6.09066,3.0968 5.92047,6.53678zM352.42712,174.0196l-48.72944,-2.41083l-1.84892,37.37174l48.72943,2.41083z" fill="#ffffff" fill-rule="nonzero" stroke="none" stroke-width="1" stroke-linecap="butt"/><g fill-rule="nonzero" stroke-linecap="butt"><path d="M140.89587,172.35556c0,0 -0.00526,-0.18633 0.25788,-0.21077c1.58363,-0.1471 16.67162,-1.54852 16.67162,-1.54852c3.69856,-4.66349 9.85556,-6.61857 15.56686,-4.94271c5.7113,1.67586 9.83621,6.64771 10.42851,12.57027c2.23236,8.84127 3.8234,17.83236 4.76065,26.90282c0.50405,5.42667 -1.41556,9.11042 -5.61736,10.3828c-0.78896,0.23958 -1.60042,0.39861 -2.42151,0.47391c-3.95783,0.45201 -7.72417,-1.81607 -9.17574,-5.52576c-1.10575,-2.40786 -2.99191,-5.67108 -4.14569,-7.62212c-4.8562,2.76325 -11.03057,0.48547 -12.92805,-4.7698l-5.06787,0.47072c-0.89337,5.52841 -6.56116,8.9101 -11.85083,7.07135c-0.77262,2.15259 -2.02606,5.70741 -2.67149,8.25532c-0.74212,3.90519 -4.01443,6.82494 -7.9786,7.11912c-0.81359,0.07473 -1.63226,0.06725 -2.44439,-0.02194c-4.38044,-0.40736 -6.95193,-3.74181 -7.45598,-9.16849c-0.74935,-9.0879 -0.84202,-18.21817 -0.27625,-27.31934c-0.50864,-5.93032 2.62999,-11.57683 7.93492,-14.27592c1.65779,-0.84347 3.42334,-1.34639 5.20501,-1.52026c3.91968,-0.38245 7.91612,0.82834 11.00589,3.51132z" fill="none" stroke="#000000" stroke-width="7"/><path d="M140.69346,172.5209l17.1319,-1.59127c3.69856,-4.66349 9.85557,-6.61856 15.56686,-4.9427c5.7113,1.67586 9.8362,6.64771 10.42851,12.57027c2.23236,8.84127 3.8234,17.83236 4.76065,26.90282c0.50405,5.42667 -1.41555,9.11042 -5.61736,10.38279c-0.78896,0.23958 -1.60042,0.39861 -2.42151,0.47391c-3.95783,0.45201 -7.72417,-1.81607 -9.17574,-5.52576c-1.10575,-2.40786 -2.99191,-5.67108 -4.1457,-7.62212c-4.8562,2.76325 -11.03056,0.48546 -12.92804,-4.7698l-5.06787,0.47072c-0.89337,5.52841 -6.56116,8.91011 -11.85083,7.07135c-0.77262,2.15259 -2.02606,5.70742 -2.67149,8.25532c-0.74212,3.90519 -4.01443,6.82494 -7.97861,7.11911c-0.81359,0.07473 -1.63226,0.06725 -2.44439,-0.02194c-4.38044,-0.40736 -6.95193,-3.74182 -7.45598,-9.1685c-0.74935,-9.0879 -0.84202,-18.21817 -0.27625,-27.31934c-0.50864,-5.93032 2.62999,-11.57683 7.93492,-14.27592c1.65779,-0.84347 3.42334,-1.34638 5.20502,-1.52025c3.91968,-0.38245 7.91612,0.82833 11.00589,3.51131z" fill="#ffffff" stroke="none" stroke-width="9.34454"/><path d="M166.19374,170.48094c0.67787,-0.70738 1.62944,-1.08561 2.60795,-1.03662c1.7696,0.08925 3.16954,1.53056 3.20721,3.30201c0.03769,1.77145 -1.29972,3.27098 -3.06392,3.43537c-1.85754,0.17243 -3.50321,-1.19351 -3.67585,-3.05103c-0.09062,-0.97553 0.24674,-1.94235 0.92461,-2.64972zM127.04351,175.55056l6.72742,-0.62487l0.41653,4.4844l4.48495,-0.41657l0.62487,6.72742l-4.48496,0.41658l0.41658,4.48495l-6.72743,0.62487l-0.41657,-4.48495l-4.48495,0.41657l-0.62487,-6.72742l4.48495,-0.41658zM169.75354,172.71468c-0.05736,-0.61924 -0.60584,-1.07473 -1.22508,-1.01738c-0.29738,0.02755 -0.57164,0.17209 -0.76244,0.40185c-0.19081,0.22976 -0.28252,0.5259 -0.25496,0.82328c0.05738,0.61924 0.60587,1.07471 1.22511,1.01735c0.61924,-0.05737 1.07472,-0.60586 1.01737,-1.2251zM129.49423,177.58421l0.41658,4.48494l-4.48495,0.41658l0.20829,2.24248l4.48495,-0.41658l0.41658,4.48495l2.24247,-0.20829l-0.41658,-4.48495l4.48495,-0.41658l-0.20829,-2.24248l-4.48495,0.41658l-0.41657,-4.48495zM160.09133,177.83297c0.67799,-0.7074 1.62974,-1.08557 2.60834,-1.03642c1.7697,0.08926 3.16966,1.53073 3.20719,3.30228c0.03753,1.77155 -1.30013,3.27103 -3.06446,3.43515c-1.85754,0.17242 -3.5032,-1.19351 -3.67584,-3.05103c-0.09065,-0.97564 0.24678,-1.94258 0.92477,-2.64999zM173.54564,176.58329c0.67799,-0.7074 1.62973,-1.08557 2.60834,-1.03642c1.76959,0.08925 3.16951,1.53056 3.20719,3.302c0.03768,1.77143 -1.29971,3.27097 -3.0639,3.43537c-0.89211,0.08295 -1.78063,-0.19189 -2.47009,-0.76406c-0.68946,-0.57218 -1.12339,-1.39481 -1.20631,-2.28692c-0.09065,-0.97564 0.24679,-1.94257 0.92478,-2.64998zM163.65142,180.0658c-0.05766,-0.61921 -0.60637,-1.07444 -1.22558,-1.01678c-0.29737,0.02769 -0.57156,0.17238 -0.76224,0.40223c-0.19069,0.22985 -0.28225,0.52604 -0.25455,0.8234c0.05768,0.6192 0.60641,1.07442 1.22562,1.01675c0.6192,-0.05768 1.07442,-0.60639 1.01676,-1.22561zM175.88069,177.7993c-0.29747,0.02755 -0.57181,0.17218 -0.76261,0.40206c-0.19081,0.22988 -0.28244,0.52616 -0.25473,0.82362c0.05768,0.61914 0.60628,1.07433 1.22543,1.01676c0.61915,-0.05757 1.07444,-0.60609 1.01699,-1.22525c-0.05746,-0.61916 -0.6059,-1.07455 -1.22507,-1.01721zM167.44367,183.93559c0.67785,-0.70725 1.62936,-1.08541 2.60777,-1.03643c1.76959,0.08926 3.1695,1.53057 3.20718,3.302c0.03768,1.77143 -1.29971,3.27096 -3.06389,3.43537c-0.89212,0.08282 -1.7806,-0.19217 -2.46997,-0.76446c-0.68938,-0.57228 -1.12315,-1.39499 -1.20593,-2.28712c-0.09044,-0.97545 0.24699,-1.94213 0.92485,-2.64938zM171.00322,186.16896c-0.05736,-0.61924 -0.60585,-1.07474 -1.22509,-1.01738c-0.29738,0.02755 -0.57163,0.1721 -0.76243,0.40186c-0.19081,0.22976 -0.28251,0.52589 -0.25496,0.82327c0.05738,0.61924 0.60587,1.07472 1.22511,1.01735c0.61924,-0.05737 1.07472,-0.60586 1.01737,-1.2251zM136.0355,195.60149c0.53866,-1.74034 2.07264,-2.98483 3.88665,-3.15314c2.47681,-0.2298 4.67098,1.59164 4.90098,4.06842c0.16845,1.81399 -0.77242,3.55084 -2.38388,4.40061c-1.61146,0.84978 -3.57615,0.64515 -4.9779,-0.51847c-1.40176,-1.16362 -1.96452,-3.05707 -1.42586,-4.79742zM158.27815,195.26696c-0.23008,-2.47689 1.59131,-4.67133 4.06819,-4.90144c1.18949,-0.1105 2.37414,0.25605 3.29336,1.01901c0.91923,0.76297 1.49769,1.85987 1.60815,3.04936c0.23001,2.4769 -1.59142,4.67129 -4.06832,4.90133c-2.4769,0.23004 -4.67131,-1.59136 -4.90139,-4.06825zM141.71712,195.15194c-0.49355,-0.38198 -1.12347,-0.54202 -1.73949,-0.44196c-1.20106,0.19164 -2.03298,1.30229 -1.87915,2.50878c0.15383,1.20649 1.23781,2.07287 2.44853,1.95701c0.59474,-0.05523 1.14319,-0.34447 1.52468,-0.80408c0.38148,-0.45961 0.56476,-1.05194 0.5095,-1.64669c-0.05762,-0.62143 -0.37052,-1.19109 -0.86407,-1.57306zM164.14131,193.06911c-0.49355,-0.38198 -1.12347,-0.54202 -1.73949,-0.44196c-1.20106,0.19163 -2.03298,1.30229 -1.87915,2.50878c0.15383,1.20649 1.23781,2.07287 2.44853,1.95701c0.59474,-0.05523 1.14319,-0.34447 1.52468,-0.80408c0.38148,-0.45961 0.56475,-1.05194 0.5095,-1.64669c-0.05762,-0.62143 -0.37052,-1.19109 -0.86407,-1.57307z" fill="#000000" stroke="none" stroke-width="9.34454"/><path d="M177.12134,178.81505c0.05746,0.61916 -0.41197,1.18471 -1.03111,1.24228c-0.61915,0.05756 -1.18479,-0.41176 -1.24246,-1.0309c-0.02771,-0.29746 0.06746,-0.60519 0.25826,-0.83507c0.19081,-0.22988 0.47574,-0.3801 0.77321,-0.40766c0.61917,-0.05734 1.18464,0.41218 1.2421,1.03134z" data-paper-data="{&quot;noHover&quot;:false,&quot;origItem&quot;:[&quot;Path&quot;,{&quot;applyMatrix&quot;:true,&quot;segments&quot;:[[[357.74897,136.43652],[1.98674,0.00053],[-0.95452,-0.00025]],[[355.20399,137.49029],[0.67495,-0.67495],[-0.67494,0.67496]],[[354.15023,140.03527],[-0.00025,-0.95452],[0.00054,1.98675]],[[357.74833,143.63209],[-1.98675,0.00017],[1.98676,-0.00018]],[[361.34579,140.03463],[-0.00017,1.98674],[0.00018,-1.98675]]],&quot;closed&quot;:true,&quot;fillColor&quot;:[1,1,1],&quot;strokeWidth&quot;:9.34454}]}" fill="#ffffff" stroke="#ffffff" stroke-width="1.5"/><path d="M169.76912,172.71323c0.05736,0.61924 -0.41226,1.18476 -1.0315,1.24213c-0.61924,0.05737 -1.18476,-0.41225 -1.24214,-1.03149c-0.02756,-0.29738 0.0677,-0.60496 0.2585,-0.83472c0.1908,-0.22976 0.47565,-0.37989 0.77303,-0.40744c0.61925,-0.05735 1.18475,0.41228 1.24211,1.03152z" data-paper-data="{&quot;noHover&quot;:false,&quot;origItem&quot;:[&quot;Path&quot;,{&quot;applyMatrix&quot;:true,&quot;segments&quot;:[[[339.75865,118.44983],[0,0],[0.00049,-1.98698]],[[336.16182,114.85115],[1.98699,0.00054],[-0.95421,-0.00025]],[[333.61748,115.90429],[0.6749,-0.67457],[-0.67491,0.67456]],[[332.56309,118.44812],[0.00021,-0.95421],[-0.00045,1.98698]],[[336.16001,122.04671],[-1.98699,-0.00047],[1.98698,0.00047]],[[339.75864,118.44983],[-0.00051,1.98698],[0,0]]],&quot;closed&quot;:true,&quot;fillColor&quot;:[1,1,1],&quot;strokeWidth&quot;:9.34454}]}" fill="#ffffff" stroke="#ffffff" stroke-width="1.5"/><path d="M163.667,180.06435c0.05766,0.61921 -0.41169,1.18496 -1.03089,1.24263c-0.61921,0.05768 -1.18496,-0.41168 -1.24264,-1.03088c-0.0277,-0.29737 0.0674,-0.605 0.25809,-0.83485c0.19069,-0.22985 0.47546,-0.38013 0.77283,-0.40781c0.61921,-0.05766 1.18495,0.4117 1.24262,1.03091z" data-paper-data="{&quot;noHover&quot;:false,&quot;origItem&quot;:[&quot;Path&quot;,{&quot;applyMatrix&quot;:true,&quot;segments&quot;:[[[318.17325,140.0334],[0,0],[-0.00048,-1.98699]],[[314.57466,136.43648],[1.98699,-0.00045],[-0.95421,0.00021]],[[312.03083,137.49088],[0.67457,-0.6749],[-0.67457,0.6749]],[[310.9777,140.03523],[-0.00025,-0.95421],[0.00054,1.98698]],[[314.5764,143.63205],[-1.98699,0.00051],[1.98698,-0.00051]],[[318.17326,140.0334],[0.00048,1.98699],[0,0]]],&quot;closed&quot;:true,&quot;fillColor&quot;:[1,1,1],&quot;strokeWidth&quot;:9.34454}]}" fill="#ffffff" stroke="#ffffff" stroke-width="1.5"/><path d="M171.0188,186.1675c0.05736,0.61924 -0.41227,1.18475 -1.03151,1.24212c-0.61924,0.05737 -1.18476,-0.41224 -1.24213,-1.03148c-0.02756,-0.29738 0.0677,-0.60496 0.2585,-0.83472c0.1908,-0.22976 0.47565,-0.3799 0.77303,-0.40744c0.61925,-0.05735 1.18475,0.41228 1.24211,1.03152z" data-paper-data="{&quot;noHover&quot;:false,&quot;origItem&quot;:[&quot;Path&quot;,{&quot;applyMatrix&quot;:true,&quot;segments&quot;:[[[339.75865,161.62233],[0,0],[0.00049,-1.98699]],[[336.16182,158.02363],[1.98699,0.00053],[-0.95421,-0.00026]],[[333.61748,159.07678],[0.6749,-0.67456],[-0.67491,0.67455]],[[332.56309,161.6206],[0.00021,-0.95421],[-0.00045,1.98698]],[[336.16001,165.21919],[-1.98699,-0.00048],[1.98698,0.00047]],[[339.75864,161.62231],[-0.00051,1.98699],[0,0]]],&quot;closed&quot;:true,&quot;fillColor&quot;:[1,1,1],&quot;strokeWidth&quot;:9.34454}]}" fill="#ffffff" stroke="#ffffff" stroke-width="1.5"/><path d="M164.1509,193.05674c0.49355,0.38198 0.81244,0.96255 0.87007,1.58398c0.05525,0.59475 -0.13155,1.19851 -0.51304,1.65812c-0.38148,0.45961 -0.94051,0.75444 -1.53526,0.80967c-1.21072,0.11586 -2.3117,-0.76412 -2.46553,-1.97061c-0.15383,-1.20649 0.69113,-2.33457 1.89219,-2.52621c0.61602,-0.10007 1.25802,0.06306 1.75156,0.44504z" data-paper-data="{&quot;noHover&quot;:false,&quot;origItem&quot;:[&quot;Path&quot;,{&quot;applyMatrix&quot;:true,&quot;segments&quot;:[[[315.88931,181.54666],[0,0],[-1.45728,-1.36107]],[[310.48593,179.62662],[1.98937,-0.13633],[-3.87765,0.25476]],[[303.7663,187.05271],[-0.13287,-3.88375],[0.13287,3.88375]],[[310.97772,194.00223],[-3.88601,0.01083],[1.90844,0.00004]],[[316.06591,191.8947],[-1.34946,1.34946],[1.34946,-1.34947]],[[318.17342,186.8065],[0.00004,1.90845],[0.00032,-1.99402]],[[315.88931,181.54665],[1.45729,1.36106],[0,0]]],&quot;closed&quot;:true,&quot;fillColor&quot;:[1,1,1],&quot;strokeWidth&quot;:9.34454}]}" fill="#ffffff" stroke="none" stroke-width="4.67227"/><path d="M141.72671,195.13958c0.49355,0.38198 0.81244,0.96255 0.87006,1.58398c0.05526,0.59475 -0.13155,1.19851 -0.51303,1.65813c-0.38148,0.45961 -0.94051,0.75445 -1.53526,0.80967c-1.21072,0.11586 -2.3117,-0.76412 -2.46553,-1.97061c-0.15383,-1.20649 0.69112,-2.33456 1.89218,-2.52621c0.61602,-0.10007 1.25802,0.06305 1.75156,0.44503z" data-paper-data="{&quot;noHover&quot;:false,&quot;origItem&quot;:[&quot;Path&quot;,{&quot;applyMatrix&quot;:true,&quot;segments&quot;:[[[243.93392,181.54665],[0,0],[-1.45728,-1.36107]],[[238.53054,179.62661],[1.98936,-0.13632],[-3.87766,0.25477]],[[231.81091,187.05271],[-0.13287,-3.88375],[0.13287,3.88375]],[[239.02232,194.00223],[-3.88601,0.01083],[1.90844,0.00004]],[[244.11051,191.89471],[-1.34946,1.34946],[1.34945,-1.34947]],[[246.21802,186.8065],[0.00005,1.90845],[0.00032,-1.99402]],[[243.93391,181.54666],[1.45729,1.36106],[0,0]]],&quot;closed&quot;:true,&quot;fillColor&quot;:[1,1,1],&quot;strokeWidth&quot;:9.34454}]}" fill="#ffffff" stroke="none" stroke-width="4.67227"/><path d="M131.73834,177.36036l0.42494,4.48847l4.48994,-0.40902l0.20885,2.24859l-4.48846,0.42494l0.40902,4.48994l-2.24859,0.20886l-0.42493,-4.48847l-4.48995,0.40902l-0.20886,-2.24859l4.48847,-0.42494l-0.40902,-4.48995z" data-paper-data="{&quot;noHover&quot;:false,&quot;origItem&quot;:[&quot;Path&quot;,{&quot;applyMatrix&quot;:true,&quot;segments&quot;:[[210.23947,122.04511],[210.23947,136.43653],[195.84803,136.43653],[195.84803,143.63225],[210.23947,143.63225],[210.23947,158.02368],[217.43518,158.02368],[217.43518,143.63225],[231.82661,143.63225],[231.82661,136.43653],[217.43518,136.43653],[217.43518,122.04511]],&quot;closed&quot;:true,&quot;fillColor&quot;:[1,1,1],&quot;strokeWidth&quot;:9.34454}]}" fill="#ffffff" stroke="none" stroke-width="4.67227"/></g></g></g></svg>
