<svg version="1.1" xmlns="http://www.w3.org/2000/svg" xmlns:xlink="http://www.w3.org/1999/xlink" width="360.00001" height="120" viewBox="0,0,360.00001,120"><defs><linearGradient x1="120.00003" y1="60.00001" x2="360.00003" y2="300.00001" gradientUnits="userSpaceOnUse" id="color-1"><stop offset="0" stop-color="#00ff84"/><stop offset="1" stop-color="#00c8ff"/></linearGradient><linearGradient x1="318.14059" y1="133.20484" x2="318.14059" y2="168.21263" gradientUnits="userSpaceOnUse" id="color-2"><stop offset="0" stop-color="#fff827"/><stop offset="1" stop-color="#ffb517"/></linearGradient><linearGradient x1="222.16914" y1="186.16913" x2="257.83088" y2="221.8309" gradientUnits="userSpaceOnUse" id="color-3"><stop offset="0" stop-color="#00994f"/><stop offset="1" stop-color="#007899"/></linearGradient><linearGradient x1="224.25326" y1="188.25326" x2="255.74677" y2="219.74677" gradientUnits="userSpaceOnUse" id="color-4"><stop offset="0" stop-color="#00ff84"/><stop offset="1" stop-color="#00c9ff"/></linearGradient></defs><g transform="translate(-60.00001,-120.00001)"><g stroke-linejoin="miter" stroke-miterlimit="10" stroke-dasharray="" stroke-dashoffset="0" style="mix-blend-mode: normal"><path d="M60.00002,240.00001v-119.99999h360v119.99999z" fill="url(#color-1)" fill-rule="nonzero" stroke="none" stroke-width="1" stroke-linecap="butt"/><g fill-opacity="0.34902" fill="#ffffff" fill-rule="nonzero" stroke="none" stroke-width="0" stroke-linecap="butt"><path d="M240.00003,180.00003l179.79324,36.67312l0.20676,-0.06892v23.39579h-70.18737l0.20675,-0.06892z" data-paper-data="{&quot;index&quot;:null}"/><path d="M196.6641,240.00001l43.33592,-59.99999l43.33591,59.99999z"/><path d="M283.33592,120.00002l-43.33591,60l-43.33592,-60z" data-paper-data="{&quot;index&quot;:null}"/><path d="M60.00002,165.55469l180,14.44531l-180,14.4453z"/><path d="M420.00003,194.44532l-180,-14.4453l180,-14.44531z" data-paper-data="{&quot;index&quot;:null}"/><path d="M240.00003,180.00003l-179.79325,-36.67312l-0.20675,0.06892v-23.39579h70.18737l-0.20675,0.06892z" data-paper-data="{&quot;index&quot;:null}"/><path d="M129.98063,239.93109l0.20675,0.06892h-70.18737v-23.39579l0.20675,0.06892l179.79325,-36.67312z" data-paper-data="{&quot;index&quot;:null}"/><path d="M350.0194,120.06894l-0.20675,-0.06892h70.18737v23.39579l-0.20676,-0.06892l-179.79324,36.67312z" data-paper-data="{&quot;index&quot;:null}"/></g><path d="M82.59276,167.33691c-0.12752,-3.69172 -0.19128,-8.12305 -0.19128,-13.29401c0,-5.17732 0.16258,-12.08894 0.48777,-20.73484c2.74168,-1.01379 5.5567,-1.52068 8.44504,-1.52068c2.88833,0 5.46744,1.07118 7.73731,3.21352c2.26986,2.13597 3.40479,4.82985 3.40479,8.0816c0,3.2454 -1.23375,6.05084 -3.70127,8.41635c-2.46115,2.3655 -5.68424,4.10298 -9.66925,5.21241c0,3.65346 0.05101,7.40894 0.15303,11.26643zM93.98353,148.04627c1.19231,-1.40272 1.78847,-2.96804 1.78847,-4.69593c0,-1.73427 -0.44951,-3.1402 -1.34852,-4.21774c-0.89902,-1.07754 -1.90324,-1.61632 -3.01267,-1.61632c-0.2933,0 -0.96277,0.08289 -2.00844,0.24867c-0.16578,4.5971 -0.26461,9.05077 -0.29649,13.36096c2.05945,-0.65035 3.68534,-1.6769 4.87766,-3.07962zM113.69308,148.83051c-1.37085,0 -2.40058,1.72789 -3.08918,5.18371c0.06377,2.28899 0.09565,4.47917 0.09565,6.5705c0,2.08497 -0.06376,4.43452 -0.19128,7.0487l-5.68103,-0.48777c0.09565,-4.80114 0.14346,-7.44719 0.14346,-7.93814c0,-6.03809 -0.2933,-10.65753 -0.8799,-13.85829l3.6726,0.39212c0.22953,0.95004 0.49095,1.7821 0.78424,2.49621c1.60037,-3.42391 3.2167,-5.13588 4.84896,-5.13588c1.33897,0 2.51535,0.5866 3.52912,1.75979l-1.28158,4.50466c-0.51645,-0.35706 -1.16681,-0.53558 -1.95105,-0.53558zM123.63125,157.6868c0,3.69172 0.81613,5.53758 2.44839,5.53758c0.72049,0 1.32303,-1.03611 1.8076,-3.10832c0.49096,-2.0722 0.73642,-4.05514 0.73642,-5.94883c0,-4.18267 -0.68542,-6.274 -2.05627,-6.274c-0.8799,0 -1.59081,1.119 -2.13277,3.35698c-0.53558,2.23799 -0.80339,4.38351 -0.80339,6.4366zM117.90238,157.24685c0,-3.03499 0.61847,-6.00622 1.85542,-8.91368c0.65673,-1.46648 1.58125,-2.66517 2.77357,-3.59607c1.19231,-0.9309 2.52172,-1.39635 3.9882,-1.39635c1.46649,0 2.72894,0.33473 3.78736,1.00422c1.0648,0.66948 1.87455,1.55895 2.42926,2.66836c1.07754,2.18698 1.61632,4.57161 1.61632,7.1539c0,3.55783 -0.72687,6.71715 -2.1806,9.47796c-1.44736,2.75444 -3.47812,4.13165 -6.09229,4.13165c-5.45149,0 -8.17725,-3.51 -8.17725,-10.52999zM148.02104,144.6606c1.98932,0 3.5068,0.68861 4.55247,2.06583c1.69602,-2.48665 3.37611,-3.72997 5.04025,-3.72997c4.53974,0 6.80958,3.41117 6.80958,10.23352c0,3.8575 -0.32836,8.52793 -0.98509,14.01131l-5.68104,-0.48777c0.62486,-6.10823 0.93728,-10.75953 0.93728,-13.95392c0,-3.20076 -0.52282,-4.80114 -1.5685,-4.80114c-0.45907,0 -0.99785,0.73324 -1.61632,2.19973c-0.61848,1.46648 -1.02653,3.09875 -1.2242,4.89678c-0.06376,4.08066 -0.19447,7.72137 -0.39212,10.92213l-5.72885,-0.54515c0.26143,-4.5971 0.39213,-8.38129 0.39213,-11.35251c0,-2.97123 -0.40807,-4.45684 -1.2242,-4.45684c-0.52283,0 -1.20188,0.90539 -2.03715,2.71619c-0.82889,1.8108 -1.42504,3.71085 -1.78848,5.70017c0.03826,3.00311 0.1881,6.10503 0.44951,9.30579l-5.72886,-0.53558c-0.36344,-4.60349 -0.54514,-8.7989 -0.54514,-12.58627c0,-3.78737 0.09882,-7.32924 0.29649,-10.62565l4.06472,0.29649c0.19766,0.8799 0.47502,2.47709 0.83208,4.79158c1.7279,-2.70981 3.44305,-4.06472 5.14545,-4.06472zM173.33356,157.6868c0,3.69172 0.81613,5.53758 2.44839,5.53758c0.72049,0 1.32303,-1.03611 1.8076,-3.10832c0.49096,-2.0722 0.73642,-4.05514 0.73642,-5.94883c0,-4.18267 -0.68542,-6.274 -2.05626,-6.274c-0.8799,0 -1.59082,1.119 -2.13278,3.35698c-0.53558,2.23799 -0.80338,4.38351 -0.80338,6.4366zM167.60468,157.24685c0,-3.03499 0.61848,-6.00622 1.85542,-8.91368c0.65673,-1.46648 1.58125,-2.66517 2.77356,-3.59607c1.19231,-0.9309 2.52173,-1.39635 3.98821,-1.39635c1.4665,0 2.72893,0.33473 3.78735,1.00422c1.0648,0.66948 1.87455,1.55895 2.42927,2.66836c1.07754,2.18698 1.61632,4.57161 1.61632,7.1539c0,3.55783 -0.72687,6.71715 -2.1806,9.47796c-1.44736,2.75444 -3.47812,4.13165 -6.09229,4.13165c-5.45149,0 -8.17725,-3.51 -8.17725,-10.52999zM198.40238,146.03781v4.64812c-1.56851,0 -2.77677,0.01594 -3.62477,0.04782c-0.09564,3.26453 -0.14345,8.75108 -0.14345,16.4597l-5.77669,-0.54515c0,-5.71291 0.04782,-10.88707 0.14346,-15.52243c-0.49096,0 -1.42185,0.08289 -2.7927,0.24867l-0.72687,-4.0169c0.77787,-0.16578 2.00206,-0.37619 3.67258,-0.63123c0.06376,-2.41651 0.19128,-5.94245 0.38256,-10.57782l5.83406,0.53558c-0.19766,3.23265 -0.34431,6.36646 -0.43995,9.40144c0.81613,-0.03188 1.97338,-0.04782 3.47174,-0.04782zM211.48064,159.40833l3.7204,2.19974c-0.61848,1.07754 -1.21464,1.99251 -1.78848,2.74488c-0.57384,0.746 -1.43142,1.46329 -2.57272,2.15191c-1.14132,0.68861 -2.41333,1.03292 -3.81606,1.03292c-2.05945,0 -3.79054,-0.87351 -5.19327,-2.62054c-1.40273,-1.74703 -2.10408,-4.10615 -2.10408,-7.07737c0,-3.39843 0.60254,-6.5673 1.80759,-9.50666c0.65673,-1.53025 1.59719,-2.77676 2.82139,-3.73954c1.2242,-0.96277 2.48027,-1.44418 3.76823,-1.44418c1.28796,0 2.32406,0.20404 3.10832,0.6121c0.78424,0.40806 1.41229,0.86396 1.88412,1.36767c0.47821,0.5037 0.89583,1.24651 1.25289,2.22842c0.35706,0.98191 0.6089,1.78209 0.75556,2.40057c0.14666,0.61847 0.27098,1.51749 0.373,2.69706c0.12751,1.56213 0.19128,2.98078 0.19128,4.256c-2.6078,0.72049 -5.98709,1.37405 -10.13787,1.96063c0.10202,1.30709 0.33156,2.35276 0.68861,3.137c0.35706,0.77788 0.78107,1.16681 1.27202,1.16681c0,0 2.56633,-1.18913 3.96906,-3.56739zM208.59229,147.95062c-0.72049,0 -1.36766,0.7173 -1.9415,2.1519c-0.56746,1.4346 -0.89902,3.09876 -0.99466,4.99242c1.7279,-0.35706 3.22945,-0.69817 4.50466,-1.02335c0,-4.08066 -0.52282,-6.12098 -1.5685,-6.12098z" fill="none" fill-rule="nonzero" stroke="#000000" stroke-width="7" stroke-linecap="square"/><path d="M82.59276,167.33691c-0.12752,-3.69172 -0.19128,-8.12305 -0.19128,-13.29401c0,-5.17732 0.16258,-12.08894 0.48777,-20.73484c2.74168,-1.01379 5.5567,-1.52068 8.44504,-1.52068c2.88833,0 5.46744,1.07118 7.73731,3.21352c2.26986,2.13597 3.40479,4.82985 3.40479,8.0816c0,3.2454 -1.23375,6.05084 -3.70127,8.41635c-2.46115,2.3655 -5.68424,4.10298 -9.66925,5.21241c0,3.65346 0.05101,7.40894 0.15303,11.26643zM93.98353,148.04627c1.19231,-1.40272 1.78847,-2.96804 1.78847,-4.69593c0,-1.73427 -0.44951,-3.1402 -1.34852,-4.21774c-0.89902,-1.07754 -1.90324,-1.61632 -3.01267,-1.61632c-0.2933,0 -0.96277,0.08289 -2.00844,0.24867c-0.16578,4.5971 -0.26461,9.05077 -0.29649,13.36096c2.05945,-0.65035 3.68534,-1.6769 4.87766,-3.07962zM113.69308,148.83051c-1.37085,0 -2.40058,1.72789 -3.08918,5.18371c0.06377,2.28899 0.09565,4.47917 0.09565,6.5705c0,2.08497 -0.06376,4.43452 -0.19128,7.0487l-5.68103,-0.48777c0.09565,-4.80114 0.14346,-7.44719 0.14346,-7.93814c0,-6.03809 -0.2933,-10.65753 -0.8799,-13.85829l3.6726,0.39212c0.22953,0.95004 0.49095,1.7821 0.78424,2.49621c1.60037,-3.42391 3.2167,-5.13588 4.84896,-5.13588c1.33897,0 2.51535,0.5866 3.52912,1.75979l-1.28158,4.50466c-0.51645,-0.35706 -1.16681,-0.53558 -1.95105,-0.53558zM123.63122,157.6868c0,3.69172 0.81613,5.53758 2.44839,5.53758c0.72049,0 1.32302,-1.03611 1.8076,-3.10832c0.49095,-2.0722 0.73643,-4.05514 0.73643,-5.94883c0,-4.18267 -0.68542,-6.274 -2.05627,-6.274c-0.8799,0 -1.59081,1.119 -2.13277,3.35698c-0.53558,2.23799 -0.80339,4.38351 -0.80339,6.4366zM117.90238,157.24685c0,-3.03499 0.61847,-6.00622 1.85542,-8.91368c0.65673,-1.46648 1.58125,-2.66517 2.77357,-3.59607c1.19231,-0.9309 2.52172,-1.39635 3.9882,-1.39635c1.46649,0 2.72894,0.33473 3.78736,1.00422c1.0648,0.66948 1.87455,1.55895 2.42926,2.66836c1.07754,2.18698 1.61632,4.57161 1.61632,7.1539c0,3.55783 -0.72687,6.71715 -2.1806,9.47796c-1.44736,2.75444 -3.47812,4.13165 -6.09229,4.13165c-5.45149,0 -8.17725,-3.51 -8.17725,-10.52999zM148.02102,144.6606c1.98932,0 3.50681,0.68861 4.55248,2.06583c1.69602,-2.48665 3.37611,-3.72997 5.04025,-3.72997c4.53974,0 6.80958,3.41117 6.80958,10.23352c0,3.8575 -0.32836,8.52793 -0.98509,14.01131l-5.68104,-0.48777c0.62486,-6.10823 0.93728,-10.75953 0.93728,-13.95392c0,-3.20076 -0.52282,-4.80114 -1.56851,-4.80114c-0.45907,0 -0.99785,0.73324 -1.61632,2.19973c-0.61848,1.46648 -1.02653,3.09875 -1.2242,4.89678c-0.06376,4.08066 -0.19448,7.72137 -0.39212,10.92213l-5.72885,-0.54515c0.26143,-4.5971 0.39212,-8.38129 0.39212,-11.35251c0,-2.97123 -0.40806,-4.45684 -1.22419,-4.45684c-0.52283,0 -1.20188,0.90539 -2.03714,2.71619c-0.82889,1.8108 -1.42503,3.71085 -1.78847,5.70017c0.03826,3.00311 0.1881,6.10503 0.44951,9.30579l-5.72886,-0.53558c-0.36344,-4.60349 -0.54514,-8.7989 -0.54514,-12.58627c0,-3.78737 0.09882,-7.32924 0.29649,-10.62565l4.06472,0.29649c0.19766,0.8799 0.47501,2.47709 0.83207,4.79158c1.7279,-2.70981 3.44305,-4.06472 5.14545,-4.06472zM173.33356,157.6868c0,3.69172 0.81613,5.53758 2.44839,5.53758c0.72049,0 1.32303,-1.03611 1.8076,-3.10832c0.49096,-2.0722 0.73642,-4.05514 0.73642,-5.94883c0,-4.18267 -0.68542,-6.274 -2.05626,-6.274c-0.8799,0 -1.59082,1.119 -2.13278,3.35698c-0.53558,2.23799 -0.80338,4.38351 -0.80338,6.4366zM167.60468,157.24685c0,-3.03499 0.61848,-6.00622 1.85542,-8.91368c0.65673,-1.46648 1.58125,-2.66517 2.77356,-3.59607c1.19231,-0.9309 2.52173,-1.39635 3.98821,-1.39635c1.4665,0 2.72893,0.33473 3.78735,1.00422c1.0648,0.66948 1.87455,1.55895 2.42927,2.66836c1.07754,2.18698 1.61632,4.57161 1.61632,7.1539c0,3.55783 -0.72687,6.71715 -2.1806,9.47796c-1.44736,2.75444 -3.47812,4.13165 -6.09229,4.13165c-5.45149,0 -8.17725,-3.51 -8.17725,-10.52999zM198.40238,146.03781v4.64812c-1.56851,0 -2.77677,0.01594 -3.62477,0.04782c-0.09564,3.26453 -0.14345,8.75108 -0.14345,16.4597l-5.77669,-0.54515c0,-5.71291 0.04782,-10.88707 0.14346,-15.52243c-0.49096,0 -1.42185,0.08289 -2.7927,0.24867l-0.72687,-4.0169c0.77787,-0.16578 2.00206,-0.37619 3.67258,-0.63123c0.06376,-2.41651 0.19128,-5.94245 0.38256,-10.57782l5.83406,0.53558c-0.19766,3.23265 -0.34431,6.36646 -0.43995,9.40144c0.81613,-0.03188 1.97338,-0.04782 3.47174,-0.04782zM207.51156,162.97571c1.24333,0 2.56634,-1.18912 3.96907,-3.56739l3.7204,2.19974c-0.61848,1.07754 -1.21463,1.99251 -1.78847,2.74488c-0.57384,0.746 -1.43142,1.46329 -2.57272,2.15191c-1.14132,0.68861 -2.41333,1.03292 -3.81606,1.03292c-2.05945,0 -3.79054,-0.87351 -5.19326,-2.62054c-1.40273,-1.74703 -2.10409,-4.10615 -2.10409,-7.07737c0,-3.39843 0.60255,-6.5673 1.8076,-9.50666c0.65673,-1.53025 1.59719,-2.77676 2.82138,-3.73954c1.2242,-0.96277 2.48027,-1.44418 3.76823,-1.44418c1.28796,0 2.32406,0.20404 3.10832,0.6121c0.78424,0.40806 1.41229,0.86396 1.88412,1.36767c0.47821,0.5037 0.89583,1.24651 1.25289,2.22842c0.35706,0.98191 0.6089,1.78209 0.75556,2.40057c0.14666,0.61847 0.27099,1.51749 0.373,2.69706c0.12751,1.56213 0.19128,2.98078 0.19128,4.256c-2.6078,0.72049 -5.98708,1.37405 -10.13786,1.96063c0.10202,1.30709 0.33155,2.35276 0.68861,3.137c0.35706,0.77788 0.78106,1.16681 1.27202,1.16681zM208.59229,147.95062c-0.72049,0 -1.36766,0.7173 -1.9415,2.1519c-0.56746,1.4346 -0.89902,3.09876 -0.99466,4.99242c1.7279,-0.35706 3.22945,-0.69817 4.50466,-1.02335c0,-4.08066 -0.52282,-6.12098 -1.5685,-6.12098z" fill="#ffffff" fill-rule="nonzero" stroke="none" stroke-width="1" stroke-linecap="square"/><path d="M255.1937,135.17397v6.9373c-3.71307,0 -6.68464,0.07964 -8.91467,0.23892c-0.02197,0.30209 -0.05493,1.48578 -0.09886,3.55104c-0.03844,2.05977 -0.33779,3.08965 -0.33779,3.08965c0,0 5.24554,-0.82391 7.67882,-0.82391l1.16995,6.36879c-3.80645,0.09887 -6.69287,0.26914 -8.65926,0.51081c0,3.86138 0.06866,7.79692 0.20597,11.80659l-7.4646,-0.83214c-0.06043,-5.06977 -0.09063,-9.56557 -0.09063,-13.48736c0,-3.92179 0.23894,-9.30191 0.7168,-16.14033c5.31695,-0.81292 10.58171,-1.21938 15.7943,-1.21938zM265.3742,167.3805c-2.98804,0 -5.47897,-1.29629 -7.47283,-3.88884c-1.98836,-2.59806 -2.98254,-6.44296 -2.98254,-11.53469c0,-5.09174 1.07108,-9.28817 3.21323,-12.5893c2.14216,-3.30111 4.72922,-4.95168 7.76121,-4.95168c3.03746,0 5.5339,1.30728 7.48932,3.92181c1.96089,2.61453 2.94134,6.44571 2.94134,11.4935c0,5.0423 -1.07932,9.22776 -3.23794,12.55634c-2.15314,3.32858 -4.72373,4.99289 -7.71177,4.99289zM265.95917,141.18849c-0.84587,0 -1.67253,0.97221 -2.47996,2.91663c-0.80192,1.94442 -1.2029,4.50677 -1.2029,7.68705c0,3.18028 0.33232,5.45426 0.99693,6.82196c0.66463,1.3622 1.38416,2.04328 2.15864,2.04328c0.77447,0 1.55718,-0.98045 2.34813,-2.94135c0.79096,-1.96089 1.18642,-4.53149 1.18642,-7.71177c0,-3.18028 -0.31857,-5.44328 -0.95574,-6.78899c-0.63716,-1.35121 -1.32099,-2.02682 -2.05152,-2.02682zM278.03367,166.22702c0.39547,-7.28333 0.59321,-13.5615 0.59321,-18.8345c0,-5.27849 -0.01648,-8.9339 -0.04944,-10.96621c3.54829,-1.67527 7.06088,-2.51292 10.53776,-2.51292c2.70791,0 4.98464,0.8706 6.83018,2.61179c1.85104,1.73569 2.77657,4.16622 2.77657,7.29157c0,3.63068 -2.21081,6.89061 -6.63245,9.77976c2.16962,2.71889 4.75669,6.24522 7.76119,10.57897l-5.47075,4.03715c-2.09821,-3.1638 -4.92696,-7.09384 -8.48623,-11.7901c-0.05493,2.66396 -0.1785,6.2095 -0.37074,10.63663zM286.08322,149.64178c1.14797,-0.54377 2.39209,-1.48029 3.7323,-2.80952c1.34572,-1.32924 2.01857,-2.46073 2.01857,-3.39449c0,-0.93376 -0.25816,-1.63957 -0.77448,-2.11745c-0.51081,-0.48335 -1.24685,-0.72504 -2.20806,-0.72504c-0.96121,0 -1.87576,0.1538 -2.74362,0.46139c0,4.34474 -0.00824,7.20645 -0.02472,8.5851zM327.32829,135.17397v6.9373c-3.71307,0 -6.68462,0.07964 -8.91466,0.23892c-0.02197,0.30209 -0.05493,1.48578 -0.09887,3.55104c-0.03844,2.05977 -0.33779,3.08965 -0.33779,3.08965c0,0 5.24553,-0.82391 7.6788,-0.82391l1.16995,6.36879c-3.80645,0.09887 -6.69287,0.26914 -8.65926,0.51081c0,3.86138 0.06867,7.79692 0.20599,11.80659l-7.4646,-0.83214c-0.06043,-5.06977 -0.09063,-9.56557 -0.09063,-13.48736c0,-3.92179 0.23892,-9.30191 0.71678,-16.14033c5.31695,-0.81292 10.58171,-1.21938 15.7943,-1.21938zM328.19041,166.22702c0.39547,-7.28333 0.59321,-13.5615 0.59321,-18.8345c0,-5.27849 -0.01648,-8.9339 -0.04943,-10.96621c3.54829,-1.67527 7.06088,-2.51292 10.53777,-2.51292c2.70791,0 4.98465,0.8706 6.83019,2.61179c1.85104,1.73569 2.77657,4.16622 2.77657,7.29157c0,3.63068 -2.21081,6.89061 -6.63245,9.77976c2.16962,2.71889 4.75669,6.24522 7.76119,10.57897l-5.47074,4.03715c-2.09821,-3.1638 -4.92697,-7.09384 -8.48624,-11.7901c-0.05493,2.66396 -0.1785,6.2095 -0.37074,10.63663zM336.23999,149.64178c1.14797,-0.54377 2.39207,-1.48029 3.7323,-2.80952c1.34572,-1.32924 2.01857,-2.46073 2.01857,-3.39449c0,-0.93376 -0.25815,-1.63957 -0.77447,-2.11745c-0.51081,-0.48335 -1.24685,-0.72504 -2.20806,-0.72504c-0.96121,0 -1.87575,0.1538 -2.74361,0.46139c0,4.34474 -0.00824,7.20645 -0.02471,8.5851zM350.94669,166.03751c-0.12084,-4.96541 -0.18126,-9.43649 -0.18126,-13.4132c0,-3.98222 0.23892,-9.39253 0.7168,-16.23096c5.31695,-0.81292 10.58171,-1.21939 15.79429,-1.21939v6.9373c-3.74053,0 -6.70385,0.07964 -8.88995,0.23892c-0.09338,2.62002 -0.1483,4.42987 -0.16477,5.42955c1.49403,-0.21971 3.97123,-0.36252 7.43164,-0.42843l1.11227,6.38527c-2.54312,0.03844 -5.4268,0.22519 -8.65103,0.56025c0,2.85072 0.00824,4.70725 0.02471,5.56962c1.80161,-0.14282 4.68529,-0.59322 8.65103,-1.35121l0.95574,6.18755c-2.91113,1.33472 -6.07495,2.00209 -9.49141,2.00209zM369.80294,166.03751c-0.12084,-4.96541 -0.18126,-9.43649 -0.18126,-13.4132c0,-3.98222 0.23892,-9.39253 0.7168,-16.23096c5.31695,-0.81292 10.58171,-1.21939 15.7943,-1.21939v6.9373c-3.74053,0 -6.70386,0.07964 -8.88995,0.23892c-0.09338,2.62002 -0.1483,4.42987 -0.16478,5.42955c1.49401,-0.21971 3.97123,-0.36252 7.43163,-0.42843l1.11227,6.38527c-2.54312,0.03844 -5.4268,0.22519 -8.65103,0.56025c0,2.85072 0.00824,4.70725 0.02471,5.56962c1.80161,-0.14282 4.68529,-0.59322 8.65103,-1.35121l0.95574,6.18755c-2.91113,1.33472 -6.07494,2.00209 -9.49141,2.00209zM389.53252,157.58423c-0.56576,-4.6743 -0.84863,-8.75263 -0.84863,-12.235c0,-3.48237 0.31034,-7.5305 0.93102,-12.14438l7.98366,1.53247c-1.54894,5.99804 -2.57608,13.82516 -3.0814,23.48134zM394.32767,160.22895c0.52729,0.96122 0.79095,1.6698 0.79095,3.21325c0,1.53796 -0.34054,2.55411 -1.02164,4.13602l-5.54492,-1.28529c0.42293,-1.56543 0.63441,-2.34814 0.63441,-3.4357c0,-1.09305 -0.04944,-1.82908 -0.14831,-3.29564z" fill="none" fill-rule="nonzero" stroke="#000000" stroke-width="7" stroke-linecap="square"/><path d="M255.1937,135.17397v6.9373c-3.71307,0 -6.68464,0.07964 -8.91467,0.23892c-0.02197,0.30209 -0.05493,1.48578 -0.09886,3.55104c-0.03844,2.05977 -0.15105,3.08965 -0.33779,3.08965c2.68594,-0.54927 4.15801,-0.82391 6.59129,-0.82391l-0.28009,6.36879c-3.80645,0.09887 -4.1553,0.26914 -6.12169,0.51081c0,3.86138 0.06866,7.79692 0.20597,11.80659l-7.4646,-0.83214c-0.06043,-5.06977 -0.09063,-9.56557 -0.09063,-13.48736c0,-3.92179 0.23894,-9.30191 0.7168,-16.14033c5.31695,-0.81292 10.58171,-1.21938 15.7943,-1.21938zM265.3742,167.3805c-2.98804,0 -5.47897,-1.29629 -7.47283,-3.88884c-1.98836,-2.59806 -2.98254,-6.44296 -2.98254,-11.53469c0,-5.09174 1.07108,-9.28817 3.21323,-12.5893c2.14216,-3.30111 4.72922,-4.95168 7.76121,-4.95168c3.03746,0 5.5339,1.30728 7.48932,3.92181c1.96089,2.61453 2.94134,6.44571 2.94134,11.4935c0,5.0423 -1.07932,9.22776 -3.23794,12.55634c-2.15314,3.32858 -4.72373,4.99289 -7.71177,4.99289zM265.95917,141.18849c-0.84587,0 -1.67253,0.97221 -2.47996,2.91663c-0.80192,1.94442 -1.2029,4.50677 -1.2029,7.68705c0,3.18028 0.33232,5.45426 0.99693,6.82196c0.66463,1.3622 1.38416,2.04328 2.15864,2.04328c0.77447,0 1.55718,-0.98045 2.34813,-2.94135c0.79096,-1.96089 1.18642,-4.53149 1.18642,-7.71177c0,-3.18028 -0.31857,-5.44328 -0.95574,-6.78899c-0.63716,-1.35121 -1.32099,-2.02682 -2.05152,-2.02682zM278.03367,166.22702c0.39547,-7.28333 0.59321,-13.5615 0.59321,-18.8345c0,-5.27849 -0.01648,-8.9339 -0.04944,-10.96621c3.54829,-1.67527 7.06088,-2.51292 10.53776,-2.51292c2.70791,0 4.98464,0.8706 6.83018,2.61179c1.85104,1.73569 2.77657,4.16622 2.77657,7.29157c0,3.63068 -2.21081,6.89061 -6.63245,9.77976c2.16962,2.71889 4.75669,6.24522 7.76119,10.57897l-5.47075,4.03715c-2.09821,-3.1638 -4.92696,-7.09384 -8.48623,-11.7901c-0.05493,2.66396 -0.1785,6.2095 -0.37074,10.63663zM286.08322,149.64178c1.14797,-0.54377 2.39209,-1.48029 3.7323,-2.80952c1.34572,-1.32924 2.01857,-2.46073 2.01857,-3.39449c0,-0.93376 -0.25816,-1.63957 -0.77448,-2.11745c-0.51081,-0.48335 -1.24685,-0.72504 -2.20806,-0.72504c-0.96121,0 -1.87576,0.1538 -2.74362,0.46139c0,4.34474 -0.00824,7.20645 -0.02472,8.5851zM327.32829,135.17397v6.9373c-3.71307,0 -6.68462,0.07964 -8.91466,0.23892c-0.02197,0.30209 -0.05493,1.48578 -0.09887,3.55104c-0.03844,2.05977 -0.15104,3.08965 -0.33779,3.08965c2.68593,-0.54927 5.24553,-0.82391 7.6788,-0.82391l-0.64259,6.36879c-3.80645,0.09887 -4.88031,0.26914 -6.84671,0.51081c0,3.86138 0.06867,7.79692 0.20599,11.80659l-7.4646,-0.83214c-0.06043,-5.06977 -0.09063,-9.56557 -0.09063,-13.48736c0,-3.92179 0.23892,-9.30191 0.71678,-16.14033c5.31695,-0.81292 10.58171,-1.21938 15.7943,-1.21938zM328.19041,166.22702c0.39547,-7.28333 0.59321,-13.5615 0.59321,-18.8345c0,-5.27849 -0.01648,-8.9339 -0.04943,-10.96621c3.54829,-1.67527 7.06088,-2.51292 10.53777,-2.51292c2.70791,0 4.98465,0.8706 6.83019,2.61179c1.85104,1.73569 2.77657,4.16622 2.77657,7.29157c0,3.63068 -2.21081,6.89061 -6.63245,9.77976c2.16962,2.71889 4.75669,6.24522 7.76119,10.57897l-5.47074,4.03715c-2.09821,-3.1638 -4.92697,-7.09384 -8.48624,-11.7901c-0.05493,2.66396 -0.1785,6.2095 -0.37074,10.63663zM336.23999,149.64178c1.14797,-0.54377 2.39207,-1.48029 3.7323,-2.80952c1.34572,-1.32924 2.01857,-2.46073 2.01857,-3.39449c0,-0.93376 -0.25815,-1.63957 -0.77447,-2.11745c-0.51081,-0.48335 -1.24685,-0.72504 -2.20806,-0.72504c-0.96121,0 -1.87575,0.1538 -2.74361,0.46139c0,4.34474 -0.00824,7.20645 -0.02471,8.5851zM350.94669,166.03751c-0.12084,-4.96541 -0.18126,-9.43649 -0.18126,-13.4132c0,-3.98222 0.23892,-9.39253 0.7168,-16.23096c5.31695,-0.81292 10.58171,-1.21939 15.79429,-1.21939v6.9373c-3.74053,0 -6.70385,0.07964 -8.88995,0.23892c-0.09338,2.62002 -0.1483,4.42987 -0.16477,5.42955c1.49403,-0.21971 3.97123,-0.36252 7.43164,-0.42843l1.11227,6.38527c-2.54312,0.03844 -5.4268,0.22519 -8.65103,0.56025c0,2.85072 0.00824,4.70725 0.02471,5.56962c1.80161,-0.14282 4.68529,-0.59322 8.65103,-1.35121l0.95574,6.18755c-2.91113,1.33472 -6.07495,2.00209 -9.49141,2.00209zM369.80294,166.03751c-0.12084,-4.96541 -0.18126,-9.43649 -0.18126,-13.4132c0,-3.98222 0.23892,-9.39253 0.7168,-16.23096c5.31695,-0.81292 10.58171,-1.21939 15.7943,-1.21939v6.9373c-3.74053,0 -6.70386,0.07964 -8.88995,0.23892c-0.09338,2.62002 -0.1483,4.42987 -0.16478,5.42955c1.49401,-0.21971 3.97123,-0.36252 7.43163,-0.42843l1.11227,6.38527c-2.54312,0.03844 -5.4268,0.22519 -8.65103,0.56025c0,2.85072 0.00824,4.70725 0.02471,5.56962c1.80161,-0.14282 4.68529,-0.59322 8.65103,-1.35121l0.95574,6.18755c-2.91113,1.33472 -6.07494,2.00209 -9.49141,2.00209zM389.53252,157.58423c-0.56576,-4.6743 -0.84863,-8.75263 -0.84863,-12.235c0,-3.48237 0.31034,-7.5305 0.93102,-12.14438l7.98366,1.53247c-1.54894,5.99804 -2.57608,13.82516 -3.0814,23.48134zM394.32767,160.22895c0.52729,0.96122 0.79095,1.6698 0.79095,3.21325c0,1.53796 -0.34054,2.55411 -1.02164,4.13602l-5.54492,-1.28529c0.42293,-1.56543 0.63441,-2.34814 0.63441,-3.4357c0,-1.09305 -0.04944,-1.82908 -0.14831,-3.29564z" fill="url(#color-2)" fill-rule="nonzero" stroke="none" stroke-width="1" stroke-linecap="square"/><path d="M217.71054,221.29991c-9.55446,-12.31013 -7.32058,-30.0349 4.98957,-39.58937c12.31013,-9.55448 30.03491,-7.32058 39.58937,4.98957c9.55446,12.31013 7.32058,30.03491 -4.98957,39.58937c-12.31013,9.55448 -30.03491,7.32058 -39.58937,-4.98957z" fill="#000000" fill-rule="nonzero" stroke="none" stroke-width="0" stroke-linecap="butt"/><path d="M222.16914,221.8309c-9.84773,-9.84773 -9.84773,-25.81403 0,-35.66176c9.84773,-9.84773 25.81403,-9.84773 35.66176,0c9.84773,9.84773 9.84773,25.81403 0,35.66176c-9.84773,9.84773 -25.81403,9.84773 -35.66176,0z" fill="url(#color-3)" fill-rule="nonzero" stroke="none" stroke-width="0" stroke-linecap="butt"/><path d="M224.25326,219.74677c-8.69668,-8.69668 -8.69668,-22.79681 0,-31.49351c8.69668,-8.69668 22.79681,-8.69668 31.49351,0c8.69668,8.69668 8.69668,22.79681 0,31.49351c-8.69668,8.69668 -22.79681,8.69668 -31.49351,0z" fill="url(#color-4)" fill-rule="nonzero" stroke="none" stroke-width="0" stroke-linecap="butt"/><path d="M245.89998,203.16508l-4.57315,-3.71964l9.49038,-8.33876c0,0 0.88133,-0.9298 1.51299,-0.65955c1.01971,0.43626 0.5648,1.49485 0.5648,1.49485z" data-paper-data="{&quot;index&quot;:null}" fill="#ffffff" fill-rule="nonzero" stroke="none" stroke-width="1" stroke-linecap="butt"/><path d="M226.16608,212.74505c0.31707,-0.31855 0.67512,-0.59216 1.01292,-0.88846c1.0707,-0.93933 2.14141,-1.87818 3.21211,-2.81751c0.75117,-0.65896 3.19827,-2.80545 3.19827,-2.80545l5.21183,8.30472c0,0 -0.02026,0.06001 -0.16054,0.2854c-0.29879,0.48005 -0.48795,0.98181 -0.92255,1.37394c-0.95267,0.85933 -2.29895,1.24751 -3.53609,1.45642c-1.62088,0.27409 -3.32324,0.26225 -4.93818,-0.04988c-1.18825,-0.22964 -2.4886,-0.6361 -3.37262,-1.50679c-0.31508,-0.31015 -0.56894,-0.69438 -0.65438,-1.13393c-0.05185,-0.26718 -0.04001,-0.54473 0.03556,-0.80599c0.08693,-0.30274 0.4109,-0.90773 0.91366,-1.41247zM231.92809,212.65323c-2.87883,0 -5.21257,0.8939 -5.21257,1.99657c0,1.10268 2.33375,1.99658 5.21257,1.99658c2.87883,0 5.21257,-0.8939 5.21257,-1.99658c0,-1.10268 -2.33374,-1.99657 -5.21257,-1.99657z" fill="#ffffff" fill-rule="nonzero" stroke="none" stroke-width="0.5" stroke-linecap="butt"/><path d="M252.71122,211.75908l0.96982,0.85082c0.35209,0.30863 0.63256,0.68638 0.8681,1.0913c0.00098,0.00197 0.00247,0.00395 0.00345,0.00642c0.16394,0.27949 0.26221,0.5965 0.26221,0.92192c0,2.13816 -3.18601,2.94058 -4.79283,3.09119c-2.4211,0.22665 -5.31476,0.17234 -7.32256,-1.19894c-0.65873,-0.44986 -0.93673,-1.05377 -1.33424,-1.69175c-0.35653,-0.57232 -0.71305,-1.14512 -1.06908,-1.71744c-3.07638,-4.94047 -6.15276,-9.88094 -9.22863,-14.82142c-1.42264,-2.2853 -2.84576,-4.57012 -4.26841,-6.85542c-0.4064,-0.65231 0.76292,-1.73768 1.51005,-1.08242c1.8952,1.66213 3.78992,3.32476 5.68513,4.98689c4.72813,4.14743 9.45677,8.29535 14.1849,12.44278c1.51054,1.32537 3.02107,2.65072 4.53209,3.97608zM248.14525,212.65323c-2.87883,0 -5.21257,0.8939 -5.21257,1.99657c0,1.10268 2.33375,1.99658 5.21257,1.99658c2.87883,0 5.21257,-0.8939 5.21257,-1.99658c0,-1.10268 -2.33374,-1.99657 -5.21257,-1.99657z" data-paper-data="{&quot;index&quot;:null}" fill="#ffffff" fill-rule="nonzero" stroke="none" stroke-width="1" stroke-linecap="butt"/><path d="M342.32955,207.09373l-11.23941,5.70517c-0.72009,0.36552 -1.60015,0.07808 -1.96569,-0.64201c-0.11517,-0.22691 -0.16915,-0.47993 -0.15657,-0.73409l0.61802,-12.4919c0.0399,-0.80657 0.7261,-1.42807 1.53266,-1.38816c0.25415,0.01257 0.50062,0.09126 0.71505,0.22827l10.6214,6.78671c0.6805,0.43481 0.10735,2.41783 -0.12547,2.536z" fill="none" fill-rule="evenodd" stroke="#000000" stroke-width="6" stroke-linecap="butt"/><path d="M342.89986,206.57718c-0.14058,0.22001 -0.3375,0.39837 -0.57032,0.51654l-11.23941,5.70517c-0.72009,0.36552 -1.60015,0.07808 -1.96569,-0.64201c-0.11517,-0.22691 -0.16915,-0.47993 -0.15657,-0.73409l0.61802,-12.4919c0.0399,-0.80657 0.7261,-1.42807 1.53266,-1.38816c0.25415,0.01257 0.50062,0.09126 0.71505,0.22827l10.6214,6.78671c0.6805,0.43481 0.87966,1.33896 0.44485,2.01946z" fill="#ffffff" fill-rule="evenodd" stroke="none" stroke-width="1" stroke-linecap="butt"/><path d="M361.49016,222.73611c-0.14505,2.93198 -2.63948,5.19122 -5.57146,5.04616l-41.53332,-2.05481c-2.93198,-0.14506 -5.19122,-2.63948 -5.04616,-5.57146l1.57589,-31.85287c0.14505,-2.93198 2.63948,-5.19122 5.57145,-5.04616l41.53332,2.05481c2.93198,0.14506 5.19122,2.63948 5.04616,5.57146zM357.75723,190.62059l-41.53332,-2.05481l-1.57588,31.85287l41.53332,2.05481z" fill="none" fill-rule="nonzero" stroke="#000000" stroke-width="6" stroke-linecap="butt"/><path d="M363.06605,190.88324l-1.57589,31.85287c-0.14505,2.93198 -2.63948,5.19122 -5.57146,5.04616l-41.53332,-2.05481c-2.93198,-0.14506 -5.19122,-2.63948 -5.04616,-5.57146l1.57589,-31.85287c0.14505,-2.93198 2.63948,-5.19122 5.57145,-5.04616l41.53332,2.05481c2.93198,0.14506 5.19122,2.63948 5.04616,5.57146zM357.75723,190.62059l-41.53332,-2.05481l-1.57588,31.85287l41.53332,2.05481z" fill="#ffffff" fill-rule="nonzero" stroke="none" stroke-width="1" stroke-linecap="butt"/><g fill-rule="nonzero" stroke-linecap="butt"><path d="M132.64702,189.03103c0,0 -0.00419,-0.14823 0.20515,-0.16767c1.25983,-0.11702 13.26284,-1.2319 13.26284,-1.2319c2.94233,-3.70997 7.84043,-5.2653 12.38396,-3.9321c4.54353,1.33321 7.82504,5.28848 8.29623,10.00008c1.77592,7.03353 3.04164,14.18625 3.78726,21.4021c0.40099,4.3171 -1.12612,7.24765 -4.4688,8.25987c-0.62764,0.19059 -1.27319,0.31711 -1.92639,0.37701c-3.14859,0.35959 -6.14484,-1.44474 -7.29961,-4.39593c-0.87966,-1.91553 -2.38017,-4.51154 -3.29804,-6.06366c-3.86327,2.19825 -8.77519,0.38621 -10.2847,-3.79454l-4.03166,0.37448c-0.71071,4.39804 -5.21963,7.08829 -9.42773,5.6255c-0.61465,1.71246 -1.6118,4.54044 -2.12526,6.56739c-0.59038,3.10671 -3.19362,5.42947 -6.34725,5.6635c-0.64724,0.05945 -1.29851,0.0535 -1.94459,-0.01745c-3.48479,-0.32407 -5.53049,-2.97674 -5.93148,-7.29384c-0.59613,-7.22973 -0.66985,-14.49317 -0.21976,-21.73346c-0.40464,-4.71777 2.09225,-9.20976 6.3125,-11.35698c1.31883,-0.67101 2.72338,-1.0711 4.14076,-1.20942c3.11824,-0.30425 6.29755,0.65897 8.75556,2.79337z" fill="none" stroke="#000000" stroke-width="6.5"/><path d="M132.486,188.88613l13.62901,-1.26591c2.94233,-3.70997 7.84044,-5.26529 12.38396,-3.93209c4.54353,1.33321 7.82503,5.28848 8.29623,10.00008c1.77592,7.03353 3.04164,14.18625 3.78725,21.4021c0.40099,4.3171 -1.12611,7.24765 -4.4688,8.25986c-0.62764,0.19059 -1.27319,0.31711 -1.92639,0.37701c-3.14859,0.35959 -6.14484,-1.44474 -7.29961,-4.39593c-0.87966,-1.91553 -2.38016,-4.51154 -3.29804,-6.06366c-3.86327,2.19825 -8.77518,0.3862 -10.2847,-3.79454l-4.03166,0.37448c-0.71071,4.39804 -5.21962,7.08829 -9.42773,5.6255c-0.61465,1.71246 -1.6118,4.54045 -2.12526,6.56739c-0.59038,3.10671 -3.19361,5.42947 -6.34725,5.66349c-0.64724,0.05945 -1.29851,0.0535 -1.94459,-0.01745c-3.48479,-0.32407 -5.53049,-2.97674 -5.93148,-7.29385c-0.59613,-7.22973 -0.66985,-14.49317 -0.21976,-21.73346c-0.40464,-4.71777 2.09225,-9.20976 6.31249,-11.35698c1.31883,-0.67101 2.72338,-1.07109 4.14077,-1.20941c3.11824,-0.30425 6.29755,0.65896 8.75556,2.79336z" fill="#ffffff" stroke="none" stroke-width="9.34454"/><path d="M152.77234,187.5397c0.53927,-0.56274 1.29627,-0.86364 2.07471,-0.82467c1.40777,0.071 2.52148,1.21761 2.55145,2.62686c0.02999,1.40925 -1.03397,2.60218 -2.43745,2.73295c-1.47773,0.13717 -2.78692,-0.94948 -2.92426,-2.4272c-0.07209,-0.77607 0.19629,-1.54521 0.73556,-2.10795zM121.62701,191.57275l5.35189,-0.49711l0.33136,3.5675l3.56793,-0.33139l0.4971,5.35189l-3.56794,0.3314l0.3314,3.56793l-5.3519,0.4971l-0.3314,-3.56793l-3.56793,0.33139l-0.4971,-5.35189l3.56793,-0.3314zM155.60428,189.31672c-0.04563,-0.49263 -0.48197,-0.85498 -0.97459,-0.80936c-0.23658,0.02192 -0.45475,0.13691 -0.60655,0.31969c-0.1518,0.18278 -0.22476,0.41837 -0.20283,0.65494c0.04565,0.49263 0.48199,0.85497 0.97462,0.80934c0.49263,-0.04564 0.85498,-0.48198 0.80935,-0.97461zM123.57663,193.19059l0.33141,3.56792l-3.56793,0.33141l0.1657,1.78397l3.56793,-0.33141l0.3314,3.56793l1.78396,-0.1657l-0.3314,-3.56793l3.56793,-0.3314l-0.1657,-1.78397l-3.56793,0.3314l-0.3314,-3.56793zM147.91767,193.38848c0.53936,-0.56276 1.29651,-0.86361 2.07502,-0.82451c1.40786,0.07101 2.52157,1.21775 2.55142,2.62708c0.02985,1.40933 -1.03429,2.60221 -2.43788,2.73278c-1.47773,0.13717 -2.78692,-0.94948 -2.92426,-2.4272c-0.07211,-0.77616 0.19632,-1.54539 0.73568,-2.10816zM158.62103,192.39433c0.53936,-0.56276 1.29651,-0.86361 2.07502,-0.82451c1.40777,0.071 2.52145,1.21761 2.55143,2.62685c0.02998,1.40923 -1.03396,2.60217 -2.43744,2.73296c-0.7097,0.06599 -1.41655,-0.15266 -1.96504,-0.60784c-0.54849,-0.45519 -0.89369,-1.10962 -0.95966,-1.81932c-0.07211,-0.77616 0.19633,-1.54538 0.7357,-2.10815zM150.74983,195.16478c-0.04587,-0.4926 -0.48239,-0.85476 -0.97499,-0.80889c-0.23657,0.02203 -0.45469,0.13714 -0.60639,0.31999c-0.1517,0.18286 -0.22454,0.41848 -0.2025,0.65504c0.04589,0.4926 0.48242,0.85474 0.97502,0.80886c0.4926,-0.04589 0.85474,-0.4824 0.80887,-0.97502zM160.47863,193.3617c-0.23665,0.02192 -0.4549,0.13697 -0.60668,0.31985c-0.1518,0.18288 -0.22469,0.41858 -0.20265,0.65522c0.04589,0.49255 0.48232,0.85467 0.97487,0.80887c0.49255,-0.0458 0.85476,-0.48217 0.80905,-0.97472c-0.04571,-0.49256 -0.48202,-0.85484 -0.97459,-0.80923zM153.7667,198.24333c0.53925,-0.56264 1.29621,-0.86348 2.07457,-0.82451c1.40777,0.07101 2.52145,1.21762 2.55142,2.62685c0.02998,1.40923 -1.03397,2.60216 -2.43743,2.73295c-0.70971,0.06589 -1.41653,-0.15287 -1.96494,-0.60815c-0.54842,-0.45527 -0.8935,-1.10976 -0.95936,-1.81948c-0.07195,-0.77601 0.19649,-1.54503 0.73575,-2.10767zM156.59844,200.02005c-0.04563,-0.49263 -0.48197,-0.85499 -0.9746,-0.80936c-0.23658,0.02192 -0.45475,0.13691 -0.60654,0.31969c-0.1518,0.18278 -0.22475,0.41836 -0.20283,0.65494c0.04565,0.49263 0.48199,0.85498 0.97461,0.80934c0.49263,-0.04564 0.85498,-0.48198 0.80935,-0.97461zM128.78044,207.52395c0.42852,-1.3845 1.64885,-2.37454 3.09196,-2.50843c1.97039,-0.18282 3.71593,1.26621 3.8989,3.23657c0.13401,1.44309 -0.61449,2.82481 -1.89646,3.50083c-1.28197,0.67603 -2.84494,0.51324 -3.96009,-0.41246c-1.11515,-0.9257 -1.56284,-2.432 -1.13432,-3.81651zM146.47522,207.25782c-0.18303,-1.97045 1.26595,-3.7162 3.23639,-3.89926c0.94628,-0.08791 1.88871,0.2037 2.61998,0.81066c0.73128,0.60697 1.19146,1.47959 1.27934,2.42587c0.18298,1.97046 -1.26603,3.71617 -3.23649,3.89917c-1.97046,0.18301 -3.71619,-1.26598 -3.89922,-3.23643zM133.30036,207.16632c-0.39264,-0.30388 -0.89375,-0.43119 -1.38382,-0.35159c-0.95549,0.15245 -1.61731,1.03601 -1.49493,1.99582c0.12238,0.9598 0.98472,1.64904 1.94789,1.55687c0.47314,-0.04394 0.90944,-0.27404 1.21294,-0.63967c0.30348,-0.36564 0.44928,-0.83685 0.40532,-1.31c-0.04584,-0.49437 -0.29476,-0.94755 -0.6874,-1.25142zM151.13956,205.50935c-0.39264,-0.30388 -0.89376,-0.43119 -1.38382,-0.35159c-0.95549,0.15245 -1.61731,1.03602 -1.49493,1.99582c0.12237,0.9598 0.98472,1.64904 1.94789,1.55687c0.47314,-0.04394 0.90944,-0.27404 1.21293,-0.63967c0.30348,-0.36564 0.44928,-0.83685 0.40532,-1.31c-0.04584,-0.49437 -0.29476,-0.94755 -0.6874,-1.25143z" fill="#000000" stroke="none" stroke-width="9.34454"/><path d="M161.46562,194.16977c0.04571,0.49256 -0.32774,0.94248 -0.82028,0.98828c-0.49255,0.04579 -0.94254,-0.32757 -0.98842,-0.82011c-0.02204,-0.23664 0.05367,-0.48145 0.20546,-0.66433c0.1518,-0.18288 0.37846,-0.30238 0.61512,-0.3243c0.49257,-0.04562 0.94242,0.3279 0.98814,0.82046z" data-paper-data="{&quot;noHover&quot;:false,&quot;origItem&quot;:[&quot;Path&quot;,{&quot;applyMatrix&quot;:true,&quot;segments&quot;:[[[357.74897,136.43652],[1.98674,0.00053],[-0.95452,-0.00025]],[[355.20399,137.49029],[0.67495,-0.67495],[-0.67494,0.67496]],[[354.15023,140.03527],[-0.00025,-0.95452],[0.00054,1.98675]],[[357.74833,143.63209],[-1.98675,0.00017],[1.98676,-0.00018]],[[361.34579,140.03463],[-0.00017,1.98674],[0.00018,-1.98675]]],&quot;closed&quot;:true,&quot;fillColor&quot;:[1,1,1],&quot;strokeWidth&quot;:9.34454}]}" fill="#ffffff" stroke="#ffffff" stroke-width="1.5"/><path d="M155.61667,189.31557c0.04563,0.49263 -0.32796,0.94252 -0.82059,0.98815c-0.49263,0.04564 -0.94252,-0.32796 -0.98816,-0.82058c-0.02193,-0.23658 0.05386,-0.48126 0.20564,-0.66404c0.15179,-0.18278 0.37839,-0.30222 0.61497,-0.32413c0.49264,-0.04563 0.94251,0.32798 0.98814,0.82061z" data-paper-data="{&quot;noHover&quot;:false,&quot;origItem&quot;:[&quot;Path&quot;,{&quot;applyMatrix&quot;:true,&quot;segments&quot;:[[[339.75865,118.44983],[0,0],[0.00049,-1.98698]],[[336.16182,114.85115],[1.98699,0.00054],[-0.95421,-0.00025]],[[333.61748,115.90429],[0.6749,-0.67457],[-0.67491,0.67456]],[[332.56309,118.44812],[0.00021,-0.95421],[-0.00045,1.98698]],[[336.16001,122.04671],[-1.98699,-0.00047],[1.98698,0.00047]],[[339.75864,118.44983],[-0.00051,1.98698],[0,0]]],&quot;closed&quot;:true,&quot;fillColor&quot;:[1,1,1],&quot;strokeWidth&quot;:9.34454}]}" fill="#ffffff" stroke="#ffffff" stroke-width="1.5"/><path d="M150.76223,195.16362c0.04587,0.4926 -0.32752,0.94268 -0.82011,0.98855c-0.4926,0.04589 -0.94268,-0.3275 -0.98856,-0.8201c-0.02204,-0.23657 0.05362,-0.4813 0.20532,-0.66415c0.1517,-0.18286 0.37824,-0.30241 0.61481,-0.32443c0.4926,-0.04587 0.94267,0.32752 0.98855,0.82012z" data-paper-data="{&quot;noHover&quot;:false,&quot;origItem&quot;:[&quot;Path&quot;,{&quot;applyMatrix&quot;:true,&quot;segments&quot;:[[[318.17325,140.0334],[0,0],[-0.00048,-1.98699]],[[314.57466,136.43648],[1.98699,-0.00045],[-0.95421,0.00021]],[[312.03083,137.49088],[0.67457,-0.6749],[-0.67457,0.6749]],[[310.9777,140.03523],[-0.00025,-0.95421],[0.00054,1.98698]],[[314.5764,143.63205],[-1.98699,0.00051],[1.98698,-0.00051]],[[318.17326,140.0334],[0.00048,1.98699],[0,0]]],&quot;closed&quot;:true,&quot;fillColor&quot;:[1,1,1],&quot;strokeWidth&quot;:9.34454}]}" fill="#ffffff" stroke="#ffffff" stroke-width="1.5"/><path d="M156.61083,200.01889c0.04563,0.49263 -0.32797,0.9425 -0.8206,0.98815c-0.49263,0.04564 -0.94252,-0.32795 -0.98816,-0.82058c-0.02193,-0.23658 0.05386,-0.48127 0.20564,-0.66405c0.15179,-0.18278 0.37839,-0.30222 0.61497,-0.32413c0.49264,-0.04563 0.94251,0.32798 0.98814,0.82061z" data-paper-data="{&quot;noHover&quot;:false,&quot;origItem&quot;:[&quot;Path&quot;,{&quot;applyMatrix&quot;:true,&quot;segments&quot;:[[[339.75865,161.62233],[0,0],[0.00049,-1.98699]],[[336.16182,158.02363],[1.98699,0.00053],[-0.95421,-0.00026]],[[333.61748,159.07678],[0.6749,-0.67456],[-0.67491,0.67455]],[[332.56309,161.6206],[0.00021,-0.95421],[-0.00045,1.98698]],[[336.16001,165.21919],[-1.98699,-0.00048],[1.98698,0.00047]],[[339.75864,161.62231],[-0.00051,1.98699],[0,0]]],&quot;closed&quot;:true,&quot;fillColor&quot;:[1,1,1],&quot;strokeWidth&quot;:9.34454}]}" fill="#ffffff" stroke="#ffffff" stroke-width="1.5"/><path d="M151.14719,205.49951c0.39264,0.30388 0.64632,0.76574 0.69217,1.26011c0.04396,0.47314 -0.10466,0.95345 -0.40814,1.31909c-0.30348,0.36564 -0.7482,0.60018 -1.22135,0.64412c-0.96317,0.09217 -1.83904,-0.60788 -1.96141,-1.56769c-0.12237,-0.9598 0.54981,-1.85723 1.5053,-2.00969c0.49007,-0.07961 1.0008,0.05017 1.39342,0.35405z" data-paper-data="{&quot;noHover&quot;:false,&quot;origItem&quot;:[&quot;Path&quot;,{&quot;applyMatrix&quot;:true,&quot;segments&quot;:[[[315.88931,181.54666],[0,0],[-1.45728,-1.36107]],[[310.48593,179.62662],[1.98937,-0.13633],[-3.87765,0.25476]],[[303.7663,187.05271],[-0.13287,-3.88375],[0.13287,3.88375]],[[310.97772,194.00223],[-3.88601,0.01083],[1.90844,0.00004]],[[316.06591,191.8947],[-1.34946,1.34946],[1.34946,-1.34947]],[[318.17342,186.8065],[0.00004,1.90845],[0.00032,-1.99402]],[[315.88931,181.54665],[1.45729,1.36106],[0,0]]],&quot;closed&quot;:true,&quot;fillColor&quot;:[1,1,1],&quot;strokeWidth&quot;:9.34454}]}" fill="#ffffff" stroke="none" stroke-width="4.67227"/><path d="M133.30799,207.15649c0.39264,0.30388 0.64632,0.76573 0.69216,1.26011c0.04396,0.47314 -0.10465,0.95346 -0.40813,1.3191c-0.30348,0.36564 -0.74821,0.60019 -1.22135,0.64412c-0.96317,0.09217 -1.83904,-0.60788 -1.96141,-1.56769c-0.12238,-0.9598 0.54981,-1.85722 1.50529,-2.00969c0.49007,-0.07961 1.0008,0.05015 1.39342,0.35404z" data-paper-data="{&quot;noHover&quot;:false,&quot;origItem&quot;:[&quot;Path&quot;,{&quot;applyMatrix&quot;:true,&quot;segments&quot;:[[[243.93392,181.54665],[0,0],[-1.45728,-1.36107]],[[238.53054,179.62661],[1.98936,-0.13632],[-3.87766,0.25477]],[[231.81091,187.05271],[-0.13287,-3.88375],[0.13287,3.88375]],[[239.02232,194.00223],[-3.88601,0.01083],[1.90844,0.00004]],[[244.11051,191.89471],[-1.34946,1.34946],[1.34945,-1.34947]],[[246.21802,186.8065],[0.00005,1.90845],[0.00032,-1.99402]],[[243.93391,181.54666],[1.45729,1.36106],[0,0]]],&quot;closed&quot;:true,&quot;fillColor&quot;:[1,1,1],&quot;strokeWidth&quot;:9.34454}]}" fill="#ffffff" stroke="none" stroke-width="4.67227"/><path d="M125.3619,193.01251l0.33805,3.57073l3.5719,-0.32539l0.16614,1.78883l-3.57072,0.33805l0.32539,3.5719l-1.78883,0.16615l-0.33804,-3.57073l-3.57191,0.32539l-0.16615,-1.78883l3.57073,-0.33806l-0.32539,-3.57191z" data-paper-data="{&quot;noHover&quot;:false,&quot;origItem&quot;:[&quot;Path&quot;,{&quot;applyMatrix&quot;:true,&quot;segments&quot;:[[210.23947,122.04511],[210.23947,136.43653],[195.84803,136.43653],[195.84803,143.63225],[210.23947,143.63225],[210.23947,158.02368],[217.43518,158.02368],[217.43518,143.63225],[231.82661,143.63225],[231.82661,136.43653],[217.43518,136.43653],[217.43518,122.04511]],&quot;closed&quot;:true,&quot;fillColor&quot;:[1,1,1],&quot;strokeWidth&quot;:9.34454}]}" fill="#ffffff" stroke="none" stroke-width="4.67227"/></g></g></g></svg>
