<svg xmlns="http://www.w3.org/2000/svg" xmlns:xlink="http://www.w3.org/1999/xlink" x="0px" y="0px" viewBox="0 0 160 160" style="enable-background:new 0 0 396 160;" xml:space="preserve" preserveAspectRatio="none" width="250" height="250"><style type="text/css">
        .st0{fill:#FB4725;}
        .st1{fill:#FF7B39;}
        .st2{fill:#FC9B3A;}
        .st3{fill:#22B45C;}
        .st4{fill:#91CA06;}
        .st5{fill:#D6D230;}
        .st6{fill:#0066B6;}
        .st7{fill:#429ACC;}
        .st8{fill:#6CBADD;}
        .st9{fill:#FFFFFF;}
        .st10{opacity:0.2;fill:#F15A24;}
        .st11{display:none;opacity:0.25;}
        .st12{display:inline;fill:#CCCCCC;}
        .st13{fill:#5C95DA;}
        .st14{opacity:0.25;fill:url(#SVGID_1_);}
        .st15{fill:url(#SVGID_2_);}
        .st16{fill:url(#SVGID_3_);}
        .st17{opacity:0.2;fill:url(#SVGID_4_);}
        .st18{fill:none;}
        .st19{opacity:0.15;fill:url(#SVGID_5_);}
        .st20{opacity:0.5;fill:url(#SVGID_6_);}
        .st21{fill:url(#SVGID_7_);}
        .st22{opacity:0.03;fill:none;stroke:#FFFFFF;stroke-width:2;stroke-miterlimit:10;}
        .st23{opacity:0.5;fill:url(#SVGID_8_);}
        .st24{fill:url(#SVGID_9_);}
        .st25{fill:url(#SVGID_10_);}
        .st26{fill:url(#SVGID_11_);}
        .st27{fill:url(#SVGID_12_);}
        .st28{fill:url(#SVGID_13_);}
        .st29{display:none;}
        .st30{display:inline;opacity:0.25;fill:#808080;}
        .st31{display:inline;opacity:0.25;fill:#FF0000;}
        .st32{display:inline;fill:#FFFFFF;}
        .st33{display:inline;opacity:0.2;fill:#F15A24;}
        .st34{display:inline;opacity:0.2;}
</style><g id="Layer_1"><g class="st11"><rect class="st12" width="160" height="160"></rect></g><g><g><rect x="8" y="8" class="st0" width="43.56" height="44"></rect><rect x="57.19" y="8" class="st1" width="45.02" height="44"></rect><rect x="107.82" y="8" class="st2" width="43.18" height="44"></rect><rect x="8" y="57.62" class="st3" width="43.56" height="45.02"></rect><rect x="57.19" y="57.62" class="st4" width="45.02" height="45.02"></rect><rect x="107.82" y="57.62" class="st5" width="43.18" height="45.02"></rect><rect x="8" y="108" class="st6" width="43.56" height="44"></rect><rect x="57.19" y="108" class="st7" width="45.02" height="44"></rect><rect x="107.41" y="108" class="st8" width="43.59" height="44"></rect></g><polygon class="st9" points="26.6,43.94 34.04,43.94 34.04,21.9 42.34,21.9 42.34,15.61 18.02,15.61 18.02,21.9 26.6,21.9          "></polygon><rect x="76.11" y="15.61" class="st9" width="7.44" height="28.33"></rect><polygon class="st9" points="123.62,24.65 132.32,43.94 142.22,43.94 142.22,15.61 135.35,15.61 135.35,35.09 126.77,15.61
                    116.75,15.61 116.75,43.94 123.62,43.94          "></polygon><polygon class="st9" points="42.74,65.69 33.73,65.69 25.17,76.1 25.17,65.69 17.73,65.69 17.73,94.02 25.17,94.02 25.17,82.54
                    34.3,94.02 43.66,94.02 30.75,79.02              "></polygon><polygon class="st9" points="88.7,88.58 76.68,88.58 76.68,82.29 87.84,82.29 87.84,76.85 76.68,76.85 76.68,71.41 88.13,71.41
                    88.13,65.69 69.24,65.69 69.24,94.02 88.7,94.02          "></polygon><path class="st9" d="M139.39,73.5c0-4.87-3.81-7.81-10.19-7.81h-11.28v28.33h7.15V82.86h1.49c2.46,0,2.98,0.77,4.15,3.92
                    l2.58,7.24h8.01l-3.81-9.64c-0.8-1.97-1.57-3.32-2.86-4.18C137.7,79.05,139.39,76.68,139.39,73.5z M131.95,74.07
                    c0,2.8-2.66,3.38-4.89,3.38h-1.97v-6.3h2.15C130.63,71.13,131.95,71.96,131.95,74.07z"></path><path class="st9" d="M38.28,137.69c-1.57,0.72-3.41,1.06-5.47,1.06c-5.35,0-8.56-3.29-8.56-8.79c0-5.27,3.49-8.79,8.67-8.79
                    c1.75,0,3.72,0.37,5.27,1.03l0.94,0.4l0.31-6.04l-0.54-0.17c-2.12-0.63-4.69-1-6.93-1c-8.93,0-15.43,6.12-15.43,14.57
                    c0.03,4.49,1.52,8.21,4.38,10.79c2.72,2.46,6.55,3.78,11.08,3.78c2.6,0,5.12-0.43,7.07-1.17l0.49-0.2l-0.34-5.9L38.28,137.69z"></path><path class="st9" d="M75.51,115.77L64.72,144.1h7.41l2.43-6.87h10.42l2.38,6.87h7.76L84.3,115.77H75.51z M83.24,131.8h-6.93
                    l3.52-9.47L83.24,131.8z"></path><path class="st9" d="M127.22,115.77h-10.19v28.33h9.44c9.79,0,15.65-5.44,15.65-14.54C142.13,120.69,136.84,115.77,127.22,115.77z
                     M134.46,129.56c0,5.87-3.06,9.1-8.84,9.1h-1.14v-17.46h1.83C131.57,121.21,134.46,124.27,134.46,129.56z"></path></g></g><g id="Layer_2" class="st29"><rect x="148" y="-8" class="st30" width="32" height="160"></rect><rect x="364" y="0" class="st30" width="32" height="160"></rect><rect x="92" y="58" class="st31" width="306" height="45"></rect><rect x="322" class="st30" width="32" height="28"></rect><rect x="148" y="144" class="st32" width="16" height="16"></rect><rect x="164" y="128" class="st32" width="16" height="16"></rect><rect x="180" y="120" class="st32" width="16" height="16"></rect><rect x="196" y="108" class="st32" width="12" height="12"></rect><rect x="348" y="120" class="st32" width="16" height="16"></rect><rect x="336" y="108" class="st32" width="12" height="12"></rect><rect x="180" y="28" class="st32" width="16" height="16"></rect><rect x="148" class="st32" width="16" height="16"></rect><rect x="164" y="16" class="st32" width="16" height="16"></rect><rect x="196" y="44" class="st32" width="12" height="12"></rect></g></svg>